M48
;Layer_Color=9474304
;FILE_FORMAT=4:4
METRIC,LZ
;TYPE=PLATED
T1F00S00C0.3048
T2F00S00C0.7500
T3F00S00C0.7600
T4F00S00C0.7620
T5F00S00C1.0160
T6F00S00C1.1000
T7F00S00C1.6000
T8F00S00C3.2000
T9F00S00C3.2500
%
T01
X0157353Y00304292
Y00311404
Y00318262
Y0032512
Y00331978
X01580642
Y0032512
Y00318262
Y00311404
Y00304292
X015875
Y00311404
Y00318262
Y0032512
Y00331978
X01594612
Y0032512
Y00318262
Y00311404
X01601724
Y00318262
Y0032512
Y00331978
Y00304292
X01594612
X01669288Y00305308
Y00312166
X016764
Y00305308
Y0029845
Y00291592
X01669288
Y0029845
X0169799Y00271018
X0171958Y00271272
Y00264414
Y00257556
Y00250698
Y00243586
X01726692
X0173355
X01740662
X01747774
Y00250698
Y00257556
Y00264414
Y00271272
X01740662
Y00264414
Y00257556
Y00250698
X0173355
X01726692
Y00257556
X0173355
Y00264414
X01726692
Y00271272
X0173355
Y00336042
X01740408
Y00343154
Y00350012
Y0035687
Y00363728
X0173355
Y0035687
Y00350012
Y00343154
X01726438
Y00350012
Y0035687
Y00363728
X0174752
Y0035687
Y00350012
Y00343154
X01754632
Y00350012
Y0035687
Y00363728
Y00336042
X0174752
X01726438
X01838198Y00311531
Y00304673
Y00297815
Y00290957
X0184531
X01852168
Y00297815
X0184531
Y00304673
X01852168
Y00311531
X0184531
X0185928
Y00304673
Y00297815
Y00290957
X01866392
Y00297815
Y00304673
Y00311531
X018542Y00271018
X0185293Y00245618
X02011172Y00323596
Y00330708
Y00337566
Y00344424
Y00351282
X02018284
X02025142
Y00344424
X02018284
Y00337566
X02025142
Y00330708
X02018284
Y00323596
X02025142
X02032254
Y00330708
Y00337566
Y00344424
Y00351282
X02039366
Y00344424
Y00337566
Y00330708
Y00323596
X02104644Y00323088
Y00329946
Y00336804
X02111756
X02118614
Y00329946
X02111756
Y00323088
X02118614
Y0031623
X02111756
X02104644
Y00309118
X02111756
X02118614
X02125726
Y0031623
Y00323088
Y00329946
Y00336804
X02132838
Y00329946
Y00323088
Y0031623
Y00309118
X02143252Y00377952
X02150364
X02157222
X02164334
X02171446
Y00385064
Y00391922
X02164334
Y00385064
X02157222
X02150364
Y00391922
X02157222
X02143252
Y00385064
X0222504Y003937
X0223901
X02274788Y00395064
X0226695Y0032766
X02249144Y00345414
Y00294302
X02293634Y00291802
X0232918Y00303406
X0236728
X02336894Y00335062
X0245999Y00265176
Y00258318
Y0025146
Y00244602
X02467102
Y0025146
Y00258318
Y00265176
X0247396
Y00258318
Y0025146
Y00244602
X02481072
Y0025146
Y00258318
Y00265176
X02488184
Y00258318
Y0025146
Y00244602
Y0023749
X02481072
X0247396
X02467102
X0245999
X0250698Y00281178
Y0028829
Y00295148
Y00302006
Y00308864
X02514092
X0252095
Y00302006
X02514092
Y00295148
X0252095
Y0028829
X02514092
Y00281178
X0252095
X02528062
Y0028829
Y00295148
Y00302006
Y00308864
X02535174
Y00302006
Y00295148
Y0028829
Y00281178
X02531364Y003683
Y00375412
Y0038227
Y00389128
Y00395986
X02524252
Y00389128
Y0038227
Y00375412
X0251714
Y0038227
Y00389128
Y00395986
X02510282
Y00389128
Y0038227
Y00375412
X0250317
Y0038227
Y00389128
Y00395986
Y003683
X02510282
X0251714
X02524252
Y00429768
Y0043688
Y00443738
Y00450596
Y00457454
X0251714
X02510282
Y00450596
X0251714
Y00443738
X02510282
Y0043688
X0251714
Y00429768
X02510282
X0250317
Y0043688
Y00443738
Y00450596
Y00457454
X02531364
Y00450596
Y00443738
Y0043688
Y00429768
X02532634Y00529844
X02525522
X0251841
X02511552
X0250444
Y00536956
Y00543814
Y00550672
Y0055753
X02511552
Y00550672
Y00543814
Y00536956
X0251841
Y00543814
Y00550672
Y0055753
X02525522
Y00550672
Y00543814
Y00536956
X02532634
Y00543814
Y00550672
Y0055753
X02476754Y00620776
X02469642
Y00627888
Y00634746
Y00641604
Y00648462
X02476754
Y00641604
Y00634746
Y00627888
X024765Y00716534
X02483358
X0249047
X02497582
Y00723646
Y00730504
Y00737362
Y0074422
X0249047
Y00737362
Y00730504
Y00723646
X02483358
X024765
Y00730504
X02483358
Y00737362
X024765
Y0074422
X02483358
Y00753618
X024765
X02469388
Y0076073
Y00767588
Y00774446
Y00781304
X024765
Y00774446
Y00767588
Y0076073
X02483358
Y00767588
Y00774446
Y00781304
X0249047
Y00774446
Y00767588
Y0076073
Y00753618
X02497582
Y0076073
Y00767588
Y00774446
Y00781304
Y00790194
X0249047
X02483358
X024765
X02469388
X02507488
X025146
X02521458
X0252857
X02535682
Y0078105
Y00774192
Y00767334
Y00760476
Y00753364
X0252857
X02521458
X025146
X02507488
Y00760476
Y00767334
Y00774192
Y0078105
X025146
Y00774192
Y00767334
Y00760476
X02521458
Y00767334
Y00774192
Y0078105
X0252857
Y00774192
Y00767334
Y00760476
Y0074422
Y00737362
Y00730504
Y00723646
Y00716534
X02521458
X025146
X02507488
Y00723646
Y00730504
Y00737362
Y0074422
X025146
Y00737362
Y00730504
Y00723646
X02521458
Y00730504
Y00737362
Y0074422
X02535682
Y00737362
Y00730504
Y00723646
Y00716534
X02469388
Y00723646
Y00730504
Y00737362
Y0074422
X02404364Y00747014
X02397252
X0239014
X02383282
Y00754126
X0239014
Y00760984
X02383282
Y00767842
X0239014
Y007747
X02383282
X02397252
Y00767842
Y00760984
Y00754126
X02404364
Y00760984
Y00767842
Y007747
X0237617
Y00767842
Y00760984
Y00754126
Y00747014
X0226949Y00752348
X02262378
X0226949Y0075946
Y0077724
Y00784098
X0223267
X02225558
Y0077724
X02225548Y0075946
Y00752348
X0223266
X0223012Y00642112
Y00635254
Y00628396
Y00621538
X02236978
Y00628396
Y00635254
Y00642112
X0224409
Y00635254
Y00628396
Y00621538
Y00614426
X02236978
X0223012
X02223008
Y00621538
Y00628396
Y00635254
Y00642112
X02251202
Y00635254
Y00628396
Y00621538
Y00614426
X02300478Y0062258
Y00629438
Y00636296
X0230759
Y00629438
Y0062258
X02314448
Y00629438
Y00636296
X02358867Y00636016
Y00629158
Y006223
X02365979
Y00629158
Y00636016
X02342134Y0052959
Y00522732
Y00515874
Y00509016
Y00501904
X02335022
X0232791
X02321052
X0231394
Y00509016
Y00515874
Y00522732
Y0052959
X02321052
Y00522732
Y00515874
Y00509016
X0232791
Y00515874
Y00522732
Y0052959
X02335022
Y00522732
Y00515874
Y00509016
X02259584
Y00515874
Y00522732
Y0052959
X02252472
Y00522732
Y00515874
Y00509016
Y00501904
X0224536
X02238502
X0223139
Y00509016
Y00515874
Y00522732
Y0052959
X02238502
Y00522732
Y00515874
Y00509016
X0224536
Y00515874
Y00522732
Y0052959
X02259584Y00501904
X0223901Y0044958
X0222504
X022479Y0043942
X02278598Y00433164
X02269708Y00420464
X02171446Y00405638
Y0039878
X02164334
Y00405638
X02157222
Y0039878
X02150364
Y00405638
X02143252
Y0039878
X02150364Y0053086
X02177288Y00531876
X02185416Y00532384
X0218567Y0054102
X0213106Y00549402
X02131314Y00573024
X0209692Y00578521
Y0056372
X02091944Y00596646
Y00603758
Y00610616
Y00617474
Y00624332
X02084832
Y00617474
Y00610616
Y00603758
X0207772
Y00610616
Y00617474
Y00624332
X02070862
Y00617474
Y00610616
Y00603758
X0206375
Y00610616
Y00617474
Y00624332
X0204993Y00635671
X02051812Y00596392
Y00589534
Y00582676
Y00575818
X020447
Y00582676
Y00589534
Y00596392
X02037842
Y00589534
Y00582676
Y00575818
X0203073
Y00582676
Y00589534
Y00596392
Y00568706
X02037842
X020447
X02051812
X02059971Y00546651
X02024969Y00546331
X0200802Y00583601
X0206375Y00596646
X02070862
X0207772
X02084832
X02132838Y00641858
X0214249
X02175764Y00639826
X0218567Y0064008
Y00630428
X0202565Y00764286
X02018538
X0201168
X02004568
X01947164Y0079248
X01914906Y00770636
Y00763778
Y0075692
Y00750062
Y0074295
X01907794
Y00750062
Y0075692
Y00763778
Y00770636
X01908048Y0073533
X0191516
X01836928Y00713486
X0183007
Y00706628
X01836928
Y0069977
X0183007
Y00692912
X01836928
Y006858
X0183007
X01822958
Y00692912
Y0069977
Y00706628
Y00713486
X0181991Y00626491
X01826768
Y00619633
X0181991
Y00612775
X01826768
Y00605917
X0181991
X01812798
Y00612775
Y00619633
Y00626491
X0183388
Y00619633
Y00612775
Y00605917
X01840992
Y00612775
Y00619633
Y00626491
X018288Y00585978
X01827276Y00560578
X01826768Y00469011
Y00462153
Y00455295
Y00448437
X0181991
Y00455295
Y00462153
Y00469011
X01812798
Y00462153
Y00455295
Y00448437
X0183388
Y00455295
Y00462153
Y00469011
X01840992
Y00462153
Y00455295
Y00448437
X018288Y00428498
X01828292Y00403098
X01722374Y0040005
X01715262
X0170815
X01701292
X0169418
Y00407162
Y0041402
Y00420878
Y00427736
X01701292
Y00420878
Y0041402
Y00407162
X0170815
Y0041402
Y00420878
Y00427736
X01715262
Y00420878
Y0041402
Y00407162
X01722374
Y0041402
Y00420878
Y00427736
X0167259Y00428498
X01651508Y00449072
Y0045593
Y00462788
Y00469646
X01644396
Y00462788
Y0045593
Y00449072
X0169418Y0049276
Y00499872
Y0050673
Y00513588
Y00520446
X01701292
X0170815
Y00513588
X01701292
Y0050673
X0170815
Y00499872
X01701292
Y0049276
X0170815
X01715262
Y00499872
Y0050673
Y00513588
Y00520446
X01722374
Y00513588
Y0050673
Y00499872
Y0049276
X01722882Y00558292
Y00565404
Y00572262
Y0057912
Y00585978
X0171577
Y0057912
Y00572262
Y00565404
X01708658
Y00572262
Y0057912
Y00585978
X017018
Y0057912
Y00572262
Y00565404
X01694688
Y00572262
Y0057912
Y00585978
X0167259
X01651Y00606552
Y0061341
Y00620268
Y00627126
X01643888
Y00620268
Y0061341
Y00606552
X01694688Y00558292
X017018
X01708658
X0171577
X01715008Y0065151
X0170815
Y00658622
Y0066548
Y00672338
Y00679196
X01715008
Y00672338
Y0066548
Y00658622
X0172212
Y0066548
Y00672338
Y00679196
X01729232
Y00672338
Y0066548
Y00658622
Y0065151
X0172212
X01701038
Y00658622
Y0066548
Y00672338
Y00679196
X01939036Y0063246
X01947441Y00618721
X01953682Y00604774
X01974596Y0060579
X0195342Y00547464
X01942592Y00527558
X01933448Y00532892
X01954388Y00507725
Y00500867
Y00494009
X01961499
X01968358
Y00500867
X01961499
Y00507725
X01968358
X01963166Y00426212
X01583436Y00856996
X01576578
Y00864108
Y00870966
Y00877824
Y00884682
X01583436
Y00877824
Y00870966
Y00864108
X01569466
Y00870966
Y00877824
Y00884682
Y00856996
X01569974Y00980694
Y00987806
Y00994664
Y01001522
Y0100838
X01577086
X01583944
Y01001522
X01577086
Y00994664
X01583944
Y00987806
X01577086
Y00980694
X01583944
X01591056
Y00987806
Y00994664
Y01001522
Y0100838
X01598168
Y01001522
Y00994664
Y00987806
Y00980694
X0159766Y00884682
Y00877824
Y00870966
Y00864108
X01590548
Y00870966
Y00877824
Y00884682
Y00856996
X0159766
X01682242Y00855472
Y0084836
Y00841502
Y0083439
X01715008Y00834898
Y0084201
Y00848868
Y0085598
X01722628
Y00848868
Y0084201
Y00834898
X01725168Y00930656
Y00938022
X01732534
Y0094488
X01739646
Y00951738
X01746504
Y00958596
X01753616
Y00951738
Y0094488
Y00938022
X01760728
Y0094488
Y00951738
Y00958596
Y0093091
X01753616
X01746504
X01739646
Y00938022
X01746504
Y0094488
X01732534Y0093091
X01717802Y00930402
X01730502Y010376
X01737614
X01744472
X01751584
Y0104522
X01744472
X01737614
X01730502
X01729994Y01077986
X01737106
X01743964
X01751076
X01746758Y01166368
Y0117348
Y01180338
Y01187196
X01739646
Y01180338
Y0117348
X01732534
Y01180338
Y01187196
X01725676
Y01180338
Y0117348
X01718564
Y01180338
Y01187196
Y01166368
X01725676
X01732534
X01739646
X01962912Y0116713
Y01174242
Y011811
Y01187958
X01970024
X01976882
Y011811
X01970024
Y01174242
X01976882
X01983994
Y011811
Y01187958
Y0116713
X01976882
X01970024
X01974088Y01077976
X019812
X01981708Y0104521
X01974596
Y0103759
X01981708
X01917954Y00853694
Y00846836
Y00839978
Y0083312
X01910842
Y00839978
Y00846836
Y00853694
Y00826008
X01917954
X019177Y00818134
Y00811276
X01910588
Y00818134
Y00804164
X019177
X01952752Y00797306
X01836674Y0082677
Y00833882
Y0084074
Y00847598
Y00854456
X01829562
Y00847598
Y0084074
Y00833882
X0182245
Y0084074
Y00847598
Y00854456
X01815592
Y00847598
Y0084074
X0180848Y00847598
Y00854456
X01829562Y0082677
X0200406Y00804672
X02011172
X0201803
X02025142
Y00797052
X0201803
X02011172
X0200406
X0203962Y00824992
Y0083185
Y00838708
Y00845566
X02046478
Y00838708
Y0083185
Y00824992
X0205359
Y0083185
Y00838708
Y00845566
X02060702
Y00838708
Y0083185
Y00824992
X0214757Y00826262
Y0083312
Y00839978
Y00846836
X02154682
X0216154
Y00839978
X02154682
Y0083312
X0216154
Y00826262
X02154682
Y0081915
X0216154
X02168652
Y00826262
Y0083312
Y00839978
Y00846836
X0214757Y0081915
X02229866Y0083693
Y00843788
X02236978
Y0083693
X02243836
Y00843788
X02250948
Y0083693
X0225806
Y00843788
X022733Y0084074
Y00833882
Y00827024
Y00820166
Y00813054
X02280412
X0228727
X02294382
X02301494
Y00820166
Y00827024
Y00833882
Y0084074
X02294382
Y00833882
Y00827024
Y00820166
X0228727
X02280412
Y00827024
X0228727
Y00833882
X02280412
Y0084074
X0228727
X0237617
Y00833882
Y00827024
Y00820166
Y00813054
X02328164Y0093345
Y00940562
Y0094742
Y00954278
Y00961136
X02321052
Y00954278
Y0094742
Y00940562
X0231394
Y0094742
Y00954278
Y00961136
X02307082
Y00954278
Y0094742
Y00940562
X0229997
Y0094742
Y00954278
Y00961136
Y0093345
X02307082
X0231394
X02321052
X02239264Y01038352
X02232152
X02225294
X02218182
Y01045972
X02225294
X02232152
X02239264
X02238756Y01078738
X02231644
X02224786
X02217674
X0222123Y01167384
X02228088
Y01174496
Y01181354
Y01188212
X0222123
Y01181354
Y01174496
X02214118
Y01181354
Y01188212
Y01167384
X022352
Y01174496
Y01181354
Y01188212
X02242312
Y01181354
Y01174496
Y01167384
X01991106Y0116713
Y01174242
Y011811
Y01187958
X01988058Y01077976
X0199517
X01995678Y0104521
X01988566
Y0103759
X01995678
X0205994Y00962406
Y00955548
Y0094869
Y00941832
X02067052
Y0094869
Y00955548
Y00962406
X0207391
Y00955548
Y0094869
Y00941832
X02081022
Y0094869
Y00955548
Y00962406
X02088134
Y00955548
Y0094869
Y00941832
Y0093472
X02081022
X0207391
X02067052
X0205994
X0245364Y00935482
X02461006
Y00942594
X02468118
Y00949452
X02474976
Y0095631
X02482088
Y00949452
Y00942594
X024892
Y00949452
Y0095631
Y00963168
Y00935482
X02482088
X02474976
X02468118
X02474976Y00942594
X0247396Y0103886
X02467102
X0245999
Y0104648
X02467102
X0247396
X02481072
Y0103886
X02480564Y01079246
X02473452
X02466594
X02459482
X02462784Y01166368
X02455926
Y0117348
Y01180338
Y01187196
X02462784
Y01180338
Y0117348
X02469896
Y01180338
Y01187196
X02477008
Y01180338
Y0117348
Y01166368
X02469896
X02448814
Y0117348
Y01180338
Y01187196
X02469388Y0081788
Y00811022
Y00804164
Y00797306
X024765
X02483358
Y00804164
X024765
Y00811022
X02483358
Y0081788
X024765
X0249047
Y00811022
Y00804164
Y00797306
X02497582
Y00804164
Y00811022
Y0081788
X02507488
Y00811022
Y00804164
Y00797306
X025146
X02521458
Y00804164
X025146
Y00811022
X02521458
Y0081788
X025146
X0252857
Y00811022
Y00804164
Y00797306
X02535682
Y00804164
Y00811022
Y0081788
X02404364Y00820166
Y00827024
Y00833882
Y0084074
X02397252
Y00833882
Y00827024
Y00820166
Y00813054
X0239014
X02383282
Y00820166
X0239014
Y00827024
X02383282
Y00833882
X0239014
Y0084074
X02383282
X02404364Y00813054
X02448814Y01194054
X02455926
X02462784
X02469896
X02477008
X02242312Y0119507
X022352
X02228088
X0222123
X02214118
X01991106Y01194816
X01983994
X01976882
X01970024
X01962912
X01746758Y01194054
X01739646
X01732534
X01725676
X01718564
T02
X01736156Y00843788
X01756156
X01739646Y0100362
Y0102362
X01983994Y01023874
Y01003874
X02014982Y00838454
Y00818454
X02227834Y01003874
Y01023874
X02469896
Y01003874
T03
X02375118Y00382314
X02400518Y00395014
Y00420414
Y00445814
X02375118Y00433114
Y00407714
T04
X02067416Y00701802
Y00722122
Y00741172
Y00761492
X02092816
Y00741172
Y00722122
Y00701802
X02118216
Y00722122
Y00741172
Y00761492
X02142346
Y00741172
Y00722122
Y00701802
X0229743Y00787908
X0233045Y00629848
X0234315
X0228854Y00516128
X01682496Y0071871
X01662176
X01643126
X01622806
Y0074284
X01643126
X01662176
X01682496
Y0076824
X01662176
X01643126
X01622806
Y0079364
X01643126
X01662176
X01682496
X0168783Y01077214
Y01097534
Y01116584
Y01136904
X0166243
Y01116584
Y01097534
Y01077214
X0163703
Y01097534
Y01116584
Y01136904
X016129
Y01116584
Y01097534
Y01077214
X01857248Y01077468
Y01097788
Y01116838
Y01137158
X01881378
Y01116838
Y01097788
Y01077468
X01906778
Y01097788
Y01116838
Y01137158
X01932178
Y01116838
Y01097788
Y01077468
X02101088
Y01097788
Y01116838
Y01137158
X02125218
Y01116838
Y01097788
Y01077468
X02150618
Y01097788
Y01116838
Y01137158
X02176018
Y01116838
Y01097788
Y01077468
X0234315
Y01097788
Y01116838
Y01137158
X0236728
Y01116838
Y01097788
Y01077468
X0239268
Y01097788
Y01116838
Y01137158
X0241808
Y01116838
Y01097788
Y01077468
T05
X0194056Y0024892
X0196596
X01976374Y00303022
X02001774
X02027174
X02052574
X02077974
X0201676Y0024892
X0199136
X02000504Y0036957
Y0039497
X02236094Y00236002
X02261094
X02286094
X02342374Y00234732
X02367374
X02392374
X02417374
X02000504Y0042037
Y0044577
X01909318Y00448056
Y00473456
Y00498856
Y00422656
X01909064Y00638556
Y00663956
Y00689356
Y00714756
T06
X01655318Y00308102
Y00333502
X01811528Y00333756
Y00308356
X01786128Y00465836
Y00491236
X01786636Y00622808
Y00648208
X01629918Y00648462
Y00623062
Y00490982
Y00465582
T07
X0244094Y00742696
Y00792988
X02014728Y00746252
X01964436
X01662176Y00844804
Y00895096
X01740154Y0109728
X01790446
X01984502Y01097534
X02034794
X02227834Y01097788
X02278126
X02470404Y01097534
X02520696
T08
X01579544Y00234424
X02529544
X0157988Y0118364
X02529544Y01184424
T09
X02464018Y00363314
Y00464914
M30
