G04*
G04 #@! TF.GenerationSoftware,Altium Limited,Altium Designer,20.1.7 (139)*
G04*
G04 Layer_Physical_Order=2*
G04 Layer_Color=65535*
%FSLAX44Y44*%
%MOMM*%
G71*
G04*
G04 #@! TF.SameCoordinates,741834D1-4314-455D-B734-137E6C24AB52*
G04*
G04*
G04 #@! TF.FilePolarity,Positive*
G04*
G01*
G75*
%ADD11C,0.4064*%
%ADD12C,0.2540*%
G04:AMPARAMS|DCode=23|XSize=1.27mm|YSize=0.95mm|CornerRadius=0.1425mm|HoleSize=0mm|Usage=FLASHONLY|Rotation=0.000|XOffset=0mm|YOffset=0mm|HoleType=Round|Shape=RoundedRectangle|*
%AMROUNDEDRECTD23*
21,1,1.2700,0.6650,0,0,0.0*
21,1,0.9850,0.9500,0,0,0.0*
1,1,0.2850,0.4925,-0.3325*
1,1,0.2850,-0.4925,-0.3325*
1,1,0.2850,-0.4925,0.3325*
1,1,0.2850,0.4925,0.3325*
%
%ADD23ROUNDEDRECTD23*%
G04:AMPARAMS|DCode=37|XSize=1.27mm|YSize=0.95mm|CornerRadius=0.1425mm|HoleSize=0mm|Usage=FLASHONLY|Rotation=90.000|XOffset=0mm|YOffset=0mm|HoleType=Round|Shape=RoundedRectangle|*
%AMROUNDEDRECTD37*
21,1,1.2700,0.6650,0,0,90.0*
21,1,0.9850,0.9500,0,0,90.0*
1,1,0.2850,0.3325,0.4925*
1,1,0.2850,0.3325,-0.4925*
1,1,0.2850,-0.3325,-0.4925*
1,1,0.2850,-0.3325,0.4925*
%
%ADD37ROUNDEDRECTD37*%
%ADD38R,9.3980X10.8204*%
%ADD39R,4.6482X1.3716*%
G04:AMPARAMS|DCode=40|XSize=2.2mm|YSize=1.55mm|CornerRadius=0.3875mm|HoleSize=0mm|Usage=FLASHONLY|Rotation=270.000|XOffset=0mm|YOffset=0mm|HoleType=Round|Shape=RoundedRectangle|*
%AMROUNDEDRECTD40*
21,1,2.2000,0.7750,0,0,270.0*
21,1,1.4250,1.5500,0,0,270.0*
1,1,0.7750,-0.3875,-0.7125*
1,1,0.7750,-0.3875,0.7125*
1,1,0.7750,0.3875,0.7125*
1,1,0.7750,0.3875,-0.7125*
%
%ADD40ROUNDEDRECTD40*%
G04:AMPARAMS|DCode=41|XSize=0.9mm|YSize=0.9mm|CornerRadius=0.135mm|HoleSize=0mm|Usage=FLASHONLY|Rotation=270.000|XOffset=0mm|YOffset=0mm|HoleType=Round|Shape=RoundedRectangle|*
%AMROUNDEDRECTD41*
21,1,0.9000,0.6300,0,0,270.0*
21,1,0.6300,0.9000,0,0,270.0*
1,1,0.2700,-0.3150,-0.3150*
1,1,0.2700,-0.3150,0.3150*
1,1,0.2700,0.3150,0.3150*
1,1,0.2700,0.3150,-0.3150*
%
%ADD41ROUNDEDRECTD41*%
G04:AMPARAMS|DCode=42|XSize=1.27mm|YSize=1.15mm|CornerRadius=0.1725mm|HoleSize=0mm|Usage=FLASHONLY|Rotation=180.000|XOffset=0mm|YOffset=0mm|HoleType=Round|Shape=RoundedRectangle|*
%AMROUNDEDRECTD42*
21,1,1.2700,0.8050,0,0,180.0*
21,1,0.9250,1.1500,0,0,180.0*
1,1,0.3450,-0.4625,0.4025*
1,1,0.3450,0.4625,0.4025*
1,1,0.3450,0.4625,-0.4025*
1,1,0.3450,-0.4625,-0.4025*
%
%ADD42ROUNDEDRECTD42*%
G04:AMPARAMS|DCode=44|XSize=2.7mm|YSize=1.15mm|CornerRadius=0.2875mm|HoleSize=0mm|Usage=FLASHONLY|Rotation=270.000|XOffset=0mm|YOffset=0mm|HoleType=Round|Shape=RoundedRectangle|*
%AMROUNDEDRECTD44*
21,1,2.7000,0.5750,0,0,270.0*
21,1,2.1250,1.1500,0,0,270.0*
1,1,0.5750,-0.2875,-1.0625*
1,1,0.5750,-0.2875,1.0625*
1,1,0.5750,0.2875,1.0625*
1,1,0.5750,0.2875,-1.0625*
%
%ADD44ROUNDEDRECTD44*%
%ADD84C,0.6350*%
%ADD85R,1.6500X1.6500*%
%ADD86C,1.6500*%
%ADD87R,2.5400X2.5400*%
%ADD88R,2.5400X2.5400*%
%ADD89C,1.6510*%
%ADD90R,1.6510X1.6510*%
%ADD91R,1.5240X1.5240*%
%ADD92C,1.5240*%
%ADD93R,3.1000X2.4000*%
%ADD94R,1.5000X1.8000*%
%ADD95R,1.6510X1.6510*%
%ADD96R,1.5240X1.5240*%
%ADD97C,4.0000*%
%ADD98C,0.6096*%
%ADD99C,1.2700*%
%ADD100C,1.3970*%
G04:AMPARAMS|DCode=101|XSize=2.2mm|YSize=1.55mm|CornerRadius=0.3875mm|HoleSize=0mm|Usage=FLASHONLY|Rotation=180.000|XOffset=0mm|YOffset=0mm|HoleType=Round|Shape=RoundedRectangle|*
%AMROUNDEDRECTD101*
21,1,2.2000,0.7750,0,0,180.0*
21,1,1.4250,1.5500,0,0,180.0*
1,1,0.7750,-0.7125,0.3875*
1,1,0.7750,0.7125,0.3875*
1,1,0.7750,0.7125,-0.3875*
1,1,0.7750,-0.7125,-0.3875*
%
%ADD101ROUNDEDRECTD101*%
G04:AMPARAMS|DCode=102|XSize=0.9mm|YSize=0.9mm|CornerRadius=0.135mm|HoleSize=0mm|Usage=FLASHONLY|Rotation=180.000|XOffset=0mm|YOffset=0mm|HoleType=Round|Shape=RoundedRectangle|*
%AMROUNDEDRECTD102*
21,1,0.9000,0.6300,0,0,180.0*
21,1,0.6300,0.9000,0,0,180.0*
1,1,0.2700,-0.3150,0.3150*
1,1,0.2700,0.3150,0.3150*
1,1,0.2700,0.3150,-0.3150*
1,1,0.2700,-0.3150,-0.3150*
%
%ADD102ROUNDEDRECTD102*%
%ADD103O,0.6000X2.2000*%
%ADD104R,2.1500X1.1000*%
%ADD105R,2.1500X1.1000*%
%ADD106R,2.1500X3.5000*%
%ADD107O,2.2000X0.6000*%
%ADD108R,0.9720X0.8020*%
G36*
X2505450Y1201581D02*
X2507614Y1196600D01*
X2506261Y1194068D01*
X2504827Y1189341D01*
X2504343Y1184424D01*
X2504827Y1179507D01*
X2506261Y1174780D01*
X2508590Y1170423D01*
X2511724Y1166604D01*
X2515543Y1163470D01*
X2519900Y1161141D01*
X2524627Y1159707D01*
X2529544Y1159223D01*
X2534460Y1159707D01*
X2539188Y1161141D01*
X2541720Y1162494D01*
X2546701Y1160330D01*
X2548070Y1158968D01*
Y1152506D01*
X2543409Y1150110D01*
X2541720Y1149736D01*
X2540458Y1150579D01*
X2538476Y1150974D01*
X2442832D01*
X2442056Y1151749D01*
Y1154176D01*
X2441661Y1156158D01*
X2440538Y1157839D01*
X2437999Y1160378D01*
X2436318Y1161501D01*
X2434336Y1161896D01*
X2327656D01*
X2325674Y1161501D01*
X2323994Y1160378D01*
X2321454Y1157839D01*
X2320331Y1156158D01*
X2319937Y1154176D01*
Y1042416D01*
X2320331Y1040434D01*
X2321454Y1038754D01*
X2325264Y1034943D01*
X2326944Y1033821D01*
X2328926Y1033427D01*
X2433066D01*
X2435048Y1033821D01*
X2436729Y1034943D01*
X2440538Y1038754D01*
X2441661Y1040434D01*
X2442056Y1042416D01*
Y1107163D01*
X2444397Y1108409D01*
X2450746Y1104594D01*
Y1017524D01*
X2451141Y1015542D01*
X2452263Y1013861D01*
X2454803Y1011321D01*
X2456484Y1010199D01*
X2458466Y1009805D01*
X2479289D01*
X2493235Y1009791D01*
X2495284Y1007743D01*
Y929484D01*
X2493507Y927708D01*
X2296453D01*
X2294408Y929753D01*
Y1031748D01*
X2294013Y1033730D01*
X2292890Y1035411D01*
X2287811Y1040490D01*
X2286130Y1041613D01*
X2284148Y1042008D01*
X2253383Y1042008D01*
X2250753Y1048357D01*
X2254357Y1051962D01*
X2255479Y1053642D01*
X2255874Y1055624D01*
Y1068324D01*
X2255479Y1070306D01*
X2254357Y1071986D01*
X2248253Y1078089D01*
Y1103063D01*
X2254603Y1106877D01*
X2255674Y1106307D01*
Y1083595D01*
X2256069Y1081613D01*
X2257191Y1079933D01*
X2263295Y1073830D01*
Y1068983D01*
X2262964Y1068187D01*
X2262657Y1065849D01*
Y1058099D01*
X2262964Y1055761D01*
X2263867Y1053583D01*
X2265302Y1051712D01*
X2267173Y1050277D01*
X2269351Y1049374D01*
X2271689Y1049067D01*
X2285939D01*
X2288277Y1049374D01*
X2290455Y1050277D01*
X2292326Y1051712D01*
X2293761Y1053583D01*
X2294664Y1055761D01*
X2294971Y1058099D01*
Y1065849D01*
X2294664Y1068187D01*
X2293974Y1069853D01*
Y1073799D01*
X2300076Y1079902D01*
X2301199Y1081582D01*
X2301593Y1083564D01*
Y1113169D01*
X2302616Y1114192D01*
X2303739Y1115872D01*
X2304133Y1117854D01*
Y1143254D01*
X2303739Y1145236D01*
X2302616Y1146917D01*
X2300076Y1149456D01*
X2298396Y1150579D01*
X2296414Y1150974D01*
X2200770D01*
X2199158Y1152586D01*
Y1153668D01*
X2198763Y1155650D01*
X2197641Y1157330D01*
X2195101Y1159871D01*
X2193420Y1160993D01*
X2191438Y1161387D01*
X2084758D01*
X2082776Y1160993D01*
X2081095Y1159871D01*
X2078555Y1157330D01*
X2077433Y1155650D01*
X2077039Y1153668D01*
Y1041908D01*
X2077433Y1039926D01*
X2078555Y1038245D01*
X2082366Y1034436D01*
X2084046Y1033313D01*
X2086028Y1032918D01*
X2190168D01*
X2192150Y1033313D01*
X2193831Y1034436D01*
X2197641Y1038245D01*
X2198763Y1039926D01*
X2199158Y1041908D01*
Y1108121D01*
X2202677Y1109790D01*
X2208685Y1105914D01*
Y1017524D01*
X2209079Y1015542D01*
X2210202Y1013861D01*
X2212742Y1011321D01*
X2214422Y1010199D01*
X2216404Y1009805D01*
X2237487D01*
X2251790Y1009791D01*
X2253569Y1008013D01*
Y929753D01*
X2251523Y927708D01*
X2053883D01*
X2051837Y929753D01*
Y1031748D01*
X2051443Y1033730D01*
X2050320Y1035411D01*
X2045240Y1040490D01*
X2043560Y1041613D01*
X2041578Y1042008D01*
X2009543Y1042008D01*
X2006913Y1048357D01*
X2010517Y1051962D01*
X2011639Y1053642D01*
X2012034Y1055624D01*
Y1068324D01*
X2011639Y1070306D01*
X2010517Y1071986D01*
X2004413Y1078089D01*
Y1103063D01*
X2010764Y1106877D01*
X2011835Y1106307D01*
Y1083595D01*
X2012229Y1081613D01*
X2013351Y1079933D01*
X2019454Y1073830D01*
Y1068983D01*
X2019124Y1068187D01*
X2018817Y1065849D01*
Y1058099D01*
X2019124Y1055761D01*
X2020027Y1053583D01*
X2021462Y1051712D01*
X2023333Y1050277D01*
X2025511Y1049374D01*
X2027849Y1049067D01*
X2042099D01*
X2044437Y1049374D01*
X2046615Y1050277D01*
X2048486Y1051712D01*
X2049921Y1053583D01*
X2050824Y1055761D01*
X2051131Y1058099D01*
Y1065849D01*
X2050824Y1068187D01*
X2050134Y1069853D01*
Y1073799D01*
X2056237Y1079902D01*
X2057359Y1081582D01*
X2057753Y1083564D01*
Y1113169D01*
X2058777Y1114192D01*
X2059899Y1115872D01*
X2060293Y1117854D01*
Y1143254D01*
X2059899Y1145236D01*
X2058777Y1146917D01*
X2056237Y1149456D01*
X2054556Y1150579D01*
X2052574Y1150974D01*
X1956929D01*
X1954001Y1153902D01*
X1953653Y1155650D01*
X1952531Y1157330D01*
X1949991Y1159871D01*
X1948310Y1160993D01*
X1946328Y1161387D01*
X1839648D01*
X1837666Y1160993D01*
X1835986Y1159871D01*
X1833445Y1157330D01*
X1832323Y1155650D01*
X1831929Y1153668D01*
Y1041908D01*
X1832323Y1039926D01*
X1833445Y1038245D01*
X1837256Y1034436D01*
X1838936Y1033313D01*
X1840918Y1032918D01*
X1945058D01*
X1947040Y1033313D01*
X1948721Y1034436D01*
X1952531Y1038245D01*
X1953653Y1039926D01*
X1954048Y1041908D01*
Y1109793D01*
X1956929Y1112674D01*
X1959338D01*
X1964845Y1108964D01*
Y1017524D01*
X1965239Y1015542D01*
X1966362Y1013861D01*
X1968902Y1011321D01*
X1970582Y1010199D01*
X1972564Y1009805D01*
X1997108D01*
X2009218Y1009793D01*
X2010999Y1008013D01*
Y929753D01*
X2008953Y927708D01*
X1809188D01*
X1807142Y929753D01*
X1807142Y1031478D01*
X1806748Y1033460D01*
X1805625Y1035141D01*
X1800546Y1040221D01*
X1798865Y1041344D01*
X1796883Y1041738D01*
X1765179D01*
X1762549Y1048088D01*
X1766169Y1051708D01*
X1767291Y1053388D01*
X1767686Y1055370D01*
Y1068070D01*
X1767291Y1070052D01*
X1766169Y1071732D01*
X1760065Y1077835D01*
Y1102809D01*
X1766416Y1106623D01*
X1767487Y1106053D01*
Y1083341D01*
X1767881Y1081359D01*
X1769003Y1079679D01*
X1775107Y1073576D01*
Y1068729D01*
X1774776Y1067933D01*
X1774469Y1065595D01*
Y1057845D01*
X1774776Y1055507D01*
X1775679Y1053329D01*
X1777114Y1051458D01*
X1778985Y1050023D01*
X1781163Y1049120D01*
X1783501Y1048813D01*
X1797751D01*
X1800089Y1049120D01*
X1802267Y1050023D01*
X1804138Y1051458D01*
X1805573Y1053329D01*
X1806476Y1055507D01*
X1806783Y1057845D01*
Y1065595D01*
X1806476Y1067933D01*
X1805786Y1069598D01*
Y1073545D01*
X1811888Y1079648D01*
X1813011Y1081328D01*
X1813405Y1083310D01*
Y1112915D01*
X1814429Y1113938D01*
X1815551Y1115618D01*
X1815945Y1117600D01*
Y1143000D01*
X1815551Y1144982D01*
X1814429Y1146663D01*
X1811888Y1149202D01*
X1810208Y1150325D01*
X1808226Y1150720D01*
X1712581D01*
X1712059Y1151242D01*
Y1153922D01*
X1711665Y1155904D01*
X1710542Y1157585D01*
X1708002Y1160125D01*
X1706322Y1161247D01*
X1704340Y1161641D01*
X1602328D01*
X1599482Y1167991D01*
X1600834Y1169639D01*
X1603163Y1173996D01*
X1604597Y1178723D01*
X1605081Y1183640D01*
X1604597Y1188557D01*
X1603163Y1193284D01*
X1601391Y1196600D01*
X1602611Y1200086D01*
X1604692Y1202950D01*
X2504088D01*
X2505450Y1201581D01*
D02*
G37*
G36*
X2436876Y1154176D02*
Y1149604D01*
X2440686Y1145794D01*
X2538476D01*
X2541016Y1143254D01*
Y1117854D01*
X2538476Y1115314D01*
Y1083564D01*
X2530856Y1075944D01*
Y1056894D01*
X2528316Y1054354D01*
X2513076D01*
X2510536Y1056894D01*
Y1075975D01*
X2502916Y1083595D01*
Y1115314D01*
X2500376Y1117854D01*
X2440686D01*
X2436876Y1114044D01*
Y1042416D01*
X2433066Y1038606D01*
X2328926D01*
X2325116Y1042416D01*
Y1154176D01*
X2327656Y1156716D01*
X2434336D01*
X2436876Y1154176D01*
D02*
G37*
G36*
X2193978Y1153668D02*
Y1150440D01*
X2198624Y1145794D01*
X2296414D01*
X2298954Y1143254D01*
Y1117854D01*
X2296414Y1115314D01*
Y1083564D01*
X2288794Y1075944D01*
Y1056894D01*
X2286254Y1054354D01*
X2271014D01*
X2268474Y1056894D01*
Y1075975D01*
X2260854Y1083595D01*
Y1115314D01*
X2258314Y1117854D01*
X2198624D01*
X2193978Y1113208D01*
Y1041908D01*
X2190168Y1038098D01*
X2086028D01*
X2082218Y1041908D01*
Y1153668D01*
X2084758Y1156208D01*
X2191438D01*
X2193978Y1153668D01*
D02*
G37*
G36*
X1948868D02*
Y1151710D01*
X1954784Y1145794D01*
X2052574D01*
X2055114Y1143254D01*
Y1117854D01*
X2052574Y1115314D01*
Y1083564D01*
X2044954Y1075944D01*
Y1056894D01*
X2042414Y1054354D01*
X2027174D01*
X2024634Y1056894D01*
Y1075975D01*
X2017014Y1083595D01*
Y1115314D01*
X2014474Y1117854D01*
X1954784D01*
X1948868Y1111938D01*
Y1041908D01*
X1945058Y1038098D01*
X1840918D01*
X1837108Y1041908D01*
Y1153668D01*
X1839648Y1156208D01*
X1946328D01*
X1948868Y1153668D01*
D02*
G37*
G36*
X1706880Y1153922D02*
Y1149096D01*
X1710436Y1145540D01*
X1808226D01*
X1810766Y1143000D01*
Y1117600D01*
X1808226Y1115060D01*
Y1083310D01*
X1800606Y1075690D01*
Y1056640D01*
X1798066Y1054100D01*
X1782826D01*
X1780286Y1056640D01*
Y1075721D01*
X1772666Y1083341D01*
Y1115060D01*
X1770126Y1117600D01*
X1710436D01*
X1706880Y1114044D01*
Y1042162D01*
X1703070Y1038352D01*
X1598930D01*
X1595120Y1042162D01*
Y1153922D01*
X1597660Y1156462D01*
X1704340D01*
X1706880Y1153922D01*
D02*
G37*
G36*
X2485136Y1108964D02*
Y1075944D01*
X2492756Y1068324D01*
Y1055624D01*
X2485136Y1048004D01*
Y1039114D01*
X2487692Y1036558D01*
X2525863Y1036558D01*
X2530943Y1031478D01*
Y927338D01*
X2536190Y922091D01*
Y917178D01*
Y871728D01*
X2531110Y866648D01*
X2314092Y866648D01*
X2307590Y861229D01*
Y841873D01*
Y776478D01*
X2303780Y772668D01*
X2299970D01*
X2275840Y796798D01*
X2225040D01*
X2221230Y800608D01*
Y843026D01*
X2221230D01*
Y860806D01*
X2215388Y866648D01*
X1981528Y866648D01*
X1976448Y861568D01*
X1976448Y832612D01*
X1981528Y827532D01*
X2002102Y827512D01*
X2002122Y827532D01*
X2002122Y827532D01*
X2026666D01*
X2029206Y824992D01*
Y733552D01*
X2026666Y731012D01*
X2002536D01*
X1999996Y733552D01*
Y766541D01*
X1992376Y774161D01*
Y786892D01*
X1999996Y794512D01*
Y803910D01*
X1999996Y803910D01*
X1997202Y805942D01*
X1951048D01*
X1945968Y811022D01*
X1945968Y861568D01*
X1940888Y866648D01*
X1905762D01*
X1897380Y858266D01*
X1897380Y398780D01*
X1922780Y373380D01*
X1922780Y287020D01*
X1915160Y279400D01*
X1877822Y279400D01*
X1874520Y282702D01*
Y282702D01*
X1872234Y284988D01*
X1804670D01*
X1800860Y288798D01*
Y314198D01*
X1804670Y318008D01*
X1872234D01*
X1874520Y320294D01*
X1874520Y373380D01*
X1854200Y393700D01*
X1849120Y398780D01*
Y440182D01*
X1846834Y442468D01*
X1779270D01*
X1775460Y446278D01*
Y471678D01*
X1779270Y475488D01*
X1846834D01*
X1849120Y477774D01*
Y597408D01*
X1846580Y599948D01*
X1779270D01*
X1775460Y603758D01*
Y629158D01*
X1779270Y632968D01*
X1846580D01*
X1849120Y635508D01*
Y858266D01*
X1840738Y866648D01*
X1807972D01*
X1795018Y876370D01*
X1749806D01*
X1744726Y871290D01*
Y857187D01*
X1744757Y857156D01*
Y832612D01*
X1742217Y830072D01*
X1650777D01*
X1648237Y832612D01*
Y856742D01*
X1650777Y859282D01*
X1683797D01*
X1691417Y866902D01*
X1704117D01*
X1711737Y859282D01*
X1721358D01*
X1723136Y861060D01*
Y901770D01*
X1728216Y906850D01*
X1766464Y906850D01*
X1771483Y912622D01*
X1771483Y1009888D01*
X1766658Y1014714D01*
X1750050Y1014730D01*
X1728216D01*
X1725676Y1017270D01*
Y1108710D01*
X1728216Y1111250D01*
X1752346D01*
X1754886Y1108710D01*
Y1075690D01*
X1762506Y1068070D01*
Y1055370D01*
X1754886Y1047750D01*
Y1038844D01*
X1757172Y1036558D01*
X1796883D01*
X1801963Y1031478D01*
X1801963Y927608D01*
X1807043Y922528D01*
Y922361D01*
X1807210Y922528D01*
X2011098D01*
X2016178Y927608D01*
Y1010158D01*
X2011366Y1014970D01*
X1997108Y1014984D01*
D01*
X1972564D01*
X1970024Y1017524D01*
Y1108964D01*
X1972564Y1111504D01*
X1996694D01*
X1999234Y1108964D01*
Y1075944D01*
X2006854Y1068324D01*
Y1055624D01*
X1999234Y1048004D01*
Y1039876D01*
X2002282Y1036828D01*
X2041578Y1036828D01*
X2046658Y1031748D01*
Y927608D01*
X2051738Y922528D01*
X2253668D01*
X2258748Y927608D01*
Y1010158D01*
X2253938Y1014968D01*
X2237492Y1014984D01*
X2216404D01*
X2213864Y1017524D01*
Y1108964D01*
X2216404Y1111504D01*
X2240534D01*
X2243074Y1108964D01*
Y1075944D01*
X2250694Y1068324D01*
Y1055624D01*
X2243074Y1048004D01*
Y1039622D01*
X2245868Y1036828D01*
X2284148Y1036828D01*
X2289228Y1031748D01*
Y927608D01*
X2294308Y922528D01*
X2495653D01*
X2500463Y927338D01*
Y1009888D01*
X2495383Y1014968D01*
X2479294Y1014984D01*
X2458466D01*
X2455926Y1017524D01*
Y1108964D01*
X2458466Y1111504D01*
X2482596D01*
X2485136Y1108964D01*
D02*
G37*
G36*
X1570236Y1160357D02*
X1574963Y1158923D01*
X1579880Y1158439D01*
X1584797Y1158923D01*
X1584964Y1158974D01*
X1586119Y1158314D01*
X1589940Y1153922D01*
Y1042162D01*
X1590335Y1040180D01*
X1591458Y1038500D01*
X1595267Y1034689D01*
X1596948Y1033567D01*
X1598930Y1033173D01*
X1703070D01*
X1705052Y1033567D01*
X1706732Y1034689D01*
X1710542Y1038500D01*
X1711665Y1040180D01*
X1712059Y1042162D01*
Y1106738D01*
X1714147Y1107848D01*
X1720497Y1104034D01*
Y1017270D01*
X1720891Y1015288D01*
X1722014Y1013607D01*
X1724554Y1011068D01*
X1726234Y1009945D01*
X1728216Y1009550D01*
X1750045D01*
X1764510Y1009536D01*
X1766304Y1007743D01*
X1766304Y914559D01*
X1764104Y912030D01*
X1728216Y912029D01*
X1726234Y911635D01*
X1724554Y910512D01*
X1719474Y905433D01*
X1718351Y903752D01*
X1717957Y901770D01*
Y869368D01*
X1711606Y866738D01*
X1707780Y870564D01*
X1706099Y871687D01*
X1704117Y872082D01*
X1691417D01*
X1689435Y871687D01*
X1687755Y870564D01*
X1681652Y864462D01*
X1656543D01*
X1652816Y870811D01*
X1653531Y872094D01*
X1676369D01*
X1678351Y872488D01*
X1680031Y873611D01*
X1686134Y879714D01*
X1690471D01*
X1691777Y879173D01*
X1694115Y878865D01*
X1701865D01*
X1704203Y879173D01*
X1706381Y880075D01*
X1708252Y881510D01*
X1709687Y883381D01*
X1710589Y885559D01*
X1710897Y887897D01*
Y902147D01*
X1710589Y904485D01*
X1709687Y906663D01*
X1708252Y908534D01*
X1706381Y909969D01*
X1704203Y910872D01*
X1701865Y911179D01*
X1694115D01*
X1691777Y910872D01*
X1690621Y910393D01*
X1686165D01*
X1680063Y916496D01*
X1678382Y917618D01*
X1676400Y918012D01*
X1646795D01*
X1645773Y919035D01*
X1644092Y920158D01*
X1642110Y920553D01*
X1616710D01*
X1614728Y920158D01*
X1613047Y919035D01*
X1610508Y916496D01*
X1609385Y914815D01*
X1608990Y912833D01*
X1608990Y822947D01*
X1603756Y816779D01*
X1601774Y816385D01*
X1600094Y815263D01*
X1597554Y812722D01*
X1596431Y811042D01*
X1596037Y809060D01*
Y702380D01*
X1596431Y700398D01*
X1597554Y698718D01*
X1600094Y696178D01*
X1601774Y695055D01*
X1603756Y694660D01*
X1715516D01*
X1717498Y695055D01*
X1719178Y696178D01*
X1722988Y699988D01*
X1724111Y701668D01*
X1724505Y703650D01*
Y807790D01*
X1724111Y809772D01*
X1722988Y811452D01*
X1719178Y815263D01*
X1717498Y816385D01*
X1715516Y816779D01*
X1653234D01*
X1652250Y818542D01*
X1655978Y824893D01*
X1742217D01*
X1744199Y825287D01*
X1745880Y826410D01*
X1748420Y828950D01*
X1749543Y830630D01*
X1749937Y832612D01*
Y857156D01*
X1749906Y857313D01*
Y869145D01*
X1751951Y871190D01*
X1793291D01*
X1804863Y862505D01*
X1805413Y862241D01*
X1805914Y861895D01*
X1805955Y861886D01*
X1805990Y861863D01*
X1806352Y861791D01*
X1806685Y861631D01*
X1807294Y861598D01*
X1807890Y861469D01*
X1807931Y861477D01*
X1807972Y861468D01*
X1838593D01*
X1843940Y856121D01*
Y676647D01*
X1839437Y674832D01*
X1837590Y674445D01*
X1837487Y674514D01*
X1833969Y678033D01*
X1832288Y679155D01*
X1830306Y679549D01*
X1756682D01*
X1756682Y679549D01*
X1754700Y679155D01*
X1753020Y678033D01*
X1753020Y678032D01*
X1748448Y673460D01*
X1747325Y671780D01*
X1746931Y669798D01*
X1746931Y592582D01*
X1747063Y591916D01*
X1744650Y587449D01*
X1743051Y585566D01*
X1740055D01*
X1738508Y585258D01*
X1737196Y584382D01*
X1736320Y583070D01*
X1736012Y581523D01*
Y579468D01*
X1737360D01*
Y582168D01*
X1739900Y584708D01*
X1751330D01*
X1753870Y582168D01*
X1766490D01*
X1769030Y579628D01*
X1769110D01*
Y574548D01*
X1766570Y572008D01*
X1739900D01*
X1737360Y574548D01*
Y576928D01*
X1736012D01*
Y574873D01*
X1736116Y574350D01*
X1736163Y571929D01*
X1736163Y571928D01*
Y571928D01*
X1735860Y569231D01*
X1734420Y566233D01*
X1733698Y565510D01*
X1732575Y563830D01*
X1732180Y561848D01*
Y554228D01*
X1732575Y552246D01*
X1733698Y550565D01*
X1736237Y548026D01*
X1737918Y546903D01*
X1739900Y546508D01*
X1812290D01*
X1814272Y546903D01*
X1815952Y548026D01*
X1818492Y550565D01*
X1819615Y552246D01*
X1820009Y554228D01*
Y561848D01*
X1819615Y563830D01*
X1818492Y565510D01*
Y570886D01*
X1819615Y572566D01*
X1820009Y574548D01*
Y576988D01*
X1828793D01*
X1830070Y576735D01*
X1832052Y577129D01*
X1833732Y578251D01*
X1836272Y580792D01*
X1837395Y582472D01*
X1837590Y583453D01*
X1843940Y582828D01*
Y519285D01*
X1837590Y517406D01*
X1837525Y517505D01*
X1837088Y517797D01*
X1833569Y521315D01*
X1831889Y522437D01*
X1829907Y522831D01*
X1756283D01*
X1754301Y522437D01*
X1752621Y521315D01*
X1752621Y521314D01*
X1748049Y516743D01*
X1746926Y515062D01*
X1746532Y513080D01*
X1746532Y435864D01*
X1746816Y434436D01*
X1746690Y433465D01*
X1743649Y428086D01*
X1740055D01*
X1738508Y427778D01*
X1737196Y426902D01*
X1736320Y425590D01*
X1736012Y424043D01*
Y421988D01*
X1737360D01*
Y424688D01*
X1739900Y427228D01*
X1751330D01*
X1753870Y424688D01*
X1766490D01*
X1769030Y422148D01*
X1769110D01*
Y417068D01*
X1766570Y414528D01*
X1739900D01*
X1737360Y417068D01*
Y419448D01*
X1736012D01*
Y417393D01*
X1736116Y416870D01*
X1736163Y414449D01*
X1735860Y411751D01*
X1734420Y408753D01*
X1733698Y408031D01*
X1732575Y406350D01*
X1732180Y404368D01*
Y396748D01*
X1732575Y394766D01*
X1733698Y393086D01*
X1736237Y390546D01*
X1737918Y389423D01*
X1739900Y389029D01*
X1812290D01*
X1814272Y389423D01*
X1815952Y390546D01*
X1818492Y393086D01*
X1819615Y394766D01*
X1820009Y396748D01*
Y404368D01*
X1819615Y406350D01*
X1818492Y408031D01*
Y413405D01*
X1819615Y415086D01*
X1820009Y417068D01*
Y419509D01*
X1828793D01*
X1830070Y419254D01*
X1832052Y419649D01*
X1833732Y420771D01*
X1836272Y423312D01*
X1837395Y424992D01*
X1837590Y425973D01*
X1843940Y425348D01*
Y398780D01*
X1843940Y398780D01*
X1844335Y396798D01*
X1845457Y395117D01*
X1850538Y390037D01*
X1850538Y390037D01*
X1869341Y371235D01*
X1869341Y360912D01*
X1862991Y359482D01*
X1862798Y359771D01*
X1862361Y360062D01*
X1858842Y363581D01*
X1857162Y364703D01*
X1855180Y365098D01*
X1781556D01*
X1779574Y364703D01*
X1777894Y363581D01*
X1777894Y363580D01*
X1773322Y359008D01*
X1772199Y357328D01*
X1771805Y355346D01*
X1771805Y278130D01*
X1772038Y276956D01*
X1771375Y274899D01*
X1768542Y270606D01*
X1765455D01*
X1763908Y270298D01*
X1762596Y269422D01*
X1761720Y268110D01*
X1761412Y266563D01*
Y264508D01*
X1762760D01*
Y267208D01*
X1765300Y269748D01*
X1776730D01*
X1779270Y267208D01*
X1791890D01*
X1794430Y264668D01*
X1794510D01*
Y259588D01*
X1791970Y257048D01*
X1765300D01*
X1762760Y259588D01*
Y261968D01*
X1761412D01*
Y259913D01*
X1761516Y259390D01*
X1761563Y256969D01*
X1761563Y256968D01*
Y256968D01*
X1761260Y254271D01*
X1759820Y251273D01*
X1759097Y250550D01*
X1757975Y248870D01*
X1757581Y246888D01*
Y239268D01*
X1757975Y237286D01*
X1759097Y235606D01*
X1761638Y233065D01*
X1763318Y231943D01*
X1765300Y231549D01*
X1837690D01*
X1839672Y231943D01*
X1841353Y233065D01*
X1843893Y235606D01*
X1845015Y237286D01*
X1845410Y239268D01*
Y246888D01*
X1845015Y248870D01*
X1843893Y250550D01*
Y255926D01*
X1845015Y257606D01*
X1845410Y259588D01*
Y262029D01*
X1854193D01*
X1855470Y261775D01*
X1857452Y262169D01*
X1859133Y263291D01*
X1861673Y265832D01*
X1867659Y263361D01*
X1868734Y262567D01*
Y228600D01*
X1868876Y227523D01*
X1869017Y226445D01*
X1869849Y224437D01*
X1871172Y222712D01*
X1872120Y221765D01*
X1869690Y215898D01*
X1605000D01*
X1603638Y217267D01*
X1601474Y222248D01*
X1602827Y224780D01*
X1603429Y226764D01*
X1605857Y230182D01*
X1609090Y231549D01*
X1681480D01*
X1683462Y231943D01*
X1685143Y233065D01*
X1687682Y235606D01*
X1688805Y237286D01*
X1689200Y239268D01*
Y246888D01*
X1688805Y248870D01*
X1687682Y250550D01*
X1685275Y253238D01*
X1687682Y255926D01*
X1688805Y257606D01*
X1689200Y259588D01*
Y262029D01*
X1697983D01*
X1699260Y261775D01*
X1701242Y262169D01*
X1702923Y263291D01*
X1705462Y265832D01*
X1706585Y267512D01*
X1706980Y269494D01*
Y273558D01*
X1706585Y275540D01*
X1706467Y275717D01*
X1703724Y280784D01*
X1706729Y284624D01*
X1706732Y284627D01*
X1707855Y286308D01*
X1708250Y288290D01*
Y314198D01*
X1707855Y316180D01*
X1706732Y317861D01*
X1702923Y321670D01*
X1702170Y322173D01*
X1701660Y325628D01*
X1702170Y329083D01*
X1702923Y329585D01*
X1706732Y333396D01*
X1707855Y335076D01*
X1708250Y337058D01*
X1708105Y337787D01*
Y356108D01*
X1707710Y358090D01*
X1706588Y359771D01*
X1706151Y360062D01*
X1702632Y363581D01*
X1700952Y364703D01*
X1698970Y365098D01*
X1625346D01*
X1623364Y364703D01*
X1621684Y363581D01*
X1617112Y359008D01*
X1615989Y357328D01*
X1615594Y355346D01*
X1615594Y278130D01*
X1615828Y276956D01*
X1615165Y274899D01*
X1612332Y270606D01*
X1609245D01*
X1607698Y270298D01*
X1606386Y269422D01*
X1605510Y268110D01*
X1605202Y266563D01*
Y264508D01*
X1606550D01*
Y267208D01*
X1609090Y269748D01*
X1620520D01*
X1623060Y267208D01*
X1635680D01*
X1638220Y264668D01*
X1638300D01*
Y259588D01*
X1635760Y257048D01*
X1609090D01*
X1606550Y259588D01*
Y261968D01*
X1605202D01*
Y259913D01*
X1605306Y259390D01*
X1605353Y256968D01*
X1605050Y254271D01*
X1604312Y252734D01*
X1598044Y252292D01*
X1596730Y252764D01*
X1593545Y255378D01*
X1589188Y257707D01*
X1584461Y259141D01*
X1579544Y259625D01*
X1574628Y259141D01*
X1569900Y257707D01*
X1567368Y256354D01*
X1562387Y258518D01*
X1561018Y259880D01*
Y1158460D01*
X1562930Y1160122D01*
X1567368Y1161890D01*
X1570236Y1160357D01*
D02*
G37*
G36*
X2274570Y785368D02*
Y751078D01*
X2270760Y747268D01*
X2225040D01*
X2221230Y751078D01*
Y785368D01*
X2225040Y789178D01*
X2270760D01*
X2274570Y785368D01*
D02*
G37*
G36*
X2454275Y845058D02*
Y772668D01*
X2451735Y770128D01*
X2423795D01*
X2421255Y767588D01*
Y743458D01*
X2414905Y737108D01*
X2319655D01*
X2313305Y743458D01*
Y845058D01*
X2319655Y851408D01*
X2447925D01*
X2454275Y845058D01*
D02*
G37*
G36*
X2497737Y1106307D02*
Y1083595D01*
X2498131Y1081613D01*
X2499254Y1079933D01*
X2505356Y1073830D01*
Y1068983D01*
X2505027Y1068187D01*
X2504719Y1065849D01*
Y1058099D01*
X2505027Y1055761D01*
X2505929Y1053583D01*
X2507364Y1051712D01*
X2509235Y1050277D01*
X2511413Y1049374D01*
X2513751Y1049067D01*
X2528001D01*
X2530339Y1049374D01*
X2532517Y1050277D01*
X2534388Y1051712D01*
X2535823Y1053583D01*
X2536725Y1055761D01*
X2537033Y1058099D01*
Y1065849D01*
X2536725Y1068187D01*
X2536035Y1069853D01*
Y1073799D01*
X2541720Y1079483D01*
X2543497Y1079317D01*
X2548070Y1077348D01*
Y575021D01*
X2541720Y572459D01*
X2538985Y575295D01*
X2538945Y575322D01*
X2538919Y575362D01*
X2538117Y575898D01*
X2537325Y576448D01*
X2537278Y576459D01*
X2537238Y576485D01*
X2536293Y576673D01*
X2535350Y576879D01*
X2535303Y576870D01*
X2535256Y576879D01*
X2486152Y576880D01*
X2484170Y576485D01*
X2482489Y575362D01*
X2457664Y550537D01*
X2230068D01*
X2229303Y550385D01*
X2228527Y550303D01*
X2228318Y550190D01*
X2228086Y550143D01*
X2227437Y549710D01*
X2226752Y549337D01*
X2215360Y539844D01*
X2215211Y539659D01*
X2215014Y539527D01*
X2214580Y538879D01*
X2214090Y538272D01*
X2214023Y538044D01*
X2213891Y537847D01*
X2213739Y537082D01*
X2213518Y536334D01*
X2213543Y536098D01*
X2213497Y535865D01*
X2213497Y510144D01*
X2200404Y497051D01*
X2192020D01*
X2192020Y497051D01*
X2190038Y496656D01*
X2188358Y495533D01*
X2187088Y494263D01*
X2185965Y492583D01*
X2185007Y490121D01*
X2185416Y489712D01*
X2185416Y467364D01*
X2185571Y466810D01*
Y455366D01*
X2185570Y453771D01*
X2185570Y453771D01*
X2185571Y453771D01*
X2185965Y451789D01*
X2186367Y451188D01*
X2186870Y449554D01*
X2187249Y448763D01*
X2191258Y444754D01*
X2213356D01*
X2214626Y443484D01*
Y431292D01*
X2213356Y430022D01*
X2191258D01*
X2187486Y426250D01*
X2187195Y425557D01*
X2186252Y424052D01*
X2185965Y423622D01*
X2185571Y421640D01*
Y374650D01*
Y371882D01*
X2185416Y371809D01*
Y371094D01*
X2184146Y369824D01*
X2181225D01*
X2179901Y369197D01*
X2179819Y369256D01*
X2179412Y369824D01*
X2156336D01*
X2155929Y369256D01*
X2154735Y368400D01*
X2127956D01*
Y370134D01*
X2126996Y371094D01*
Y489204D01*
X2127956Y490164D01*
Y532017D01*
X2133823Y534447D01*
X2147570Y520700D01*
X2186940D01*
X2186940Y520700D01*
X2197100Y530860D01*
X2197100D01*
Y642620D01*
X2186940Y652780D01*
X2131060D01*
X2120900Y642620D01*
Y586492D01*
X2116897Y584833D01*
X2114550Y584513D01*
X2112963Y585731D01*
X2110954Y586563D01*
X2109877Y586705D01*
X2108799Y586847D01*
X2096920D01*
X2096283Y586763D01*
X2096276Y586767D01*
X2095650Y586141D01*
X2082950D01*
X2079140Y582331D01*
Y560741D01*
X2076600Y558201D01*
X2070250D01*
X2063900Y564551D01*
X2056280D01*
X2051200Y559471D01*
Y548377D01*
X2051761Y547538D01*
X2051644Y546651D01*
X2051200Y545989D01*
Y545501D01*
X2050203Y544503D01*
X2048313Y541687D01*
X2046728Y540456D01*
X2037989D01*
X2033296Y545149D01*
Y546331D01*
X2033203Y547038D01*
X2033420Y547363D01*
Y559471D01*
X2028340Y564551D01*
X2021990D01*
X2019450Y567091D01*
Y572171D01*
X2025800Y578521D01*
Y587411D01*
X2021990Y591221D01*
X2021870Y591101D01*
X2008140D01*
X2007396Y591845D01*
X2007306Y591833D01*
X2002796Y594496D01*
X2000956Y596207D01*
Y639171D01*
X2004969Y643184D01*
X2030642D01*
X2034345Y639481D01*
X2034690D01*
X2038500Y635671D01*
Y635326D01*
X2041037Y632789D01*
X2040723Y632319D01*
X2040224Y629811D01*
Y623511D01*
X2040723Y621002D01*
X2042144Y618875D01*
X2043879Y617716D01*
X2043976Y617615D01*
Y617615D01*
X2043311Y616621D01*
X2056549D01*
X2055885Y617615D01*
Y617615D01*
X2055981Y617716D01*
X2057716Y618875D01*
X2059137Y621002D01*
X2059636Y623511D01*
Y629811D01*
X2059137Y632319D01*
X2058033Y633972D01*
X2058256Y635671D01*
X2057973Y637826D01*
X2057141Y639834D01*
X2055818Y641558D01*
X2039978Y657398D01*
X2038254Y658721D01*
X2036246Y659553D01*
X2035168Y659694D01*
X2034091Y659836D01*
X2001520D01*
X1999365Y659553D01*
X1997357Y658721D01*
X1995632Y657398D01*
X1986743Y648508D01*
X1985419Y646783D01*
X1984588Y644775D01*
X1984446Y643698D01*
X1984304Y642620D01*
Y627712D01*
X1982738Y626605D01*
X1977954Y625304D01*
X1960124Y643134D01*
X1958024Y644538D01*
X1955546Y645030D01*
X1922399D01*
Y651891D01*
X1922399D01*
X1921131Y658241D01*
X1922056Y660475D01*
X1922514Y663956D01*
X1922056Y667437D01*
X1920712Y670681D01*
X1919126Y672748D01*
X1918575Y673568D01*
Y679744D01*
X1919126Y680564D01*
X1920712Y682631D01*
X1922056Y685875D01*
X1922514Y689356D01*
X1922056Y692837D01*
X1920712Y696081D01*
X1919126Y698148D01*
X1918575Y698968D01*
Y705144D01*
X1919126Y705964D01*
X1920712Y708031D01*
X1922056Y711275D01*
X1922514Y714756D01*
X1922056Y718237D01*
X1920712Y721481D01*
X1918575Y724267D01*
X1915789Y726404D01*
X1912545Y727748D01*
X1909064Y728206D01*
X1908909Y728186D01*
X1902560Y732776D01*
Y856121D01*
X1907907Y861468D01*
X1935286D01*
X1940789Y855966D01*
X1940789Y811022D01*
X1941183Y809040D01*
X1942305Y807359D01*
X1947386Y802280D01*
X1949066Y801157D01*
X1951048Y800762D01*
X1957512D01*
X1957639Y794465D01*
X1955301Y794157D01*
X1953123Y793255D01*
X1951252Y791820D01*
X1949817Y789949D01*
X1948914Y787771D01*
X1948607Y785433D01*
Y777683D01*
X1948914Y775345D01*
X1949350Y774293D01*
Y769479D01*
X1943248Y763376D01*
X1942125Y761696D01*
X1941730Y759714D01*
Y730109D01*
X1940708Y729087D01*
X1939585Y727406D01*
X1939191Y725424D01*
Y700024D01*
X1939585Y698042D01*
X1940708Y696361D01*
X1943248Y693821D01*
X1944928Y692699D01*
X1946910Y692305D01*
X2042554D01*
X2043331Y691528D01*
Y691134D01*
X2043725Y689152D01*
X2044848Y687471D01*
X2048658Y683661D01*
X2050338Y682539D01*
X2052320Y682144D01*
X2156460D01*
X2158442Y682539D01*
X2160123Y683661D01*
X2163932Y687471D01*
X2165055Y689152D01*
X2165450Y691134D01*
Y802894D01*
X2165055Y804876D01*
X2163932Y806556D01*
X2161393Y809097D01*
X2159712Y810219D01*
X2157730Y810613D01*
X2051050D01*
X2049068Y810219D01*
X2047388Y809097D01*
X2044848Y806556D01*
X2043725Y804876D01*
X2043331Y802894D01*
Y736035D01*
X2040735Y734489D01*
X2034386Y738098D01*
Y824992D01*
X2033991Y826974D01*
X2032868Y828654D01*
X2030329Y831195D01*
X2028648Y832317D01*
X2026666Y832711D01*
X2002122D01*
X2002122Y832712D01*
X2002022Y832692D01*
X1983676Y832709D01*
X1981628Y834757D01*
X1981628Y859423D01*
X1983673Y861468D01*
X2210863Y861469D01*
X2216051Y856282D01*
Y843026D01*
X2216051Y843026D01*
Y800608D01*
X2216445Y798626D01*
X2217568Y796945D01*
X2217567Y789031D01*
X2216445Y787350D01*
X2216051Y785368D01*
Y751078D01*
X2216445Y749096D01*
X2217567Y747415D01*
X2221378Y743605D01*
X2223058Y742483D01*
X2225040Y742088D01*
X2235119D01*
X2236368Y740565D01*
X2238977Y735739D01*
X2238932Y735513D01*
Y733458D01*
X2256868D01*
Y735513D01*
X2256823Y735739D01*
X2259432Y740565D01*
X2260681Y742088D01*
X2270760D01*
X2272742Y742483D01*
X2274422Y743605D01*
X2278233Y747415D01*
X2279355Y749096D01*
X2279749Y751078D01*
Y776583D01*
X2286100Y779213D01*
X2296308Y769006D01*
X2297988Y767883D01*
X2299970Y767488D01*
X2303780D01*
X2308096Y762441D01*
X2308125Y762371D01*
Y743458D01*
X2308520Y741476D01*
X2309642Y739796D01*
X2315992Y733446D01*
X2317673Y732323D01*
X2319655Y731928D01*
X2414905D01*
X2416887Y732323D01*
X2418568Y733446D01*
X2419563Y734441D01*
X2422346D01*
Y737224D01*
X2424917Y739796D01*
X2426040Y741476D01*
X2426434Y743458D01*
Y764949D01*
X2451735D01*
X2453717Y765343D01*
X2455397Y766466D01*
X2457937Y769006D01*
X2459060Y770686D01*
X2459454Y772668D01*
Y845058D01*
X2459060Y847040D01*
X2457937Y848720D01*
X2451588Y855070D01*
X2451516Y855118D01*
X2453442Y861469D01*
X2531110D01*
X2533092Y861863D01*
X2534772Y862986D01*
X2539852Y868065D01*
X2540975Y869746D01*
X2541369Y871728D01*
Y917448D01*
Y922091D01*
X2540975Y924073D01*
X2539852Y925754D01*
X2536122Y929484D01*
Y1031478D01*
X2535728Y1033460D01*
X2534606Y1035141D01*
X2529525Y1040221D01*
X2527845Y1041344D01*
X2525863Y1041738D01*
X2495175Y1041738D01*
X2492545Y1048088D01*
X2496418Y1051962D01*
X2497541Y1053642D01*
X2497935Y1055624D01*
Y1068324D01*
X2497541Y1070306D01*
X2496418Y1071986D01*
X2490316Y1078089D01*
Y1103063D01*
X2496665Y1106877D01*
X2497737Y1106307D01*
D02*
G37*
G36*
X2160270Y802894D02*
Y691134D01*
X2156460Y687324D01*
X2052320D01*
X2048510Y691134D01*
Y693674D01*
X2044700Y697484D01*
X1946910D01*
X1944370Y700024D01*
Y725424D01*
X1946910Y727964D01*
Y759714D01*
X1954530Y767334D01*
Y786384D01*
X1957070Y788924D01*
X1972310D01*
X1974850Y786384D01*
Y767303D01*
X1982470Y759683D01*
Y727964D01*
X1985010Y725424D01*
X2044700D01*
X2048510Y729234D01*
Y802894D01*
X2051050Y805434D01*
X2157730D01*
X2160270Y802894D01*
D02*
G37*
G36*
X1644650Y912833D02*
X1676400D01*
X1684020Y905213D01*
X1703070D01*
X1705610Y902673D01*
Y887433D01*
X1703070Y884893D01*
X1683989D01*
X1676369Y877273D01*
X1644650D01*
X1642110Y874733D01*
Y815074D01*
X1645584Y811600D01*
X1715516D01*
X1719326Y807790D01*
Y703650D01*
X1715516Y699840D01*
X1603756D01*
X1601216Y702380D01*
Y809060D01*
X1603756Y811600D01*
X1610696D01*
X1614170Y815074D01*
X1614170Y912833D01*
X1616710Y915373D01*
X1642110D01*
X1644650Y912833D01*
D02*
G37*
G36*
X1832610Y588518D02*
Y584454D01*
X1830070Y581914D01*
X1829816Y582168D01*
X1817050D01*
Y581848D01*
X1814830Y579628D01*
Y574548D01*
X1812290Y572008D01*
X1802130D01*
X1799590Y574548D01*
Y588518D01*
X1802130Y591058D01*
X1830070D01*
X1832610Y588518D01*
D02*
G37*
G36*
X1834116Y670560D02*
X1834261D01*
Y651655D01*
X1834406Y651510D01*
X1830596Y647700D01*
X1805196D01*
X1795290Y637794D01*
X1773192D01*
X1769636Y634238D01*
Y600710D01*
X1788686Y581660D01*
Y562610D01*
X1786146Y560070D01*
X1775986D01*
X1773446Y562610D01*
Y580390D01*
X1764556Y589280D01*
X1755666D01*
X1752364Y592582D01*
X1752110D01*
X1752110Y669798D01*
X1756682Y674370D01*
X1830306D01*
X1834116Y670560D01*
D02*
G37*
G36*
X1814830Y561848D02*
Y554228D01*
X1812290Y551688D01*
X1739900D01*
X1737360Y554228D01*
Y561848D01*
X1739900Y564388D01*
X1766570D01*
X1772920Y558038D01*
X1798320D01*
Y561848D01*
X1800860Y564388D01*
X1812290D01*
X1814830Y561848D01*
D02*
G37*
G36*
X2192020Y642620D02*
Y530860D01*
X2186940Y525780D01*
X2147570D01*
X2125980Y547370D01*
Y586485D01*
Y629221D01*
Y642620D01*
X2131060Y647700D01*
X2186940D01*
X2192020Y642620D01*
D02*
G37*
G36*
X2535256Y571700D02*
X2543809Y562829D01*
X2543811Y520227D01*
X2510354Y486770D01*
X2233020Y486770D01*
X2222405Y476155D01*
X2214880Y468630D01*
Y453529D01*
X2213852Y452501D01*
X2192020Y452501D01*
X2190750Y453771D01*
X2190750Y490601D01*
X2192020Y491871D01*
X2202549D01*
X2218676Y507998D01*
X2218676Y535865D01*
X2230068Y545358D01*
X2459810D01*
X2486152Y571700D01*
X2535256Y571700D01*
D02*
G37*
G36*
X2548070Y508180D02*
Y259880D01*
X2546701Y258518D01*
X2541720Y256354D01*
X2539188Y257707D01*
X2534460Y259141D01*
X2529544Y259625D01*
X2524627Y259141D01*
X2519900Y257707D01*
X2515543Y255378D01*
X2511724Y252244D01*
X2508590Y248425D01*
X2506261Y244068D01*
X2504827Y239340D01*
X2504343Y234424D01*
X2504827Y229507D01*
X2506261Y224780D01*
X2507614Y222248D01*
X2505450Y217267D01*
X2504088Y215898D01*
X2395266D01*
X2394850Y222248D01*
X2395689Y222359D01*
X2398779Y223639D01*
X2401432Y225674D01*
X2403467Y228327D01*
X2404747Y231417D01*
X2405184Y234732D01*
X2404747Y238047D01*
X2403467Y241137D01*
X2401432Y243790D01*
X2398779Y245825D01*
X2395689Y247105D01*
X2392374Y247542D01*
X2389059Y247105D01*
X2385969Y245825D01*
X2383766Y244135D01*
X2383156Y243790D01*
X2376592D01*
X2375982Y244135D01*
X2373779Y245825D01*
X2370689Y247105D01*
X2367374Y247542D01*
X2362906Y252144D01*
Y252984D01*
X2367280Y258132D01*
X2369442Y258561D01*
X2369442Y258561D01*
X2369503Y258602D01*
X2371274Y259786D01*
X2372499Y261618D01*
X2372928Y263780D01*
Y270510D01*
X2367280D01*
Y271780D01*
X2366010D01*
Y285176D01*
X2365118Y284999D01*
X2362657Y284190D01*
X2358655Y286838D01*
X2356689Y287652D01*
X2354580Y287930D01*
X2352471Y287652D01*
X2350505Y286838D01*
X2348230Y285809D01*
X2345955Y286838D01*
X2343989Y287652D01*
X2341880Y287930D01*
X2339771Y287652D01*
X2337805Y286838D01*
X2335530Y285809D01*
X2333255Y286838D01*
X2331289Y287652D01*
X2329180Y287930D01*
X2328770Y287876D01*
X2328099Y288083D01*
X2328058Y288124D01*
X2327827Y288981D01*
X2328098Y290226D01*
X2331302Y295487D01*
X2333279Y296306D01*
X2334977Y297609D01*
X2336280Y299307D01*
X2337099Y301284D01*
X2341880Y303630D01*
X2343989Y303908D01*
X2345955Y304722D01*
X2348230Y305751D01*
X2350505Y304722D01*
X2352471Y303908D01*
X2354580Y303630D01*
X2359361Y301284D01*
X2360180Y299307D01*
X2361483Y297609D01*
X2363181Y296306D01*
X2365158Y295487D01*
X2367280Y295208D01*
X2369402Y295487D01*
X2371379Y296306D01*
X2373077Y297609D01*
X2374380Y299307D01*
X2375199Y301284D01*
X2375478Y303406D01*
X2375199Y305528D01*
X2374380Y307505D01*
X2374282Y307632D01*
X2374338Y307705D01*
X2375152Y309671D01*
X2375430Y311780D01*
Y327780D01*
X2375152Y329889D01*
X2374338Y331855D01*
X2373043Y333543D01*
X2371355Y334838D01*
X2369389Y335652D01*
X2367280Y335930D01*
X2365171Y335652D01*
X2363205Y334838D01*
X2360930Y333809D01*
X2358655Y334838D01*
X2356689Y335652D01*
X2354580Y335930D01*
X2352471Y335652D01*
X2350505Y334838D01*
X2344534Y337857D01*
X2343994Y339161D01*
X2342691Y340859D01*
X2340993Y342162D01*
X2339016Y342981D01*
X2336894Y343260D01*
X2334772Y342981D01*
X2332795Y342162D01*
X2331097Y340859D01*
X2329794Y339161D01*
X2328975Y337184D01*
X2328804Y335880D01*
X2327071Y335652D01*
X2325105Y334838D01*
X2323417Y333543D01*
X2322122Y331855D01*
X2321308Y329889D01*
X2321030Y327780D01*
Y311780D01*
X2321308Y309671D01*
X2322122Y307705D01*
X2322178Y307632D01*
X2322080Y307505D01*
X2321261Y305528D01*
X2320982Y303406D01*
X2321261Y301284D01*
X2322080Y299307D01*
X2322276Y299052D01*
X2322305Y299014D01*
X2322221Y298816D01*
X2320755Y296863D01*
Y296863D01*
X2318916Y294414D01*
X2318303Y293798D01*
X2317072Y293798D01*
X2316574D01*
Y286682D01*
X2314034D01*
Y293798D01*
X2312154D01*
X2310930Y294803D01*
Y321092D01*
X2310788Y322169D01*
X2310647Y323247D01*
X2309815Y325255D01*
X2308492Y326979D01*
X2284144Y351328D01*
X2282419Y352651D01*
X2280411Y353483D01*
X2279333Y353624D01*
X2278256Y353766D01*
X2252567D01*
X2227328Y379005D01*
X2228750Y384970D01*
X2234698Y386764D01*
X2234911Y386600D01*
X2236888Y385781D01*
X2239010Y385502D01*
X2241132Y385781D01*
X2243109Y386600D01*
X2244807Y387903D01*
X2246110Y389601D01*
X2246929Y391578D01*
X2247208Y393700D01*
X2247169Y393996D01*
X2252856Y397289D01*
X2261062Y389082D01*
X2262787Y387759D01*
X2264795Y386927D01*
X2266950Y386644D01*
X2296420D01*
X2297761Y386820D01*
X2304420D01*
X2306529Y387098D01*
X2308495Y387912D01*
X2310183Y389207D01*
X2311478Y390895D01*
X2312292Y392861D01*
X2312570Y394970D01*
X2312292Y397079D01*
X2311478Y399045D01*
X2308830Y403047D01*
X2309639Y405508D01*
X2309639Y405508D01*
X2309639Y405508D01*
X2309816Y406400D01*
X2296420D01*
Y408940D01*
X2309816D01*
X2309639Y409832D01*
X2309639Y409832D01*
X2309639Y409832D01*
X2308830Y412293D01*
X2311478Y416295D01*
X2312292Y418261D01*
X2312570Y420370D01*
X2312292Y422479D01*
X2311478Y424445D01*
X2310448Y426720D01*
X2311478Y428995D01*
X2312292Y430961D01*
X2312570Y433070D01*
X2312292Y435179D01*
X2311478Y437145D01*
X2310183Y438833D01*
X2308495Y440128D01*
X2306529Y440942D01*
X2304420Y441220D01*
X2297761D01*
X2296420Y441396D01*
X2278692D01*
X2276537Y441113D01*
X2274529Y440281D01*
X2274516Y440271D01*
X2274499Y440264D01*
X2272801Y438961D01*
X2271498Y437263D01*
X2271491Y437246D01*
X2271481Y437233D01*
X2270650Y435225D01*
X2270366Y433070D01*
X2268854Y429966D01*
X2266695Y428825D01*
X2265116Y427613D01*
X2264242Y427734D01*
X2260387Y428963D01*
X2258766Y430196D01*
Y436880D01*
X2258483Y439035D01*
X2257651Y441043D01*
X2256328Y442767D01*
X2253788Y445308D01*
X2252063Y446631D01*
X2250055Y447463D01*
X2247208Y449580D01*
X2246929Y451702D01*
X2246110Y453679D01*
X2244807Y455377D01*
X2243109Y456680D01*
X2241132Y457499D01*
X2239010Y457778D01*
X2236888Y457499D01*
X2234911Y456680D01*
X2232025Y455757D01*
X2229139Y456680D01*
X2227162Y457499D01*
X2225040Y457778D01*
X2221853Y460878D01*
X2221585Y468010D01*
X2226068Y472493D01*
X2235165Y481590D01*
X2441896Y481590D01*
X2443474Y479840D01*
X2445352Y475240D01*
X2444216Y473116D01*
X2442997Y469095D01*
X2442585Y464914D01*
X2442997Y460733D01*
X2444216Y456712D01*
X2446197Y453006D01*
X2448862Y449758D01*
X2452110Y447093D01*
X2455816Y445112D01*
X2459837Y443893D01*
X2464018Y443481D01*
X2468199Y443893D01*
X2472220Y445112D01*
X2475926Y447093D01*
X2479174Y449758D01*
X2481839Y453006D01*
X2483820Y456712D01*
X2485039Y460733D01*
X2485451Y464914D01*
X2485039Y469095D01*
X2483820Y473116D01*
X2482684Y475240D01*
X2484562Y479840D01*
X2486140Y481590D01*
X2510354D01*
X2512336Y481985D01*
X2514017Y483107D01*
X2514017Y483107D01*
X2541720Y510810D01*
X2548070Y508180D01*
D02*
G37*
G36*
X1922399Y625221D02*
X1926974Y620935D01*
Y537806D01*
X1926348Y536991D01*
X1925529Y535014D01*
X1925250Y532892D01*
X1925529Y530770D01*
X1926348Y528793D01*
X1927651Y527095D01*
X1929349Y525792D01*
X1931326Y524973D01*
X1933448Y524694D01*
X1934901Y524885D01*
X1935492Y523459D01*
X1936795Y521761D01*
X1938493Y520458D01*
X1940470Y519639D01*
X1942592Y519360D01*
X1944714Y519639D01*
X1946691Y520458D01*
X1948389Y521761D01*
X1949692Y523459D01*
X1950511Y525436D01*
X1950790Y527558D01*
X1950511Y529680D01*
X1949692Y531657D01*
X1949066Y532472D01*
Y533679D01*
X1949332Y534377D01*
X1953420Y539266D01*
X1955542Y539545D01*
X1957519Y540364D01*
X1959217Y541667D01*
X1960520Y543365D01*
X1961339Y545342D01*
X1961618Y547464D01*
X1961339Y549586D01*
X1960520Y551563D01*
X1959894Y552378D01*
Y599519D01*
X1960781Y600675D01*
X1960913Y600992D01*
X1966614Y601661D01*
X1967681Y601450D01*
X1968799Y599993D01*
X1970497Y598690D01*
X1972474Y597871D01*
X1974596Y597592D01*
X1976718Y597871D01*
X1977954Y598383D01*
X1980807Y597313D01*
X1984304Y595033D01*
Y535940D01*
X1984446Y534863D01*
X1984588Y533785D01*
X1985419Y531777D01*
X1986743Y530052D01*
X2056694Y460101D01*
Y363017D01*
X2056425Y362614D01*
X2056321Y362095D01*
X2056122Y361604D01*
X2056126Y361113D01*
X2056030Y360632D01*
Y354576D01*
X2046687Y345232D01*
X2045363Y343507D01*
X2044532Y341499D01*
X2044390Y340421D01*
X2044248Y339344D01*
Y317102D01*
X2039994D01*
Y288942D01*
X2059044D01*
X2065154Y288942D01*
X2071504Y288942D01*
X2090554D01*
Y317102D01*
X2071504D01*
X2065394Y317102D01*
X2060900Y321583D01*
Y335895D01*
X2067805Y342800D01*
X2192584D01*
Y259989D01*
X2189841Y257246D01*
X2027180D01*
X2026271Y258431D01*
X2023485Y260568D01*
X2020241Y261912D01*
X2016760Y262370D01*
X2013279Y261912D01*
X2010035Y260568D01*
X2007968Y258982D01*
X2007148Y258431D01*
X2000972D01*
X2000152Y258982D01*
X1998085Y260568D01*
X1994841Y261912D01*
X1991360Y262370D01*
X1987879Y261912D01*
X1984635Y260568D01*
X1982568Y258982D01*
X1981749Y258431D01*
X1975572D01*
X1974752Y258982D01*
X1972685Y260568D01*
X1969441Y261912D01*
X1965960Y262370D01*
X1962479Y261912D01*
X1959235Y260568D01*
X1956449Y258431D01*
X1954312Y255645D01*
X1952968Y252401D01*
X1952510Y248920D01*
X1952968Y245439D01*
X1954312Y242195D01*
X1956449Y239409D01*
X1959235Y237272D01*
X1962479Y235928D01*
X1965960Y235470D01*
X1969441Y235928D01*
X1972685Y237272D01*
X1974752Y238858D01*
X1975572Y239409D01*
X1981749D01*
X1982568Y238858D01*
X1984635Y237272D01*
X1987879Y235928D01*
X1991360Y235470D01*
X1994841Y235928D01*
X1998085Y237272D01*
X2000152Y238858D01*
X2000972Y239409D01*
X2007148D01*
X2007968Y238858D01*
X2010035Y237272D01*
X2013279Y235928D01*
X2016760Y235470D01*
X2020241Y235928D01*
X2023485Y237272D01*
X2026271Y239409D01*
X2027180Y240594D01*
X2193290D01*
X2194368Y240736D01*
X2195445Y240877D01*
X2197453Y241709D01*
X2199178Y243032D01*
X2206797Y250653D01*
X2208121Y252377D01*
X2208952Y254385D01*
X2209236Y256540D01*
Y342800D01*
X2211070D01*
X2213052Y343195D01*
X2214733Y344318D01*
X2218542Y348128D01*
X2219665Y349808D01*
X2220060Y351790D01*
Y354427D01*
X2225926Y356857D01*
X2243257Y339526D01*
X2244981Y338203D01*
X2246989Y337371D01*
X2249144Y337088D01*
X2249341Y337114D01*
X2255955D01*
X2258062Y334217D01*
X2259438Y330764D01*
X2259031Y329782D01*
X2258752Y327660D01*
X2259031Y325538D01*
X2259850Y323561D01*
X2261153Y321863D01*
X2262851Y320560D01*
X2264828Y319741D01*
X2266950Y319462D01*
X2269072Y319741D01*
X2271049Y320560D01*
X2272747Y321863D01*
X2274050Y323561D01*
X2274869Y325538D01*
X2275148Y327660D01*
X2275128Y327813D01*
X2280965Y330956D01*
X2294278Y317643D01*
Y284382D01*
X2294420Y283305D01*
X2294561Y282227D01*
X2295393Y280219D01*
X2296716Y278494D01*
X2305598Y269613D01*
Y268532D01*
X2306097Y266023D01*
X2307518Y263896D01*
X2309645Y262475D01*
X2312154Y261976D01*
X2318454D01*
X2321299Y261672D01*
X2322122Y259705D01*
X2323417Y258017D01*
X2325105Y256722D01*
X2327071Y255908D01*
X2329180Y255630D01*
X2333269Y250779D01*
X2333554Y250041D01*
Y243972D01*
X2333316Y243790D01*
X2331281Y241137D01*
X2330001Y238047D01*
X2329564Y234732D01*
X2329835Y232678D01*
X2327893Y229166D01*
X2325235Y226328D01*
X2282543D01*
X2273783Y235088D01*
X2273904Y236002D01*
X2273467Y239317D01*
X2272187Y242407D01*
X2270152Y245060D01*
X2267499Y247095D01*
X2264409Y248375D01*
X2261094Y248812D01*
X2257779Y248375D01*
X2254689Y247095D01*
X2252486Y245405D01*
X2251876Y245060D01*
X2245312D01*
X2244702Y245405D01*
X2242499Y247095D01*
X2239409Y248375D01*
X2236094Y248812D01*
X2232779Y248375D01*
X2229689Y247095D01*
X2227036Y245060D01*
X2225001Y242407D01*
X2223721Y239317D01*
X2223284Y236002D01*
X2223664Y233116D01*
X2223618Y232541D01*
X2219535Y226766D01*
X1890669D01*
X1885386Y232049D01*
Y274220D01*
X1915160Y274221D01*
X1917142Y274615D01*
X1918822Y275737D01*
X1918823Y275738D01*
X1926442Y283357D01*
X1926442Y283357D01*
X1927565Y285038D01*
X1927959Y287020D01*
X1927959Y373380D01*
X1927959Y373380D01*
X1927565Y375362D01*
X1926443Y377043D01*
X1926442Y377043D01*
X1902560Y400925D01*
Y409321D01*
X1922653D01*
Y416182D01*
X1959610D01*
X1962088Y416674D01*
X1964188Y418078D01*
X1964269Y418159D01*
X1965288Y418293D01*
X1967265Y419112D01*
X1968963Y420415D01*
X1970266Y422113D01*
X1971085Y424090D01*
X1971364Y426212D01*
X1971085Y428334D01*
X1970266Y430311D01*
X1968963Y432009D01*
X1967265Y433312D01*
X1965288Y434131D01*
X1963166Y434410D01*
X1961044Y434131D01*
X1959067Y433312D01*
X1957369Y432009D01*
X1956066Y430311D01*
X1955577Y429130D01*
X1922653D01*
Y435991D01*
X1922653D01*
X1921384Y442341D01*
X1922310Y444575D01*
X1922768Y448056D01*
X1922310Y451537D01*
X1920966Y454781D01*
X1919380Y456848D01*
X1918829Y457668D01*
Y463844D01*
X1919380Y464664D01*
X1920966Y466731D01*
X1922310Y469975D01*
X1922768Y473456D01*
X1922310Y476937D01*
X1920966Y480181D01*
X1919380Y482248D01*
X1918829Y483068D01*
Y489244D01*
X1919380Y490064D01*
X1920966Y492131D01*
X1922310Y495375D01*
X1922768Y498856D01*
X1922310Y502337D01*
X1920966Y505581D01*
X1918829Y508367D01*
X1916043Y510504D01*
X1912799Y511848D01*
X1909318Y512306D01*
X1908909Y512252D01*
X1903208Y516273D01*
X1902560Y517364D01*
Y625221D01*
X1922399Y625221D01*
D02*
G37*
G36*
X1832610Y431038D02*
Y426974D01*
X1830070Y424434D01*
X1829816Y424688D01*
X1817050D01*
Y424368D01*
X1814830Y422148D01*
Y417068D01*
X1812290Y414528D01*
X1802130D01*
X1799590Y417068D01*
Y431038D01*
X1802130Y433578D01*
X1830070D01*
X1832610Y431038D01*
D02*
G37*
G36*
X1833717Y513842D02*
X1833862D01*
Y494937D01*
X1834007Y494792D01*
X1830197Y490982D01*
X1804797D01*
X1794891Y481076D01*
X1772793D01*
X1769237Y477520D01*
Y443992D01*
X1788287Y424942D01*
Y405892D01*
X1785747Y403352D01*
X1775587D01*
X1773047Y405892D01*
Y406273D01*
X1772920Y406400D01*
Y423799D01*
X1764157Y432562D01*
X1755267D01*
X1751965Y435864D01*
X1751711D01*
X1751711Y513080D01*
X1756283Y517652D01*
X1829907D01*
X1833717Y513842D01*
D02*
G37*
G36*
X1814830Y404368D02*
Y396748D01*
X1812290Y394208D01*
X1739900D01*
X1737360Y396748D01*
Y404368D01*
X1739900Y406908D01*
X1766570D01*
X1772920Y400558D01*
X1798320D01*
Y404368D01*
X1800860Y406908D01*
X1812290D01*
X1814830Y404368D01*
D02*
G37*
G36*
X2214880Y421640D02*
Y374650D01*
Y351790D01*
X2211070Y347980D01*
X2065020D01*
X2061210Y351790D01*
Y360632D01*
X2065020Y363220D01*
X2186940D01*
X2190750Y367030D01*
Y370840D01*
Y421640D01*
X2192020Y422910D01*
X2213610D01*
X2214880Y421640D01*
D02*
G37*
G36*
X1703070Y314198D02*
Y288290D01*
X1699768Y284988D01*
X1648461D01*
X1644650Y288798D01*
X1644650D01*
Y314198D01*
X1644650Y314198D01*
X1648460Y318008D01*
X1699260D01*
X1703070Y314198D01*
D02*
G37*
G36*
X1858010Y273558D02*
Y269494D01*
X1855470Y266954D01*
X1855216Y267208D01*
X1842450D01*
Y266888D01*
X1840230Y264668D01*
Y259588D01*
X1837690Y257048D01*
X1827530D01*
X1824990Y259588D01*
Y273558D01*
X1827530Y276098D01*
X1855470D01*
X1858010Y273558D01*
D02*
G37*
G36*
X1701800D02*
Y269494D01*
X1699260Y266954D01*
X1699006Y267208D01*
X1686240D01*
Y266888D01*
X1684020Y264668D01*
Y259588D01*
X1681480Y257048D01*
X1671320D01*
X1668780Y259588D01*
Y273558D01*
X1671320Y276098D01*
X1699260D01*
X1701800Y273558D01*
D02*
G37*
G36*
X1858990Y356108D02*
X1859135D01*
Y337203D01*
X1859280Y337058D01*
X1855470Y333248D01*
X1830070D01*
X1820164Y323342D01*
X1798066D01*
X1794510Y319786D01*
Y286258D01*
X1813560Y267208D01*
Y248158D01*
X1811020Y245618D01*
X1800860D01*
X1798320Y248158D01*
Y248920D01*
Y265938D01*
X1789430Y274828D01*
X1780540D01*
X1777238Y278130D01*
X1776984D01*
X1776984Y355346D01*
X1781556Y359918D01*
X1855180D01*
X1858990Y356108D01*
D02*
G37*
G36*
X1702780D02*
X1702925D01*
Y337203D01*
X1703070Y337058D01*
X1699260Y333248D01*
X1673860D01*
X1663954Y323342D01*
X1641856D01*
X1638300Y319786D01*
Y286258D01*
X1657350Y267208D01*
Y248158D01*
X1654810Y245618D01*
X1644650D01*
X1642110Y248158D01*
Y265938D01*
X1633220Y274828D01*
X1624330D01*
X1621028Y278130D01*
X1620774D01*
X1620774Y355346D01*
X1625346Y359918D01*
X1698970D01*
X1702780Y356108D01*
D02*
G37*
G36*
X1840230Y246888D02*
Y239268D01*
X1837690Y236728D01*
X1765300D01*
X1762760Y239268D01*
Y246888D01*
X1765300Y249428D01*
X1791970D01*
X1798320Y243078D01*
X1823720D01*
Y246888D01*
X1826260Y249428D01*
X1837690D01*
X1840230Y246888D01*
D02*
G37*
G36*
X1684020D02*
Y239268D01*
X1681480Y236728D01*
X1609090D01*
X1606550Y239268D01*
Y246888D01*
X1609090Y249428D01*
X1635760D01*
X1642110Y243078D01*
X1667510D01*
Y246888D01*
X1670050Y249428D01*
X1681480D01*
X1684020Y246888D01*
D02*
G37*
%LPC*%
G36*
X1673824Y680312D02*
X1600200D01*
X1598218Y679917D01*
X1596537Y678794D01*
X1596537Y678794D01*
X1591966Y674223D01*
X1591966Y674222D01*
X1590843Y672542D01*
X1590448Y670560D01*
X1590448Y593344D01*
X1590733Y591916D01*
X1590607Y590945D01*
X1587566Y585566D01*
X1583845D01*
X1582298Y585258D01*
X1580986Y584382D01*
X1580110Y583070D01*
X1579802Y581523D01*
Y579468D01*
X1581150D01*
Y582168D01*
X1583690Y584708D01*
X1595120D01*
X1597660Y582168D01*
X1610280D01*
X1612820Y579628D01*
X1612900D01*
Y574548D01*
X1610360Y572008D01*
X1583690D01*
X1581150Y574548D01*
Y576928D01*
X1579802D01*
Y574873D01*
X1579906Y574350D01*
X1579953Y571928D01*
X1579650Y569231D01*
X1578210Y566233D01*
X1577487Y565510D01*
X1576365Y563830D01*
X1575970Y561848D01*
Y554228D01*
X1576365Y552246D01*
X1577487Y550565D01*
X1580027Y548026D01*
X1581708Y546903D01*
X1583690Y546508D01*
X1656080D01*
X1658062Y546903D01*
X1659742Y548026D01*
X1662283Y550565D01*
X1663405Y552246D01*
X1663799Y554228D01*
Y561848D01*
X1663405Y563830D01*
X1662283Y565510D01*
X1659875Y568198D01*
X1662283Y570886D01*
X1663405Y572566D01*
X1663799Y574548D01*
Y576988D01*
X1672583D01*
X1673860Y576735D01*
X1675842Y577129D01*
X1677522Y578251D01*
X1680063Y580792D01*
X1681185Y582472D01*
X1681579Y584454D01*
Y588518D01*
X1681185Y590500D01*
X1681067Y590677D01*
X1678324Y595744D01*
X1681329Y599584D01*
X1681333Y599588D01*
X1682455Y601268D01*
X1682849Y603250D01*
Y629158D01*
X1682455Y631140D01*
X1681333Y632821D01*
X1677522Y636631D01*
X1676536Y637290D01*
X1676277Y641053D01*
X1676673Y644062D01*
X1677776Y644799D01*
X1681586Y648609D01*
X1682709Y650290D01*
X1683103Y652272D01*
X1682959Y653001D01*
Y671322D01*
X1682564Y673304D01*
X1681441Y674985D01*
X1681004Y675276D01*
X1677487Y678794D01*
X1675806Y679917D01*
X1673824Y680312D01*
D02*
G37*
G36*
X1673570Y522831D02*
X1599946D01*
X1597964Y522437D01*
X1596284Y521315D01*
X1591711Y516743D01*
X1590589Y515062D01*
X1590195Y513080D01*
X1590195Y435864D01*
X1590479Y434436D01*
X1590353Y433465D01*
X1587312Y428086D01*
X1583845D01*
X1582298Y427778D01*
X1580986Y426902D01*
X1580110Y425590D01*
X1579802Y424043D01*
Y421988D01*
X1581150D01*
Y424688D01*
X1583690Y427228D01*
X1595120D01*
X1597660Y424688D01*
X1610280D01*
X1612820Y422148D01*
X1612900D01*
Y417068D01*
X1610360Y414528D01*
X1583690D01*
X1581150Y417068D01*
Y419448D01*
X1579802D01*
Y417393D01*
X1579906Y416870D01*
X1579953Y414449D01*
X1579650Y411751D01*
X1578210Y408753D01*
X1577487Y408031D01*
X1576365Y406350D01*
X1575970Y404368D01*
Y396748D01*
X1576365Y394766D01*
X1577487Y393086D01*
X1580027Y390546D01*
X1581708Y389423D01*
X1583690Y389029D01*
X1656080D01*
X1658062Y389423D01*
X1659742Y390546D01*
X1662283Y393086D01*
X1663405Y394766D01*
X1663799Y396748D01*
Y404368D01*
X1663405Y406350D01*
X1662283Y408031D01*
Y413405D01*
X1663405Y415086D01*
X1663799Y417068D01*
Y419509D01*
X1672583D01*
X1673860Y419254D01*
X1675842Y419649D01*
X1677522Y420771D01*
X1680063Y423312D01*
X1681185Y424992D01*
X1681579Y426974D01*
Y431038D01*
X1681185Y433020D01*
X1681067Y433197D01*
X1678324Y438264D01*
X1681329Y442104D01*
X1681333Y442108D01*
X1682455Y443788D01*
X1682849Y445770D01*
Y471678D01*
X1682455Y473660D01*
X1681333Y475340D01*
X1677522Y479151D01*
X1676478Y479849D01*
X1676139Y483235D01*
X1676478Y486621D01*
X1677522Y487319D01*
X1681333Y491129D01*
X1682455Y492810D01*
X1682849Y494792D01*
X1682704Y495521D01*
Y513842D01*
X1682310Y515824D01*
X1681187Y517505D01*
X1680750Y517797D01*
X1677233Y521315D01*
X1675552Y522437D01*
X1673570Y522831D01*
D02*
G37*
%LPD*%
G36*
X1677670Y629158D02*
Y603250D01*
X1674368Y599948D01*
X1623060D01*
X1619250Y603758D01*
X1619250D01*
Y629158D01*
X1619250Y629158D01*
X1623060Y632968D01*
X1673860D01*
X1677670Y629158D01*
D02*
G37*
G36*
X1676400Y588518D02*
Y584454D01*
X1673860Y581914D01*
X1673606Y582168D01*
X1660840D01*
Y581848D01*
X1658620Y579628D01*
Y574548D01*
X1656080Y572008D01*
X1645920D01*
X1643380Y574548D01*
Y588518D01*
X1645920Y591058D01*
X1673860D01*
X1676400Y588518D01*
D02*
G37*
G36*
X1677634Y671322D02*
X1677779D01*
Y652417D01*
X1677924Y652272D01*
X1674114Y648462D01*
X1648714D01*
X1638808Y638556D01*
X1616710D01*
X1613154Y635000D01*
Y601472D01*
X1632204Y582422D01*
Y563372D01*
X1629664Y560832D01*
X1619504D01*
X1616964Y563372D01*
Y581152D01*
X1608074Y590042D01*
X1599184D01*
X1595882Y593344D01*
X1595628D01*
X1595628Y670560D01*
X1600200Y675132D01*
X1673824D01*
X1677634Y671322D01*
D02*
G37*
G36*
X1658620Y561848D02*
Y554228D01*
X1656080Y551688D01*
X1583690D01*
X1581150Y554228D01*
Y561848D01*
X1583690Y564388D01*
X1610360D01*
X1616710Y558038D01*
X1642110D01*
Y561848D01*
X1644650Y564388D01*
X1656080D01*
X1658620Y561848D01*
D02*
G37*
G36*
X1677670Y471678D02*
Y445770D01*
X1674368Y442468D01*
X1623060D01*
X1619250Y446278D01*
X1619250D01*
Y471678D01*
X1619250Y471678D01*
X1623060Y475488D01*
X1673860D01*
X1677670Y471678D01*
D02*
G37*
G36*
X1676400Y431038D02*
Y426974D01*
X1673860Y424434D01*
X1673606Y424688D01*
X1660840D01*
Y424368D01*
X1658620Y422148D01*
Y417068D01*
X1656080Y414528D01*
X1645920D01*
X1643380Y417068D01*
Y431038D01*
X1645920Y433578D01*
X1673860D01*
X1676400Y431038D01*
D02*
G37*
G36*
X1677380Y513842D02*
X1677525D01*
Y494937D01*
X1677670Y494792D01*
X1673860Y490982D01*
X1648460D01*
X1638554Y481076D01*
X1616456D01*
X1612900Y477520D01*
Y443992D01*
X1631950Y424942D01*
Y405892D01*
X1629410Y403352D01*
X1619250D01*
X1616710Y405892D01*
Y423672D01*
X1607820Y432562D01*
X1598930D01*
X1595628Y435864D01*
X1595374D01*
X1595374Y513080D01*
X1599946Y517652D01*
X1673570D01*
X1677380Y513842D01*
D02*
G37*
G36*
X1658620Y404368D02*
Y396748D01*
X1656080Y394208D01*
X1583690D01*
X1581150Y396748D01*
Y404368D01*
X1583690Y406908D01*
X1610360D01*
X1616710Y400558D01*
X1642110D01*
Y404368D01*
X1644650Y406908D01*
X1656080D01*
X1658620Y404368D01*
D02*
G37*
%LPC*%
G36*
X2256868Y730918D02*
X2249170D01*
Y724820D01*
X2252825D01*
X2254372Y725128D01*
X2255684Y726004D01*
X2256560Y727316D01*
X2256868Y728863D01*
Y730918D01*
D02*
G37*
G36*
X2246630D02*
X2238932D01*
Y728863D01*
X2239240Y727316D01*
X2240116Y726004D01*
X2241428Y725128D01*
X2242975Y724820D01*
X2246630D01*
Y730918D01*
D02*
G37*
G36*
X2400518Y458624D02*
X2397203Y458187D01*
X2394113Y456907D01*
X2391460Y454872D01*
X2389425Y452219D01*
X2388145Y449129D01*
X2387708Y445814D01*
X2388145Y442499D01*
X2389425Y439409D01*
X2391289Y436980D01*
X2391460Y436647D01*
Y433280D01*
X2385954Y427543D01*
X2365750D01*
X2364403Y428387D01*
X2360570Y433070D01*
X2360292Y435179D01*
X2359478Y437145D01*
X2358183Y438833D01*
X2356495Y440128D01*
X2354529Y440942D01*
X2352420Y441220D01*
X2336420D01*
X2334311Y440942D01*
X2332345Y440128D01*
X2330657Y438833D01*
X2329362Y437145D01*
X2328548Y435179D01*
X2328270Y433070D01*
X2328548Y430961D01*
X2329362Y428995D01*
X2330392Y426720D01*
X2329362Y424445D01*
X2328548Y422479D01*
X2328270Y420370D01*
X2328548Y418261D01*
X2329362Y416295D01*
X2330392Y414020D01*
X2329362Y411745D01*
X2328548Y409779D01*
X2328270Y407670D01*
X2328548Y405561D01*
X2329362Y403595D01*
X2330392Y401320D01*
X2329362Y399045D01*
X2328548Y397079D01*
X2328270Y394970D01*
X2328548Y392861D01*
X2329362Y390895D01*
X2330285Y389692D01*
X2329732Y387426D01*
X2328404Y384869D01*
X2327388Y383712D01*
X2325748D01*
Y374744D01*
Y365776D01*
X2327803D01*
X2328949Y366004D01*
X2329350Y366084D01*
X2329351Y366084D01*
X2332719Y366334D01*
X2335875Y365374D01*
X2336853Y364919D01*
X2337872Y364137D01*
X2339455Y363481D01*
X2341153Y363258D01*
X2347803D01*
X2349501Y363481D01*
X2351084Y364137D01*
X2352442Y365180D01*
X2353485Y366538D01*
X2354141Y368121D01*
X2354364Y369819D01*
Y379669D01*
X2354243Y380592D01*
X2356946Y383839D01*
X2359982Y382976D01*
X2362397Y381643D01*
X2362745Y378999D01*
X2364025Y375909D01*
X2366060Y373256D01*
X2368713Y371221D01*
X2371803Y369941D01*
X2375118Y369504D01*
X2378433Y369941D01*
X2381523Y371221D01*
X2384176Y373256D01*
X2386211Y375909D01*
X2387491Y378999D01*
X2387730Y380815D01*
X2391570Y383260D01*
X2394113Y383921D01*
X2397203Y382641D01*
X2400518Y382204D01*
X2403833Y382641D01*
X2406923Y383921D01*
X2409576Y385956D01*
X2411611Y388609D01*
X2412891Y391699D01*
X2413328Y395014D01*
X2416683Y398678D01*
X2422704Y399960D01*
X2424062Y398917D01*
X2425645Y398261D01*
X2427343Y398038D01*
X2437193D01*
X2438891Y398261D01*
X2440473Y398917D01*
X2441832Y399960D01*
X2442875Y401318D01*
X2443530Y402901D01*
X2443754Y404599D01*
Y411249D01*
X2443530Y412947D01*
X2442875Y414529D01*
X2441832Y416434D01*
Y419413D01*
X2442875Y421318D01*
X2443530Y422901D01*
X2443754Y424599D01*
Y431249D01*
X2443530Y432947D01*
X2442875Y434530D01*
X2441832Y435888D01*
X2440473Y436931D01*
X2438891Y437587D01*
X2437193Y437810D01*
X2427343D01*
X2425645Y437587D01*
X2424062Y436931D01*
X2422704Y435888D01*
X2422520Y435649D01*
X2416079Y435307D01*
X2415005Y436293D01*
X2412456Y441447D01*
X2412891Y442499D01*
X2413328Y445814D01*
X2412891Y449129D01*
X2411611Y452219D01*
X2409576Y454872D01*
X2406923Y456907D01*
X2403833Y458187D01*
X2400518Y458624D01*
D02*
G37*
G36*
X2323208Y383712D02*
X2321153D01*
X2319606Y383404D01*
X2318294Y382528D01*
X2317418Y381216D01*
X2317110Y379669D01*
Y376014D01*
X2323208D01*
Y383712D01*
D02*
G37*
G36*
Y373474D02*
X2317110D01*
Y369819D01*
X2317418Y368272D01*
X2318294Y366960D01*
X2319606Y366084D01*
X2321153Y365776D01*
X2323208D01*
Y373474D01*
D02*
G37*
G36*
X2464018Y384747D02*
X2459837Y384335D01*
X2455816Y383116D01*
X2452110Y381135D01*
X2448862Y378470D01*
X2446197Y375222D01*
X2444216Y371516D01*
X2442997Y367495D01*
X2442585Y363314D01*
X2442997Y359133D01*
X2444216Y355112D01*
X2446197Y351406D01*
X2448862Y348158D01*
X2452110Y345493D01*
X2455816Y343512D01*
X2459837Y342293D01*
X2464018Y341881D01*
X2468199Y342293D01*
X2472220Y343512D01*
X2475926Y345493D01*
X2479174Y348158D01*
X2481839Y351406D01*
X2483820Y355112D01*
X2485039Y359133D01*
X2485451Y363314D01*
X2485039Y367495D01*
X2483820Y371516D01*
X2481839Y375222D01*
X2479174Y378470D01*
X2475926Y381135D01*
X2472220Y383116D01*
X2468199Y384335D01*
X2464018Y384747D01*
D02*
G37*
G36*
X2368550Y285176D02*
Y273050D01*
X2372928D01*
Y279780D01*
X2372513Y281869D01*
D01*
X2372499Y281942D01*
X2372498Y281942D01*
X2371274Y283774D01*
X2369503Y284958D01*
X2369442Y284998D01*
X2369442Y284999D01*
X2369442Y284999D01*
X2368550Y285176D01*
D02*
G37*
G36*
X2000504Y459220D02*
X1997023Y458762D01*
X1993779Y457418D01*
X1990993Y455281D01*
X1988856Y452495D01*
X1987512Y449251D01*
X1987054Y445770D01*
X1987512Y442289D01*
X1988856Y439045D01*
X1990442Y436978D01*
X1990993Y436158D01*
Y429982D01*
X1990442Y429162D01*
X1988856Y427095D01*
X1987512Y423851D01*
X1987054Y420370D01*
X1987512Y416889D01*
X1988856Y413645D01*
X1990442Y411578D01*
X1990993Y410758D01*
Y404582D01*
X1990442Y403762D01*
X1988856Y401695D01*
X1987512Y398451D01*
X1987054Y394970D01*
X1987512Y391489D01*
X1988438Y389255D01*
X1987169Y382905D01*
X1987169Y382905D01*
Y356235D01*
X2013839D01*
Y382905D01*
X2013839D01*
X2012570Y389255D01*
X2013496Y391489D01*
X2013954Y394970D01*
X2013496Y398451D01*
X2012152Y401695D01*
X2010566Y403762D01*
X2010015Y404582D01*
Y410758D01*
X2010566Y411578D01*
X2012152Y413645D01*
X2013496Y416889D01*
X2013954Y420370D01*
X2013496Y423851D01*
X2012152Y427095D01*
X2010566Y429162D01*
X2010015Y429982D01*
Y436158D01*
X2010566Y436978D01*
X2012152Y439045D01*
X2013496Y442289D01*
X2013954Y445770D01*
X2013496Y449251D01*
X2012152Y452495D01*
X2010015Y455281D01*
X2007229Y457418D01*
X2003985Y458762D01*
X2000504Y459220D01*
D02*
G37*
G36*
X2239714Y316418D02*
X2237834D01*
Y310572D01*
X2243680D01*
Y312452D01*
X2243378Y313970D01*
X2242518Y315257D01*
X2241232Y316116D01*
X2239714Y316418D01*
D02*
G37*
G36*
X2235294D02*
X2233414D01*
X2231896Y316116D01*
X2230609Y315257D01*
X2229750Y313970D01*
X2229448Y312452D01*
Y310572D01*
X2235294D01*
Y316418D01*
D02*
G37*
G36*
X1989194Y317102D02*
X1982844Y317102D01*
X1963794D01*
Y288942D01*
X1982844D01*
X1988954Y288942D01*
X1995304Y288942D01*
X2014354D01*
Y317102D01*
X1995304D01*
X1989194Y317102D01*
D02*
G37*
G36*
X2243680Y308032D02*
X2236564D01*
X2229448D01*
Y306152D01*
X2229750Y304634D01*
X2230609Y303347D01*
Y303347D01*
X2230513Y303247D01*
X2228778Y302088D01*
X2227357Y299961D01*
X2226858Y297452D01*
Y291152D01*
X2227357Y288643D01*
X2228778Y286516D01*
X2230905Y285095D01*
X2233414Y284596D01*
X2239714D01*
X2242223Y285095D01*
X2244350Y286516D01*
X2244759Y287129D01*
X2245223D01*
X2247022Y286383D01*
X2249144Y286104D01*
X2251266Y286383D01*
X2253243Y287202D01*
X2254941Y288505D01*
X2256244Y290203D01*
X2257063Y292180D01*
X2257342Y294302D01*
X2257063Y296424D01*
X2256244Y298401D01*
X2254941Y300099D01*
X2253243Y301402D01*
X2251266Y302221D01*
X2249144Y302500D01*
X2248995Y302481D01*
X2246963Y303884D01*
X2244637Y306138D01*
X2243680Y307710D01*
Y308032D01*
D02*
G37*
%LPD*%
D11*
X2236564Y294302D02*
X2249144D01*
X2336894Y335062D02*
X2341880Y330076D01*
Y319780D02*
Y330076D01*
X2344478Y374744D02*
Y394912D01*
X2408028Y427924D02*
X2432268D01*
X2400518Y420414D02*
X2408028Y427924D01*
X2344420Y420370D02*
X2400474D01*
X2375118Y407714D02*
X2432058D01*
X2344420Y407670D02*
X2375074D01*
D12*
X1953420Y604512D02*
X1953682Y604774D01*
X1953420Y547464D02*
Y604512D01*
X1942592Y613872D02*
X1947441Y618721D01*
X1942592Y527558D02*
Y613872D01*
X1933448Y626872D02*
X1939036Y632460D01*
X1933448Y532892D02*
Y626872D01*
X1909064Y638556D02*
X1955546D01*
X1974596Y619506D01*
Y605790D02*
Y619506D01*
X1959610Y422656D02*
X1963166Y426212D01*
X1909318Y422656D02*
X1959610D01*
X1909318D02*
X1909826Y422148D01*
X1909318Y498856D02*
X1909572Y499110D01*
X2239010Y393700D02*
Y449580D01*
X2225040Y393700D02*
Y449580D01*
X2049930Y626661D02*
Y635671D01*
X2089180Y578521D02*
X2096920D01*
X2096481Y563281D02*
X2096920Y563720D01*
X2089180Y563281D02*
X2096481D01*
X2059971Y546651D02*
X2060090Y546771D01*
Y554510D01*
X2024969Y546331D02*
X2025038Y546400D01*
Y554257D01*
X2008020Y583601D02*
X2015760D01*
X2280564Y291802D02*
X2293634D01*
X2367280Y303406D02*
Y319780D01*
X2329180Y303406D02*
Y319780D01*
D23*
X1614170Y263238D02*
D03*
Y243238D02*
D03*
X1744980Y578198D02*
D03*
Y558198D02*
D03*
X1770380Y263238D02*
D03*
Y243238D02*
D03*
X1588770Y420718D02*
D03*
Y400718D02*
D03*
X1744980Y420718D02*
D03*
Y400718D02*
D03*
X1588770Y578198D02*
D03*
Y558198D02*
D03*
X1676240Y243238D02*
D03*
Y263238D02*
D03*
X1807050Y558198D02*
D03*
Y578198D02*
D03*
X1832450Y243238D02*
D03*
Y263238D02*
D03*
X1650840Y400718D02*
D03*
Y420718D02*
D03*
X1807050Y400718D02*
D03*
Y420718D02*
D03*
X1650840Y558198D02*
D03*
Y578198D02*
D03*
X2432268Y407924D02*
D03*
Y427924D02*
D03*
X2247900Y732188D02*
D03*
Y752188D02*
D03*
D37*
X2324478Y374744D02*
D03*
X2344478D02*
D03*
D38*
X2370276Y793623D02*
D03*
D39*
X2248392Y768223D02*
D03*
Y819023D02*
D03*
D40*
X1692910Y305128D02*
D03*
Y346128D02*
D03*
X1823720Y620088D02*
D03*
Y661088D02*
D03*
X1849120Y305128D02*
D03*
Y346128D02*
D03*
X1667510Y462608D02*
D03*
Y503608D02*
D03*
X1823720Y462608D02*
D03*
Y503608D02*
D03*
X1667510Y620088D02*
D03*
Y661088D02*
D03*
X1697990Y854022D02*
D03*
Y895022D02*
D03*
D41*
X2030760Y583601D02*
D03*
X2015760D02*
D03*
X2089180Y563281D02*
D03*
X2074180D02*
D03*
X2089180Y578521D02*
D03*
X2074180D02*
D03*
X2195710Y480060D02*
D03*
X2180710D02*
D03*
D42*
X2247900Y801988D02*
D03*
Y783988D02*
D03*
D44*
X2197874Y384840D02*
D03*
X2167874D02*
D03*
D84*
X2117090Y586740D02*
X2129790D01*
X2167724Y515786D02*
Y529894D01*
X2159000Y645160D02*
Y656590D01*
X2192020Y586740D02*
X2203450D01*
X2052574Y339344D02*
X2069846Y356616D01*
X2052574Y303022D02*
Y339344D01*
X2247900Y439420D02*
X2250440Y436880D01*
Y411480D02*
Y436880D01*
X2266950Y394970D02*
X2296420D01*
X2250440Y411480D02*
X2266950Y394970D01*
X2197874Y384840D02*
X2209718D01*
X2249144Y345414D01*
X2200910Y256540D02*
Y359410D01*
X2193290Y248920D02*
X2200910Y256540D01*
X2016760Y248920D02*
X2193290D01*
X2065020Y358140D02*
Y463550D01*
X1992630Y535940D02*
X2065020Y463550D01*
X1992630Y535940D02*
Y642620D01*
X2001520Y651510D01*
X2034091D01*
X2049930Y635671D01*
X2076450Y358140D02*
Y515620D01*
X2071370Y520700D02*
X2076450Y515620D01*
X2026920Y520700D02*
X2071370D01*
X2008020Y539600D02*
X2026920Y520700D01*
X2008020Y539600D02*
Y583601D01*
X2087880Y358140D02*
Y524971D01*
X2080721Y532130D02*
X2087880Y524971D01*
X2034540Y532130D02*
X2080721D01*
X2024969Y541701D02*
X2034540Y532130D01*
X2024969Y541701D02*
Y546331D01*
X2098040Y356870D02*
Y543241D01*
X2094629Y546651D02*
X2098040Y543241D01*
X2059971Y546651D02*
X2094629D01*
X2132330Y351790D02*
X2133600Y353060D01*
X2109389Y356870D02*
Y558721D01*
X2104390Y563720D02*
X2109389Y558721D01*
X2096920Y563720D02*
X2104390D01*
X2119630Y358140D02*
Y567690D01*
X2108799Y578521D02*
X2119630Y567690D01*
X2096920Y578521D02*
X2108799D01*
X2249170Y345440D02*
X2278256D01*
X2302604Y321092D01*
X2375644Y218002D02*
X2392374Y234732D01*
X2279094Y218002D02*
X2375644D01*
X2261094Y236002D02*
X2279094Y218002D01*
X2243532Y218440D02*
X2261094Y236002D01*
X1887220Y218440D02*
X2243532D01*
X1877060Y228600D02*
X1887220Y218440D01*
X1877060Y228600D02*
Y284480D01*
X2302604Y284382D02*
Y321092D01*
Y284382D02*
X2315304Y271682D01*
X2315402Y271780D01*
X2329180D01*
X2341880Y319780D02*
X2354580D01*
Y247526D02*
X2367374Y234732D01*
X2354580Y247526D02*
Y271780D01*
X2341880Y235226D02*
X2342374Y234732D01*
X2341880Y235226D02*
Y271780D01*
X2269708Y420464D02*
X2270858Y421614D01*
X2278598D01*
X2279842Y420370D01*
X2296420D01*
X2278598Y406614D02*
X2279654Y407670D01*
X2296420D01*
X2278692Y433070D02*
X2296420D01*
X2344420Y394970D02*
X2344478Y394912D01*
X2400474Y420370D02*
X2400518Y420414D01*
X2432058Y407714D02*
X2432268Y407924D01*
X2375074Y407670D02*
X2375118Y407714D01*
D85*
X1811528Y333756D02*
D03*
X1655318Y333502D02*
D03*
X1786128Y491236D02*
D03*
X1629918Y490982D02*
D03*
X1786636Y648208D02*
D03*
X1629918Y648462D02*
D03*
D86*
X1811528Y308356D02*
D03*
X1655318Y308102D02*
D03*
X1786128Y465836D02*
D03*
X1629918Y465582D02*
D03*
X1786636Y622808D02*
D03*
X1629918Y623062D02*
D03*
D87*
X1662176Y895096D02*
D03*
Y844804D02*
D03*
X2440940Y742696D02*
D03*
Y792988D02*
D03*
D88*
X1740154Y1097280D02*
D03*
X1790446D02*
D03*
X2034794Y1097534D02*
D03*
X1984502D02*
D03*
X2278126Y1097788D02*
D03*
X2227834D02*
D03*
X2520696Y1097534D02*
D03*
X2470404D02*
D03*
X1964436Y746252D02*
D03*
X2014728D02*
D03*
D89*
X1909064Y689356D02*
D03*
Y663956D02*
D03*
Y714756D02*
D03*
X1909318Y473456D02*
D03*
Y448056D02*
D03*
Y498856D02*
D03*
X2000504Y420370D02*
D03*
Y394970D02*
D03*
Y445770D02*
D03*
X2016760Y248920D02*
D03*
X1965960D02*
D03*
X1991360D02*
D03*
D90*
X1909064Y638556D02*
D03*
X1909318Y422656D02*
D03*
X2000504Y369570D02*
D03*
D91*
X2014982Y818454D02*
D03*
X2469896Y1023874D02*
D03*
X2227834D02*
D03*
X1983994D02*
D03*
X1739646Y1023620D02*
D03*
D92*
X2014982Y838454D02*
D03*
X2367374Y234732D02*
D03*
X2342374D02*
D03*
X2392374D02*
D03*
X2417374D02*
D03*
X2286094Y236002D02*
D03*
X2261094D02*
D03*
X2236094D02*
D03*
X2375118Y382314D02*
D03*
X2400518Y395014D02*
D03*
X2375118Y407714D02*
D03*
X2400518Y420414D02*
D03*
X2375118Y433114D02*
D03*
X2400518Y445814D02*
D03*
X2469896Y1003874D02*
D03*
X2227834D02*
D03*
X1983994D02*
D03*
X1739646Y1003620D02*
D03*
X1756156Y843788D02*
D03*
D93*
X2336800Y629848D02*
D03*
D94*
X1976374Y303022D02*
D03*
X2077974D02*
D03*
X2052574D02*
D03*
X2027174D02*
D03*
X2001774D02*
D03*
D95*
X1940560Y248920D02*
D03*
D96*
X1736156Y843788D02*
D03*
D97*
X2529544Y1184424D02*
D03*
X1579880Y1183640D02*
D03*
X1579544Y234424D02*
D03*
X2529544D02*
D03*
D98*
X1953420Y547464D02*
D03*
X1933448Y532892D02*
D03*
X1947441Y618721D02*
D03*
X1939036Y632460D02*
D03*
X1974596Y605790D02*
D03*
X1953682Y604774D02*
D03*
X1942592Y527558D02*
D03*
X1651000Y620268D02*
D03*
Y613410D02*
D03*
X2039620Y845566D02*
D03*
X2046478D02*
D03*
X2053590D02*
D03*
X2060702D02*
D03*
Y838708D02*
D03*
X2053590D02*
D03*
X2046478D02*
D03*
X2039620D02*
D03*
X2060702Y831850D02*
D03*
X2053590D02*
D03*
X2046478D02*
D03*
X2039620D02*
D03*
X2060702Y824992D02*
D03*
X2053590D02*
D03*
X2046478D02*
D03*
X2039620D02*
D03*
X1669288Y312166D02*
D03*
X1676400D02*
D03*
Y305308D02*
D03*
X1669288D02*
D03*
X1676400Y298450D02*
D03*
X1669288D02*
D03*
X1676400Y291592D02*
D03*
X1669288D02*
D03*
X1644396Y469646D02*
D03*
X1651508D02*
D03*
Y462788D02*
D03*
X1644396D02*
D03*
X1651508Y455930D02*
D03*
X1644396D02*
D03*
X1651508Y449072D02*
D03*
X1644396D02*
D03*
X1643888Y627126D02*
D03*
X1651000D02*
D03*
X1643888Y620268D02*
D03*
Y613410D02*
D03*
X1651000Y606552D02*
D03*
X1643888D02*
D03*
X1701038Y679196D02*
D03*
X1708150D02*
D03*
X1715008D02*
D03*
X1722120D02*
D03*
X1729232D02*
D03*
Y672338D02*
D03*
X1722120D02*
D03*
X1715008D02*
D03*
X1708150D02*
D03*
X1701038D02*
D03*
X1729232Y665480D02*
D03*
X1722120D02*
D03*
X1715008D02*
D03*
X1708150D02*
D03*
X1701038D02*
D03*
X1729232Y658622D02*
D03*
X1722120D02*
D03*
X1715008D02*
D03*
X1708150D02*
D03*
X1701038D02*
D03*
X1729232Y651510D02*
D03*
X1722120D02*
D03*
X1715008D02*
D03*
X1708150D02*
D03*
X1701038D02*
D03*
X1726438Y363728D02*
D03*
X1733550D02*
D03*
X1740408D02*
D03*
X1747520D02*
D03*
X1754632D02*
D03*
Y356870D02*
D03*
X1747520D02*
D03*
X1740408D02*
D03*
X1733550D02*
D03*
X1726438D02*
D03*
X1754632Y350012D02*
D03*
X1747520D02*
D03*
X1740408D02*
D03*
X1733550D02*
D03*
X1726438D02*
D03*
X1754632Y343154D02*
D03*
X1747520D02*
D03*
X1740408D02*
D03*
X1733550D02*
D03*
X1726438D02*
D03*
X1754632Y336042D02*
D03*
X1747520D02*
D03*
X1740408D02*
D03*
X1733550D02*
D03*
X1726438D02*
D03*
X1694180Y520446D02*
D03*
X1701292D02*
D03*
X1708150D02*
D03*
X1715262D02*
D03*
X1722374D02*
D03*
Y513588D02*
D03*
X1715262D02*
D03*
X1708150D02*
D03*
X1701292D02*
D03*
X1694180D02*
D03*
X1722374Y506730D02*
D03*
X1715262D02*
D03*
X1708150D02*
D03*
X1701292D02*
D03*
X1694180D02*
D03*
X1722374Y499872D02*
D03*
X1715262D02*
D03*
X1708150D02*
D03*
X1701292D02*
D03*
X1694180D02*
D03*
X1722374Y492760D02*
D03*
X1715262D02*
D03*
X1708150D02*
D03*
X1701292D02*
D03*
X1694180D02*
D03*
X1822958Y713486D02*
D03*
X1830070D02*
D03*
X1836928D02*
D03*
X1908048Y735330D02*
D03*
X1915160D02*
D03*
X1836928Y706628D02*
D03*
X1830070D02*
D03*
X1822958D02*
D03*
X1836928Y699770D02*
D03*
X1830070D02*
D03*
X1822958D02*
D03*
X1836928Y692912D02*
D03*
X1830070D02*
D03*
X1822958D02*
D03*
X1836928Y685800D02*
D03*
X1830070D02*
D03*
X1822958D02*
D03*
X1808480Y854456D02*
D03*
X1815592D02*
D03*
X1822450D02*
D03*
X1829562D02*
D03*
X1836674D02*
D03*
Y847598D02*
D03*
X1829562D02*
D03*
X1822450D02*
D03*
X1815592D02*
D03*
X1808480D02*
D03*
X1836674Y840740D02*
D03*
X1829562D02*
D03*
X1822450D02*
D03*
X1815592D02*
D03*
X1836674Y833882D02*
D03*
X1829562D02*
D03*
X1822450D02*
D03*
X1836674Y826770D02*
D03*
X1829562D02*
D03*
X2299970Y961136D02*
D03*
X2307082D02*
D03*
X2313940D02*
D03*
X2321052D02*
D03*
X2328164D02*
D03*
Y954278D02*
D03*
X2321052D02*
D03*
X2313940D02*
D03*
X2307082D02*
D03*
X2299970D02*
D03*
X2328164Y947420D02*
D03*
X2321052D02*
D03*
X2313940D02*
D03*
X2307082D02*
D03*
X2299970D02*
D03*
X2328164Y940562D02*
D03*
X2321052D02*
D03*
X2313940D02*
D03*
X2307082D02*
D03*
X2299970D02*
D03*
X2328164Y933450D02*
D03*
X2321052D02*
D03*
X2313940D02*
D03*
X2307082D02*
D03*
X2299970D02*
D03*
X2147570Y846836D02*
D03*
X2154682D02*
D03*
X2161540D02*
D03*
X2168652D02*
D03*
Y839978D02*
D03*
X2161540D02*
D03*
X2154682D02*
D03*
X2147570D02*
D03*
X2168652Y833120D02*
D03*
X2161540D02*
D03*
X2154682D02*
D03*
X2147570D02*
D03*
X2168652Y826262D02*
D03*
X2161540D02*
D03*
X2154682D02*
D03*
X2147570D02*
D03*
X2168652Y819150D02*
D03*
X2161540D02*
D03*
X2154682D02*
D03*
X2147570D02*
D03*
X2059940Y962406D02*
D03*
X2067052D02*
D03*
X2073910D02*
D03*
X2081022D02*
D03*
X2088134D02*
D03*
Y955548D02*
D03*
X2081022D02*
D03*
X2073910D02*
D03*
X2067052D02*
D03*
X2059940D02*
D03*
X2088134Y948690D02*
D03*
X2081022D02*
D03*
X2073910D02*
D03*
X2067052D02*
D03*
X2059940D02*
D03*
X2088134Y941832D02*
D03*
X2081022D02*
D03*
X2073910D02*
D03*
X2067052D02*
D03*
X2059940D02*
D03*
X2088134Y934720D02*
D03*
X2081022D02*
D03*
X2073910D02*
D03*
X2067052D02*
D03*
X2059940D02*
D03*
X1954388Y494009D02*
D03*
X1961499D02*
D03*
X1968358D02*
D03*
X1954388Y500867D02*
D03*
X1961499D02*
D03*
X1968358D02*
D03*
Y507725D02*
D03*
X1961499D02*
D03*
X1954388D02*
D03*
X1852930Y245618D02*
D03*
X1827276Y560578D02*
D03*
X1828292Y403098D02*
D03*
X1952752Y797306D02*
D03*
X1947164Y792480D02*
D03*
X1717802Y930402D02*
D03*
X1725168Y938022D02*
D03*
X1746504Y958596D02*
D03*
X1753616D02*
D03*
X1760728D02*
D03*
Y951738D02*
D03*
X1753616D02*
D03*
X1746504D02*
D03*
X1739646D02*
D03*
X1725168Y930656D02*
D03*
X1760728Y944880D02*
D03*
X1753616D02*
D03*
X1746504D02*
D03*
X1739646D02*
D03*
X1732534D02*
D03*
X1760728Y938022D02*
D03*
X1753616D02*
D03*
X1746504D02*
D03*
X1739646D02*
D03*
X1732534D02*
D03*
X1760728Y930910D02*
D03*
X1753616D02*
D03*
X1746504D02*
D03*
X1739646D02*
D03*
X1732534D02*
D03*
X2489200Y963168D02*
D03*
Y956310D02*
D03*
X2482088D02*
D03*
X2474976D02*
D03*
X2489200Y949452D02*
D03*
X2482088D02*
D03*
X2474976D02*
D03*
X2468118D02*
D03*
X2489200Y942594D02*
D03*
X2482088D02*
D03*
X2474976D02*
D03*
X2468118D02*
D03*
X2461006D02*
D03*
X2489200Y935482D02*
D03*
X2482088D02*
D03*
X2474976D02*
D03*
X2468118D02*
D03*
X2461006D02*
D03*
X2453640D02*
D03*
X1910842Y853694D02*
D03*
X1917954D02*
D03*
Y846836D02*
D03*
X1910842D02*
D03*
X1917954Y839978D02*
D03*
X1910842D02*
D03*
X1917700Y818134D02*
D03*
X1910588D02*
D03*
X1917954Y833120D02*
D03*
X1910842D02*
D03*
X1917700Y811276D02*
D03*
X1910588D02*
D03*
X1917954Y826008D02*
D03*
X1910842D02*
D03*
X1917700Y804164D02*
D03*
X1910588D02*
D03*
X2011172Y351282D02*
D03*
X2018284D02*
D03*
X2025142D02*
D03*
X2032254D02*
D03*
X2039366D02*
D03*
Y344424D02*
D03*
X2032254D02*
D03*
X2025142D02*
D03*
X2018284D02*
D03*
X2011172D02*
D03*
X2039366Y337566D02*
D03*
X2032254D02*
D03*
X2025142D02*
D03*
X2018284D02*
D03*
X2011172D02*
D03*
X2039366Y330708D02*
D03*
X2032254D02*
D03*
X2025142D02*
D03*
X2018284D02*
D03*
X2011172D02*
D03*
X2039366Y323596D02*
D03*
X2032254D02*
D03*
X2025142D02*
D03*
X2018284D02*
D03*
X2011172D02*
D03*
X2104644Y336804D02*
D03*
X2111756D02*
D03*
X2118614D02*
D03*
X2125726D02*
D03*
X2132838D02*
D03*
Y329946D02*
D03*
X2125726D02*
D03*
X2118614D02*
D03*
X2111756D02*
D03*
X2104644D02*
D03*
X2132838Y323088D02*
D03*
X2125726D02*
D03*
X2118614D02*
D03*
X2111756D02*
D03*
X2104644D02*
D03*
X2132838Y316230D02*
D03*
X2125726D02*
D03*
X2118614D02*
D03*
X2111756D02*
D03*
X2104644D02*
D03*
X2132838Y309118D02*
D03*
X2125726D02*
D03*
X2118614D02*
D03*
X2111756D02*
D03*
X2104644D02*
D03*
X1573530Y331978D02*
D03*
X1580642D02*
D03*
X1587500D02*
D03*
X1594612D02*
D03*
X1601724D02*
D03*
Y325120D02*
D03*
X1594612D02*
D03*
X1587500D02*
D03*
X1580642D02*
D03*
X1573530D02*
D03*
X1601724Y318262D02*
D03*
X1594612D02*
D03*
X1587500D02*
D03*
X1580642D02*
D03*
X1573530D02*
D03*
X1601724Y311404D02*
D03*
X1594612D02*
D03*
X1587500D02*
D03*
X1580642D02*
D03*
X1573530D02*
D03*
X1601724Y304292D02*
D03*
X1594612D02*
D03*
X1587500D02*
D03*
X1580642D02*
D03*
X1573530D02*
D03*
X1569466Y884682D02*
D03*
X1576578D02*
D03*
X1583436D02*
D03*
X1590548D02*
D03*
X1597660D02*
D03*
Y877824D02*
D03*
X1590548D02*
D03*
X1583436D02*
D03*
X1576578D02*
D03*
X1569466D02*
D03*
X1597660Y870966D02*
D03*
X1590548D02*
D03*
X1583436D02*
D03*
X1576578D02*
D03*
X1569466D02*
D03*
X1597660Y864108D02*
D03*
X1590548D02*
D03*
X1583436D02*
D03*
X1576578D02*
D03*
X1569466D02*
D03*
X1597660Y856996D02*
D03*
X1590548D02*
D03*
X1583436D02*
D03*
X1576578D02*
D03*
X1569466D02*
D03*
X1569974Y1008380D02*
D03*
X1577086D02*
D03*
X1583944D02*
D03*
X1591056D02*
D03*
X1598168D02*
D03*
Y1001522D02*
D03*
X1591056D02*
D03*
X1583944D02*
D03*
X1577086D02*
D03*
X1569974D02*
D03*
X1598168Y994664D02*
D03*
X1591056D02*
D03*
X1583944D02*
D03*
X1577086D02*
D03*
X1569974D02*
D03*
X1598168Y987806D02*
D03*
X1591056D02*
D03*
X1583944D02*
D03*
X1577086D02*
D03*
X1569974D02*
D03*
X1598168Y980694D02*
D03*
X1591056D02*
D03*
X1583944D02*
D03*
X1577086D02*
D03*
X1569974D02*
D03*
X1718564Y1194054D02*
D03*
X1725676D02*
D03*
X1732534D02*
D03*
X1739646D02*
D03*
X1746758D02*
D03*
Y1187196D02*
D03*
X1739646D02*
D03*
X1732534D02*
D03*
X1725676D02*
D03*
X1718564D02*
D03*
X1746758Y1180338D02*
D03*
X1739646D02*
D03*
X1732534D02*
D03*
X1725676D02*
D03*
X1718564D02*
D03*
X1746758Y1173480D02*
D03*
X1739646D02*
D03*
X1732534D02*
D03*
X1725676D02*
D03*
X1718564D02*
D03*
X1746758Y1166368D02*
D03*
X1739646D02*
D03*
X1732534D02*
D03*
X1725676D02*
D03*
X1718564D02*
D03*
X1962912Y1194816D02*
D03*
X1970024D02*
D03*
X1976882D02*
D03*
X1983994D02*
D03*
X1991106D02*
D03*
Y1187958D02*
D03*
X1983994D02*
D03*
X1976882D02*
D03*
X1970024D02*
D03*
X1962912D02*
D03*
X1991106Y1181100D02*
D03*
X1983994D02*
D03*
X1976882D02*
D03*
X1970024D02*
D03*
X1962912D02*
D03*
X1991106Y1174242D02*
D03*
X1983994D02*
D03*
X1976882D02*
D03*
X1970024D02*
D03*
X1962912D02*
D03*
X1991106Y1167130D02*
D03*
X1983994D02*
D03*
X1976882D02*
D03*
X1970024D02*
D03*
X1962912D02*
D03*
X2214118Y1195070D02*
D03*
X2221230D02*
D03*
X2228088D02*
D03*
X2235200D02*
D03*
X2242312D02*
D03*
Y1188212D02*
D03*
X2235200D02*
D03*
X2228088D02*
D03*
X2221230D02*
D03*
X2214118D02*
D03*
X2242312Y1181354D02*
D03*
X2235200D02*
D03*
X2228088D02*
D03*
X2221230D02*
D03*
X2214118D02*
D03*
X2242312Y1174496D02*
D03*
X2235200D02*
D03*
X2228088D02*
D03*
X2221230D02*
D03*
X2214118D02*
D03*
X2242312Y1167384D02*
D03*
X2235200D02*
D03*
X2228088D02*
D03*
X2221230D02*
D03*
X2214118D02*
D03*
X2448814Y1194054D02*
D03*
X2455926D02*
D03*
X2462784D02*
D03*
X2469896D02*
D03*
X2477008D02*
D03*
Y1187196D02*
D03*
X2469896D02*
D03*
X2462784D02*
D03*
X2455926D02*
D03*
X2448814D02*
D03*
X2477008Y1180338D02*
D03*
X2469896D02*
D03*
X2462784D02*
D03*
X2455926D02*
D03*
X2448814D02*
D03*
X2477008Y1173480D02*
D03*
X2469896D02*
D03*
X2462784D02*
D03*
X2455926D02*
D03*
X2448814D02*
D03*
X2477008Y1166368D02*
D03*
X2469896D02*
D03*
X2462784D02*
D03*
X2455926D02*
D03*
X2448814D02*
D03*
X2132838Y641858D02*
D03*
X2185670Y541020D02*
D03*
X2177288Y531876D02*
D03*
X2185416Y532384D02*
D03*
X2150364Y530860D02*
D03*
X2131060Y549402D02*
D03*
X2131314Y573024D02*
D03*
X2142490Y641858D02*
D03*
X2185670Y630428D02*
D03*
X2175764Y639826D02*
D03*
X2185670Y640080D02*
D03*
X1719580Y243586D02*
D03*
X1726692D02*
D03*
X1733550D02*
D03*
X1740662D02*
D03*
X1747774D02*
D03*
X1719580Y250698D02*
D03*
X1726692D02*
D03*
X1733550D02*
D03*
X1740662D02*
D03*
X1747774D02*
D03*
X1719580Y257556D02*
D03*
X1726692D02*
D03*
X1733550D02*
D03*
X1740662D02*
D03*
X1747774D02*
D03*
X1719580Y264414D02*
D03*
X1726692D02*
D03*
X1733550D02*
D03*
X1740662D02*
D03*
X1747774D02*
D03*
Y271272D02*
D03*
X1740662D02*
D03*
X1733550D02*
D03*
X1726692D02*
D03*
X1719580D02*
D03*
X1694180Y400050D02*
D03*
X1701292D02*
D03*
X1708150D02*
D03*
X1715262D02*
D03*
X1722374D02*
D03*
X1694180Y407162D02*
D03*
X1701292D02*
D03*
X1708150D02*
D03*
X1715262D02*
D03*
X1722374D02*
D03*
X1694180Y414020D02*
D03*
X1701292D02*
D03*
X1708150D02*
D03*
X1715262D02*
D03*
X1722374D02*
D03*
X1694180Y420878D02*
D03*
X1701292D02*
D03*
X1708150D02*
D03*
X1715262D02*
D03*
X1722374D02*
D03*
Y427736D02*
D03*
X1715262D02*
D03*
X1708150D02*
D03*
X1701292D02*
D03*
X1694180D02*
D03*
X1694688Y585978D02*
D03*
X1701800D02*
D03*
X1708658D02*
D03*
X1715770D02*
D03*
X1722882D02*
D03*
Y579120D02*
D03*
X1715770D02*
D03*
X1708658D02*
D03*
X1701800D02*
D03*
X1694688D02*
D03*
X1722882Y572262D02*
D03*
X1715770D02*
D03*
X1708658D02*
D03*
X1701800D02*
D03*
X1694688D02*
D03*
X1722882Y565404D02*
D03*
X1715770D02*
D03*
X1708658D02*
D03*
X1701800D02*
D03*
X1694688D02*
D03*
X1722882Y558292D02*
D03*
X1715770D02*
D03*
X1708658D02*
D03*
X1701800D02*
D03*
X1694688D02*
D03*
X2025142Y797052D02*
D03*
X2018030D02*
D03*
X2011172D02*
D03*
X2004060D02*
D03*
X2004568Y764286D02*
D03*
X2011680D02*
D03*
X2018538D02*
D03*
X2025650D02*
D03*
X2004060Y804672D02*
D03*
X2011172D02*
D03*
X2018030D02*
D03*
X2025142D02*
D03*
X1715008Y834898D02*
D03*
Y842010D02*
D03*
Y848868D02*
D03*
Y855980D02*
D03*
X1682242Y855472D02*
D03*
Y848360D02*
D03*
Y841502D02*
D03*
Y834390D02*
D03*
X1722628Y855980D02*
D03*
Y848868D02*
D03*
Y842010D02*
D03*
Y834898D02*
D03*
X1730502Y1045220D02*
D03*
X1737614D02*
D03*
X1744472D02*
D03*
X1751584D02*
D03*
X1751076Y1077986D02*
D03*
X1743964D02*
D03*
X1737106D02*
D03*
X1729994D02*
D03*
X1751584Y1037600D02*
D03*
X1744472D02*
D03*
X1737614D02*
D03*
X1730502D02*
D03*
X1974596Y1045210D02*
D03*
X1981708D02*
D03*
X1988566D02*
D03*
X1995678D02*
D03*
X1995170Y1077976D02*
D03*
X1988058D02*
D03*
X1981200D02*
D03*
X1974088D02*
D03*
X1995678Y1037590D02*
D03*
X1988566D02*
D03*
X1981708D02*
D03*
X1974596D02*
D03*
X2218182Y1045972D02*
D03*
X2225294D02*
D03*
X2232152D02*
D03*
X2239264D02*
D03*
X2238756Y1078738D02*
D03*
X2231644D02*
D03*
X2224786D02*
D03*
X2217674D02*
D03*
X2239264Y1038352D02*
D03*
X2232152D02*
D03*
X2225294D02*
D03*
X2218182D02*
D03*
X2459990Y1046480D02*
D03*
X2467102D02*
D03*
X2473960D02*
D03*
X2481072D02*
D03*
X2480564Y1079246D02*
D03*
X2473452D02*
D03*
X2466594D02*
D03*
X2459482D02*
D03*
X2481072Y1038860D02*
D03*
X2473960D02*
D03*
X2467102D02*
D03*
X2459990D02*
D03*
X2030730Y596392D02*
D03*
X2037842D02*
D03*
X2044700D02*
D03*
X2051812D02*
D03*
Y589534D02*
D03*
X2044700D02*
D03*
X2037842D02*
D03*
X2030730D02*
D03*
X2051812Y582676D02*
D03*
X2044700D02*
D03*
X2037842D02*
D03*
X2030730D02*
D03*
X2051812Y575818D02*
D03*
X2044700D02*
D03*
X2037842D02*
D03*
X2030730D02*
D03*
X2051812Y568706D02*
D03*
X2044700D02*
D03*
X2037842D02*
D03*
X2030730D02*
D03*
X2063750Y624332D02*
D03*
X2070862D02*
D03*
X2077720D02*
D03*
X2084832D02*
D03*
X2091944D02*
D03*
Y617474D02*
D03*
X2084832D02*
D03*
X2077720D02*
D03*
X2070862D02*
D03*
X2063750D02*
D03*
X2091944Y610616D02*
D03*
X2084832D02*
D03*
X2077720D02*
D03*
X2070862D02*
D03*
X2063750D02*
D03*
X2091944Y603758D02*
D03*
X2084832D02*
D03*
X2077720D02*
D03*
X2070862D02*
D03*
X2063750D02*
D03*
X2091944Y596646D02*
D03*
X2084832D02*
D03*
X2077720D02*
D03*
X2070862D02*
D03*
X2063750D02*
D03*
X1854200Y271018D02*
D03*
X1963166Y426212D02*
D03*
X1812798Y448437D02*
D03*
X1819910D02*
D03*
X1826768D02*
D03*
X1833880D02*
D03*
X1840992D02*
D03*
X1812798Y455295D02*
D03*
X1819910D02*
D03*
X1826768D02*
D03*
X1833880D02*
D03*
X1840992D02*
D03*
X1812798Y462153D02*
D03*
X1819910D02*
D03*
X1826768D02*
D03*
X1833880D02*
D03*
X1840992D02*
D03*
Y469011D02*
D03*
X1833880D02*
D03*
X1826768D02*
D03*
X1819910D02*
D03*
X1812798D02*
D03*
X1838198Y290957D02*
D03*
X1845310D02*
D03*
X1852168D02*
D03*
X1859280D02*
D03*
X1866392D02*
D03*
X1838198Y297815D02*
D03*
X1845310D02*
D03*
X1852168D02*
D03*
X1859280D02*
D03*
X1866392D02*
D03*
X1838198Y304673D02*
D03*
X1845310D02*
D03*
X1852168D02*
D03*
X1859280D02*
D03*
X1866392D02*
D03*
Y311531D02*
D03*
X1859280D02*
D03*
X1852168D02*
D03*
X1845310D02*
D03*
X1838198D02*
D03*
X1812798Y626491D02*
D03*
X1819910D02*
D03*
X1826768D02*
D03*
X1833880D02*
D03*
X1840992D02*
D03*
Y619633D02*
D03*
X1833880D02*
D03*
X1826768D02*
D03*
X1819910D02*
D03*
X1812798D02*
D03*
X1840992Y612775D02*
D03*
X1833880D02*
D03*
X1826768D02*
D03*
X1819910D02*
D03*
X1812798D02*
D03*
X1840992Y605917D02*
D03*
X1833880D02*
D03*
X1826768D02*
D03*
X1819910D02*
D03*
X1812798D02*
D03*
X2247900Y439420D02*
D03*
X2239010Y449580D02*
D03*
X2225040D02*
D03*
Y393700D02*
D03*
X2239010D02*
D03*
X2278598Y433164D02*
D03*
X2274788Y395064D02*
D03*
X2249144Y294302D02*
D03*
X2024969Y546331D02*
D03*
X2059971Y546651D02*
D03*
X2008020Y583601D02*
D03*
X2049930Y635671D02*
D03*
X2096920Y563720D02*
D03*
Y578521D02*
D03*
X2249144Y345414D02*
D03*
X2459990Y265176D02*
D03*
X2467102D02*
D03*
X2473960D02*
D03*
X2481072D02*
D03*
X2488184D02*
D03*
Y258318D02*
D03*
X2481072D02*
D03*
X2473960D02*
D03*
X2467102D02*
D03*
X2459990D02*
D03*
X2488184Y251460D02*
D03*
X2481072D02*
D03*
X2473960D02*
D03*
X2467102D02*
D03*
X2459990D02*
D03*
X2488184Y244602D02*
D03*
X2481072D02*
D03*
X2473960D02*
D03*
X2467102D02*
D03*
X2459990D02*
D03*
X2488184Y237490D02*
D03*
X2481072D02*
D03*
X2473960D02*
D03*
X2467102D02*
D03*
X2459990D02*
D03*
X2506980Y308864D02*
D03*
X2514092D02*
D03*
X2520950D02*
D03*
X2528062D02*
D03*
X2535174D02*
D03*
Y302006D02*
D03*
X2528062D02*
D03*
X2520950D02*
D03*
X2514092D02*
D03*
X2506980D02*
D03*
X2535174Y295148D02*
D03*
X2528062D02*
D03*
X2520950D02*
D03*
X2514092D02*
D03*
X2506980D02*
D03*
X2535174Y288290D02*
D03*
X2528062D02*
D03*
X2520950D02*
D03*
X2514092D02*
D03*
X2506980D02*
D03*
X2535174Y281178D02*
D03*
X2528062D02*
D03*
X2520950D02*
D03*
X2514092D02*
D03*
X2506980D02*
D03*
X2336894Y335062D02*
D03*
X2266950Y327660D02*
D03*
X2293634Y291802D02*
D03*
X2367280Y303406D02*
D03*
X2329180D02*
D03*
X2503170Y395986D02*
D03*
X2510282D02*
D03*
X2517140D02*
D03*
X2524252D02*
D03*
X2531364D02*
D03*
Y389128D02*
D03*
X2524252D02*
D03*
X2517140D02*
D03*
X2510282D02*
D03*
X2503170D02*
D03*
X2531364Y382270D02*
D03*
X2524252D02*
D03*
X2517140D02*
D03*
X2510282D02*
D03*
X2503170D02*
D03*
X2531364Y375412D02*
D03*
X2524252D02*
D03*
X2517140D02*
D03*
X2510282D02*
D03*
X2503170D02*
D03*
X2531364Y368300D02*
D03*
X2524252D02*
D03*
X2517140D02*
D03*
X2510282D02*
D03*
X2503170D02*
D03*
Y457454D02*
D03*
X2510282D02*
D03*
X2517140D02*
D03*
X2524252D02*
D03*
X2531364D02*
D03*
Y450596D02*
D03*
X2524252D02*
D03*
X2517140D02*
D03*
X2510282D02*
D03*
X2503170D02*
D03*
X2531364Y443738D02*
D03*
X2524252D02*
D03*
X2517140D02*
D03*
X2510282D02*
D03*
X2503170D02*
D03*
X2531364Y436880D02*
D03*
X2524252D02*
D03*
X2517140D02*
D03*
X2510282D02*
D03*
X2503170D02*
D03*
X2531364Y429768D02*
D03*
X2524252D02*
D03*
X2517140D02*
D03*
X2510282D02*
D03*
X2503170D02*
D03*
X2269708Y420464D02*
D03*
X2358867Y622300D02*
D03*
X2365979D02*
D03*
X2358867Y629158D02*
D03*
X2365979D02*
D03*
Y636016D02*
D03*
X2358867D02*
D03*
X2300478Y622580D02*
D03*
X2307590D02*
D03*
X2314448D02*
D03*
X2300478Y629438D02*
D03*
X2307590D02*
D03*
X2314448D02*
D03*
Y636296D02*
D03*
X2307590D02*
D03*
X2300478D02*
D03*
X2469642Y620776D02*
D03*
X2476754D02*
D03*
X2469642Y627888D02*
D03*
X2476754D02*
D03*
X2469642Y634746D02*
D03*
X2476754D02*
D03*
X2469642Y641604D02*
D03*
X2476754D02*
D03*
Y648462D02*
D03*
X2469642D02*
D03*
X2469388Y716534D02*
D03*
X2476500D02*
D03*
X2483358D02*
D03*
X2490470D02*
D03*
X2497582D02*
D03*
X2469388Y723646D02*
D03*
X2476500D02*
D03*
X2483358D02*
D03*
X2490470D02*
D03*
X2497582D02*
D03*
X2469388Y730504D02*
D03*
X2476500D02*
D03*
X2483358D02*
D03*
X2490470D02*
D03*
X2497582D02*
D03*
X2469388Y737362D02*
D03*
X2476500D02*
D03*
X2483358D02*
D03*
X2490470D02*
D03*
X2497582D02*
D03*
Y744220D02*
D03*
X2490470D02*
D03*
X2483358D02*
D03*
X2476500D02*
D03*
X2469388D02*
D03*
Y753618D02*
D03*
X2476500D02*
D03*
X2483358D02*
D03*
X2490470D02*
D03*
X2497582D02*
D03*
X2469388Y760730D02*
D03*
X2476500D02*
D03*
X2483358D02*
D03*
X2490470D02*
D03*
X2497582D02*
D03*
X2469388Y767588D02*
D03*
X2476500D02*
D03*
X2483358D02*
D03*
X2490470D02*
D03*
X2497582D02*
D03*
X2469388Y774446D02*
D03*
X2476500D02*
D03*
X2483358D02*
D03*
X2490470D02*
D03*
X2497582D02*
D03*
Y781304D02*
D03*
X2490470D02*
D03*
X2483358D02*
D03*
X2476500D02*
D03*
X2469388D02*
D03*
Y790194D02*
D03*
X2476500D02*
D03*
X2483358D02*
D03*
X2490470D02*
D03*
X2497582D02*
D03*
X2469388Y797306D02*
D03*
X2476500D02*
D03*
X2483358D02*
D03*
X2490470D02*
D03*
X2497582D02*
D03*
X2469388Y804164D02*
D03*
X2476500D02*
D03*
X2483358D02*
D03*
X2490470D02*
D03*
X2497582D02*
D03*
X2469388Y811022D02*
D03*
X2476500D02*
D03*
X2483358D02*
D03*
X2490470D02*
D03*
X2497582D02*
D03*
Y817880D02*
D03*
X2490470D02*
D03*
X2483358D02*
D03*
X2476500D02*
D03*
X2469388D02*
D03*
X2507488Y753364D02*
D03*
X2514600D02*
D03*
X2521458D02*
D03*
X2528570D02*
D03*
X2535682D02*
D03*
X2507488Y760476D02*
D03*
X2514600D02*
D03*
X2521458D02*
D03*
X2528570D02*
D03*
X2535682D02*
D03*
X2507488Y767334D02*
D03*
X2514600D02*
D03*
X2521458D02*
D03*
X2528570D02*
D03*
X2535682D02*
D03*
X2507488Y774192D02*
D03*
X2514600D02*
D03*
X2521458D02*
D03*
X2528570D02*
D03*
X2535682D02*
D03*
Y781050D02*
D03*
X2528570D02*
D03*
X2521458D02*
D03*
X2514600D02*
D03*
X2507488D02*
D03*
Y716534D02*
D03*
X2514600D02*
D03*
X2521458D02*
D03*
X2528570D02*
D03*
X2535682D02*
D03*
X2507488Y723646D02*
D03*
X2514600D02*
D03*
X2521458D02*
D03*
X2528570D02*
D03*
X2535682D02*
D03*
X2507488Y730504D02*
D03*
X2514600D02*
D03*
X2521458D02*
D03*
X2528570D02*
D03*
X2535682D02*
D03*
X2507488Y737362D02*
D03*
X2514600D02*
D03*
X2521458D02*
D03*
X2528570D02*
D03*
X2535682D02*
D03*
Y744220D02*
D03*
X2528570D02*
D03*
X2521458D02*
D03*
X2514600D02*
D03*
X2507488D02*
D03*
Y790194D02*
D03*
X2514600D02*
D03*
X2521458D02*
D03*
X2528570D02*
D03*
X2535682D02*
D03*
X2507488Y797306D02*
D03*
X2514600D02*
D03*
X2521458D02*
D03*
X2528570D02*
D03*
X2535682D02*
D03*
X2507488Y804164D02*
D03*
X2514600D02*
D03*
X2521458D02*
D03*
X2528570D02*
D03*
X2535682D02*
D03*
X2507488Y811022D02*
D03*
X2514600D02*
D03*
X2521458D02*
D03*
X2528570D02*
D03*
X2535682D02*
D03*
Y817880D02*
D03*
X2528570D02*
D03*
X2521458D02*
D03*
X2514600D02*
D03*
X2507488D02*
D03*
X2229866Y836930D02*
D03*
X2236978D02*
D03*
X2243836D02*
D03*
X2250948D02*
D03*
X2258060D02*
D03*
Y843788D02*
D03*
X2250948D02*
D03*
X2243836D02*
D03*
X2236978D02*
D03*
X2229866D02*
D03*
X2225548Y752348D02*
D03*
X2232660D02*
D03*
X2262378D02*
D03*
X2269490D02*
D03*
X2225548Y759460D02*
D03*
X2269490D02*
D03*
X2225558Y777240D02*
D03*
X2269490D02*
D03*
Y784098D02*
D03*
X2232670D02*
D03*
X2225558D02*
D03*
X2273300Y813054D02*
D03*
X2280412D02*
D03*
X2287270D02*
D03*
X2294382D02*
D03*
X2301494D02*
D03*
X2273300Y820166D02*
D03*
X2280412D02*
D03*
X2287270D02*
D03*
X2294382D02*
D03*
X2301494D02*
D03*
X2273300Y827024D02*
D03*
X2280412D02*
D03*
X2287270D02*
D03*
X2294382D02*
D03*
X2301494D02*
D03*
X2273300Y833882D02*
D03*
X2280412D02*
D03*
X2287270D02*
D03*
X2294382D02*
D03*
X2301494D02*
D03*
Y840740D02*
D03*
X2294382D02*
D03*
X2287270D02*
D03*
X2280412D02*
D03*
X2273300D02*
D03*
X2376170Y747014D02*
D03*
X2383282D02*
D03*
X2390140D02*
D03*
X2397252D02*
D03*
X2404364D02*
D03*
X2376170Y754126D02*
D03*
X2383282D02*
D03*
X2390140D02*
D03*
X2397252D02*
D03*
X2404364D02*
D03*
X2376170Y760984D02*
D03*
X2383282D02*
D03*
X2390140D02*
D03*
X2397252D02*
D03*
X2404364D02*
D03*
X2376170Y767842D02*
D03*
X2383282D02*
D03*
X2390140D02*
D03*
X2397252D02*
D03*
X2404364D02*
D03*
Y774700D02*
D03*
X2397252D02*
D03*
X2390140D02*
D03*
X2383282D02*
D03*
X2376170D02*
D03*
Y813054D02*
D03*
X2383282D02*
D03*
X2390140D02*
D03*
X2397252D02*
D03*
X2404364D02*
D03*
X2376170Y820166D02*
D03*
X2383282D02*
D03*
X2390140D02*
D03*
X2397252D02*
D03*
X2404364D02*
D03*
X2376170Y827024D02*
D03*
X2383282D02*
D03*
X2390140D02*
D03*
X2397252D02*
D03*
X2404364D02*
D03*
X2376170Y833882D02*
D03*
X2383282D02*
D03*
X2390140D02*
D03*
X2397252D02*
D03*
X2404364D02*
D03*
Y840740D02*
D03*
X2397252D02*
D03*
X2390140D02*
D03*
X2383282D02*
D03*
X2376170D02*
D03*
X2504440Y529844D02*
D03*
X2511552D02*
D03*
X2518410D02*
D03*
X2525522D02*
D03*
X2532634D02*
D03*
X2504440Y536956D02*
D03*
X2511552D02*
D03*
X2518410D02*
D03*
X2525522D02*
D03*
X2532634D02*
D03*
X2504440Y543814D02*
D03*
X2511552D02*
D03*
X2518410D02*
D03*
X2525522D02*
D03*
X2532634D02*
D03*
X2504440Y550672D02*
D03*
X2511552D02*
D03*
X2518410D02*
D03*
X2525522D02*
D03*
X2532634D02*
D03*
Y557530D02*
D03*
X2525522D02*
D03*
X2518410D02*
D03*
X2511552D02*
D03*
X2504440D02*
D03*
X2313940Y501904D02*
D03*
X2321052D02*
D03*
X2327910D02*
D03*
X2335022D02*
D03*
X2342134D02*
D03*
X2313940Y509016D02*
D03*
X2321052D02*
D03*
X2327910D02*
D03*
X2335022D02*
D03*
X2342134D02*
D03*
X2313940Y515874D02*
D03*
X2321052D02*
D03*
X2327910D02*
D03*
X2335022D02*
D03*
X2342134D02*
D03*
X2313940Y522732D02*
D03*
X2321052D02*
D03*
X2327910D02*
D03*
X2335022D02*
D03*
X2342134D02*
D03*
Y529590D02*
D03*
X2335022D02*
D03*
X2327910D02*
D03*
X2321052D02*
D03*
X2313940D02*
D03*
X2231390Y501904D02*
D03*
X2238502D02*
D03*
X2245360D02*
D03*
X2252472D02*
D03*
X2259584D02*
D03*
X2231390Y509016D02*
D03*
X2238502D02*
D03*
X2245360D02*
D03*
X2252472D02*
D03*
X2259584D02*
D03*
X2231390Y515874D02*
D03*
X2238502D02*
D03*
X2245360D02*
D03*
X2252472D02*
D03*
X2259584D02*
D03*
X2231390Y522732D02*
D03*
X2238502D02*
D03*
X2245360D02*
D03*
X2252472D02*
D03*
X2259584D02*
D03*
Y529590D02*
D03*
X2252472D02*
D03*
X2245360D02*
D03*
X2238502D02*
D03*
X2231390D02*
D03*
X1907794Y742950D02*
D03*
X1914906D02*
D03*
X1907794Y750062D02*
D03*
X1914906D02*
D03*
X1907794Y756920D02*
D03*
X1914906D02*
D03*
X1907794Y763778D02*
D03*
X1914906D02*
D03*
Y770636D02*
D03*
X1907794D02*
D03*
X2223008Y614426D02*
D03*
X2230120D02*
D03*
X2236978D02*
D03*
X2244090D02*
D03*
X2251202D02*
D03*
X2223008Y621538D02*
D03*
X2230120D02*
D03*
X2236978D02*
D03*
X2244090D02*
D03*
X2251202D02*
D03*
X2223008Y628396D02*
D03*
X2230120D02*
D03*
X2236978D02*
D03*
X2244090D02*
D03*
X2251202D02*
D03*
X2223008Y635254D02*
D03*
X2230120D02*
D03*
X2236978D02*
D03*
X2244090D02*
D03*
X2251202D02*
D03*
Y642112D02*
D03*
X2244090D02*
D03*
X2236978D02*
D03*
X2230120D02*
D03*
X2223008D02*
D03*
X2143252Y377952D02*
D03*
X2150364D02*
D03*
X2157222D02*
D03*
X2164334D02*
D03*
X2171446D02*
D03*
X2143252Y385064D02*
D03*
X2150364D02*
D03*
X2157222D02*
D03*
X2164334D02*
D03*
X2171446D02*
D03*
X2143252Y391922D02*
D03*
X2150364D02*
D03*
X2157222D02*
D03*
X2164334D02*
D03*
X2171446D02*
D03*
X2143252Y398780D02*
D03*
X2150364D02*
D03*
X2157222D02*
D03*
X2164334D02*
D03*
X2171446D02*
D03*
Y405638D02*
D03*
X2164334D02*
D03*
X2157222D02*
D03*
X2150364D02*
D03*
X2143252D02*
D03*
X1672590Y428498D02*
D03*
X1828800Y585978D02*
D03*
X1672590D02*
D03*
X1828800Y428498D02*
D03*
X1697990Y271018D02*
D03*
D99*
X2343150Y629848D02*
D03*
X2330450D02*
D03*
D100*
X2067416Y761492D02*
D03*
X2092816D02*
D03*
X2067416D02*
D03*
Y741172D02*
D03*
X2092816Y761492D02*
D03*
Y741172D02*
D03*
X2118216Y761492D02*
D03*
X2142346D02*
D03*
X2118216D02*
D03*
X2142346D02*
D03*
X2118216Y741172D02*
D03*
X2142346D02*
D03*
X2118216D02*
D03*
X2142346D02*
D03*
Y722122D02*
D03*
X2067416D02*
D03*
X2092816D02*
D03*
X2067416D02*
D03*
Y701802D02*
D03*
X2092816Y722122D02*
D03*
X2067416Y701802D02*
D03*
X2092816D02*
D03*
D03*
X2142346Y722122D02*
D03*
X2118216D02*
D03*
Y701802D02*
D03*
D03*
X2142346D02*
D03*
D03*
X1622806Y718710D02*
D03*
D03*
Y742840D02*
D03*
D03*
X1643126D02*
D03*
Y718710D02*
D03*
X1622806Y768240D02*
D03*
D03*
Y793640D02*
D03*
X1643126Y768240D02*
D03*
X1622806Y793640D02*
D03*
X1643126D02*
D03*
Y768240D02*
D03*
Y793640D02*
D03*
Y718710D02*
D03*
X1662176D02*
D03*
Y742840D02*
D03*
Y718710D02*
D03*
Y742840D02*
D03*
X1682496Y718710D02*
D03*
Y742840D02*
D03*
Y718710D02*
D03*
Y742840D02*
D03*
X1662176Y768240D02*
D03*
X1682496D02*
D03*
X1662176Y793640D02*
D03*
X1682496D02*
D03*
Y768240D02*
D03*
Y793640D02*
D03*
X1687830Y1136904D02*
D03*
Y1116584D02*
D03*
Y1136904D02*
D03*
Y1097534D02*
D03*
Y1116584D02*
D03*
X1662430Y1136904D02*
D03*
D03*
X1637030D02*
D03*
X1662430Y1116584D02*
D03*
D03*
X1687830Y1077214D02*
D03*
X1662430Y1097534D02*
D03*
X1687830Y1077214D02*
D03*
X1637030Y1097534D02*
D03*
X1662430Y1077214D02*
D03*
D03*
X1637030Y1136904D02*
D03*
Y1116584D02*
D03*
X1612900Y1136904D02*
D03*
X1637030Y1077214D02*
D03*
Y1097534D02*
D03*
X1612900Y1116584D02*
D03*
D03*
Y1136904D02*
D03*
Y1097534D02*
D03*
D03*
X1637030Y1077214D02*
D03*
X1612900D02*
D03*
D03*
X1932178Y1137158D02*
D03*
D03*
X1906778D02*
D03*
X1932178Y1116838D02*
D03*
D03*
X1906778D02*
D03*
D03*
Y1137158D02*
D03*
Y1097788D02*
D03*
X1881378D02*
D03*
X1932178Y1077468D02*
D03*
D03*
Y1097788D02*
D03*
X1906778Y1077468D02*
D03*
D03*
X1881378Y1137158D02*
D03*
D03*
X1857248D02*
D03*
X1881378Y1097788D02*
D03*
Y1116838D02*
D03*
X1857248D02*
D03*
D03*
Y1137158D02*
D03*
Y1097788D02*
D03*
D03*
X1881378Y1077468D02*
D03*
D03*
X1857248D02*
D03*
D03*
X2176018Y1137158D02*
D03*
Y1116838D02*
D03*
Y1137158D02*
D03*
Y1116838D02*
D03*
X2150618Y1097788D02*
D03*
Y1137158D02*
D03*
D03*
Y1116838D02*
D03*
D03*
X2176018Y1077468D02*
D03*
D03*
Y1097788D02*
D03*
X2150618Y1077468D02*
D03*
D03*
X2125218Y1137158D02*
D03*
Y1116838D02*
D03*
Y1137158D02*
D03*
Y1097788D02*
D03*
D03*
X2101088Y1137158D02*
D03*
D03*
Y1116838D02*
D03*
D03*
X2125218Y1077468D02*
D03*
D03*
X2101088Y1097788D02*
D03*
D03*
Y1077468D02*
D03*
D03*
X2297430Y787908D02*
D03*
X2288540Y516128D02*
D03*
X2418080Y1137158D02*
D03*
D03*
Y1116838D02*
D03*
X2392680Y1137158D02*
D03*
X2418080Y1116838D02*
D03*
Y1097788D02*
D03*
X2392680D02*
D03*
X2418080Y1077468D02*
D03*
D03*
X2392680D02*
D03*
X2367280Y1137158D02*
D03*
X2392680D02*
D03*
X2367280D02*
D03*
X2392680Y1116838D02*
D03*
D03*
X2367280D02*
D03*
X2343150Y1137158D02*
D03*
Y1116838D02*
D03*
Y1137158D02*
D03*
X2367280Y1097788D02*
D03*
D03*
X2343150Y1116838D02*
D03*
X2367280Y1077468D02*
D03*
X2392680D02*
D03*
X2367280D02*
D03*
X2343150Y1097788D02*
D03*
Y1077468D02*
D03*
Y1097788D02*
D03*
Y1077468D02*
D03*
D101*
X1964764Y781558D02*
D03*
X2005764D02*
D03*
X2479876Y1061974D02*
D03*
X2520876D02*
D03*
X2237814D02*
D03*
X2278814D02*
D03*
X1993974D02*
D03*
X2034974D02*
D03*
X1749626Y1061720D02*
D03*
X1790626D02*
D03*
D102*
X2060090Y569511D02*
D03*
Y554510D02*
D03*
X2049930Y611660D02*
D03*
Y626661D02*
D03*
X2025038Y554257D02*
D03*
Y569257D02*
D03*
X2315304Y271682D02*
D03*
Y286682D02*
D03*
X2236564Y294302D02*
D03*
Y309302D02*
D03*
X2278598Y421614D02*
D03*
Y406614D02*
D03*
D103*
X2329180Y319780D02*
D03*
X2341880D02*
D03*
X2354580D02*
D03*
X2367280D02*
D03*
X2329180Y271780D02*
D03*
X2341880D02*
D03*
X2354580D02*
D03*
X2367280D02*
D03*
D104*
X2202700Y460134D02*
D03*
Y414134D02*
D03*
D105*
Y437134D02*
D03*
D106*
X2140700Y437134D02*
D03*
D107*
X2296420Y394970D02*
D03*
Y407670D02*
D03*
Y420370D02*
D03*
Y433070D02*
D03*
X2344420Y394970D02*
D03*
Y407670D02*
D03*
Y420370D02*
D03*
Y433070D02*
D03*
D108*
X1649650Y252578D02*
D03*
X1631950Y243078D02*
D03*
Y262078D02*
D03*
X1780460Y567538D02*
D03*
X1762760Y558038D02*
D03*
Y577038D02*
D03*
X1805860Y252578D02*
D03*
X1788160Y243078D02*
D03*
Y262078D02*
D03*
X1624250Y410058D02*
D03*
X1606550Y400558D02*
D03*
Y419558D02*
D03*
X1780460Y410058D02*
D03*
X1762760Y400558D02*
D03*
Y419558D02*
D03*
X1624250Y567538D02*
D03*
X1606550Y558038D02*
D03*
Y577038D02*
D03*
M02*
