G04*
G04 #@! TF.GenerationSoftware,Altium Limited,Altium Designer,20.1.7 (139)*
G04*
G04 Layer_Color=32768*
%FSLAX44Y44*%
%MOMM*%
G71*
G04*
G04 #@! TF.SameCoordinates,741834D1-4314-455D-B734-137E6C24AB52*
G04*
G04*
G04 #@! TF.FilePolarity,Positive*
G04*
G01*
G75*
%ADD18C,0.0508*%
%ADD117C,0.1000*%
%ADD118C,0.0500*%
D18*
X1911604Y676656D02*
G03*
X1911604Y676656I-2540J0D01*
G01*
X1911858Y460756D02*
G03*
X1911858Y460756I-2540J0D01*
G01*
X2003044Y407670D02*
G03*
X2003044Y407670I-2540J0D01*
G01*
X2040382Y828454D02*
G03*
X2040382Y828454I-25400J0D01*
G01*
X2159000Y589280D02*
G03*
X2159000Y589280I-1270J0D01*
G01*
X2155190Y261620D02*
G03*
X2155190Y261620I-2540J0D01*
G01*
X1981200Y248920D02*
G03*
X1981200Y248920I-2540J0D01*
G01*
X2495296Y1013874D02*
G03*
X2495296Y1013874I-25400J0D01*
G01*
X2253234D02*
G03*
X2253234Y1013874I-25400J0D01*
G01*
X2009394D02*
G03*
X2009394Y1013874I-25400J0D01*
G01*
X1765046Y1013620D02*
G03*
X1765046Y1013620I-25400J0D01*
G01*
X1771556Y843788D02*
G03*
X1771556Y843788I-25400J0D01*
G01*
X1912112Y958723D02*
X1942084D01*
Y928243D02*
Y958723D01*
X1912112Y928243D02*
X1942084D01*
X1912112D02*
Y958723D01*
X2398014D02*
X2427986D01*
Y928243D02*
Y958723D01*
X2398014Y928243D02*
X2427986D01*
X2398014D02*
Y958723D01*
X2155952D02*
X2185924D01*
Y928243D02*
Y958723D01*
X2155952Y928243D02*
X2185924D01*
X2155952D02*
Y958723D01*
X2220468Y401828D02*
Y472186D01*
X2128012Y401828D02*
X2220468D01*
X2128012D02*
Y472186D01*
X2220468D01*
X1656000Y236068D02*
Y269088D01*
X1625520D02*
X1656000D01*
X1625520Y236068D02*
Y269088D01*
Y236068D02*
X1656000D01*
X1786810Y551028D02*
Y584048D01*
X1756330D02*
X1786810D01*
X1756330Y551028D02*
Y584048D01*
Y551028D02*
X1786810D01*
X1812210Y236068D02*
Y269088D01*
X1781730D02*
X1812210D01*
X1781730Y236068D02*
Y269088D01*
Y236068D02*
X1812210D01*
X1630600Y393548D02*
Y426568D01*
X1600120D02*
X1630600D01*
X1600120Y393548D02*
Y426568D01*
Y393548D02*
X1630600D01*
X1786810D02*
Y426568D01*
X1756330D02*
X1786810D01*
X1756330Y393548D02*
Y426568D01*
Y393548D02*
X1786810D01*
X1630600Y551028D02*
Y584048D01*
X1600120D02*
X1630600D01*
X1600120Y551028D02*
Y584048D01*
Y551028D02*
X1630600D01*
X1896364Y625856D02*
Y727456D01*
X1921764Y625856D02*
Y727456D01*
X1896364Y625856D02*
X1921764D01*
X1909064Y671576D02*
Y681736D01*
X1903984Y676656D02*
X1914144D01*
X1896364Y727456D02*
X1921764D01*
X1896618Y409956D02*
Y511556D01*
X1922018Y409956D02*
Y511556D01*
X1896618Y409956D02*
X1922018D01*
X1909318Y455676D02*
Y465836D01*
X1904238Y460756D02*
X1914398D01*
X1896618Y511556D02*
X1922018D01*
X1987804Y356870D02*
Y458470D01*
X2013204Y356870D02*
Y458470D01*
X1987804Y356870D02*
X2013204D01*
X2000504Y402590D02*
Y412750D01*
X1995424Y407670D02*
X2005584D01*
X1987804Y458470D02*
X2013204D01*
X2099056Y886079D02*
Y916559D01*
X2069084D02*
X2099056D01*
X2069084Y886079D02*
Y916559D01*
Y886079D02*
X2099056D01*
X2136730Y556280D02*
X2178730D01*
Y622280D01*
X2136730D02*
X2178730D01*
X2136730Y556280D02*
Y622280D01*
X2155190Y589280D02*
X2160270D01*
X2157730Y586740D02*
Y591820D01*
X1986470Y524971D02*
Y657471D01*
Y524971D02*
X2118970D01*
Y657471D01*
X1986470D02*
X2118970D01*
X2290724Y275132D02*
Y309422D01*
X2290470Y309676D02*
X2290724Y309422D01*
X2226208Y309676D02*
X2290470D01*
X2226208Y275132D02*
X2290724D01*
X2226208D02*
Y309676D01*
X1710436Y237998D02*
Y268478D01*
X1680464D02*
X1710436D01*
X1680464Y237998D02*
Y268478D01*
Y237998D02*
X1710436D01*
X1841246Y552958D02*
Y583438D01*
X1811274D02*
X1841246D01*
X1811274Y552958D02*
Y583438D01*
Y552958D02*
X1841246D01*
X1866646Y237998D02*
Y268478D01*
X1836674D02*
X1866646D01*
X1836674Y237998D02*
Y268478D01*
Y237998D02*
X1866646D01*
X1685036Y395478D02*
Y425958D01*
X1655064D02*
X1685036D01*
X1655064Y395478D02*
Y425958D01*
Y395478D02*
X1685036D01*
X1841246D02*
Y425958D01*
X1811274D02*
X1841246D01*
X1811274Y395478D02*
Y425958D01*
Y395478D02*
X1841246D01*
X1685036Y552958D02*
Y583438D01*
X1655064D02*
X1685036D01*
X1655064Y552958D02*
Y583438D01*
Y552958D02*
X1685036D01*
X1667764Y927989D02*
Y958469D01*
Y927989D02*
X1697736D01*
Y958469D01*
X1667764D02*
X1697736D01*
X1801241Y773574D02*
X1831721D01*
Y803546D01*
X1801241D02*
X1831721D01*
X1801241Y773574D02*
Y803546D01*
X2148840Y261620D02*
X2156460D01*
X2152650Y257810D02*
Y265430D01*
X2177782Y223520D02*
Y299720D01*
X2127490Y223520D02*
X2177782D01*
X2127490D02*
Y299720D01*
X2177782D01*
X2029460Y236220D02*
Y261620D01*
X1978660Y243840D02*
Y254000D01*
X1973580Y248920D02*
X1983740D01*
X1927860Y236220D02*
Y261620D01*
Y236220D02*
X2029460D01*
X1927860Y261620D02*
X2029460D01*
D117*
X2320730Y333280D02*
X2375730D01*
X2320730Y258280D02*
X2375730D01*
X2320730D02*
Y333280D01*
X2375730Y258280D02*
Y333280D01*
X2348230Y290780D02*
Y300780D01*
X2343230Y295780D02*
X2353230D01*
X2282920Y386520D02*
Y441520D01*
X2357920Y386520D02*
Y441520D01*
X2282920Y386520D02*
X2357920D01*
X2282920Y441520D02*
X2357920D01*
X2315420Y414020D02*
X2325420D01*
X2320420Y409020D02*
Y419020D01*
X2221662Y740123D02*
Y847123D01*
X2416276Y740123D02*
Y847123D01*
X2221662Y740123D02*
X2416276D01*
X2221662Y847123D02*
X2416276D01*
X2330276Y793623D02*
X2340276D01*
X2335276Y788623D02*
Y798623D01*
X2098755Y771398D02*
X2108755D01*
X2103755Y766398D02*
Y776398D01*
X2050255Y690398D02*
Y885012D01*
X2157255Y690398D02*
Y885012D01*
X2050255Y690398D02*
X2157255D01*
X2050255Y885012D02*
X2157255D01*
X1644910Y1072694D02*
X1654910D01*
X1649910Y1067694D02*
Y1077694D01*
X1703410Y959080D02*
Y1153694D01*
X1596410Y959080D02*
Y1153694D01*
X1703410D01*
X1596410Y959080D02*
X1703410D01*
X2331800Y629848D02*
X2341800D01*
X2336800Y624848D02*
Y634848D01*
X2326660Y959334D02*
X2433660D01*
X2326660Y1153948D02*
X2433660D01*
X2326660Y959334D02*
Y1153948D01*
X2433660Y959334D02*
Y1153948D01*
X2380160Y1067948D02*
Y1077948D01*
X2375160Y1072948D02*
X2385160D01*
X2084598Y959334D02*
X2191598D01*
X2084598Y1153948D02*
X2191598D01*
X2084598Y959334D02*
Y1153948D01*
X2191598Y959334D02*
Y1153948D01*
X2138098Y1067948D02*
Y1077948D01*
X2133098Y1072948D02*
X2143098D01*
X1840758Y959334D02*
X1947758D01*
X1840758Y1153948D02*
X1947758D01*
X1840758Y959334D02*
Y1153948D01*
X1947758Y959334D02*
Y1153948D01*
X1894258Y1067948D02*
Y1077948D01*
X1889258Y1072948D02*
X1899258D01*
X1687016Y750720D02*
Y760720D01*
X1682016Y755720D02*
X1692016D01*
X1606016Y809220D02*
X1800630D01*
X1606016Y702220D02*
X1800630D01*
X1606016D02*
Y809220D01*
X1800630Y702220D02*
Y809220D01*
D118*
X1988764Y781558D02*
G03*
X1988764Y781558I-3500J0D01*
G01*
X2061360Y562011D02*
G03*
X2061360Y562011I-1270J0D01*
G01*
X2024530Y583601D02*
G03*
X2024530Y583601I-1270J0D01*
G01*
X1617670Y253238D02*
G03*
X1617670Y253238I-3500J0D01*
G01*
X1748480Y568198D02*
G03*
X1748480Y568198I-3500J0D01*
G01*
X1773880Y253238D02*
G03*
X1773880Y253238I-3500J0D01*
G01*
X1592270Y410718D02*
G03*
X1592270Y410718I-3500J0D01*
G01*
X1748480D02*
G03*
X1748480Y410718I-3500J0D01*
G01*
X1592270Y568198D02*
G03*
X1592270Y568198I-3500J0D01*
G01*
X1679740Y253238D02*
G03*
X1679740Y253238I-3500J0D01*
G01*
X1810550Y568198D02*
G03*
X1810550Y568198I-3500J0D01*
G01*
X1835950Y253238D02*
G03*
X1835950Y253238I-3500J0D01*
G01*
X1654340Y410718D02*
G03*
X1654340Y410718I-3500J0D01*
G01*
X1810550D02*
G03*
X1810550Y410718I-3500J0D01*
G01*
X1654340Y568198D02*
G03*
X1654340Y568198I-3500J0D01*
G01*
X2337978Y374744D02*
G03*
X2337978Y374744I-3500J0D01*
G01*
X2435768Y417924D02*
G03*
X2435768Y417924I-3500J0D01*
G01*
X2251400Y742188D02*
G03*
X2251400Y742188I-3500J0D01*
G01*
X1696410Y325628D02*
G03*
X1696410Y325628I-3500J0D01*
G01*
X1827220Y640588D02*
G03*
X1827220Y640588I-3500J0D01*
G01*
X1852620Y325628D02*
G03*
X1852620Y325628I-3500J0D01*
G01*
X1671010Y483108D02*
G03*
X1671010Y483108I-3500J0D01*
G01*
X1827220D02*
G03*
X1827220Y483108I-3500J0D01*
G01*
X1671010Y640588D02*
G03*
X1671010Y640588I-3500J0D01*
G01*
X2503876Y1061974D02*
G03*
X2503876Y1061974I-3500J0D01*
G01*
X2261814D02*
G03*
X2261814Y1061974I-3500J0D01*
G01*
X2017974D02*
G03*
X2017974Y1061974I-3500J0D01*
G01*
X1773626Y1061720D02*
G03*
X1773626Y1061720I-3500J0D01*
G01*
X1701490Y874522D02*
G03*
X1701490Y874522I-3500J0D01*
G01*
X2051200Y619161D02*
G03*
X2051200Y619161I-1270J0D01*
G01*
X2082950Y563281D02*
G03*
X2082950Y563281I-1270J0D01*
G01*
Y578521D02*
G03*
X2082950Y578521I-1270J0D01*
G01*
X2026308Y561757D02*
G03*
X2026308Y561757I-1270J0D01*
G01*
X2316574Y279182D02*
G03*
X2316574Y279182I-1270J0D01*
G01*
X2237834Y301802D02*
G03*
X2237834Y301802I-1270J0D01*
G01*
X2186374Y384840D02*
G03*
X2186374Y384840I-3500J0D01*
G01*
X2189480Y480060D02*
G03*
X2189480Y480060I-1270J0D01*
G01*
X2279868Y414114D02*
G03*
X2279868Y414114I-1270J0D01*
G01*
X2249170Y792988D02*
G03*
X2249170Y792988I-1270J0D01*
G01*
X2133290Y900684D02*
G03*
X2133290Y900684I-3500J0D01*
G01*
X2112970D02*
G03*
X2112970Y900684I-3500J0D01*
G01*
X2032254Y876300D02*
G03*
X2032254Y876300I-1270J0D01*
G01*
X2017482Y818454D02*
G03*
X2017482Y818454I-2500J0D01*
G01*
X2304958Y395064D02*
G03*
X2304958Y395064I-3500J0D01*
G01*
Y433164D02*
G03*
X2304958Y433164I-3500J0D01*
G01*
X1966920Y537210D02*
G03*
X1966920Y537210I-3500J0D01*
G01*
X2358080Y942848D02*
G03*
X2358080Y942848I-3500J0D01*
G01*
X2116018D02*
G03*
X2116018Y942848I-3500J0D01*
G01*
X1872178D02*
G03*
X1872178Y942848I-3500J0D01*
G01*
X1627830Y942594D02*
G03*
X1627830Y942594I-3500J0D01*
G01*
X1820616Y730140D02*
G03*
X1820616Y730140I-3500J0D01*
G01*
X2383480Y942848D02*
G03*
X2383480Y942848I-3500J0D01*
G01*
X2141418D02*
G03*
X2141418Y942848I-3500J0D01*
G01*
X1897578D02*
G03*
X1897578Y942848I-3500J0D01*
G01*
X1653230Y942594D02*
G03*
X1653230Y942594I-3500J0D01*
G01*
X1820616Y755540D02*
G03*
X1820616Y755540I-3500J0D01*
G01*
X2337978Y395064D02*
G03*
X2337978Y395064I-3500J0D01*
G01*
Y433164D02*
G03*
X2337978Y433164I-3500J0D01*
G01*
X2288230Y611378D02*
G03*
X2288230Y611378I-3500J0D01*
G01*
X2303470Y591058D02*
G03*
X2303470Y591058I-3500J0D01*
G01*
X2326330Y573278D02*
G03*
X2326330Y573278I-3500J0D01*
G01*
X2304740Y646938D02*
G03*
X2304740Y646938I-3500J0D01*
G01*
X2286960D02*
G03*
X2286960Y646938I-3500J0D01*
G01*
X2293310Y566928D02*
G03*
X2293310Y566928I-3500J0D01*
G01*
X2327600Y686308D02*
G03*
X2327600Y686308I-3500J0D01*
G01*
X2252670Y792988D02*
G03*
X2252670Y792988I-3500J0D01*
G01*
X2383480Y608838D02*
G03*
X2383480Y608838I-3500J0D01*
G01*
X2159000Y627380D02*
G03*
X2159000Y627380I-1270J0D01*
G01*
Y551180D02*
G03*
X2159000Y551180I-1270J0D01*
G01*
X1962150Y523240D02*
G03*
X1962150Y523240I-1270J0D01*
G01*
X1667510Y254508D02*
G03*
X1667510Y254508I-1270J0D01*
G01*
X1798320Y569468D02*
G03*
X1798320Y569468I-1270J0D01*
G01*
X1823720Y254508D02*
G03*
X1823720Y254508I-1270J0D01*
G01*
X1642110Y411988D02*
G03*
X1642110Y411988I-1270J0D01*
G01*
X1798320D02*
G03*
X1798320Y411988I-1270J0D01*
G01*
X1642110Y569468D02*
G03*
X1642110Y569468I-1270J0D01*
G01*
X2452370Y970788D02*
G03*
X2452370Y970788I-1270J0D01*
G01*
X2210308D02*
G03*
X2210308Y970788I-1270J0D01*
G01*
X1966468D02*
G03*
X1966468Y970788I-1270J0D01*
G01*
X1722120Y970534D02*
G03*
X1722120Y970534I-1270J0D01*
G01*
X1790446Y826660D02*
G03*
X1790446Y826660I-1270J0D01*
G01*
X2472396Y1023874D02*
G03*
X2472396Y1023874I-2500J0D01*
G01*
X2230334D02*
G03*
X2230334Y1023874I-2500J0D01*
G01*
X1986494D02*
G03*
X1986494Y1023874I-2500J0D01*
G01*
X1742146Y1023620D02*
G03*
X1742146Y1023620I-2500J0D01*
G01*
X1738656Y843788D02*
G03*
X1738656Y843788I-2500J0D01*
G01*
X2344420Y563118D02*
G03*
X2344420Y563118I-1270J0D01*
G01*
X2377160Y545082D02*
G03*
X2377160Y545082I-3500J0D01*
G01*
X2344420Y583438D02*
G03*
X2344420Y583438I-1270J0D01*
G01*
X2364174Y716758D02*
G03*
X2364174Y716758I-3500J0D01*
G01*
Y683738D02*
G03*
X2364174Y683738I-3500J0D01*
G01*
X2376170Y658368D02*
G03*
X2376170Y658368I-1270J0D01*
G01*
X1980264Y781558D02*
X1990264D01*
X1985264Y776558D02*
Y786558D01*
X2019264Y765058D02*
Y798058D01*
X1951264D02*
X2019264D01*
X1951264Y765058D02*
Y798058D01*
Y765058D02*
X2019264D01*
X2067590Y547511D02*
Y576511D01*
X2052590Y547511D02*
X2067590D01*
X2052590D02*
Y576511D01*
X2067590D01*
X2057550Y562011D02*
X2062630D01*
X2060090Y559471D02*
Y564551D01*
X2008760Y576101D02*
X2037760D01*
X2008760D02*
Y591101D01*
X2037760D01*
Y576101D02*
Y591101D01*
X2023260Y581061D02*
Y586141D01*
X2020720Y583601D02*
X2025800D01*
X1624170Y235738D02*
Y270738D01*
X1604170Y235738D02*
X1624170D01*
X1604170D02*
Y270738D01*
X1624170D01*
X1609170Y253238D02*
X1619170D01*
X1614170Y248238D02*
Y258238D01*
X1754980Y550698D02*
Y585698D01*
X1734980Y550698D02*
X1754980D01*
X1734980D02*
Y585698D01*
X1754980D01*
X1739980Y568198D02*
X1749980D01*
X1744980Y563198D02*
Y573198D01*
X1780380Y235738D02*
Y270738D01*
X1760380Y235738D02*
X1780380D01*
X1760380D02*
Y270738D01*
X1780380D01*
X1765380Y253238D02*
X1775380D01*
X1770380Y248238D02*
Y258238D01*
X1598770Y393218D02*
Y428218D01*
X1578770Y393218D02*
X1598770D01*
X1578770D02*
Y428218D01*
X1598770D01*
X1583770Y410718D02*
X1593770D01*
X1588770Y405718D02*
Y415718D01*
X1754980Y393218D02*
Y428218D01*
X1734980Y393218D02*
X1754980D01*
X1734980D02*
Y428218D01*
X1754980D01*
X1739980Y410718D02*
X1749980D01*
X1744980Y405718D02*
Y415718D01*
X1598770Y550698D02*
Y585698D01*
X1578770Y550698D02*
X1598770D01*
X1578770D02*
Y585698D01*
X1598770D01*
X1583770Y568198D02*
X1593770D01*
X1588770Y563198D02*
Y573198D01*
X1676240Y248238D02*
Y258238D01*
X1671240Y253238D02*
X1681240D01*
X1666240Y270738D02*
X1686240D01*
X1666240Y235738D02*
Y270738D01*
Y235738D02*
X1686240D01*
Y270738D01*
X1807050Y563198D02*
Y573198D01*
X1802050Y568198D02*
X1812050D01*
X1797050Y585698D02*
X1817050D01*
X1797050Y550698D02*
Y585698D01*
Y550698D02*
X1817050D01*
Y585698D01*
X1832450Y248238D02*
Y258238D01*
X1827450Y253238D02*
X1837450D01*
X1822450Y270738D02*
X1842450D01*
X1822450Y235738D02*
Y270738D01*
Y235738D02*
X1842450D01*
Y270738D01*
X1650840Y405718D02*
Y415718D01*
X1645840Y410718D02*
X1655840D01*
X1640840Y428218D02*
X1660840D01*
X1640840Y393218D02*
Y428218D01*
Y393218D02*
X1660840D01*
Y428218D01*
X1807050Y405718D02*
Y415718D01*
X1802050Y410718D02*
X1812050D01*
X1797050Y428218D02*
X1817050D01*
X1797050Y393218D02*
Y428218D01*
Y393218D02*
X1817050D01*
Y428218D01*
X1650840Y563198D02*
Y573198D01*
X1645840Y568198D02*
X1655840D01*
X1640840Y585698D02*
X1660840D01*
X1640840Y550698D02*
Y585698D01*
Y550698D02*
X1660840D01*
Y585698D01*
X2316978Y384744D02*
X2351978D01*
Y364744D02*
Y384744D01*
X2316978Y364744D02*
X2351978D01*
X2316978D02*
Y384744D01*
X2334478Y369744D02*
Y379744D01*
X2329478Y374744D02*
X2339478D01*
X2422268Y400424D02*
Y435424D01*
X2442268D01*
Y400424D02*
Y435424D01*
X2422268Y400424D02*
X2442268D01*
X2427268Y417924D02*
X2437268D01*
X2432268Y412924D02*
Y422924D01*
X2237900Y724688D02*
Y759688D01*
X2257900D01*
Y724688D02*
Y759688D01*
X2237900Y724688D02*
X2257900D01*
X2242900Y742188D02*
X2252900D01*
X2247900Y737188D02*
Y747188D01*
X1676410Y291628D02*
Y359628D01*
X1709410D01*
Y291628D02*
Y359628D01*
X1676410Y291628D02*
X1709410D01*
X1687910Y325628D02*
X1697910D01*
X1692910Y320628D02*
Y330628D01*
X1807220Y606588D02*
Y674588D01*
X1840220D01*
Y606588D02*
Y674588D01*
X1807220Y606588D02*
X1840220D01*
X1818720Y640588D02*
X1828720D01*
X1823720Y635588D02*
Y645588D01*
X1832620Y291628D02*
Y359628D01*
X1865620D01*
Y291628D02*
Y359628D01*
X1832620Y291628D02*
X1865620D01*
X1844120Y325628D02*
X1854120D01*
X1849120Y320628D02*
Y330628D01*
X1651010Y449108D02*
Y517108D01*
X1684010D01*
Y449108D02*
Y517108D01*
X1651010Y449108D02*
X1684010D01*
X1662510Y483108D02*
X1672510D01*
X1667510Y478108D02*
Y488108D01*
X1807220Y449108D02*
Y517108D01*
X1840220D01*
Y449108D02*
Y517108D01*
X1807220Y449108D02*
X1840220D01*
X1818720Y483108D02*
X1828720D01*
X1823720Y478108D02*
Y488108D01*
X1651010Y606588D02*
Y674588D01*
X1684010D01*
Y606588D02*
Y674588D01*
X1651010Y606588D02*
X1684010D01*
X1662510Y640588D02*
X1672510D01*
X1667510Y635588D02*
Y645588D01*
X2466376Y1078474D02*
X2534376D01*
Y1045474D02*
Y1078474D01*
X2466376Y1045474D02*
X2534376D01*
X2466376D02*
Y1078474D01*
X2500376Y1056974D02*
Y1066974D01*
X2495376Y1061974D02*
X2505376D01*
X2224314Y1078474D02*
X2292314D01*
Y1045474D02*
Y1078474D01*
X2224314Y1045474D02*
X2292314D01*
X2224314D02*
Y1078474D01*
X2258314Y1056974D02*
Y1066974D01*
X2253314Y1061974D02*
X2263314D01*
X1980474Y1078474D02*
X2048474D01*
Y1045474D02*
Y1078474D01*
X1980474Y1045474D02*
X2048474D01*
X1980474D02*
Y1078474D01*
X2014474Y1056974D02*
Y1066974D01*
X2009474Y1061974D02*
X2019474D01*
X1736126Y1078220D02*
X1804126D01*
Y1045220D02*
Y1078220D01*
X1736126Y1045220D02*
X1804126D01*
X1736126D02*
Y1078220D01*
X1770126Y1056720D02*
Y1066720D01*
X1765126Y1061720D02*
X1775126D01*
X1681490Y840522D02*
Y908522D01*
X1714490D01*
Y840522D02*
Y908522D01*
X1681490Y840522D02*
X1714490D01*
X1692990Y874522D02*
X1702990D01*
X1697990Y869522D02*
Y879522D01*
X2042430Y604661D02*
Y633661D01*
X2057430D01*
Y604661D02*
Y633661D01*
X2042430Y604661D02*
X2057430D01*
X2047390Y619161D02*
X2052470D01*
X2049930Y616621D02*
Y621701D01*
X2079140Y563281D02*
X2084220D01*
X2081680Y560741D02*
Y565821D01*
X2067180Y555780D02*
Y570781D01*
Y555780D02*
X2096180D01*
Y570781D01*
X2067180D02*
X2096180D01*
X2079140Y578521D02*
X2084220D01*
X2081680Y575981D02*
Y581061D01*
X2067180Y571021D02*
Y586021D01*
Y571021D02*
X2096180D01*
Y586021D01*
X2067180D02*
X2096180D01*
X2025038Y559217D02*
Y564297D01*
X2022498Y561757D02*
X2027578D01*
X2017538Y576257D02*
X2032538D01*
X2017538Y547257D02*
Y576257D01*
Y547257D02*
X2032538D01*
Y576257D01*
X2315304Y276642D02*
Y281722D01*
X2312764Y279182D02*
X2317844D01*
X2307804Y293682D02*
X2322804D01*
X2307804Y264682D02*
Y293682D01*
Y264682D02*
X2322804D01*
Y293682D01*
X2236564Y299262D02*
Y304342D01*
X2234024Y301802D02*
X2239104D01*
X2229064Y316302D02*
X2244064D01*
X2229064Y287302D02*
Y316302D01*
Y287302D02*
X2244064D01*
Y316302D01*
X2159374Y368840D02*
X2206374D01*
X2159374D02*
Y400840D01*
X2206374D01*
Y368840D02*
Y400840D01*
X2182874Y379840D02*
Y389840D01*
X2177874Y384840D02*
X2187874D01*
X2185670Y480060D02*
X2190750D01*
X2188210Y477520D02*
Y482600D01*
X2173710Y472560D02*
Y487560D01*
Y472560D02*
X2202710D01*
Y487560D01*
X2173710D02*
X2202710D01*
X2278598Y411574D02*
Y416654D01*
X2276058Y414114D02*
X2281138D01*
X2271098Y399614D02*
X2286098D01*
Y428614D01*
X2271098D02*
X2286098D01*
X2271098Y399614D02*
Y428614D01*
X2247900Y790448D02*
Y795528D01*
X2245360Y792988D02*
X2250440D01*
X2237900Y775488D02*
X2257900D01*
Y810488D01*
X2237900D02*
X2257900D01*
X2237900Y775488D02*
Y810488D01*
X2129790Y895684D02*
Y905684D01*
X2124790Y900684D02*
X2134790D01*
X2119790Y918184D02*
X2139790D01*
Y883184D02*
Y918184D01*
X2119790Y883184D02*
X2139790D01*
X2119790D02*
Y918184D01*
X2109470Y895684D02*
Y905684D01*
X2104470Y900684D02*
X2114470D01*
X2099470Y918184D02*
X2119470D01*
Y883184D02*
Y918184D01*
X2099470Y883184D02*
X2119470D01*
X2099470D02*
Y918184D01*
X2013484Y886300D02*
X2048484D01*
X2013484Y866300D02*
Y886300D01*
Y866300D02*
X2048484D01*
Y886300D01*
X2030984Y873760D02*
Y878840D01*
X2028444Y876300D02*
X2033524D01*
X2014982Y814954D02*
Y821954D01*
X2011482Y818454D02*
X2018482D01*
X2309300Y592848D02*
Y666848D01*
X2364300Y592848D02*
Y666848D01*
X2309300Y592848D02*
X2364300D01*
X2309300Y666848D02*
X2364300D01*
X2296458Y395064D02*
X2306458D01*
X2301458Y390064D02*
Y400064D01*
X2284958Y385564D02*
Y404564D01*
X2317958D01*
Y385564D02*
Y404564D01*
X2284958Y385564D02*
X2317958D01*
X2296458Y433164D02*
X2306458D01*
X2301458Y428164D02*
Y438164D01*
X2284958Y423664D02*
Y442664D01*
X2317958D01*
Y423664D02*
Y442664D01*
X2284958Y423664D02*
X2317958D01*
X1958420Y537210D02*
X1968420D01*
X1963420Y532210D02*
Y542210D01*
X1945920Y527210D02*
Y547210D01*
X1980920D01*
Y527210D02*
Y547210D01*
X1945920Y527210D02*
X1980920D01*
X2354580Y937848D02*
Y947848D01*
X2349580Y942848D02*
X2359580D01*
X2344580Y925348D02*
X2364580D01*
X2344580D02*
Y960348D01*
X2364580D01*
Y925348D02*
Y960348D01*
X2112518Y937848D02*
Y947848D01*
X2107518Y942848D02*
X2117518D01*
X2102518Y925348D02*
X2122518D01*
X2102518D02*
Y960348D01*
X2122518D01*
Y925348D02*
Y960348D01*
X1868678Y937848D02*
Y947848D01*
X1863678Y942848D02*
X1873678D01*
X1858678Y925348D02*
X1878678D01*
X1858678D02*
Y960348D01*
X1878678D01*
Y925348D02*
Y960348D01*
X1624330Y937594D02*
Y947594D01*
X1619330Y942594D02*
X1629330D01*
X1614330Y925094D02*
X1634330D01*
X1614330D02*
Y960094D01*
X1634330D01*
Y925094D02*
Y960094D01*
X1812116Y730140D02*
X1822116D01*
X1817116Y725140D02*
Y735140D01*
X1834616Y720140D02*
Y740140D01*
X1799616Y720140D02*
X1834616D01*
X1799616D02*
Y740140D01*
X1834616D01*
X2389980Y925348D02*
Y960348D01*
X2369980D02*
X2389980D01*
X2369980Y925348D02*
Y960348D01*
Y925348D02*
X2389980D01*
X2374980Y942848D02*
X2384980D01*
X2379980Y937848D02*
Y947848D01*
X2147918Y925348D02*
Y960348D01*
X2127918D02*
X2147918D01*
X2127918Y925348D02*
Y960348D01*
Y925348D02*
X2147918D01*
X2132918Y942848D02*
X2142918D01*
X2137918Y937848D02*
Y947848D01*
X1904078Y925348D02*
Y960348D01*
X1884078D02*
X1904078D01*
X1884078Y925348D02*
Y960348D01*
Y925348D02*
X1904078D01*
X1889078Y942848D02*
X1899078D01*
X1894078Y937848D02*
Y947848D01*
X1659730Y925094D02*
Y960094D01*
X1639730D02*
X1659730D01*
X1639730Y925094D02*
Y960094D01*
Y925094D02*
X1659730D01*
X1644730Y942594D02*
X1654730D01*
X1649730Y937594D02*
Y947594D01*
X1799616Y765540D02*
X1834616D01*
X1799616Y745540D02*
Y765540D01*
Y745540D02*
X1834616D01*
Y765540D01*
X1817116Y750540D02*
Y760540D01*
X1812116Y755540D02*
X1822116D01*
X2329478Y395064D02*
X2339478D01*
X2334478Y390064D02*
Y400064D01*
X2316978Y385064D02*
Y405064D01*
X2351978D01*
Y385064D02*
Y405064D01*
X2316978Y385064D02*
X2351978D01*
X2329478Y433164D02*
X2339478D01*
X2334478Y428164D02*
Y438164D01*
X2316978Y423164D02*
Y443164D01*
X2351978D01*
Y423164D02*
Y443164D01*
X2316978Y423164D02*
X2351978D01*
X2284730Y606378D02*
Y616378D01*
X2279730Y611378D02*
X2289730D01*
X2274730Y628878D02*
X2294730D01*
Y593878D02*
Y628878D01*
X2274730Y593878D02*
X2294730D01*
X2274730D02*
Y628878D01*
X2299970Y586058D02*
Y596058D01*
X2294970Y591058D02*
X2304970D01*
X2289970Y608558D02*
X2309970D01*
Y573558D02*
Y608558D01*
X2289970Y573558D02*
X2309970D01*
X2289970D02*
Y608558D01*
X2322830Y568278D02*
Y578278D01*
X2317830Y573278D02*
X2327830D01*
X2312830Y555778D02*
X2332830D01*
X2312830D02*
Y590778D01*
X2332830D01*
Y555778D02*
Y590778D01*
X2301240Y641938D02*
Y651938D01*
X2296240Y646938D02*
X2306240D01*
X2291240Y629438D02*
X2311240D01*
X2291240D02*
Y664438D01*
X2311240D01*
Y629438D02*
Y664438D01*
X2283460Y641938D02*
Y651938D01*
X2278460Y646938D02*
X2288460D01*
X2273460Y629438D02*
X2293460D01*
X2273460D02*
Y664438D01*
X2293460D01*
Y629438D02*
Y664438D01*
X2284810Y566928D02*
X2294810D01*
X2289810Y561928D02*
Y571928D01*
X2307310Y556928D02*
Y576928D01*
X2272310Y556928D02*
X2307310D01*
X2272310D02*
Y576928D01*
X2307310D01*
X2324100Y681308D02*
Y691308D01*
X2319100Y686308D02*
X2329100D01*
X2314100Y668808D02*
X2334100D01*
X2314100D02*
Y703808D01*
X2334100D01*
Y668808D02*
Y703808D01*
X2232670Y758988D02*
Y826988D01*
Y758988D02*
X2265670D01*
Y826988D01*
X2232670D02*
X2265670D01*
X2244170Y792988D02*
X2254170D01*
X2249170Y787988D02*
Y797988D01*
X2396480Y574838D02*
Y642838D01*
X2363480D02*
X2396480D01*
X2363480Y574838D02*
Y642838D01*
Y574838D02*
X2396480D01*
X2374980Y608838D02*
X2384980D01*
X2379980Y603838D02*
Y613838D01*
X2143230Y634880D02*
X2172230D01*
X2143230Y619880D02*
Y634880D01*
Y619880D02*
X2172230D01*
Y634880D01*
X2157730Y624840D02*
Y629920D01*
X2155190Y627380D02*
X2160270D01*
X2143230Y543680D02*
X2172230D01*
Y558680D01*
X2143230D02*
X2172230D01*
X2143230Y543680D02*
Y558680D01*
X2157730Y548640D02*
Y553720D01*
X2155190Y551180D02*
X2160270D01*
X1946380Y530740D02*
X1975380D01*
X1946380Y515740D02*
Y530740D01*
Y515740D02*
X1975380D01*
Y530740D01*
X1960880Y520700D02*
Y525780D01*
X1958340Y523240D02*
X1963420D01*
X1676240Y237008D02*
Y272008D01*
X1656240D02*
X1676240D01*
X1656240Y237008D02*
Y272008D01*
Y237008D02*
X1676240D01*
X1663700Y254508D02*
X1668780D01*
X1666240Y251968D02*
Y257048D01*
X1807050Y551968D02*
Y586968D01*
X1787050D02*
X1807050D01*
X1787050Y551968D02*
Y586968D01*
Y551968D02*
X1807050D01*
X1794510Y569468D02*
X1799590D01*
X1797050Y566928D02*
Y572008D01*
X1832450Y237008D02*
Y272008D01*
X1812450D02*
X1832450D01*
X1812450Y237008D02*
Y272008D01*
Y237008D02*
X1832450D01*
X1819910Y254508D02*
X1824990D01*
X1822450Y251968D02*
Y257048D01*
X1650840Y394488D02*
Y429488D01*
X1630840D02*
X1650840D01*
X1630840Y394488D02*
Y429488D01*
Y394488D02*
X1650840D01*
X1638300Y411988D02*
X1643380D01*
X1640840Y409448D02*
Y414528D01*
X1807050Y394488D02*
Y429488D01*
X1787050D02*
X1807050D01*
X1787050Y394488D02*
Y429488D01*
Y394488D02*
X1807050D01*
X1794510Y411988D02*
X1799590D01*
X1797050Y409448D02*
Y414528D01*
X1650840Y551968D02*
Y586968D01*
X1630840D02*
X1650840D01*
X1630840Y551968D02*
Y586968D01*
Y551968D02*
X1650840D01*
X1638300Y569468D02*
X1643380D01*
X1640840Y566928D02*
Y572008D01*
X2433600Y960788D02*
X2468600D01*
Y980788D01*
X2433600D02*
X2468600D01*
X2433600Y960788D02*
Y980788D01*
X2451100Y968248D02*
Y973328D01*
X2448560Y970788D02*
X2453640D01*
X2191538Y960788D02*
X2226538D01*
Y980788D01*
X2191538D02*
X2226538D01*
X2191538Y960788D02*
Y980788D01*
X2209038Y968248D02*
Y973328D01*
X2206498Y970788D02*
X2211578D01*
X1947698Y960788D02*
X1982698D01*
Y980788D01*
X1947698D02*
X1982698D01*
X1947698Y960788D02*
Y980788D01*
X1965198Y968248D02*
Y973328D01*
X1962658Y970788D02*
X1967738D01*
X1703350Y960534D02*
X1738350D01*
Y980534D01*
X1703350D02*
X1738350D01*
X1703350Y960534D02*
Y980534D01*
X1720850Y967994D02*
Y973074D01*
X1718310Y970534D02*
X1723390D01*
X1799176Y809160D02*
Y844160D01*
X1779176D02*
X1799176D01*
X1779176Y809160D02*
Y844160D01*
Y809160D02*
X1799176D01*
X1786636Y826660D02*
X1791716D01*
X1789176Y824120D02*
Y829200D01*
X2469896Y1020374D02*
Y1027374D01*
X2466396Y1023874D02*
X2473396D01*
X2227834Y1020374D02*
Y1027374D01*
X2224334Y1023874D02*
X2231334D01*
X1983994Y1020374D02*
Y1027374D01*
X1980494Y1023874D02*
X1987494D01*
X1739646Y1020120D02*
Y1027120D01*
X1736146Y1023620D02*
X1743146D01*
X1732656Y843788D02*
X1739656D01*
X1736156Y840288D02*
Y847288D01*
X2328650Y570618D02*
X2357650D01*
X2328650Y555618D02*
Y570618D01*
Y555618D02*
X2357650D01*
Y570618D01*
X2343150Y560578D02*
Y565658D01*
X2340610Y563118D02*
X2345690D01*
X2357660Y521582D02*
Y568582D01*
Y521582D02*
X2389660D01*
Y568582D01*
X2357660D02*
X2389660D01*
X2368660Y545082D02*
X2378660D01*
X2373660Y540082D02*
Y550082D01*
X2328650Y590938D02*
X2357650D01*
X2328650Y575938D02*
Y590938D01*
Y575938D02*
X2357650D01*
Y590938D01*
X2343150Y580898D02*
Y585978D01*
X2340610Y583438D02*
X2345690D01*
X2337174Y732758D02*
X2384174D01*
X2337174Y700758D02*
Y732758D01*
Y700758D02*
X2384174D01*
Y732758D01*
X2360674Y711758D02*
Y721758D01*
X2355674Y716758D02*
X2365674D01*
X2337174Y699738D02*
X2384174D01*
X2337174Y667738D02*
Y699738D01*
Y667738D02*
X2384174D01*
Y699738D01*
X2360674Y678738D02*
Y688738D01*
X2355674Y683738D02*
X2365674D01*
X2360400Y650868D02*
X2389400D01*
Y665868D01*
X2360400D02*
X2389400D01*
X2360400Y650868D02*
Y665868D01*
X2374900Y655828D02*
Y660908D01*
X2372360Y658368D02*
X2377440D01*
M02*
