G04*
G04 #@! TF.GenerationSoftware,Altium Limited,Altium Designer,20.1.7 (139)*
G04*
G04 Layer_Color=3368601*
%FSLAX44Y44*%
%MOMM*%
G71*
G04*
G04 #@! TF.SameCoordinates,741834D1-4314-455D-B734-137E6C24AB52*
G04*
G04*
G04 #@! TF.FilePolarity,Negative*
G04*
G01*
G75*
G04:AMPARAMS|DCode=49|XSize=1.4732mm|YSize=1.1532mm|CornerRadius=0.2441mm|HoleSize=0mm|Usage=FLASHONLY|Rotation=0.000|XOffset=0mm|YOffset=0mm|HoleType=Round|Shape=RoundedRectangle|*
%AMROUNDEDRECTD49*
21,1,1.4732,0.6650,0,0,0.0*
21,1,0.9850,1.1532,0,0,0.0*
1,1,0.4882,0.4925,-0.3325*
1,1,0.4882,-0.4925,-0.3325*
1,1,0.4882,-0.4925,0.3325*
1,1,0.4882,0.4925,0.3325*
%
%ADD49ROUNDEDRECTD49*%
G04:AMPARAMS|DCode=61|XSize=1.4732mm|YSize=1.1532mm|CornerRadius=0.2441mm|HoleSize=0mm|Usage=FLASHONLY|Rotation=90.000|XOffset=0mm|YOffset=0mm|HoleType=Round|Shape=RoundedRectangle|*
%AMROUNDEDRECTD61*
21,1,1.4732,0.6650,0,0,90.0*
21,1,0.9850,1.1532,0,0,90.0*
1,1,0.4882,0.3325,0.4925*
1,1,0.4882,0.3325,-0.4925*
1,1,0.4882,-0.3325,-0.4925*
1,1,0.4882,-0.3325,0.4925*
%
%ADD61ROUNDEDRECTD61*%
%ADD62R,9.6012X11.0236*%
%ADD63R,4.8514X1.5748*%
G04:AMPARAMS|DCode=64|XSize=2.4032mm|YSize=1.7532mm|CornerRadius=0.4891mm|HoleSize=0mm|Usage=FLASHONLY|Rotation=270.000|XOffset=0mm|YOffset=0mm|HoleType=Round|Shape=RoundedRectangle|*
%AMROUNDEDRECTD64*
21,1,2.4032,0.7750,0,0,270.0*
21,1,1.4250,1.7532,0,0,270.0*
1,1,0.9782,-0.3875,-0.7125*
1,1,0.9782,-0.3875,0.7125*
1,1,0.9782,0.3875,0.7125*
1,1,0.9782,0.3875,-0.7125*
%
%ADD64ROUNDEDRECTD64*%
G04:AMPARAMS|DCode=65|XSize=1.1032mm|YSize=1.1032mm|CornerRadius=0.2366mm|HoleSize=0mm|Usage=FLASHONLY|Rotation=270.000|XOffset=0mm|YOffset=0mm|HoleType=Round|Shape=RoundedRectangle|*
%AMROUNDEDRECTD65*
21,1,1.1032,0.6300,0,0,270.0*
21,1,0.6300,1.1032,0,0,270.0*
1,1,0.4732,-0.3150,-0.3150*
1,1,0.4732,-0.3150,0.3150*
1,1,0.4732,0.3150,0.3150*
1,1,0.4732,0.3150,-0.3150*
%
%ADD65ROUNDEDRECTD65*%
G04:AMPARAMS|DCode=66|XSize=1.4732mm|YSize=1.3532mm|CornerRadius=0.2741mm|HoleSize=0mm|Usage=FLASHONLY|Rotation=180.000|XOffset=0mm|YOffset=0mm|HoleType=Round|Shape=RoundedRectangle|*
%AMROUNDEDRECTD66*
21,1,1.4732,0.8050,0,0,180.0*
21,1,0.9250,1.3532,0,0,180.0*
1,1,0.5482,-0.4625,0.4025*
1,1,0.5482,0.4625,0.4025*
1,1,0.5482,0.4625,-0.4025*
1,1,0.5482,-0.4625,-0.4025*
%
%ADD66ROUNDEDRECTD66*%
G04:AMPARAMS|DCode=68|XSize=2.9032mm|YSize=1.3532mm|CornerRadius=0.3891mm|HoleSize=0mm|Usage=FLASHONLY|Rotation=270.000|XOffset=0mm|YOffset=0mm|HoleType=Round|Shape=RoundedRectangle|*
%AMROUNDEDRECTD68*
21,1,2.9032,0.5750,0,0,270.0*
21,1,2.1250,1.3532,0,0,270.0*
1,1,0.7782,-0.2875,-1.0625*
1,1,0.7782,-0.2875,1.0625*
1,1,0.7782,0.2875,1.0625*
1,1,0.7782,0.2875,-1.0625*
%
%ADD68ROUNDEDRECTD68*%
%ADD69R,1.8532X1.8532*%
%ADD70C,1.8532*%
%ADD71R,2.7432X2.7432*%
%ADD72R,2.7432X2.7432*%
%ADD73C,1.8542*%
%ADD74R,1.8542X1.8542*%
%ADD75R,1.7272X1.7272*%
%ADD76C,1.7272*%
%ADD77R,3.3032X2.6032*%
%ADD78R,1.7032X2.0032*%
%ADD79C,0.2032*%
%ADD80R,1.8542X1.8542*%
%ADD81R,1.7272X1.7272*%
%ADD82C,4.2032*%
%ADD83C,1.4732*%
G04:AMPARAMS|DCode=109|XSize=2.4032mm|YSize=1.7532mm|CornerRadius=0.4891mm|HoleSize=0mm|Usage=FLASHONLY|Rotation=180.000|XOffset=0mm|YOffset=0mm|HoleType=Round|Shape=RoundedRectangle|*
%AMROUNDEDRECTD109*
21,1,2.4032,0.7750,0,0,180.0*
21,1,1.4250,1.7532,0,0,180.0*
1,1,0.9782,-0.7125,0.3875*
1,1,0.9782,0.7125,0.3875*
1,1,0.9782,0.7125,-0.3875*
1,1,0.9782,-0.7125,-0.3875*
%
%ADD109ROUNDEDRECTD109*%
G04:AMPARAMS|DCode=110|XSize=1.1032mm|YSize=1.1032mm|CornerRadius=0.2366mm|HoleSize=0mm|Usage=FLASHONLY|Rotation=180.000|XOffset=0mm|YOffset=0mm|HoleType=Round|Shape=RoundedRectangle|*
%AMROUNDEDRECTD110*
21,1,1.1032,0.6300,0,0,180.0*
21,1,0.6300,1.1032,0,0,180.0*
1,1,0.4732,-0.3150,0.3150*
1,1,0.4732,0.3150,0.3150*
1,1,0.4732,0.3150,-0.3150*
1,1,0.4732,-0.3150,-0.3150*
%
%ADD110ROUNDEDRECTD110*%
%ADD111O,0.8032X2.4032*%
%ADD112R,2.3532X1.3032*%
%ADD113R,2.3532X1.3032*%
%ADD114R,2.3532X3.7032*%
%ADD115O,2.4032X0.8032*%
%ADD116R,1.1752X1.0052*%
D49*
X1614170Y263238D02*
D03*
Y243238D02*
D03*
X1744980Y578198D02*
D03*
Y558198D02*
D03*
X1770380Y263238D02*
D03*
Y243238D02*
D03*
X1588770Y420718D02*
D03*
Y400718D02*
D03*
X1744980Y420718D02*
D03*
Y400718D02*
D03*
X1588770Y578198D02*
D03*
Y558198D02*
D03*
X1676240Y243238D02*
D03*
Y263238D02*
D03*
X1807050Y558198D02*
D03*
Y578198D02*
D03*
X1832450Y243238D02*
D03*
Y263238D02*
D03*
X1650840Y400718D02*
D03*
Y420718D02*
D03*
X1807050Y400718D02*
D03*
Y420718D02*
D03*
X1650840Y558198D02*
D03*
Y578198D02*
D03*
X2432268Y407924D02*
D03*
Y427924D02*
D03*
X2247900Y732188D02*
D03*
Y752188D02*
D03*
D61*
X2324478Y374744D02*
D03*
X2344478D02*
D03*
D62*
X2370276Y793623D02*
D03*
D63*
X2248392Y768223D02*
D03*
Y819023D02*
D03*
D64*
X1692910Y305128D02*
D03*
Y346128D02*
D03*
X1823720Y620088D02*
D03*
Y661088D02*
D03*
X1849120Y305128D02*
D03*
Y346128D02*
D03*
X1667510Y462608D02*
D03*
Y503608D02*
D03*
X1823720Y462608D02*
D03*
Y503608D02*
D03*
X1667510Y620088D02*
D03*
Y661088D02*
D03*
X1697990Y854022D02*
D03*
Y895022D02*
D03*
D65*
X2030760Y583601D02*
D03*
X2015760D02*
D03*
X2089180Y563281D02*
D03*
X2074180D02*
D03*
X2089180Y578521D02*
D03*
X2074180D02*
D03*
X2195710Y480060D02*
D03*
X2180710D02*
D03*
D66*
X2247900Y801988D02*
D03*
Y783988D02*
D03*
D68*
X2197874Y384840D02*
D03*
X2167874D02*
D03*
D69*
X1811528Y333756D02*
D03*
X1655318Y333502D02*
D03*
X1786128Y491236D02*
D03*
X1629918Y490982D02*
D03*
X1786636Y648208D02*
D03*
X1629918Y648462D02*
D03*
D70*
X1811528Y308356D02*
D03*
X1655318Y308102D02*
D03*
X1786128Y465836D02*
D03*
X1629918Y465582D02*
D03*
X1786636Y622808D02*
D03*
X1629918Y623062D02*
D03*
D71*
X1662176Y895096D02*
D03*
Y844804D02*
D03*
X2440940Y742696D02*
D03*
Y792988D02*
D03*
D72*
X1740154Y1097280D02*
D03*
X1790446D02*
D03*
X2034794Y1097534D02*
D03*
X1984502D02*
D03*
X2278126Y1097788D02*
D03*
X2227834D02*
D03*
X2520696Y1097534D02*
D03*
X2470404D02*
D03*
X1964436Y746252D02*
D03*
X2014728D02*
D03*
D73*
X1909064Y689356D02*
D03*
Y663956D02*
D03*
Y714756D02*
D03*
X1909318Y473456D02*
D03*
Y448056D02*
D03*
Y498856D02*
D03*
X2000504Y420370D02*
D03*
Y394970D02*
D03*
Y445770D02*
D03*
X2016760Y248920D02*
D03*
X1965960D02*
D03*
X1991360D02*
D03*
D74*
X1909064Y638556D02*
D03*
X1909318Y422656D02*
D03*
X2000504Y369570D02*
D03*
D75*
X2014982Y818454D02*
D03*
X2469896Y1023874D02*
D03*
X2227834D02*
D03*
X1983994D02*
D03*
X1739646Y1023620D02*
D03*
D76*
X2014982Y838454D02*
D03*
X2367374Y234732D02*
D03*
X2342374D02*
D03*
X2392374D02*
D03*
X2417374D02*
D03*
X2286094Y236002D02*
D03*
X2261094D02*
D03*
X2236094D02*
D03*
X2375118Y382314D02*
D03*
X2400518Y395014D02*
D03*
X2375118Y407714D02*
D03*
X2400518Y420414D02*
D03*
X2375118Y433114D02*
D03*
X2400518Y445814D02*
D03*
X2469896Y1003874D02*
D03*
X2227834D02*
D03*
X1983994D02*
D03*
X1739646Y1003620D02*
D03*
X1756156Y843788D02*
D03*
D77*
X2336800Y629848D02*
D03*
D78*
X1976374Y303022D02*
D03*
X2077974D02*
D03*
X2052574D02*
D03*
X2027174D02*
D03*
X2001774D02*
D03*
D79*
X2464018Y363314D02*
D03*
Y464914D02*
D03*
D80*
X1940560Y248920D02*
D03*
D81*
X1736156Y843788D02*
D03*
D82*
X2529544Y1184424D02*
D03*
X1579880Y1183640D02*
D03*
X1579544Y234424D02*
D03*
X2529544D02*
D03*
D83*
X2343150Y629848D02*
D03*
X2330450D02*
D03*
D109*
X1964764Y781558D02*
D03*
X2005764D02*
D03*
X2479876Y1061974D02*
D03*
X2520876D02*
D03*
X2237814D02*
D03*
X2278814D02*
D03*
X1993974D02*
D03*
X2034974D02*
D03*
X1749626Y1061720D02*
D03*
X1790626D02*
D03*
D110*
X2060090Y569511D02*
D03*
Y554510D02*
D03*
X2049930Y611660D02*
D03*
Y626661D02*
D03*
X2025038Y554257D02*
D03*
Y569257D02*
D03*
X2315304Y271682D02*
D03*
Y286682D02*
D03*
X2236564Y294302D02*
D03*
Y309302D02*
D03*
X2278598Y421614D02*
D03*
Y406614D02*
D03*
D111*
X2329180Y319780D02*
D03*
X2341880D02*
D03*
X2354580D02*
D03*
X2367280D02*
D03*
X2329180Y271780D02*
D03*
X2341880D02*
D03*
X2354580D02*
D03*
X2367280D02*
D03*
D112*
X2202700Y460134D02*
D03*
Y414134D02*
D03*
D113*
Y437134D02*
D03*
D114*
X2140700Y437134D02*
D03*
D115*
X2296420Y394970D02*
D03*
Y407670D02*
D03*
Y420370D02*
D03*
Y433070D02*
D03*
X2344420Y394970D02*
D03*
Y407670D02*
D03*
Y420370D02*
D03*
Y433070D02*
D03*
D116*
X1649650Y252578D02*
D03*
X1631950Y243078D02*
D03*
Y262078D02*
D03*
X1780460Y567538D02*
D03*
X1762760Y558038D02*
D03*
Y577038D02*
D03*
X1805860Y252578D02*
D03*
X1788160Y243078D02*
D03*
Y262078D02*
D03*
X1624250Y410058D02*
D03*
X1606550Y400558D02*
D03*
Y419558D02*
D03*
X1780460Y410058D02*
D03*
X1762760Y400558D02*
D03*
Y419558D02*
D03*
X1624250Y567538D02*
D03*
X1606550Y558038D02*
D03*
Y577038D02*
D03*
M02*
