G04*
G04 #@! TF.GenerationSoftware,Altium Limited,Altium Designer,20.1.7 (139)*
G04*
G04 Layer_Physical_Order=1*
G04 Layer_Color=65280*
%FSLAX44Y44*%
%MOMM*%
G71*
G04*
G04 #@! TF.SameCoordinates,741834D1-4314-455D-B734-137E6C24AB52*
G04*
G04*
G04 #@! TF.FilePolarity,Positive*
G04*
G01*
G75*
%ADD11C,0.4064*%
%ADD12C,0.2540*%
%ADD19R,1.9050X12.0000*%
G04:AMPARAMS|DCode=20|XSize=12mm|YSize=4mm|CornerRadius=1mm|HoleSize=0mm|Usage=FLASHONLY|Rotation=90.000|XOffset=0mm|YOffset=0mm|HoleType=Round|Shape=RoundedRectangle|*
%AMROUNDEDRECTD20*
21,1,12.0000,2.0000,0,0,90.0*
21,1,10.0000,4.0000,0,0,90.0*
1,1,2.0000,1.0000,5.0000*
1,1,2.0000,1.0000,-5.0000*
1,1,2.0000,-1.0000,-5.0000*
1,1,2.0000,-1.0000,5.0000*
%
%ADD20ROUNDEDRECTD20*%
%ADD21R,0.6350X0.6350*%
%ADD22R,0.6350X1.0160*%
G04:AMPARAMS|DCode=23|XSize=1.27mm|YSize=0.95mm|CornerRadius=0.1425mm|HoleSize=0mm|Usage=FLASHONLY|Rotation=0.000|XOffset=0mm|YOffset=0mm|HoleType=Round|Shape=RoundedRectangle|*
%AMROUNDEDRECTD23*
21,1,1.2700,0.6650,0,0,0.0*
21,1,0.9850,0.9500,0,0,0.0*
1,1,0.2850,0.4925,-0.3325*
1,1,0.2850,-0.4925,-0.3325*
1,1,0.2850,-0.4925,0.3325*
1,1,0.2850,0.4925,0.3325*
%
%ADD23ROUNDEDRECTD23*%
%ADD24R,10.8204X9.3980*%
%ADD25R,1.3716X4.6482*%
G04:AMPARAMS|DCode=26|XSize=1.27mm|YSize=1.15mm|CornerRadius=0.1725mm|HoleSize=0mm|Usage=FLASHONLY|Rotation=270.000|XOffset=0mm|YOffset=0mm|HoleType=Round|Shape=RoundedRectangle|*
%AMROUNDEDRECTD26*
21,1,1.2700,0.8050,0,0,270.0*
21,1,0.9250,1.1500,0,0,270.0*
1,1,0.3450,-0.4025,-0.4625*
1,1,0.3450,-0.4025,0.4625*
1,1,0.3450,0.4025,0.4625*
1,1,0.3450,0.4025,-0.4625*
%
%ADD26ROUNDEDRECTD26*%
G04:AMPARAMS|DCode=27|XSize=1.8mm|YSize=1.4mm|CornerRadius=0.35mm|HoleSize=0mm|Usage=FLASHONLY|Rotation=90.000|XOffset=0mm|YOffset=0mm|HoleType=Round|Shape=RoundedRectangle|*
%AMROUNDEDRECTD27*
21,1,1.8000,0.7000,0,0,90.0*
21,1,1.1000,1.4000,0,0,90.0*
1,1,0.7000,0.3500,0.5500*
1,1,0.7000,0.3500,-0.5500*
1,1,0.7000,-0.3500,-0.5500*
1,1,0.7000,-0.3500,0.5500*
%
%ADD27ROUNDEDRECTD27*%
%ADD28R,1.4000X1.8000*%
%ADD29R,1.5000X0.3000*%
%ADD30R,0.3000X1.5000*%
%ADD31R,1.4000X0.3000*%
%ADD32R,0.6350X0.6350*%
%ADD33R,1.0160X0.6350*%
%ADD34O,0.6000X1.4500*%
G04:AMPARAMS|DCode=35|XSize=1.4mm|YSize=1mm|CornerRadius=0.25mm|HoleSize=0mm|Usage=FLASHONLY|Rotation=90.000|XOffset=0mm|YOffset=0mm|HoleType=Round|Shape=RoundedRectangle|*
%AMROUNDEDRECTD35*
21,1,1.4000,0.5000,0,0,90.0*
21,1,0.9000,1.0000,0,0,90.0*
1,1,0.5000,0.2500,0.4500*
1,1,0.5000,0.2500,-0.4500*
1,1,0.5000,-0.2500,-0.4500*
1,1,0.5000,-0.2500,0.4500*
%
%ADD35ROUNDEDRECTD35*%
%ADD36R,1.2700X1.2700*%
G04:AMPARAMS|DCode=37|XSize=1.27mm|YSize=0.95mm|CornerRadius=0.1425mm|HoleSize=0mm|Usage=FLASHONLY|Rotation=90.000|XOffset=0mm|YOffset=0mm|HoleType=Round|Shape=RoundedRectangle|*
%AMROUNDEDRECTD37*
21,1,1.2700,0.6650,0,0,90.0*
21,1,0.9850,0.9500,0,0,90.0*
1,1,0.2850,0.3325,0.4925*
1,1,0.2850,0.3325,-0.4925*
1,1,0.2850,-0.3325,-0.4925*
1,1,0.2850,-0.3325,0.4925*
%
%ADD37ROUNDEDRECTD37*%
%ADD38R,9.3980X10.8204*%
%ADD39R,4.6482X1.3716*%
G04:AMPARAMS|DCode=40|XSize=2.2mm|YSize=1.55mm|CornerRadius=0.3875mm|HoleSize=0mm|Usage=FLASHONLY|Rotation=270.000|XOffset=0mm|YOffset=0mm|HoleType=Round|Shape=RoundedRectangle|*
%AMROUNDEDRECTD40*
21,1,2.2000,0.7750,0,0,270.0*
21,1,1.4250,1.5500,0,0,270.0*
1,1,0.7750,-0.3875,-0.7125*
1,1,0.7750,-0.3875,0.7125*
1,1,0.7750,0.3875,0.7125*
1,1,0.7750,0.3875,-0.7125*
%
%ADD40ROUNDEDRECTD40*%
G04:AMPARAMS|DCode=41|XSize=0.9mm|YSize=0.9mm|CornerRadius=0.135mm|HoleSize=0mm|Usage=FLASHONLY|Rotation=270.000|XOffset=0mm|YOffset=0mm|HoleType=Round|Shape=RoundedRectangle|*
%AMROUNDEDRECTD41*
21,1,0.9000,0.6300,0,0,270.0*
21,1,0.6300,0.9000,0,0,270.0*
1,1,0.2700,-0.3150,-0.3150*
1,1,0.2700,-0.3150,0.3150*
1,1,0.2700,0.3150,0.3150*
1,1,0.2700,0.3150,-0.3150*
%
%ADD41ROUNDEDRECTD41*%
G04:AMPARAMS|DCode=42|XSize=1.27mm|YSize=1.15mm|CornerRadius=0.1725mm|HoleSize=0mm|Usage=FLASHONLY|Rotation=180.000|XOffset=0mm|YOffset=0mm|HoleType=Round|Shape=RoundedRectangle|*
%AMROUNDEDRECTD42*
21,1,1.2700,0.8050,0,0,180.0*
21,1,0.9250,1.1500,0,0,180.0*
1,1,0.3450,-0.4625,0.4025*
1,1,0.3450,0.4625,0.4025*
1,1,0.3450,0.4625,-0.4025*
1,1,0.3450,-0.4625,-0.4025*
%
%ADD42ROUNDEDRECTD42*%
G04:AMPARAMS|DCode=43|XSize=2.7mm|YSize=1.15mm|CornerRadius=0.2875mm|HoleSize=0mm|Usage=FLASHONLY|Rotation=0.000|XOffset=0mm|YOffset=0mm|HoleType=Round|Shape=RoundedRectangle|*
%AMROUNDEDRECTD43*
21,1,2.7000,0.5750,0,0,0.0*
21,1,2.1250,1.1500,0,0,0.0*
1,1,0.5750,1.0625,-0.2875*
1,1,0.5750,-1.0625,-0.2875*
1,1,0.5750,-1.0625,0.2875*
1,1,0.5750,1.0625,0.2875*
%
%ADD43ROUNDEDRECTD43*%
G04:AMPARAMS|DCode=44|XSize=2.7mm|YSize=1.15mm|CornerRadius=0.2875mm|HoleSize=0mm|Usage=FLASHONLY|Rotation=270.000|XOffset=0mm|YOffset=0mm|HoleType=Round|Shape=RoundedRectangle|*
%AMROUNDEDRECTD44*
21,1,2.7000,0.5750,0,0,270.0*
21,1,2.1250,1.1500,0,0,270.0*
1,1,0.5750,-0.2875,-1.0625*
1,1,0.5750,-0.2875,1.0625*
1,1,0.5750,0.2875,1.0625*
1,1,0.5750,0.2875,-1.0625*
%
%ADD44ROUNDEDRECTD44*%
%ADD84C,0.6350*%
%ADD85R,1.6500X1.6500*%
%ADD86C,1.6500*%
%ADD87R,2.5400X2.5400*%
%ADD88R,2.5400X2.5400*%
%ADD89C,1.6510*%
%ADD90R,1.6510X1.6510*%
%ADD91R,1.5240X1.5240*%
%ADD92C,1.5240*%
%ADD93R,3.1000X2.4000*%
%ADD94R,1.5000X1.8000*%
%ADD95R,1.6510X1.6510*%
%ADD96R,1.5240X1.5240*%
%ADD97C,4.0000*%
%ADD98C,0.6096*%
%ADD99C,1.2700*%
%ADD100C,1.3970*%
G36*
X2505450Y1201581D02*
X2507614Y1196600D01*
X2506261Y1194068D01*
X2504827Y1189341D01*
X2504343Y1184424D01*
X2504827Y1179507D01*
X2506261Y1174780D01*
X2508590Y1170423D01*
X2511724Y1166604D01*
X2515543Y1163470D01*
X2519900Y1161141D01*
X2524627Y1159707D01*
X2529544Y1159223D01*
X2534460Y1159707D01*
X2539188Y1161141D01*
X2541720Y1162494D01*
X2546701Y1160330D01*
X2548070Y1158968D01*
Y1152474D01*
X2543409Y1150079D01*
X2541720Y1149705D01*
X2541295Y1149989D01*
X2540460Y1150547D01*
X2540459Y1150547D01*
X2540458Y1150548D01*
X2539464Y1150746D01*
X2538478Y1150942D01*
X2442832Y1150973D01*
X2442056Y1151749D01*
Y1154176D01*
X2441661Y1156158D01*
X2440538Y1157839D01*
X2439342Y1159035D01*
Y1160018D01*
X2438359D01*
X2437999Y1160378D01*
X2436318Y1161501D01*
X2434336Y1161896D01*
X2327656D01*
X2325674Y1161501D01*
X2323994Y1160378D01*
X2323633Y1160018D01*
X2320978D01*
Y1157127D01*
X2320331Y1156158D01*
X2319937Y1154176D01*
Y1042416D01*
X2320331Y1040434D01*
X2321454Y1038754D01*
X2325264Y1034943D01*
X2326944Y1033821D01*
X2328926Y1033427D01*
X2434676D01*
X2436658Y1033821D01*
X2438338Y1034943D01*
X2439461Y1036624D01*
X2439723Y1037938D01*
X2440538Y1038754D01*
X2441661Y1040434D01*
X2442056Y1042416D01*
Y1107121D01*
X2444397Y1108375D01*
X2450746Y1104573D01*
Y1017524D01*
X2451141Y1015542D01*
X2452263Y1013861D01*
X2454803Y1011321D01*
X2456484Y1010199D01*
X2458466Y1009805D01*
X2477064Y1009804D01*
Y985823D01*
X2471200Y980174D01*
X2468978Y980266D01*
X2467557Y981357D01*
X2465901Y982043D01*
X2464125Y982277D01*
X2456075D01*
X2454299Y982043D01*
X2452643Y981357D01*
X2451222Y980266D01*
X2449722Y978947D01*
X2447789Y979431D01*
X2446125Y979762D01*
X2443370D01*
Y970788D01*
X2442100D01*
Y969518D01*
X2433726D01*
Y966656D01*
X2433335Y965743D01*
X2429740Y961881D01*
X2428719Y961263D01*
X2420849D01*
X2414958Y961263D01*
X2414958Y966611D01*
Y984794D01*
X2405560D01*
X2396162D01*
Y962175D01*
X2393732Y960989D01*
X2389812Y960464D01*
X2389544Y960812D01*
X2388186Y961855D01*
X2386603Y962511D01*
X2384905Y962734D01*
X2375055D01*
X2373357Y962511D01*
X2373048Y962383D01*
X2368478Y964321D01*
X2366698Y965652D01*
Y1014385D01*
X2342822D01*
Y957743D01*
X2342822D01*
X2343238Y957269D01*
X2343094Y956173D01*
Y949523D01*
X2343317Y947825D01*
X2343973Y946242D01*
X2344755Y945223D01*
X2345210Y944245D01*
X2346170Y941089D01*
X2345920Y937721D01*
X2345920Y937720D01*
X2345840Y937319D01*
X2345612Y936173D01*
Y934118D01*
X2354580D01*
Y932848D01*
X2355850D01*
Y925480D01*
X2359505D01*
X2361052Y925788D01*
X2362364Y926664D01*
X2362498Y926865D01*
X2365113Y927269D01*
X2366327Y927201D01*
X2369283Y926460D01*
X2369373Y926242D01*
X2370416Y924883D01*
X2371774Y923841D01*
X2373357Y923185D01*
X2375055Y922962D01*
X2384905D01*
X2386603Y923185D01*
X2388186Y923841D01*
X2389073Y924522D01*
X2401730D01*
X2405430Y921061D01*
X2405876Y920450D01*
X2406526Y919026D01*
Y897524D01*
X2392538Y883536D01*
X2219198D01*
X2216720Y883044D01*
X2214620Y881640D01*
X2204107Y871127D01*
X2198240Y873557D01*
Y895858D01*
X2197748Y898336D01*
X2196344Y900436D01*
X2177427Y919353D01*
X2177432Y920769D01*
X2181098Y925632D01*
X2189988D01*
X2191066Y925774D01*
X2192143Y925916D01*
X2194151Y926747D01*
X2195876Y928071D01*
X2223925Y956120D01*
X2225249Y957845D01*
X2226080Y959853D01*
X2226200Y960760D01*
X2226916Y961310D01*
X2227800Y962462D01*
X2236216D01*
X2237294Y962604D01*
X2238371Y962746D01*
X2240379Y963577D01*
X2242103Y964901D01*
X2249216Y972012D01*
X2250539Y973737D01*
X2251371Y975745D01*
X2251654Y977900D01*
Y1013968D01*
X2251371Y1016123D01*
X2250539Y1018131D01*
X2249216Y1019855D01*
X2248253Y1020818D01*
X2248253Y1045859D01*
X2254357Y1051962D01*
X2255479Y1053642D01*
X2255874Y1055624D01*
Y1068355D01*
X2255479Y1070337D01*
X2254357Y1072018D01*
X2248253Y1078121D01*
Y1103047D01*
X2254603Y1106849D01*
X2255674Y1106275D01*
Y1083564D01*
X2256069Y1081582D01*
X2257191Y1079902D01*
X2263295Y1073799D01*
Y1056863D01*
X2263689Y1054881D01*
X2264812Y1053200D01*
X2267352Y1050660D01*
X2269032Y1049537D01*
X2271014Y1049143D01*
X2286254D01*
X2288236Y1049537D01*
X2289917Y1050660D01*
X2292457Y1053200D01*
X2293579Y1054881D01*
X2293974Y1056863D01*
Y1073767D01*
X2300076Y1079870D01*
X2301199Y1081551D01*
X2301593Y1083533D01*
Y1113137D01*
X2302616Y1114160D01*
X2303739Y1115841D01*
X2304133Y1117823D01*
Y1143223D01*
X2303739Y1145205D01*
X2302616Y1146885D01*
X2300076Y1149425D01*
X2299233Y1149989D01*
X2298398Y1150547D01*
X2298397Y1150547D01*
X2298396Y1150548D01*
X2297401Y1150746D01*
X2296416Y1150942D01*
X2200770Y1150973D01*
X2199158Y1152586D01*
Y1153668D01*
X2198763Y1155650D01*
X2197641Y1157330D01*
X2197280Y1157691D01*
Y1160018D01*
X2194880D01*
X2193420Y1160993D01*
X2191438Y1161387D01*
X2084758D01*
X2082776Y1160993D01*
X2081316Y1160018D01*
X2078916D01*
Y1157691D01*
X2078555Y1157330D01*
X2077433Y1155650D01*
X2077039Y1153668D01*
Y1041908D01*
X2077433Y1039926D01*
X2078555Y1038245D01*
X2082366Y1034436D01*
X2084046Y1033313D01*
X2086028Y1032918D01*
X2190168D01*
X2192150Y1033313D01*
X2193831Y1034436D01*
X2197641Y1038245D01*
X2198763Y1039926D01*
X2199158Y1041908D01*
Y1108074D01*
X2202659Y1109748D01*
X2208685Y1105885D01*
Y1017524D01*
X2209079Y1015542D01*
X2210202Y1013861D01*
X2212742Y1011321D01*
X2214422Y1010199D01*
X2216404Y1009805D01*
X2235002Y1009804D01*
Y985823D01*
X2229138Y980174D01*
X2226916Y980266D01*
X2225495Y981357D01*
X2223839Y982043D01*
X2222063Y982277D01*
X2214013D01*
X2212236Y982043D01*
X2210581Y981357D01*
X2209160Y980266D01*
X2207660Y978947D01*
X2205727Y979431D01*
X2204063Y979762D01*
X2201308D01*
Y970788D01*
X2200038D01*
Y969518D01*
X2191664D01*
Y966656D01*
X2191273Y965743D01*
X2187678Y961881D01*
X2186658Y961263D01*
X2178787D01*
X2172896Y961263D01*
X2172896Y966611D01*
Y984794D01*
X2163498D01*
X2154100D01*
Y962175D01*
X2151670Y960989D01*
X2147750Y960464D01*
X2147482Y960812D01*
X2146124Y961855D01*
X2144541Y962511D01*
X2142843Y962734D01*
X2132993D01*
X2131295Y962511D01*
X2130986Y962383D01*
X2126416Y964321D01*
X2124636Y965652D01*
Y1014385D01*
X2100760D01*
Y957743D01*
X2100760D01*
X2101176Y957269D01*
X2101032Y956173D01*
Y949523D01*
X2101255Y947825D01*
X2101911Y946242D01*
X2102693Y945223D01*
X2103148Y944245D01*
X2104108Y941089D01*
X2103858Y937721D01*
X2103858Y937720D01*
X2103778Y937319D01*
X2103550Y936173D01*
Y934118D01*
X2112518D01*
Y931578D01*
X2103550D01*
Y929523D01*
X2102915Y928748D01*
X2088388D01*
X2085910Y928256D01*
X2083810Y926852D01*
X2079492Y922534D01*
X2078088Y920434D01*
X2077823Y919099D01*
X2074451D01*
X2073910Y919170D01*
X2045970D01*
X2043815Y918886D01*
X2041807Y918055D01*
X2040083Y916731D01*
X2016096Y892746D01*
X2014773Y891021D01*
X2013941Y889013D01*
X2013800Y887935D01*
X2013658Y886858D01*
Y886202D01*
X2013106Y885778D01*
X2012222Y884626D01*
X1999996D01*
X1998918Y884484D01*
X1997841Y884342D01*
X1995833Y883511D01*
X1994108Y882188D01*
X1986743Y874821D01*
X1985419Y873097D01*
X1984588Y871089D01*
X1984446Y870012D01*
X1984304Y868934D01*
Y834898D01*
X1984446Y833821D01*
X1984588Y832743D01*
X1985419Y830735D01*
X1986743Y829011D01*
X1994816Y820937D01*
X1994816Y796657D01*
X1988714Y790555D01*
X1987591Y788874D01*
X1987197Y786892D01*
Y774161D01*
X1987591Y772179D01*
X1988714Y770498D01*
X1994816Y764395D01*
Y740102D01*
X1988466Y736560D01*
X1987650Y737065D01*
Y759683D01*
X1987255Y761665D01*
X1986133Y763345D01*
X1980029Y769448D01*
Y786384D01*
X1979635Y788366D01*
X1978513Y790046D01*
X1975972Y792587D01*
X1974292Y793709D01*
X1972310Y794103D01*
X1957070D01*
X1955088Y793709D01*
X1953407Y792587D01*
X1950867Y790046D01*
X1949745Y788366D01*
X1949574Y787510D01*
X1943224Y788135D01*
Y911606D01*
X1942732Y914084D01*
X1941328Y916184D01*
X1938230Y919282D01*
X1940861Y925632D01*
X1946148D01*
X1947225Y925774D01*
X1948303Y925916D01*
X1950311Y926747D01*
X1952036Y928071D01*
X1980085Y956120D01*
X1981409Y957845D01*
X1982240Y959853D01*
X1982360Y960760D01*
X1983076Y961310D01*
X1983961Y962462D01*
X1992376D01*
X1993454Y962604D01*
X1994531Y962746D01*
X1996539Y963577D01*
X1998264Y964901D01*
X2005376Y972012D01*
X2006699Y973737D01*
X2007531Y975745D01*
X2007814Y977900D01*
Y1013968D01*
X2007531Y1016123D01*
X2006699Y1018131D01*
X2005376Y1019855D01*
X2004413Y1020818D01*
X2004413Y1045859D01*
X2010517Y1051962D01*
X2011639Y1053642D01*
X2012034Y1055624D01*
Y1068355D01*
X2011639Y1070337D01*
X2010517Y1072018D01*
X2004413Y1078121D01*
Y1103047D01*
X2010764Y1106849D01*
X2011835Y1106275D01*
Y1083564D01*
X2012229Y1081582D01*
X2013351Y1079902D01*
X2019454Y1073799D01*
Y1056863D01*
X2019849Y1054881D01*
X2020972Y1053200D01*
X2023512Y1050660D01*
X2025192Y1049537D01*
X2027174Y1049143D01*
X2042414D01*
X2044396Y1049537D01*
X2046077Y1050660D01*
X2048616Y1053200D01*
X2049739Y1054881D01*
X2050134Y1056863D01*
Y1073767D01*
X2056237Y1079870D01*
X2057359Y1081551D01*
X2057753Y1083533D01*
Y1113137D01*
X2058777Y1114160D01*
X2059899Y1115841D01*
X2060293Y1117823D01*
Y1143223D01*
X2059899Y1145205D01*
X2058777Y1146885D01*
X2056237Y1149425D01*
X2055393Y1149989D01*
X2054558Y1150547D01*
X2054557Y1150547D01*
X2054556Y1150548D01*
X2053562Y1150746D01*
X2052576Y1150942D01*
X1956930Y1150973D01*
X1954001Y1153902D01*
X1953653Y1155650D01*
X1953440Y1155969D01*
Y1160018D01*
X1949770D01*
X1948310Y1160993D01*
X1946328Y1161387D01*
X1839648D01*
X1837666Y1160993D01*
X1836206Y1160018D01*
X1835076D01*
Y1158961D01*
X1833445Y1157330D01*
X1832323Y1155650D01*
X1831929Y1153668D01*
Y1041908D01*
X1832323Y1039926D01*
X1833445Y1038245D01*
X1837256Y1034436D01*
X1838936Y1033313D01*
X1840918Y1032918D01*
X1946668D01*
X1948650Y1033313D01*
X1950331Y1034436D01*
X1951453Y1036116D01*
X1951715Y1037430D01*
X1952531Y1038245D01*
X1953653Y1039926D01*
X1954048Y1041908D01*
Y1109761D01*
X1956929Y1112643D01*
X1959317D01*
X1964845Y1108964D01*
Y1017524D01*
X1965239Y1015542D01*
X1966362Y1013861D01*
X1968902Y1011321D01*
X1970582Y1010199D01*
X1972564Y1009805D01*
X1991162Y1009804D01*
Y985823D01*
X1985298Y980174D01*
X1983076Y980266D01*
X1981655Y981357D01*
X1979999Y982043D01*
X1978223Y982277D01*
X1970173D01*
X1968396Y982043D01*
X1966741Y981357D01*
X1965320Y980266D01*
X1963820Y978947D01*
X1961887Y979431D01*
X1960223Y979762D01*
X1957468D01*
Y970788D01*
X1956198D01*
Y969518D01*
X1947824D01*
Y966656D01*
X1947433Y965743D01*
X1943838Y961881D01*
X1942818Y961263D01*
X1934947D01*
X1929056Y961263D01*
X1929056Y966611D01*
Y984794D01*
X1919658D01*
X1910260D01*
Y962175D01*
X1907830Y960989D01*
X1903910Y960464D01*
X1903642Y960812D01*
X1902284Y961855D01*
X1900701Y962511D01*
X1899003Y962734D01*
X1889153D01*
X1887455Y962511D01*
X1887146Y962383D01*
X1882576Y964321D01*
X1880796Y965652D01*
Y1014385D01*
X1856920D01*
Y957743D01*
X1856920D01*
X1857336Y957269D01*
X1857192Y956173D01*
Y949523D01*
X1857415Y947825D01*
X1858071Y946242D01*
X1858853Y945223D01*
X1859308Y944245D01*
X1860268Y941089D01*
X1860018Y937721D01*
X1860018Y937720D01*
X1859938Y937319D01*
X1859710Y936173D01*
Y934118D01*
X1868678D01*
Y931578D01*
X1859710D01*
Y929523D01*
X1854804Y925568D01*
X1854540Y925446D01*
X1714298D01*
X1711667Y931796D01*
X1735737Y955866D01*
X1737061Y957591D01*
X1737892Y959599D01*
X1738012Y960506D01*
X1738728Y961056D01*
X1739612Y962208D01*
X1748028D01*
X1749106Y962350D01*
X1750183Y962492D01*
X1752191Y963323D01*
X1753916Y964647D01*
X1761028Y971758D01*
X1762351Y973483D01*
X1763183Y975491D01*
X1763466Y977646D01*
Y1013714D01*
X1763183Y1015869D01*
X1762351Y1017877D01*
X1761028Y1019602D01*
X1760065Y1020564D01*
X1760065Y1045605D01*
X1766169Y1051708D01*
X1767291Y1053388D01*
X1767686Y1055370D01*
Y1068101D01*
X1767291Y1070083D01*
X1766169Y1071764D01*
X1760065Y1077867D01*
Y1102793D01*
X1766416Y1106595D01*
X1767487Y1106021D01*
Y1083310D01*
X1767881Y1081328D01*
X1769003Y1079648D01*
X1775107Y1073545D01*
Y1056609D01*
X1775501Y1054627D01*
X1776624Y1052946D01*
X1779164Y1050406D01*
X1780844Y1049283D01*
X1782826Y1048889D01*
X1798066D01*
X1800048Y1049283D01*
X1801729Y1050406D01*
X1804268Y1052946D01*
X1805391Y1054627D01*
X1805786Y1056609D01*
Y1073513D01*
X1811888Y1079616D01*
X1813011Y1081297D01*
X1813405Y1083279D01*
Y1112883D01*
X1814429Y1113906D01*
X1815551Y1115587D01*
X1815945Y1117569D01*
Y1142969D01*
X1815551Y1144951D01*
X1814429Y1146631D01*
X1811888Y1149171D01*
X1811045Y1149735D01*
X1810210Y1150293D01*
X1810209Y1150294D01*
X1810208Y1150294D01*
X1809214Y1150492D01*
X1808228Y1150688D01*
X1712582Y1150719D01*
X1712059Y1151242D01*
Y1153922D01*
X1711665Y1155904D01*
X1710542Y1157585D01*
X1709092Y1159035D01*
Y1159764D01*
X1708363D01*
X1708002Y1160125D01*
X1706322Y1161247D01*
X1704340Y1161641D01*
X1602328D01*
X1599482Y1167991D01*
X1600834Y1169639D01*
X1603163Y1173996D01*
X1604597Y1178723D01*
X1605081Y1183640D01*
X1604597Y1188557D01*
X1603163Y1193284D01*
X1601391Y1196600D01*
X1602611Y1200086D01*
X1604692Y1202950D01*
X2504088D01*
X2505450Y1201581D01*
D02*
G37*
G36*
X2436876Y1154176D02*
Y1149573D01*
X2436907D01*
X2440686Y1145794D01*
X2538476Y1145763D01*
X2541016Y1143223D01*
Y1117823D01*
X2538476Y1115283D01*
Y1083533D01*
X2530856Y1075913D01*
Y1056863D01*
X2528316Y1054323D01*
X2513076D01*
X2510536Y1056863D01*
Y1075944D01*
X2502916Y1083564D01*
Y1115283D01*
X2500376Y1117823D01*
X2440686D01*
X2436876Y1114013D01*
Y1042416D01*
X2434676Y1040216D01*
Y1038606D01*
X2328926D01*
X2325116Y1042416D01*
Y1154176D01*
X2327656Y1156716D01*
X2434336D01*
X2436876Y1154176D01*
D02*
G37*
G36*
X2193978Y1153668D02*
Y1149573D01*
X2194845D01*
X2198624Y1145794D01*
X2296414Y1145763D01*
X2298954Y1143223D01*
Y1117823D01*
X2296414Y1115283D01*
Y1083533D01*
X2288794Y1075913D01*
Y1056863D01*
X2286254Y1054323D01*
X2271014D01*
X2268474Y1056863D01*
Y1075944D01*
X2260854Y1083564D01*
Y1115283D01*
X2258314Y1117823D01*
X2198624D01*
X2193978Y1113177D01*
Y1041908D01*
X2190168Y1038098D01*
X2086028D01*
X2082218Y1041908D01*
Y1153668D01*
X2084758Y1156208D01*
X2191438D01*
X2193978Y1153668D01*
D02*
G37*
G36*
X1948868D02*
Y1151710D01*
X1954784Y1145794D01*
X2052574Y1145763D01*
X2055114Y1143223D01*
Y1117823D01*
X2052574Y1115283D01*
Y1083533D01*
X2044954Y1075913D01*
Y1056863D01*
X2042414Y1054323D01*
X2027174D01*
X2024634Y1056863D01*
Y1075944D01*
X2017014Y1083564D01*
Y1115283D01*
X2014474Y1117823D01*
X1954784D01*
X1948868Y1111907D01*
Y1041908D01*
X1946668Y1039708D01*
Y1038098D01*
X1840918D01*
X1837108Y1041908D01*
Y1153668D01*
X1839648Y1156208D01*
X1946328D01*
X1948868Y1153668D01*
D02*
G37*
G36*
X1706880Y1153922D02*
Y1149096D01*
X1710436Y1145540D01*
X1808226Y1145509D01*
X1810766Y1142969D01*
Y1117569D01*
X1808226Y1115029D01*
Y1083279D01*
X1800606Y1075659D01*
Y1056609D01*
X1798066Y1054069D01*
X1782826D01*
X1780286Y1056609D01*
Y1075690D01*
X1772666Y1083310D01*
Y1115029D01*
X1770126Y1117569D01*
X1710436D01*
X1706880Y1114013D01*
Y1042162D01*
X1704680Y1039962D01*
Y1038352D01*
X1598930D01*
X1595120Y1042162D01*
Y1153922D01*
X1597660Y1156462D01*
X1704340D01*
X1706880Y1153922D01*
D02*
G37*
G36*
X2485136Y1108964D02*
Y1075975D01*
X2492756Y1068355D01*
Y1055624D01*
X2485136Y1048004D01*
X2485136Y1017110D01*
X2483010Y1014984D01*
X2458466Y1014984D01*
X2455926Y1017524D01*
Y1108964D01*
X2458466Y1111504D01*
X2482596D01*
X2485136Y1108964D01*
D02*
G37*
G36*
X2243074D02*
Y1075975D01*
X2250694Y1068355D01*
Y1055624D01*
X2243074Y1048004D01*
X2243074Y1017110D01*
X2240948Y1014984D01*
X2216404Y1014984D01*
X2213864Y1017524D01*
Y1108964D01*
X2216404Y1111504D01*
X2240534D01*
X2243074Y1108964D01*
D02*
G37*
G36*
X1999234D02*
Y1075975D01*
X2006854Y1068355D01*
Y1055624D01*
X1999234Y1048004D01*
X1999234Y1017110D01*
X1997108Y1014984D01*
X1972564Y1014984D01*
X1970024Y1017524D01*
Y1108964D01*
X1972564Y1111504D01*
X1996694D01*
X1999234Y1108964D01*
D02*
G37*
G36*
X1754886Y1108710D02*
Y1075721D01*
X1762506Y1068101D01*
Y1055370D01*
X1754886Y1047750D01*
X1754886Y1016856D01*
X1752760Y1014730D01*
X1728216Y1014730D01*
X1725676Y1017270D01*
Y1108710D01*
X1728216Y1111250D01*
X1752346D01*
X1754886Y1108710D01*
D02*
G37*
G36*
X1570236Y1160357D02*
X1574963Y1158923D01*
X1579880Y1158439D01*
X1584378Y1158882D01*
X1585058Y1158816D01*
X1585701Y1158552D01*
X1586119Y1158314D01*
X1589940Y1153922D01*
Y1042162D01*
X1590335Y1040180D01*
X1591458Y1038500D01*
X1595267Y1034689D01*
X1596948Y1033567D01*
X1598930Y1033173D01*
X1704680D01*
X1706662Y1033567D01*
X1708342Y1034689D01*
X1709465Y1036370D01*
X1709727Y1037684D01*
X1710542Y1038500D01*
X1711665Y1040180D01*
X1712059Y1042162D01*
Y1106698D01*
X1714147Y1107816D01*
X1720497Y1104013D01*
Y1017270D01*
X1720891Y1015288D01*
X1722014Y1013607D01*
X1724554Y1011068D01*
X1726234Y1009945D01*
X1728216Y1009550D01*
X1746814Y1009550D01*
Y985568D01*
X1740950Y979920D01*
X1738728Y980012D01*
X1737307Y981103D01*
X1735651Y981789D01*
X1733875Y982023D01*
X1725825D01*
X1724048Y981789D01*
X1722393Y981103D01*
X1720972Y980012D01*
X1719472Y978693D01*
X1717539Y979177D01*
X1715875Y979508D01*
X1713120D01*
Y970534D01*
X1711850D01*
Y969264D01*
X1703476D01*
Y966402D01*
X1703085Y965489D01*
X1699490Y961627D01*
X1698470Y961009D01*
X1690599D01*
X1684708Y961009D01*
X1684708Y966357D01*
Y984540D01*
X1675310D01*
X1665912D01*
Y961921D01*
X1663482Y960735D01*
X1659562Y960210D01*
X1659294Y960558D01*
X1657936Y961601D01*
X1656353Y962256D01*
X1654655Y962480D01*
X1644805D01*
X1643107Y962256D01*
X1642798Y962129D01*
X1638228Y964067D01*
X1636448Y965398D01*
Y1014131D01*
X1612572D01*
Y957489D01*
X1612572D01*
X1612988Y957014D01*
X1612844Y955919D01*
Y949269D01*
X1613067Y947571D01*
X1613723Y945988D01*
X1614505Y944969D01*
X1614960Y943991D01*
X1615920Y940835D01*
X1615670Y937467D01*
X1615670Y937466D01*
X1615590Y937065D01*
X1615362Y935919D01*
Y933864D01*
X1624330D01*
Y931324D01*
X1615362D01*
Y929269D01*
X1615670Y927722D01*
X1616324Y926743D01*
X1616356Y926230D01*
X1616064Y924713D01*
X1614770Y920167D01*
X1614728Y920158D01*
X1613047Y919035D01*
X1610508Y916496D01*
X1609944Y915652D01*
X1609385Y914817D01*
X1609385Y914816D01*
X1609385Y914815D01*
X1609187Y913820D01*
X1608990Y912835D01*
X1608960Y817189D01*
X1608550Y816779D01*
X1603756D01*
X1601774Y816385D01*
X1600094Y815263D01*
X1597554Y812722D01*
X1596431Y811042D01*
X1596037Y809060D01*
Y702380D01*
X1596431Y700398D01*
X1597554Y698718D01*
X1600094Y696178D01*
X1601774Y695055D01*
X1603756Y694660D01*
X1715516D01*
X1717498Y695055D01*
X1719178Y696178D01*
X1722988Y699988D01*
X1724111Y701668D01*
X1724505Y703650D01*
Y809400D01*
X1724111Y811382D01*
X1722988Y813063D01*
X1721308Y814185D01*
X1719994Y814447D01*
X1719178Y815263D01*
X1717498Y816385D01*
X1715516Y816779D01*
X1653234D01*
X1652250Y818542D01*
X1655978Y824893D01*
X1742217D01*
X1744199Y825287D01*
X1745880Y826410D01*
X1748420Y828950D01*
X1749543Y830630D01*
X1749937Y832612D01*
Y850956D01*
X1777853D01*
X1778060Y850749D01*
X1779698Y844538D01*
X1778607Y843117D01*
X1777921Y841461D01*
X1777687Y839685D01*
Y831635D01*
X1777921Y829858D01*
X1778607Y828203D01*
X1779698Y826782D01*
X1781017Y825282D01*
X1780533Y823349D01*
X1780202Y821685D01*
Y818930D01*
X1789176D01*
Y817660D01*
X1790446D01*
Y809286D01*
X1793308D01*
X1794221Y808895D01*
X1798083Y805300D01*
X1798701Y804279D01*
Y796409D01*
X1798701Y790518D01*
X1793353Y790518D01*
X1775170D01*
Y781120D01*
Y771722D01*
X1797789D01*
X1798975Y769292D01*
X1799500Y765372D01*
X1799152Y765104D01*
X1798109Y763746D01*
X1797453Y762163D01*
X1797230Y760465D01*
Y750615D01*
X1797453Y748917D01*
X1797581Y748608D01*
X1795643Y744038D01*
X1794312Y742258D01*
X1745579D01*
Y718382D01*
X1802221D01*
Y718382D01*
X1802695Y718798D01*
X1803791Y718654D01*
X1810441D01*
X1812139Y718877D01*
X1813722Y719533D01*
X1814741Y720315D01*
X1815719Y720770D01*
X1818875Y721730D01*
X1822243Y721480D01*
X1822244Y721480D01*
X1822645Y721400D01*
X1823791Y721172D01*
X1825846D01*
Y730140D01*
X1827116D01*
Y731410D01*
X1834484D01*
Y735065D01*
X1834176Y736612D01*
X1833300Y737924D01*
X1833099Y738057D01*
X1832695Y740673D01*
X1832763Y741887D01*
X1833504Y744843D01*
X1833722Y744933D01*
X1835081Y745976D01*
X1836123Y747334D01*
X1836779Y748917D01*
X1837002Y750615D01*
Y760465D01*
X1836779Y762163D01*
X1836123Y763746D01*
X1835442Y764633D01*
Y777290D01*
X1838775Y781074D01*
X1839333Y781509D01*
X1840863Y782266D01*
X1914186D01*
X1920624Y775828D01*
Y730698D01*
X1918740Y729026D01*
X1914274Y727032D01*
X1912545Y727748D01*
X1909064Y728206D01*
X1905583Y727748D01*
X1902339Y726404D01*
X1899553Y724267D01*
X1897416Y721481D01*
X1896072Y718237D01*
X1895614Y714756D01*
X1896072Y711275D01*
X1897416Y708031D01*
X1899002Y705964D01*
X1899553Y705144D01*
Y698968D01*
X1899002Y698148D01*
X1897416Y696081D01*
X1896072Y692837D01*
X1895614Y689356D01*
X1896072Y685875D01*
X1897416Y682631D01*
X1899002Y680564D01*
X1899553Y679744D01*
Y673568D01*
X1899002Y672748D01*
X1897416Y670681D01*
X1896072Y667437D01*
X1895614Y663956D01*
X1896072Y660475D01*
X1896998Y658241D01*
X1895729Y651891D01*
X1895729Y651891D01*
Y625221D01*
X1903168D01*
X1905598Y619354D01*
X1851593Y565349D01*
X1844905Y567641D01*
X1844675Y569468D01*
X1844675Y572860D01*
Y577182D01*
X1844746Y577723D01*
Y578358D01*
X1844675Y578899D01*
Y585978D01*
X1843991D01*
X1842180Y588419D01*
X1845376Y594768D01*
X1847088D01*
X1849070Y595163D01*
X1850750Y596286D01*
X1852782Y598317D01*
X1853905Y599998D01*
X1854299Y601980D01*
Y629920D01*
X1853905Y631902D01*
X1852782Y633582D01*
X1851265Y635099D01*
X1850242Y636631D01*
X1848562Y637753D01*
X1846580Y638148D01*
X1799966D01*
Y661538D01*
X1773306D01*
Y638148D01*
X1643248D01*
Y661792D01*
X1616588D01*
Y635132D01*
X1614465Y631140D01*
X1614070Y629158D01*
Y603758D01*
X1614465Y601776D01*
X1615587Y600095D01*
X1617319Y598364D01*
X1619397Y596286D01*
X1619398Y596285D01*
X1619398Y596285D01*
X1620259Y595710D01*
X1621078Y595163D01*
X1621078Y595163D01*
X1621078Y595162D01*
X1622133Y594953D01*
X1623060Y594768D01*
X1623062Y594765D01*
X1626770Y588740D01*
X1626770Y574548D01*
X1627165Y572566D01*
X1628288Y570886D01*
X1632097Y567076D01*
X1632591Y566746D01*
X1632197Y566157D01*
X1631866Y564493D01*
Y561738D01*
X1640840D01*
Y560468D01*
X1642110D01*
Y552094D01*
X1645465D01*
X1651635Y550418D01*
X1653887Y545001D01*
X1653908Y544892D01*
X1655312Y542792D01*
X1662932Y535172D01*
X1665032Y533768D01*
X1667510Y533276D01*
X1852930D01*
X1857813Y528440D01*
X1857886Y528280D01*
Y481250D01*
X1857187Y480776D01*
X1851512Y479151D01*
X1849832Y480273D01*
X1847850Y480667D01*
X1799458D01*
Y504566D01*
X1772798D01*
Y480667D01*
X1643248D01*
Y504312D01*
X1616588D01*
Y477652D01*
X1614465Y473660D01*
X1614070Y471678D01*
X1614070Y446278D01*
X1614320Y445023D01*
X1614465Y444296D01*
X1614465Y444296D01*
X1614465Y444296D01*
X1615080Y443376D01*
X1615587Y442616D01*
X1619397Y438806D01*
X1619398Y438805D01*
X1619398Y438805D01*
X1620259Y438230D01*
X1621078Y437683D01*
X1621078Y437683D01*
X1621078Y437682D01*
X1622133Y437473D01*
X1623060Y437288D01*
X1623062Y437285D01*
X1626770Y431260D01*
X1626770Y417068D01*
X1627165Y415086D01*
X1628288Y413405D01*
X1632097Y409595D01*
X1632591Y409266D01*
X1632197Y408677D01*
X1631866Y407013D01*
Y404258D01*
X1640840D01*
Y402988D01*
X1642110D01*
Y394614D01*
X1645465D01*
X1651635Y392938D01*
X1653654Y387424D01*
X1653908Y386142D01*
X1655312Y384042D01*
X1662932Y376422D01*
X1665032Y375018D01*
X1667510Y374526D01*
X1859280D01*
X1861758Y375018D01*
X1863858Y376422D01*
X1868529Y381093D01*
X1874396Y378663D01*
X1874396Y329182D01*
X1874002Y328206D01*
X1868046Y323187D01*
X1824858D01*
Y347086D01*
X1798198D01*
Y323187D01*
X1668648D01*
Y346832D01*
X1641988D01*
Y320172D01*
X1639865Y316180D01*
X1639471Y314198D01*
Y288798D01*
X1639865Y286816D01*
X1640988Y285135D01*
X1642719Y283404D01*
X1644797Y281325D01*
X1644798Y281325D01*
X1644798Y281325D01*
X1645659Y280750D01*
X1646478Y280203D01*
X1646478Y280203D01*
X1646478Y280202D01*
X1647533Y279993D01*
X1648460Y279808D01*
X1648462Y279805D01*
X1652171Y273780D01*
X1652171Y259588D01*
X1652565Y257606D01*
X1653687Y255926D01*
X1657498Y252115D01*
X1657991Y251786D01*
X1657597Y251197D01*
X1657266Y249533D01*
Y246778D01*
X1666240D01*
Y245508D01*
X1667510D01*
Y237134D01*
X1670865D01*
X1677035Y235458D01*
X1678816Y229846D01*
Y226060D01*
X1679308Y223582D01*
X1680200Y222248D01*
X1679438Y219388D01*
X1677315Y215898D01*
X1605000D01*
X1603638Y217267D01*
X1601474Y222248D01*
X1602827Y224780D01*
X1604261Y229507D01*
X1604745Y234424D01*
X1604261Y239340D01*
X1602827Y244068D01*
X1600498Y248425D01*
X1597364Y252244D01*
X1593545Y255378D01*
X1589188Y257707D01*
X1584461Y259141D01*
X1579544Y259625D01*
X1574628Y259141D01*
X1569900Y257707D01*
X1567368Y256354D01*
X1562387Y258518D01*
X1561018Y259880D01*
Y1158460D01*
X1562930Y1160122D01*
X1567368Y1161890D01*
X1570236Y1160357D01*
D02*
G37*
G36*
X1711737Y859282D02*
X1740947D01*
X1744757Y855472D01*
Y832612D01*
X1742217Y830072D01*
X1650777D01*
X1648237Y832612D01*
Y856742D01*
X1650777Y859282D01*
X1683766D01*
X1691386Y866902D01*
X1704117D01*
X1711737Y859282D01*
D02*
G37*
G36*
X2177418Y890890D02*
Y685180D01*
X2175876Y683638D01*
X2169001D01*
X2168735Y683669D01*
X2165989Y687761D01*
X2165222Y689988D01*
X2165450Y691134D01*
Y802894D01*
X2165055Y804876D01*
X2163932Y806556D01*
X2161393Y809097D01*
X2159712Y810219D01*
X2157730Y810613D01*
X2051050D01*
X2049068Y810219D01*
X2047388Y809097D01*
X2044848Y806556D01*
X2043725Y804876D01*
X2043331Y802894D01*
Y736035D01*
X2040735Y734489D01*
X2034386Y738098D01*
Y824992D01*
X2033991Y826974D01*
X2032868Y828654D01*
X2030329Y831195D01*
X2028648Y832317D01*
X2026666Y832711D01*
X2006592Y832712D01*
X2000956Y838347D01*
Y865485D01*
X2003445Y867974D01*
X2012222D01*
X2013106Y866822D01*
X2014527Y865731D01*
X2016183Y865045D01*
X2017959Y864811D01*
X2026009D01*
X2027785Y865045D01*
X2029441Y865731D01*
X2030862Y866822D01*
X2032362Y868141D01*
X2034295Y867657D01*
X2035959Y867326D01*
X2038714D01*
Y876300D01*
X2039984D01*
Y877570D01*
X2048358D01*
Y880925D01*
X2048027Y882589D01*
X2047084Y884000D01*
X2045673Y884943D01*
X2044009Y885274D01*
X2041155D01*
X2038525Y891624D01*
X2049419Y902518D01*
X2060328D01*
X2065655Y900049D01*
Y883539D01*
X2068957D01*
Y859552D01*
X2087753D01*
Y880045D01*
X2088285Y884257D01*
X2091950Y885597D01*
X2098207Y885661D01*
X2098863Y884078D01*
X2099906Y882720D01*
X2101264Y881677D01*
X2102847Y881021D01*
X2104545Y880798D01*
X2114395D01*
X2117217Y874896D01*
Y829961D01*
X2141093D01*
Y885968D01*
X2141276Y887359D01*
Y894009D01*
X2141053Y895707D01*
X2140397Y897290D01*
X2139615Y898309D01*
X2139160Y899287D01*
X2138200Y902443D01*
X2138450Y905812D01*
X2138758Y907359D01*
Y909414D01*
X2129790D01*
Y911954D01*
X2138758D01*
Y914009D01*
X2144876Y915800D01*
X2152508D01*
X2177418Y890890D01*
D02*
G37*
G36*
X1925704Y905368D02*
Y797506D01*
X1919354Y794716D01*
X1919346Y794722D01*
X1916868Y795214D01*
X1839324D01*
X1834332Y798720D01*
Y807610D01*
X1834048Y809765D01*
X1833217Y811773D01*
X1831893Y813498D01*
X1803844Y841547D01*
X1802119Y842871D01*
X1800111Y843702D01*
X1799204Y843822D01*
X1798654Y844538D01*
X1797502Y845423D01*
Y851408D01*
X1797218Y853563D01*
X1796387Y855571D01*
X1795063Y857296D01*
X1787189Y865170D01*
X1785465Y866493D01*
X1783457Y867325D01*
X1782379Y867466D01*
X1781302Y867608D01*
X1744980D01*
X1743902Y867466D01*
X1742825Y867325D01*
X1740817Y866493D01*
X1739093Y865170D01*
X1738385Y864462D01*
X1713883D01*
X1707780Y870564D01*
X1706099Y871687D01*
X1704117Y872082D01*
X1691386D01*
X1689404Y871687D01*
X1687724Y870564D01*
X1681621Y864462D01*
X1656543D01*
X1652816Y870811D01*
X1653531Y872094D01*
X1676369D01*
X1678351Y872488D01*
X1680031Y873611D01*
X1686134Y879714D01*
X1703070D01*
X1705052Y880108D01*
X1706732Y881230D01*
X1709272Y883771D01*
X1710395Y885451D01*
X1710789Y887433D01*
Y902673D01*
X1710395Y904655D01*
X1709398Y906148D01*
X1709550Y906941D01*
X1712091Y912498D01*
X1918574D01*
X1925704Y905368D01*
D02*
G37*
G36*
X2274570Y785368D02*
Y751078D01*
X2270760Y747268D01*
X2225040D01*
X2221230Y751078D01*
Y785368D01*
X2225040Y789178D01*
X2270760D01*
X2274570Y785368D01*
D02*
G37*
G36*
X2454275Y845058D02*
X2454275Y772795D01*
X2451608Y770128D01*
X2423668D01*
X2421636Y768096D01*
X2421636Y743839D01*
X2414905Y737108D01*
X2372346Y737108D01*
X2365488Y743966D01*
Y841248D01*
X2375648Y851408D01*
X2447925D01*
X2454275Y845058D01*
D02*
G37*
G36*
X2497737Y1106275D02*
Y1083564D01*
X2498131Y1081582D01*
X2499254Y1079902D01*
X2505356Y1073799D01*
Y1056863D01*
X2505751Y1054881D01*
X2506873Y1053200D01*
X2509413Y1050660D01*
X2511094Y1049537D01*
X2513076Y1049143D01*
X2528316D01*
X2530298Y1049537D01*
X2531978Y1050660D01*
X2534518Y1053200D01*
X2535641Y1054881D01*
X2536035Y1056863D01*
Y1073767D01*
X2541720Y1079451D01*
X2543497Y1079286D01*
X2548070Y1077317D01*
Y702164D01*
X2541720Y699533D01*
X2539852Y701401D01*
X2538172Y702523D01*
X2536190Y702917D01*
X2498090D01*
X2496108Y702523D01*
X2495112Y701858D01*
X2492121D01*
Y699094D01*
X2488078Y695051D01*
X2486955Y693370D01*
X2486561Y691388D01*
Y579434D01*
X2457664Y550537D01*
X2393978D01*
X2392623Y551882D01*
X2389742Y556888D01*
X2389806Y557207D01*
Y558812D01*
X2373660D01*
Y561352D01*
X2389806D01*
Y562733D01*
X2389806Y562957D01*
X2393123Y568096D01*
X2394341Y569082D01*
X2447004D01*
X2448986Y569477D01*
X2450667Y570600D01*
X2459842Y579775D01*
X2460965Y581456D01*
X2461359Y583438D01*
X2461359Y691388D01*
X2460965Y693370D01*
X2459842Y695051D01*
X2459842Y695051D01*
X2453492Y701400D01*
X2453492Y701401D01*
X2451812Y702523D01*
X2449830Y702917D01*
X2405380D01*
X2405380Y702917D01*
X2403930Y702629D01*
X2403398Y702523D01*
X2403398Y702523D01*
X2403398Y702523D01*
X2402386Y701847D01*
X2401717Y701401D01*
X2401717Y701400D01*
X2401717Y701400D01*
X2394098Y693781D01*
X2394098Y693781D01*
X2394098Y693780D01*
X2393633Y693085D01*
X2392975Y692100D01*
X2392975Y692100D01*
X2392975Y692100D01*
X2392811Y691278D01*
X2392581Y690118D01*
X2392580Y671168D01*
X2385667D01*
X2384070Y673113D01*
Y682468D01*
X2375674D01*
Y685008D01*
X2384070D01*
Y694363D01*
X2383650Y696476D01*
X2382453Y698301D01*
Y702196D01*
X2383650Y704020D01*
X2384070Y706133D01*
Y715488D01*
X2375674D01*
Y718028D01*
X2384070D01*
Y725579D01*
X2387351Y730359D01*
X2389016Y731870D01*
X2389148Y731928D01*
X2414905Y731928D01*
X2416887Y732323D01*
X2418568Y733446D01*
X2418568Y733446D01*
X2425299Y740177D01*
X2426421Y741857D01*
X2426816Y743839D01*
X2426815Y764949D01*
X2451608D01*
X2453590Y765343D01*
X2455271Y766466D01*
X2457937Y769133D01*
X2459060Y770813D01*
X2459454Y772795D01*
X2459455Y845058D01*
X2459060Y847040D01*
X2457937Y848720D01*
X2457937Y848720D01*
X2451588Y855070D01*
X2451588Y855070D01*
X2449907Y856193D01*
X2447925Y856588D01*
X2375648D01*
X2373666Y856193D01*
X2371985Y855070D01*
X2371985Y855070D01*
X2367557Y850642D01*
X2362054Y847451D01*
X2362052Y847450D01*
X2358242Y851261D01*
X2356562Y852383D01*
X2354580Y852777D01*
X2225040D01*
X2225040Y852777D01*
X2223058Y852383D01*
X2221378Y851261D01*
X2217568Y847450D01*
X2216445Y845770D01*
X2216051Y843788D01*
Y800608D01*
X2216445Y798626D01*
X2217568Y796945D01*
X2221241Y792988D01*
X2217567Y789031D01*
X2216445Y787350D01*
X2216051Y785368D01*
Y751078D01*
X2216445Y749096D01*
X2217567Y747415D01*
X2221378Y743605D01*
X2223058Y742483D01*
X2225040Y742088D01*
X2270760D01*
X2272742Y742483D01*
X2274422Y743605D01*
X2278233Y747415D01*
X2279355Y749096D01*
X2279749Y751078D01*
Y776583D01*
X2286100Y779214D01*
X2296308Y769006D01*
X2297988Y767883D01*
X2299970Y767488D01*
X2331620D01*
X2331620Y745744D01*
X2331620Y745744D01*
Y710043D01*
X2329575Y707998D01*
X2319020D01*
X2317038Y707603D01*
X2315358Y706480D01*
X2312818Y703941D01*
X2311695Y702260D01*
X2311301Y700278D01*
Y691388D01*
X2311381Y690984D01*
X2308700Y686194D01*
X2307246Y684634D01*
X2289970D01*
X2288893Y684492D01*
X2287815Y684351D01*
X2285807Y683519D01*
X2284082Y682196D01*
X2277572Y675686D01*
X2276249Y673961D01*
X2275417Y671953D01*
X2275276Y670875D01*
X2275134Y669798D01*
Y665853D01*
X2273896Y664902D01*
X2272853Y663544D01*
X2272197Y661961D01*
X2271974Y660263D01*
Y653613D01*
X2272197Y651915D01*
X2272853Y650332D01*
X2273635Y649313D01*
X2274090Y648335D01*
X2275050Y645179D01*
X2275022Y644795D01*
X2275840Y645668D01*
X2334230D01*
X2334525Y645790D01*
X2335910Y646853D01*
X2336947Y645816D01*
X2337168Y645668D01*
X2386330D01*
X2388870Y643128D01*
Y616458D01*
X2386250Y613838D01*
X2348536D01*
X2345724Y611931D01*
X2345312Y612067D01*
X2344420Y612244D01*
Y602598D01*
X2341880D01*
Y612244D01*
X2340988Y612067D01*
X2338527Y611258D01*
X2334628Y613838D01*
X2276268D01*
X2276320Y613137D01*
X2275360Y609981D01*
X2274905Y609003D01*
X2274123Y607984D01*
X2273467Y606401D01*
X2273244Y604703D01*
Y598053D01*
X2273467Y596355D01*
X2274123Y594772D01*
X2275166Y593414D01*
X2276524Y592371D01*
X2278107Y591716D01*
X2279805Y591492D01*
X2284315D01*
X2285560Y590548D01*
X2287715Y587490D01*
X2288584Y585142D01*
X2288484Y584383D01*
Y583552D01*
X2287395Y581953D01*
X2283135Y578414D01*
X2282134Y578414D01*
X2276485D01*
X2274787Y578191D01*
X2273204Y577535D01*
X2271846Y576492D01*
X2270896Y575254D01*
X2227580D01*
X2225425Y574971D01*
X2223417Y574139D01*
X2221693Y572816D01*
X2216613Y567735D01*
X2215289Y566011D01*
X2214458Y564003D01*
X2214316Y562925D01*
X2214174Y561848D01*
Y542798D01*
X2214316Y541721D01*
X2214458Y540643D01*
X2214956Y539440D01*
X2214580Y538879D01*
X2214090Y538272D01*
X2214023Y538044D01*
X2213891Y537847D01*
X2213739Y537082D01*
X2213518Y536334D01*
X2213543Y536098D01*
X2213497Y535865D01*
Y496944D01*
X2213891Y494962D01*
X2215014Y493282D01*
X2223770Y484525D01*
X2223858Y484467D01*
X2223918Y484377D01*
X2225188Y483107D01*
X2226868Y481985D01*
X2228850Y481590D01*
X2441896Y481590D01*
X2443474Y479840D01*
X2445352Y475240D01*
X2444216Y473116D01*
X2442997Y469095D01*
X2442585Y464914D01*
X2442997Y460733D01*
X2444216Y456712D01*
X2446197Y453006D01*
X2448862Y449758D01*
X2452110Y447093D01*
X2455816Y445112D01*
X2459837Y443893D01*
X2464018Y443481D01*
X2468199Y443893D01*
X2472220Y445112D01*
X2475926Y447093D01*
X2479174Y449758D01*
X2481839Y453006D01*
X2483820Y456712D01*
X2485039Y460733D01*
X2485451Y464914D01*
X2485039Y469095D01*
X2483820Y473116D01*
X2482684Y475240D01*
X2484562Y479840D01*
X2486140Y481590D01*
X2510354D01*
X2512336Y481985D01*
X2514017Y483107D01*
X2541720Y510810D01*
X2548070Y508180D01*
Y259880D01*
X2546701Y258518D01*
X2541720Y256354D01*
X2539188Y257707D01*
X2534460Y259141D01*
X2529544Y259625D01*
X2524627Y259141D01*
X2519900Y257707D01*
X2515543Y255378D01*
X2511724Y252244D01*
X2508590Y248425D01*
X2506261Y244068D01*
X2504827Y239340D01*
X2504343Y234424D01*
X2504827Y229507D01*
X2506261Y224780D01*
X2507614Y222248D01*
X2505450Y217267D01*
X2504088Y215898D01*
X2395266D01*
X2394850Y222248D01*
X2395689Y222359D01*
X2398779Y223639D01*
X2401432Y225674D01*
X2403467Y228327D01*
X2404747Y231417D01*
X2405184Y234732D01*
X2404747Y238047D01*
X2403467Y241137D01*
X2401432Y243790D01*
X2398779Y245825D01*
X2395689Y247105D01*
X2392374Y247542D01*
X2389059Y247105D01*
X2385969Y245825D01*
X2383766Y244135D01*
X2383156Y243790D01*
X2376592D01*
X2375982Y244135D01*
X2373779Y245825D01*
X2370689Y247105D01*
X2367374Y247542D01*
X2364059Y247105D01*
X2360969Y245825D01*
X2358766Y244135D01*
X2358156Y243790D01*
X2351592D01*
X2350982Y244135D01*
X2348779Y245825D01*
X2345689Y247105D01*
X2342374Y247542D01*
X2339059Y247105D01*
X2335969Y245825D01*
X2333316Y243790D01*
X2331281Y241137D01*
X2330001Y238047D01*
X2329564Y234732D01*
X2330001Y231417D01*
X2331281Y228327D01*
X2333316Y225674D01*
X2335969Y223639D01*
X2339059Y222359D01*
X2339898Y222248D01*
X2339482Y215898D01*
X2182142D01*
X2179080Y220980D01*
X2179080Y222248D01*
Y243840D01*
X2156220D01*
Y222248D01*
X2156220Y221434D01*
X2155841Y221053D01*
X2149459D01*
X2149080Y221434D01*
X2149080Y222248D01*
Y243840D01*
X2126220D01*
Y222248D01*
X2126220Y220980D01*
X2123158Y215898D01*
X1895195D01*
X1892565Y222248D01*
X1893068Y222752D01*
X1894472Y224852D01*
X1894964Y227330D01*
X1894964Y403393D01*
X1901314Y409321D01*
X1922653D01*
X1926974Y404761D01*
Y281432D01*
X1927466Y278954D01*
X1928870Y276854D01*
X1953072Y252652D01*
X1952968Y252401D01*
X1952510Y248920D01*
X1952968Y245439D01*
X1954312Y242195D01*
X1956449Y239409D01*
X1959235Y237272D01*
X1962479Y235928D01*
X1965960Y235470D01*
X1969441Y235928D01*
X1972685Y237272D01*
X1974752Y238858D01*
X1975572Y239409D01*
X1981749D01*
X1982568Y238858D01*
X1984635Y237272D01*
X1987879Y235928D01*
X1991360Y235470D01*
X1994841Y235928D01*
X1998085Y237272D01*
X2000152Y238858D01*
X2000972Y239409D01*
X2007148D01*
X2007968Y238858D01*
X2010035Y237272D01*
X2013279Y235928D01*
X2016760Y235470D01*
X2020241Y235928D01*
X2023485Y237272D01*
X2026271Y239409D01*
X2028408Y242195D01*
X2029752Y245439D01*
X2030210Y248920D01*
X2029752Y252401D01*
X2028408Y255645D01*
X2026271Y258431D01*
X2023485Y260568D01*
X2020241Y261912D01*
X2016760Y262370D01*
X2013279Y261912D01*
X2010035Y260568D01*
X2007968Y258982D01*
X2007148Y258431D01*
X2000972D01*
X2000152Y258982D01*
X1998085Y260568D01*
X1994841Y261912D01*
X1991360Y262370D01*
X1987879Y261912D01*
X1987628Y261808D01*
X1977805Y271631D01*
X1980235Y277498D01*
X2064766D01*
X2067244Y277990D01*
X2069344Y279394D01*
X2078892Y288942D01*
X2082898D01*
X2085588Y286252D01*
X2087688Y284848D01*
X2090166Y284356D01*
X2126220D01*
Y279400D01*
X2149080D01*
Y302260D01*
X2126220D01*
Y297304D01*
X2092848D01*
X2090554Y299598D01*
Y317102D01*
X2071504D01*
X2065394Y317102D01*
Y317102D01*
X2065154D01*
Y317102D01*
X2039994D01*
Y290446D01*
X2014354D01*
Y317102D01*
X2008226D01*
X2007756Y319470D01*
X2006352Y321570D01*
X1998224Y329698D01*
X1996124Y331102D01*
X1993646Y331594D01*
X1970674D01*
X1961512Y340756D01*
Y416564D01*
X1963166Y418014D01*
X1965288Y418293D01*
X1967265Y419112D01*
X1968963Y420415D01*
X1970266Y422113D01*
X1971085Y424090D01*
X1971219Y425109D01*
X1973840Y427730D01*
X1975244Y429830D01*
X1975736Y432308D01*
Y456296D01*
X2027630Y508189D01*
X2033496Y505759D01*
Y487919D01*
X2004236Y458658D01*
X2003985Y458762D01*
X2000504Y459220D01*
X1997023Y458762D01*
X1993779Y457418D01*
X1990993Y455281D01*
X1988856Y452495D01*
X1987512Y449251D01*
X1987054Y445770D01*
X1987512Y442289D01*
X1988856Y439045D01*
X1990442Y436978D01*
X1990993Y436158D01*
Y429982D01*
X1990442Y429162D01*
X1988856Y427095D01*
X1987512Y423851D01*
X1987054Y420370D01*
X1987512Y416889D01*
X1988856Y413645D01*
X1990442Y411578D01*
X1990993Y410758D01*
Y404582D01*
X1990442Y403762D01*
X1988856Y401695D01*
X1987512Y398451D01*
X1987054Y394970D01*
X1987512Y391489D01*
X1988438Y389255D01*
X1987169Y382905D01*
X1987169Y382905D01*
Y356235D01*
X2013839D01*
Y373749D01*
X2069547Y429457D01*
X2076427Y429017D01*
X2090922Y414522D01*
X2093022Y413118D01*
X2095500Y412626D01*
X2219818D01*
X2224264Y408180D01*
X2223429Y404108D01*
X2222159Y401304D01*
X2220941Y400800D01*
X2219243Y399497D01*
X2217940Y397799D01*
X2217121Y395822D01*
X2216842Y393700D01*
X2217121Y391578D01*
X2217940Y389601D01*
X2219243Y387903D01*
X2220941Y386600D01*
X2222918Y385781D01*
X2223937Y385647D01*
X2230090Y379494D01*
Y308382D01*
X2224484D01*
Y302934D01*
X2223730Y302784D01*
X2221630Y301380D01*
X2218016Y297766D01*
X2216612Y295666D01*
X2216120Y293188D01*
Y290416D01*
Y269022D01*
X2216612Y266544D01*
X2218016Y264444D01*
X2229402Y253057D01*
X2229153Y246684D01*
X2227036Y245060D01*
X2225001Y242407D01*
X2223721Y239317D01*
X2223284Y236002D01*
X2223721Y232687D01*
X2225001Y229597D01*
X2227036Y226944D01*
X2229689Y224909D01*
X2232779Y223629D01*
X2236094Y223192D01*
X2239409Y223629D01*
X2242499Y224909D01*
X2244702Y226599D01*
X2245312Y226944D01*
X2251876D01*
X2252486Y226599D01*
X2254689Y224909D01*
X2257779Y223629D01*
X2261094Y223192D01*
X2264409Y223629D01*
X2267499Y224909D01*
X2270152Y226944D01*
X2272187Y229597D01*
X2273467Y232687D01*
X2273904Y236002D01*
X2273467Y239317D01*
X2272187Y242407D01*
X2270152Y245060D01*
X2267499Y247095D01*
X2264409Y248375D01*
X2261094Y248812D01*
X2257779Y248375D01*
X2254689Y247095D01*
X2252486Y245405D01*
X2251876Y245060D01*
X2248097D01*
X2242568Y250273D01*
Y255522D01*
X2242076Y258000D01*
X2240672Y260100D01*
X2231900Y268872D01*
X2234530Y275222D01*
X2248644D01*
Y275328D01*
X2252842D01*
X2255320Y275820D01*
X2257420Y277224D01*
X2257588Y277392D01*
X2266190Y277354D01*
X2266320Y277224D01*
X2268420Y275820D01*
X2268484Y275808D01*
Y275222D01*
X2292644D01*
Y277882D01*
X2348230D01*
X2350708Y278374D01*
X2352808Y279778D01*
X2368383Y295353D01*
X2369402Y295487D01*
X2371379Y296306D01*
X2373077Y297609D01*
X2374380Y299307D01*
X2375199Y301284D01*
X2375478Y303406D01*
X2375199Y305528D01*
X2374380Y307505D01*
X2373077Y309203D01*
X2371379Y310506D01*
X2369402Y311325D01*
X2367280Y311604D01*
X2365158Y311325D01*
X2363181Y310506D01*
X2361483Y309203D01*
X2360180Y307505D01*
X2359361Y305528D01*
X2359227Y304509D01*
X2345548Y290830D01*
X2336100D01*
X2335215Y292549D01*
X2334418Y297180D01*
X2334977Y297609D01*
X2336280Y299307D01*
X2337099Y301284D01*
X2337378Y303406D01*
X2337099Y305528D01*
X2336280Y307505D01*
X2334977Y309203D01*
X2333279Y310506D01*
X2331302Y311325D01*
X2329180Y311604D01*
X2327058Y311325D01*
X2325081Y310506D01*
X2323383Y309203D01*
X2322080Y307505D01*
X2321261Y305528D01*
X2321225Y305252D01*
X2292644D01*
Y308382D01*
X2273424D01*
Y322746D01*
X2274050Y323561D01*
X2274869Y325538D01*
X2275148Y327660D01*
X2274869Y329782D01*
X2274050Y331759D01*
X2273424Y332574D01*
Y362153D01*
X2279291Y364583D01*
X2313390Y330484D01*
X2315490Y329080D01*
X2317968Y328588D01*
X2331980D01*
X2332795Y327962D01*
X2334772Y327143D01*
X2336894Y326864D01*
X2339016Y327143D01*
X2340993Y327962D01*
X2342691Y329265D01*
X2343994Y330963D01*
X2344813Y332940D01*
X2345092Y335062D01*
X2344813Y337184D01*
X2343994Y339161D01*
X2342691Y340859D01*
X2340993Y342162D01*
X2339016Y342981D01*
X2336894Y343260D01*
X2334772Y342981D01*
X2332795Y342162D01*
X2331980Y341536D01*
X2320650D01*
X2284396Y377790D01*
X2287979Y383179D01*
X2289958Y382919D01*
X2294958D01*
X2296937Y383179D01*
X2298781Y383943D01*
X2300364Y385158D01*
X2302552D01*
X2304135Y383943D01*
X2305979Y383179D01*
X2307958Y382919D01*
X2312958D01*
X2314937Y383179D01*
X2316781Y383943D01*
X2317661Y384619D01*
X2317872Y384457D01*
X2319455Y383801D01*
X2321153Y383578D01*
X2327803D01*
X2329501Y383801D01*
X2330050Y384029D01*
X2332110Y384077D01*
X2336764Y382357D01*
X2337580Y381764D01*
X2338591Y380447D01*
X2357800Y361236D01*
X2359525Y359913D01*
X2361533Y359081D01*
X2363688Y358798D01*
X2389088D01*
X2390166Y358940D01*
X2391243Y359081D01*
X2393251Y359913D01*
X2394975Y361236D01*
X2406405Y372667D01*
X2407729Y374391D01*
X2408560Y376399D01*
X2408702Y377477D01*
X2408844Y378554D01*
Y385395D01*
X2409576Y385956D01*
X2411611Y388609D01*
X2412891Y391699D01*
X2413328Y395014D01*
X2412891Y398329D01*
X2411611Y401419D01*
X2409747Y403848D01*
X2409576Y404180D01*
Y411247D01*
X2409747Y411580D01*
X2411611Y414009D01*
X2412891Y417099D01*
X2413328Y420414D01*
X2412891Y423729D01*
X2411611Y426819D01*
X2409747Y429248D01*
X2409576Y429580D01*
Y436647D01*
X2409747Y436980D01*
X2411611Y439409D01*
X2412891Y442499D01*
X2413328Y445814D01*
X2412891Y449129D01*
X2411611Y452219D01*
X2409576Y454872D01*
X2406923Y456907D01*
X2403833Y458187D01*
X2400518Y458624D01*
X2397203Y458187D01*
X2394113Y456907D01*
X2391460Y454872D01*
X2389425Y452219D01*
X2388145Y449129D01*
X2387708Y445814D01*
X2388145Y442499D01*
X2389425Y439409D01*
X2391289Y436980D01*
X2391460Y436647D01*
Y429580D01*
X2391289Y429248D01*
X2389425Y426819D01*
X2388145Y423729D01*
X2387906Y421913D01*
X2384066Y419468D01*
X2381523Y418807D01*
X2378433Y420087D01*
X2375118Y420524D01*
X2371803Y420087D01*
X2368713Y418807D01*
X2366060Y416772D01*
X2364025Y414119D01*
X2362745Y411029D01*
X2362308Y407714D01*
X2362745Y404399D01*
X2364025Y401309D01*
X2365889Y398880D01*
X2366060Y398548D01*
Y391480D01*
X2365889Y391148D01*
X2364025Y388719D01*
X2357814Y387977D01*
X2356593Y388742D01*
X2354364Y390715D01*
Y399989D01*
X2354141Y401687D01*
X2353485Y403270D01*
X2352804Y404157D01*
Y412844D01*
Y424071D01*
X2353485Y424958D01*
X2354141Y426541D01*
X2354364Y428239D01*
Y438089D01*
X2354141Y439787D01*
X2353485Y441370D01*
X2352442Y442728D01*
X2351084Y443771D01*
X2349501Y444427D01*
X2347803Y444650D01*
X2341153D01*
X2339455Y444427D01*
X2337872Y443771D01*
X2335968Y442728D01*
X2332988D01*
X2331084Y443771D01*
X2329501Y444427D01*
X2327803Y444650D01*
X2321153D01*
X2319455Y444427D01*
X2317872Y443771D01*
X2317661Y443609D01*
X2316781Y444285D01*
X2314937Y445049D01*
X2312958Y445309D01*
X2307958D01*
X2305979Y445049D01*
X2304135Y444285D01*
X2302552Y443070D01*
X2300364D01*
X2298781Y444285D01*
X2296937Y445049D01*
X2294958Y445309D01*
X2289958D01*
X2287979Y445049D01*
X2286135Y444285D01*
X2284552Y443070D01*
X2283340Y441490D01*
X2278598D01*
X2276443Y441207D01*
X2274435Y440375D01*
X2273475Y439638D01*
X2256871D01*
X2256422Y441898D01*
X2255018Y443998D01*
X2254226Y444527D01*
X2253697Y445217D01*
X2251999Y446520D01*
X2250022Y447339D01*
X2247900Y447618D01*
X2247060Y448458D01*
X2247208Y449580D01*
X2246929Y451702D01*
X2246110Y453679D01*
X2244807Y455377D01*
X2243109Y456680D01*
X2241132Y457499D01*
X2240113Y457633D01*
X2183898Y513848D01*
X2183147Y514350D01*
X2184478Y520700D01*
X2186940D01*
X2197100Y530860D01*
X2197100Y530860D01*
Y642620D01*
X2188158Y651562D01*
X2189297Y658154D01*
X2189672Y658228D01*
X2191772Y659632D01*
X2204218Y672078D01*
X2205622Y674178D01*
X2206114Y676656D01*
Y854822D01*
X2221880Y870588D01*
X2395220D01*
X2397698Y871080D01*
X2399798Y872484D01*
X2417579Y890265D01*
X2418982Y892365D01*
X2419475Y894843D01*
Y920744D01*
X2423160Y925632D01*
X2432050D01*
X2433127Y925774D01*
X2434205Y925916D01*
X2436213Y926747D01*
X2437937Y928071D01*
X2465988Y956120D01*
X2467311Y957845D01*
X2468143Y959853D01*
X2468262Y960760D01*
X2468978Y961310D01*
X2469863Y962462D01*
X2478278D01*
X2479355Y962604D01*
X2480433Y962746D01*
X2482441Y963577D01*
X2484165Y964901D01*
X2491277Y972012D01*
X2492601Y973737D01*
X2493432Y975745D01*
X2493716Y977900D01*
Y1013968D01*
X2493432Y1016123D01*
X2492601Y1018131D01*
X2491277Y1019855D01*
X2490316Y1020818D01*
X2490316Y1045859D01*
X2496418Y1051962D01*
X2497541Y1053642D01*
X2497935Y1055624D01*
Y1068355D01*
X2497541Y1070337D01*
X2496418Y1072018D01*
X2490316Y1078121D01*
Y1103047D01*
X2496665Y1106849D01*
X2497737Y1106275D01*
D02*
G37*
G36*
X2026666Y827532D02*
X2029206Y824992D01*
Y733552D01*
X2026666Y731012D01*
X2002536D01*
X1999996Y733552D01*
Y766541D01*
X1992376Y774161D01*
Y786892D01*
X1999996Y794512D01*
X1999996Y825406D01*
X2002122Y827532D01*
X2026666Y827532D01*
D02*
G37*
G36*
X2160270Y802894D02*
Y691134D01*
X2156460Y687324D01*
X2052320D01*
X2048510Y691134D01*
Y693674D01*
X2044700Y697484D01*
X1946910D01*
X1944370Y700024D01*
Y725424D01*
X1946910Y727964D01*
Y759714D01*
X1954530Y767334D01*
Y786384D01*
X1957070Y788924D01*
X1972310D01*
X1974850Y786384D01*
Y767303D01*
X1982470Y759683D01*
Y727964D01*
X1985010Y725424D01*
X2044700D01*
X2048510Y729234D01*
Y802894D01*
X2051050Y805434D01*
X2157730D01*
X2160270Y802894D01*
D02*
G37*
G36*
X1644650Y912833D02*
X1676400D01*
X1684020Y905213D01*
X1703070D01*
X1705610Y902673D01*
Y887433D01*
X1703070Y884893D01*
X1683989D01*
X1676369Y877273D01*
X1644650D01*
X1642110Y874733D01*
Y815043D01*
X1645553Y811600D01*
X1715516D01*
X1717716Y809400D01*
X1719326D01*
Y703650D01*
X1715516Y699840D01*
X1603756D01*
X1601216Y702380D01*
Y809060D01*
X1603756Y811600D01*
X1610696D01*
X1614139Y815043D01*
X1614170Y912833D01*
X1616710Y915373D01*
X1642110D01*
X1644650Y912833D01*
D02*
G37*
G36*
X2358390Y843788D02*
Y772668D01*
X2358136D01*
X2358390Y772630D01*
X2358390Y745744D01*
Y677418D01*
X2346960Y665988D01*
Y650748D01*
X2345690Y649478D01*
X2340610D01*
X2339340Y650748D01*
Y685038D01*
X2335530Y688848D01*
X2319020D01*
X2316480Y691388D01*
Y700278D01*
X2319020Y702818D01*
X2331720D01*
X2336800Y707898D01*
Y745744D01*
X2336800D01*
X2336800Y770382D01*
X2334514Y772668D01*
X2299970D01*
X2276046Y796592D01*
X2225040Y796798D01*
X2221230Y800608D01*
Y843788D01*
X2225040Y847598D01*
X2354580D01*
X2358390Y843788D01*
D02*
G37*
G36*
X2096568Y635319D02*
X2096890Y629431D01*
Y617140D01*
Y607140D01*
Y597140D01*
Y586715D01*
X2094798Y586439D01*
X2092821Y585620D01*
X2091123Y584318D01*
X2089820Y582620D01*
X2089001Y580642D01*
X2088722Y578521D01*
X2089001Y576399D01*
X2089820Y574422D01*
X2091123Y572724D01*
Y569517D01*
X2089820Y567819D01*
X2089001Y565842D01*
X2088722Y563720D01*
X2089001Y561598D01*
X2089820Y559621D01*
X2091123Y557923D01*
X2092821Y556620D01*
X2094798Y555801D01*
X2096890Y555526D01*
Y553010D01*
X2096568Y547122D01*
X2090681Y546801D01*
X2068149D01*
X2067889Y548773D01*
X2067070Y550750D01*
X2065768Y552448D01*
X2064070Y553751D01*
X2062092Y554570D01*
X2059971Y554849D01*
X2057849Y554570D01*
X2055872Y553751D01*
X2054174Y552448D01*
X2052871Y550750D01*
X2052052Y548773D01*
X2051792Y546801D01*
X2033106D01*
X2032888Y548453D01*
X2032069Y550430D01*
X2030766Y552128D01*
X2029068Y553431D01*
X2027091Y554250D01*
X2024969Y554529D01*
X2022848Y554250D01*
X2020870Y553431D01*
X2020055Y552805D01*
X2008050D01*
Y562141D01*
Y575406D01*
X2010142Y575682D01*
X2012119Y576501D01*
X2013817Y577804D01*
X2015120Y579501D01*
X2015939Y581479D01*
X2016218Y583601D01*
X2015939Y585722D01*
X2015120Y587700D01*
X2013817Y589398D01*
X2012119Y590700D01*
X2010142Y591519D01*
X2008050Y591795D01*
Y597140D01*
Y607140D01*
Y617140D01*
Y629431D01*
X2008372Y635319D01*
X2014259Y635641D01*
X2041736D01*
X2042011Y633549D01*
X2042830Y631572D01*
X2044133Y629874D01*
X2045831Y628571D01*
X2047808Y627752D01*
X2049930Y627472D01*
X2052052Y627752D01*
X2054029Y628571D01*
X2055727Y629874D01*
X2057030Y631572D01*
X2057849Y633549D01*
X2058124Y635641D01*
X2090681D01*
X2096568Y635319D01*
D02*
G37*
G36*
X2354580Y609848D02*
X2354840Y610108D01*
X2355850D01*
X2354580Y609848D01*
D02*
G37*
G36*
X2155190Y631190D02*
X2155190Y602615D01*
X2153285Y600710D01*
X2139315Y600710D01*
X2138045Y601980D01*
X2138045Y630555D01*
X2139950Y632460D01*
X2153920Y632460D01*
X2155190Y631190D01*
D02*
G37*
G36*
X2456180Y691388D02*
X2456180Y583438D01*
X2447004Y574262D01*
X2375186D01*
X2369820Y579628D01*
Y591058D01*
X2367280Y593598D01*
X2355850D01*
X2352040Y597408D01*
Y606298D01*
X2355850Y610108D01*
X2396490D01*
X2397760Y611378D01*
X2397760Y649478D01*
X2395220Y652018D01*
X2379980D01*
X2377440Y654558D01*
Y663448D01*
X2379980Y665988D01*
X2395220D01*
X2397760Y668528D01*
X2397760Y690118D01*
X2405380Y697738D01*
X2449830D01*
X2456180Y691388D01*
D02*
G37*
G36*
X1846580Y632460D02*
X1849120Y629920D01*
Y601980D01*
X1847088Y599948D01*
X1821180D01*
Y574548D01*
X1817370Y570738D01*
X1791970D01*
X1788160Y574548D01*
X1788160Y596138D01*
X1784350Y599948D01*
X1779270Y599948D01*
X1779270Y599948D01*
X1664970D01*
Y574548D01*
X1661160Y570738D01*
X1635760D01*
X1631950Y574548D01*
X1631950Y596138D01*
X1628140Y599948D01*
X1623060Y599948D01*
X1620982Y602026D01*
X1619250Y603758D01*
Y629158D01*
X1623060Y632968D01*
X1846580D01*
Y632460D01*
D02*
G37*
G36*
X1779270Y594768D02*
X1779272Y594765D01*
X1782980Y588740D01*
X1782980Y574548D01*
X1783375Y572566D01*
X1784498Y570886D01*
X1788307Y567076D01*
X1788801Y566746D01*
X1788407Y566157D01*
X1788076Y564493D01*
Y561738D01*
X1797050D01*
Y559198D01*
X1788076D01*
Y556443D01*
X1788407Y554779D01*
X1789350Y553368D01*
X1790538Y552574D01*
X1790638Y552095D01*
X1789440Y546224D01*
X1677260D01*
X1674444Y552574D01*
X1674791Y552958D01*
X1678940D01*
Y560578D01*
X1680210D01*
Y561848D01*
X1685925D01*
Y564170D01*
X1688465Y569468D01*
X1688465Y577182D01*
X1688536Y577723D01*
Y578358D01*
X1688465Y578899D01*
Y585978D01*
X1687780D01*
X1685969Y588419D01*
X1689165Y594769D01*
X1779268D01*
X1779270Y594768D01*
D02*
G37*
G36*
X2176780Y575865D02*
Y544275D01*
X2175510Y543005D01*
X2161540Y543005D01*
X2160270Y544275D01*
Y576025D01*
X2161540Y577295D01*
X2175350D01*
X2176780Y575865D01*
D02*
G37*
G36*
X2186940Y647700D02*
X2192020Y642620D01*
Y617387D01*
X2192020Y617387D01*
X2192020Y554061D01*
X2192020Y554061D01*
Y530860D01*
X2186940Y525780D01*
X2147570D01*
X2125980Y547370D01*
Y576580D01*
X2128520Y579120D01*
X2152650D01*
X2155190Y576580D01*
Y543560D01*
X2159000Y539750D01*
X2176874D01*
X2180590Y543560D01*
Y579307D01*
X2180443Y579528D01*
X2179012Y580957D01*
X2177332Y582080D01*
X2175350Y582475D01*
X2172422D01*
X2166598Y588298D01*
X2164498Y589701D01*
X2162020Y590194D01*
X2157869Y596163D01*
X2157862Y596544D01*
X2161096Y599669D01*
X2160270Y600392D01*
Y632460D01*
X2157850Y634880D01*
X2136260D01*
X2136140Y635000D01*
X2133600Y632460D01*
Y604520D01*
X2131060Y601980D01*
X2128520D01*
X2125980Y604520D01*
X2125980Y642620D01*
X2131060Y647700D01*
X2186940Y647700D01*
D02*
G37*
G36*
X2008389Y523772D02*
X1956457Y471839D01*
X1950590Y474269D01*
Y511294D01*
X1952830Y513534D01*
X1956530D01*
X1959039Y514033D01*
X1959039Y514033D01*
X1961166Y515454D01*
X1962325Y517189D01*
X1963712Y516426D01*
X1965230Y516124D01*
X1965230Y516124D01*
X1967110Y516124D01*
Y523240D01*
X1968380D01*
Y524510D01*
X1975496D01*
Y525724D01*
X1976745D01*
X1978443Y525947D01*
X1980026Y526603D01*
X1981384Y527646D01*
X1982427Y529004D01*
X1983082Y530587D01*
X1983306Y532285D01*
Y537940D01*
X1985223Y539857D01*
X2008389D01*
Y523772D01*
D02*
G37*
G36*
X2543810Y690118D02*
X2543811Y520227D01*
X2510354Y486770D01*
X2228850Y486770D01*
X2227580Y488040D01*
Y488188D01*
X2227432D01*
X2218676Y496944D01*
Y535865D01*
X2230068Y545358D01*
X2459810D01*
X2491740Y577288D01*
Y691388D01*
X2498090Y697738D01*
X2536190D01*
X2543810Y690118D01*
D02*
G37*
G36*
X1847850Y474980D02*
X1850390Y472440D01*
Y444500D01*
X1848358Y442468D01*
X1821180D01*
Y417068D01*
X1817370Y413258D01*
X1791970D01*
X1788160Y417068D01*
X1788160Y438658D01*
X1784350Y442468D01*
X1779270Y442468D01*
X1779270Y442468D01*
X1664970D01*
Y417068D01*
X1661160Y413258D01*
X1635760D01*
X1631950Y417068D01*
X1631950Y438658D01*
X1628140Y442468D01*
X1623060Y442468D01*
X1619250Y446278D01*
X1619250Y471678D01*
X1623060Y475488D01*
X1847850D01*
Y474980D01*
D02*
G37*
G36*
X1779270Y437288D02*
X1779272Y437285D01*
X1782980Y431260D01*
X1782980Y417068D01*
X1783375Y415086D01*
X1784498Y413405D01*
X1788307Y409595D01*
X1788801Y409266D01*
X1788407Y408677D01*
X1788076Y407013D01*
Y404258D01*
X1797050D01*
Y402988D01*
X1798320D01*
Y394614D01*
X1799061D01*
X1802243Y391112D01*
X1800639Y387474D01*
X1670285D01*
X1668145Y392938D01*
X1668145Y392938D01*
X1668145D01*
X1668145Y392938D01*
Y401735D01*
X1671040Y403220D01*
X1674495Y400667D01*
Y395478D01*
X1678940D01*
Y403098D01*
X1680210D01*
Y404368D01*
X1685925D01*
Y406690D01*
X1688465Y411988D01*
X1688465Y419702D01*
X1688536Y420243D01*
Y420878D01*
X1688465Y421419D01*
Y428498D01*
X1687780D01*
X1685969Y430939D01*
X1689165Y437289D01*
X1779268D01*
X1779270Y437288D01*
D02*
G37*
G36*
X1871980Y317500D02*
X1874520Y314960D01*
Y287020D01*
X1872488Y284988D01*
X1846580D01*
Y259588D01*
X1842770Y255778D01*
X1817370D01*
X1813560Y259588D01*
X1813560Y281178D01*
X1809750Y284988D01*
X1804670Y284988D01*
X1804670Y284988D01*
X1690370D01*
Y259588D01*
X1686560Y255778D01*
X1661160D01*
X1657350Y259588D01*
X1657350Y281178D01*
X1653540Y284988D01*
X1648460Y284988D01*
X1646382Y287066D01*
X1644650Y288798D01*
Y314198D01*
X1648460Y318008D01*
X1871980D01*
Y317500D01*
D02*
G37*
G36*
X1804670Y279808D02*
X1804672Y279805D01*
X1808380Y273780D01*
X1808380Y259588D01*
X1808775Y257606D01*
X1809897Y255926D01*
X1813707Y252115D01*
X1814201Y251786D01*
X1813807Y251197D01*
X1813476Y249533D01*
Y246778D01*
X1822450D01*
Y245508D01*
X1823720D01*
Y237134D01*
X1827075D01*
X1829303Y236529D01*
X1830439Y233782D01*
X1826185Y227454D01*
X1693052D01*
X1691764Y228742D01*
Y235458D01*
X1693545D01*
Y244255D01*
X1696440Y245740D01*
X1699895Y243187D01*
Y237998D01*
X1704340D01*
Y245618D01*
X1705610D01*
Y246888D01*
X1711325D01*
Y249210D01*
X1713865Y254508D01*
X1713865Y262222D01*
X1713936Y262763D01*
Y263398D01*
X1713865Y263939D01*
Y271018D01*
X1713180D01*
X1711369Y273459D01*
X1714565Y279809D01*
X1804668D01*
X1804670Y279808D01*
D02*
G37*
%LPC*%
G36*
X2414958Y1011845D02*
X2406830D01*
Y987334D01*
X2414958D01*
Y1011845D01*
D02*
G37*
G36*
X2172896D02*
X2164768D01*
Y987334D01*
X2172896D01*
Y1011845D01*
D02*
G37*
G36*
X1929056D02*
X1920928D01*
Y987334D01*
X1929056D01*
Y1011845D01*
D02*
G37*
G36*
X2404290D02*
X2396162D01*
Y987334D01*
X2404290D01*
Y1011845D01*
D02*
G37*
G36*
X2162228D02*
X2154100D01*
Y987334D01*
X2162228D01*
Y1011845D01*
D02*
G37*
G36*
X1918388D02*
X1910260D01*
Y987334D01*
X1918388D01*
Y1011845D01*
D02*
G37*
G36*
X2440830Y979762D02*
X2438075D01*
X2436411Y979431D01*
X2435000Y978488D01*
X2434057Y977077D01*
X2433726Y975413D01*
Y972058D01*
X2440830D01*
Y979762D01*
D02*
G37*
G36*
X2198768D02*
X2196013D01*
X2194349Y979431D01*
X2192938Y978488D01*
X2191995Y977077D01*
X2191664Y975413D01*
Y972058D01*
X2198768D01*
Y979762D01*
D02*
G37*
G36*
X1954928D02*
X1952173D01*
X1950509Y979431D01*
X1949098Y978488D01*
X1948155Y977077D01*
X1947824Y975413D01*
Y972058D01*
X1954928D01*
Y979762D01*
D02*
G37*
G36*
X2353310Y931578D02*
X2345612D01*
Y929523D01*
X2345920Y927976D01*
X2346796Y926664D01*
X2348108Y925788D01*
X2349655Y925480D01*
X2353310D01*
Y931578D01*
D02*
G37*
G36*
X1684708Y1011591D02*
X1676580D01*
Y987080D01*
X1684708D01*
Y1011591D01*
D02*
G37*
G36*
X1674040D02*
X1665912D01*
Y987080D01*
X1674040D01*
Y1011591D01*
D02*
G37*
G36*
X1710580Y979508D02*
X1707825D01*
X1706161Y979177D01*
X1704750Y978234D01*
X1703807Y976823D01*
X1703476Y975159D01*
Y971804D01*
X1710580D01*
Y979508D01*
D02*
G37*
G36*
X1787906Y816390D02*
X1780202D01*
Y813635D01*
X1780533Y811971D01*
X1781476Y810560D01*
X1782887Y809617D01*
X1784551Y809286D01*
X1787906D01*
Y816390D01*
D02*
G37*
G36*
X1772630Y790518D02*
X1748119D01*
Y782390D01*
X1772630D01*
Y790518D01*
D02*
G37*
G36*
Y779850D02*
X1748119D01*
Y771722D01*
X1772630D01*
Y779850D01*
D02*
G37*
G36*
X1834484Y728870D02*
X1828386D01*
Y721172D01*
X1830441D01*
X1831988Y721480D01*
X1833300Y722356D01*
X1834176Y723668D01*
X1834484Y725215D01*
Y728870D01*
D02*
G37*
G36*
X1639570Y559198D02*
X1631866D01*
Y556443D01*
X1632197Y554779D01*
X1633140Y553368D01*
X1634551Y552425D01*
X1636215Y552094D01*
X1639570D01*
Y559198D01*
D02*
G37*
G36*
Y401718D02*
X1631866D01*
Y398963D01*
X1632197Y397299D01*
X1633140Y395888D01*
X1634551Y394945D01*
X1636215Y394614D01*
X1639570D01*
Y401718D01*
D02*
G37*
G36*
X1664970Y244238D02*
X1657266D01*
Y241483D01*
X1657597Y239819D01*
X1658540Y238408D01*
X1659951Y237465D01*
X1661615Y237134D01*
X1664970D01*
Y244238D01*
D02*
G37*
G36*
X2048358Y875030D02*
X2041254D01*
Y867326D01*
X2044009D01*
X2045673Y867657D01*
X2047084Y868600D01*
X2048027Y870011D01*
X2048358Y871675D01*
Y875030D01*
D02*
G37*
G36*
X2087753Y857012D02*
X2079625D01*
Y832501D01*
X2087753D01*
Y857012D01*
D02*
G37*
G36*
X2077085D02*
X2068957D01*
Y832501D01*
X2077085D01*
Y857012D01*
D02*
G37*
G36*
X2464018Y384747D02*
X2459837Y384335D01*
X2455816Y383116D01*
X2452110Y381135D01*
X2448862Y378470D01*
X2446197Y375222D01*
X2444216Y371516D01*
X2442997Y367495D01*
X2442585Y363314D01*
X2442997Y359133D01*
X2444216Y355112D01*
X2446197Y351406D01*
X2448862Y348158D01*
X2452110Y345493D01*
X2455816Y343512D01*
X2459837Y342293D01*
X2464018Y341881D01*
X2468199Y342293D01*
X2472220Y343512D01*
X2475926Y345493D01*
X2479174Y348158D01*
X2481839Y351406D01*
X2483820Y355112D01*
X2485039Y359133D01*
X2485451Y363314D01*
X2485039Y367495D01*
X2483820Y371516D01*
X2481839Y375222D01*
X2479174Y378470D01*
X2475926Y381135D01*
X2472220Y383116D01*
X2468199Y384335D01*
X2464018Y384747D01*
D02*
G37*
G36*
X2176540Y299720D02*
X2168920D01*
Y292100D01*
X2176540D01*
Y299720D01*
D02*
G37*
G36*
X2166380D02*
X2158760D01*
Y292100D01*
X2166380D01*
Y299720D01*
D02*
G37*
G36*
X2176540Y289560D02*
X2168920D01*
Y281940D01*
X2176540D01*
Y289560D01*
D02*
G37*
G36*
X2166380D02*
X2158760D01*
Y281940D01*
X2166380D01*
Y289560D01*
D02*
G37*
G36*
X2275840Y796798D02*
X2276046Y796592D01*
X2333689Y796360D01*
X2275840Y796798D01*
D02*
G37*
G36*
X1685925Y559308D02*
X1681480D01*
Y552958D01*
X1685925D01*
Y559308D01*
D02*
G37*
G36*
X1975496Y521970D02*
X1969650D01*
Y516124D01*
X1971530D01*
X1973048Y516426D01*
X1974335Y517285D01*
X1975194Y518572D01*
X1975496Y520090D01*
Y521970D01*
D02*
G37*
G36*
X1685925Y401828D02*
X1681480D01*
Y395478D01*
X1685925D01*
Y401828D01*
D02*
G37*
G36*
X1795780Y401718D02*
X1788076D01*
Y398963D01*
X1788407Y397299D01*
X1789350Y395888D01*
X1790761Y394945D01*
X1792425Y394614D01*
X1795780D01*
Y401718D01*
D02*
G37*
G36*
X1711325Y244348D02*
X1706880D01*
Y237998D01*
X1711325D01*
Y244348D01*
D02*
G37*
G36*
X1821180Y244238D02*
X1813476D01*
Y241483D01*
X1813807Y239819D01*
X1814750Y238408D01*
X1816161Y237465D01*
X1817825Y237134D01*
X1821180D01*
Y244238D01*
D02*
G37*
%LPD*%
D11*
X2350650Y583438D02*
Y589908D01*
X2343150Y597408D02*
X2350650Y589908D01*
X2343150Y597408D02*
Y602598D01*
X2299970Y581058D02*
X2317750Y598838D01*
Y602598D01*
D12*
X1953420Y537210D02*
Y547464D01*
X1933448Y281432D02*
Y532892D01*
X1947441Y618721D02*
X1995470D01*
X1921256Y625856D02*
X1974246D01*
X1842770Y547370D02*
X1921256Y625856D01*
X1974246D02*
X1976382Y623720D01*
X1995470D01*
X1986280Y628721D02*
X1995470D01*
X1982541Y632460D02*
X1986280Y628721D01*
X1939036Y632460D02*
X1982541D01*
X1974596Y605790D02*
X1976666Y603720D01*
X1953682Y604774D02*
X1959610Y598846D01*
Y598721D02*
Y598846D01*
Y598721D02*
X1995470D01*
X1995239Y618490D02*
X1995470Y618721D01*
X1925066Y611886D02*
X1976494D01*
X1852930Y539750D02*
X1925066Y611886D01*
X1978327Y613720D02*
X1995470D01*
X1976494Y611886D02*
X1978327Y613720D01*
X1938782Y523748D02*
X1942592Y527558D01*
X1927352Y536702D02*
X1944370Y553720D01*
X1927352Y466090D02*
Y536702D01*
X1909318Y448056D02*
X1927352Y466090D01*
X1933448Y281432D02*
X1965960Y248920D01*
X1938782Y301498D02*
Y523748D01*
Y301498D02*
X1991360Y248920D01*
X1944116Y513976D02*
X1953380Y523240D01*
X1944116Y305054D02*
Y513976D01*
Y305054D02*
X1965198Y283972D01*
X1909318Y473456D02*
X1921510Y485648D01*
Y538480D01*
X1941751Y558721D01*
X1909318Y498856D02*
Y533908D01*
X1939130Y563720D01*
X1888490Y520700D02*
X1936511Y568721D01*
X1880870Y527050D02*
X1927540Y573720D01*
X1871980Y530860D02*
X1919841Y578721D01*
X1864360Y538480D02*
X1919600Y593720D01*
X2046791Y549910D02*
X2054969Y541731D01*
Y534221D02*
Y541731D01*
X2029971Y542051D02*
X2036559Y548640D01*
X2029971Y534221D02*
Y542051D01*
X2003501Y588721D02*
X2010410Y595630D01*
X1995470Y588721D02*
X2003501D01*
X2054969Y640829D02*
X2061210Y634588D01*
X2054969Y640829D02*
Y648221D01*
X2094108Y593720D02*
X2109470D01*
X1909064Y663956D02*
X1924799Y648221D01*
X2014969D01*
X1909064Y685546D02*
Y689356D01*
Y685546D02*
X1933448Y661162D01*
X2015998D01*
X2019971Y657189D01*
Y648221D02*
Y657189D01*
X1909064Y714756D02*
X1921764Y702056D01*
Y681736D02*
Y702056D01*
Y681736D02*
X1937258Y666242D01*
X2021078D01*
X2024969Y662351D01*
Y648221D02*
Y662351D01*
X1976666Y603720D02*
X1995470D01*
X1963166Y426212D02*
X1969262Y432308D01*
Y458978D01*
X2034969Y524685D01*
Y534221D01*
X1939130Y563720D02*
X1995470D01*
X1941751Y558721D02*
X1995470D01*
X1944370Y553720D02*
X1995470D01*
X1936511Y568721D02*
X1995470D01*
X1919841Y578721D02*
X1995470D01*
X1919600Y593720D02*
X1995470D01*
X2000504Y369570D02*
X2064969Y434035D01*
Y534221D01*
X2000504Y394970D02*
X2049971Y444437D01*
Y534221D01*
X2000504Y420370D02*
X2044969Y464835D01*
Y534221D01*
X2000504Y445770D02*
X2039971Y485237D01*
Y534221D01*
X2019971Y518505D02*
Y534221D01*
X2001774Y303022D02*
Y316992D01*
X1993646Y325120D02*
X2001774Y316992D01*
X1967992Y325120D02*
X1993646D01*
X1955038Y338074D02*
X1967992Y325120D01*
X1955038Y338074D02*
Y453573D01*
X2019971Y518505D01*
X1958086Y303022D02*
X1976374D01*
X1949450Y311658D02*
X1958086Y303022D01*
X1949450Y311658D02*
Y455676D01*
X2014969Y521195D01*
Y534221D01*
X2077974Y297180D02*
Y303022D01*
X2064766Y283972D02*
X2077974Y297180D01*
X1965198Y283972D02*
X2064766D01*
X2077974Y303022D02*
X2090166Y290830D01*
X1932178Y685546D02*
Y908050D01*
X1921256Y918972D02*
X1932178Y908050D01*
X1687830Y918972D02*
X1921256D01*
X1682751Y924051D02*
X1687830Y918972D01*
X1682751Y924051D02*
Y942595D01*
X1936750Y688086D02*
Y911606D01*
X1927099Y921257D02*
X1936750Y911606D01*
X1927099Y921257D02*
Y942849D01*
X1927098Y683260D02*
Y778510D01*
Y683260D02*
X1939290Y671068D01*
X1916868Y788740D02*
X1927098Y778510D01*
X1816936Y788740D02*
X1916868D01*
X1939290Y671068D02*
X2053336D01*
X2064969Y659435D01*
Y648221D02*
Y659435D01*
X1932178Y685546D02*
X1941576Y676148D01*
X1936750Y688086D02*
X1943862Y680974D01*
X1941576Y676148D02*
X2055114D01*
X2069971Y661291D01*
Y648221D02*
Y661291D01*
X1943862Y680974D02*
X2057908D01*
X2074969Y663913D01*
Y648221D02*
Y663913D01*
X2073910Y891794D02*
X2084070Y901954D01*
Y917956D01*
X2088388Y922274D01*
X2155190D01*
X2183892Y893572D01*
Y682498D02*
Y893572D01*
X2178558Y677164D02*
X2183892Y682498D01*
X2094230Y677164D02*
X2178558D01*
X2079971Y662905D02*
X2094230Y677164D01*
X2079971Y648221D02*
Y662905D01*
X2084969Y648221D02*
Y659267D01*
X2096262Y670560D01*
X2183638D01*
X2191766Y678688D01*
Y895858D01*
X2170939Y916685D02*
X2191766Y895858D01*
X2170939Y916685D02*
Y942849D01*
X2089971Y648221D02*
Y656395D01*
X2097786Y664210D01*
X2187194D01*
X2199640Y676656D01*
Y857504D01*
X2219198Y877062D01*
X2395220D01*
X2413001Y894843D01*
Y942849D01*
X1806956Y798720D02*
X1816936Y788740D01*
X1682751Y942595D02*
X1692910Y952754D01*
X1927099Y942849D02*
X1937258Y953008D01*
X2170939Y942849D02*
X2181098Y953008D01*
X1982541Y546331D02*
X2024969D01*
X1973420Y537210D02*
X1982541Y546331D01*
X1953380Y523240D02*
X1953420Y523280D01*
Y537210D01*
X2090166Y290830D02*
X2137650D01*
X2317968Y335062D02*
X2336894D01*
X2227580Y425450D02*
X2317968Y335062D01*
X2074969Y445981D02*
X2095500Y425450D01*
Y419100D02*
X2222500D01*
X2069971Y444629D02*
Y534221D01*
Y444629D02*
X2095500Y419100D01*
X2074969Y445981D02*
Y534221D01*
X2095500Y425450D02*
X2227580D01*
X2094230Y433164D02*
X2278598D01*
X2079971Y447423D02*
Y534221D01*
Y447423D02*
X2094230Y433164D01*
X2109470Y553720D02*
X2153920Y509270D01*
X2179320D01*
X2239010Y449580D01*
X2089971Y528769D02*
Y534221D01*
Y528769D02*
X2123440Y495300D01*
X2179320D01*
X2225040Y449580D01*
Y393700D02*
X2236564Y382176D01*
Y301802D02*
Y382176D01*
X2239010Y393700D02*
X2259330Y373380D01*
Y288290D02*
Y373380D01*
X2222500Y419100D02*
X2266950Y374650D01*
Y327660D02*
Y374650D01*
X2084969Y448681D02*
Y534221D01*
Y448681D02*
X2094230Y439420D01*
X2250440D01*
X2246644Y291802D02*
X2249144Y294302D01*
X2236564Y291802D02*
X2246644D01*
X1888490Y494030D02*
Y520700D01*
X1880870Y469900D02*
Y527050D01*
X1871980Y393700D02*
Y530860D01*
X1864360Y401320D02*
Y538480D01*
X1667510Y539750D02*
X1852930D01*
X1821180Y547370D02*
X1842770D01*
X1927540Y573720D02*
X1995470D01*
X1888490Y494030D02*
X1888490Y227330D01*
X1882140Y220980D02*
X1888490Y227330D01*
X1690370Y220980D02*
X1882140D01*
X1685290Y226060D02*
X1690370Y220980D01*
X1685290Y226060D02*
Y243713D01*
X1880870Y469900D02*
X1880870Y236220D01*
X1873250Y228600D02*
X1880870Y236220D01*
X1846580Y228600D02*
X1873250D01*
X1841500Y233680D02*
X1846580Y228600D01*
X1841500Y233680D02*
Y243713D01*
X1859280Y381000D02*
X1871980Y393700D01*
X1667510Y381000D02*
X1859280D01*
X1659890Y388620D02*
X1667510Y381000D01*
X1659890Y388620D02*
Y401193D01*
X1852930Y389890D02*
X1864360Y401320D01*
X1821180Y389890D02*
X1852930D01*
X1816100Y394970D02*
X1821180Y389890D01*
X1816100Y394970D02*
Y401193D01*
X1659890Y547370D02*
X1667510Y539750D01*
X1659890Y547370D02*
Y558673D01*
X1816100Y552450D02*
X1821180Y547370D01*
X1816100Y552450D02*
Y558673D01*
X2096920Y578721D02*
X2109470D01*
X2413001Y942849D02*
X2423160Y953008D01*
X2169730Y567280D02*
Y576010D01*
X2162020Y583720D02*
X2169730Y576010D01*
X2109470Y583720D02*
X2162020D01*
X2123171Y588721D02*
X2145730Y611280D01*
X2109470Y588721D02*
X2123171D01*
X2059971Y534221D02*
Y546651D01*
X2024969Y534221D02*
Y546331D01*
X1995589Y583601D02*
X2008020D01*
X1995470Y583720D02*
X1995589Y583601D01*
X2049930Y635671D02*
Y648180D01*
X2049971Y648221D01*
X2059836Y534355D02*
X2059971Y534221D01*
X2096920Y563720D02*
X2109470D01*
X2252842Y281802D02*
X2259330Y288290D01*
X2236564Y281802D02*
X2252842D01*
X2266950Y297790D02*
Y327660D01*
Y285750D02*
Y297790D01*
X2270962Y301802D02*
X2280564D01*
X2266950Y297790D02*
X2270962Y301802D01*
X2266950Y285750D02*
X2270898Y281802D01*
X2280564D01*
Y291802D02*
X2293634D01*
X2290610Y298778D02*
X2324552D01*
X2288634Y296802D02*
X2290610Y298778D01*
X2280564Y296802D02*
X2288634D01*
X2324552Y298778D02*
X2329180Y303406D01*
X2291009Y284356D02*
X2348230D01*
X2288634Y286731D02*
X2291009Y284356D01*
X2280635Y286731D02*
X2288634D01*
X2348230Y284356D02*
X2367280Y303406D01*
X2236094Y236002D02*
Y255522D01*
X2222594Y269022D02*
X2236094Y255522D01*
X2222594Y269022D02*
Y290416D01*
X2226208Y286802D01*
X2222594Y290416D02*
Y293188D01*
X2226208Y296802D01*
Y286802D02*
X2236564D01*
X2226208Y296802D02*
X2236564D01*
D19*
X2433574Y636778D02*
D03*
X2506726D02*
D03*
D20*
X2522220D02*
D03*
X2418842D02*
D03*
D21*
X1937258Y953008D02*
D03*
X1916938Y933958D02*
D03*
X1937258D02*
D03*
X2423160Y953008D02*
D03*
X2402840Y933958D02*
D03*
X2423160D02*
D03*
X2181098Y953008D02*
D03*
X2160778Y933958D02*
D03*
X2181098D02*
D03*
X2073910Y910844D02*
D03*
X2094230D02*
D03*
X2073910Y891794D02*
D03*
X1685290Y262763D02*
D03*
X1705610D02*
D03*
X1685290Y243713D02*
D03*
X1816100Y577723D02*
D03*
X1836420D02*
D03*
X1816100Y558673D02*
D03*
X1841500Y262763D02*
D03*
X1861820D02*
D03*
X1841500Y243713D02*
D03*
X1659890Y420243D02*
D03*
X1680210D02*
D03*
X1659890Y401193D02*
D03*
X1816100Y420243D02*
D03*
X1836420D02*
D03*
X1816100Y401193D02*
D03*
X1659890Y577723D02*
D03*
X1680210D02*
D03*
X1659890Y558673D02*
D03*
X1692910Y933704D02*
D03*
X1672590D02*
D03*
X1692910Y952754D02*
D03*
D22*
X1916938Y951103D02*
D03*
X2402840D02*
D03*
X2160778D02*
D03*
X2094230Y893699D02*
D03*
X1705610Y245618D02*
D03*
X1836420Y560578D02*
D03*
X1861820Y245618D02*
D03*
X1680210Y403098D02*
D03*
X1836420D02*
D03*
X1680210Y560578D02*
D03*
X1672590Y950849D02*
D03*
D23*
X2129790Y890684D02*
D03*
Y910684D02*
D03*
X2109470Y890684D02*
D03*
Y910684D02*
D03*
X2354580Y952848D02*
D03*
Y932848D02*
D03*
X2112518Y952848D02*
D03*
Y932848D02*
D03*
X1868678Y952848D02*
D03*
Y932848D02*
D03*
X1624330Y952594D02*
D03*
Y932594D02*
D03*
X2379980Y932848D02*
D03*
Y952848D02*
D03*
X2137918Y932848D02*
D03*
Y952848D02*
D03*
X1894078Y932848D02*
D03*
Y952848D02*
D03*
X1649730Y932594D02*
D03*
Y952594D02*
D03*
X2284730Y601378D02*
D03*
Y621378D02*
D03*
X2299970Y581058D02*
D03*
Y601058D02*
D03*
X2322830Y583278D02*
D03*
Y563278D02*
D03*
X2301240Y656938D02*
D03*
Y636938D02*
D03*
X2283460Y656938D02*
D03*
Y636938D02*
D03*
X2324100Y696308D02*
D03*
Y676308D02*
D03*
D24*
X2103755Y736398D02*
D03*
X1649910Y1107694D02*
D03*
X2380160Y1107948D02*
D03*
X2138098D02*
D03*
X1894258D02*
D03*
D25*
X2078355Y858282D02*
D03*
X2129155D02*
D03*
X1675310Y985810D02*
D03*
X1624510D02*
D03*
X2354760Y986064D02*
D03*
X2405560D02*
D03*
X2112698D02*
D03*
X2163498D02*
D03*
X1868858D02*
D03*
X1919658D02*
D03*
D26*
X2039984Y876300D02*
D03*
X2021984D02*
D03*
X2442100Y970788D02*
D03*
X2460100D02*
D03*
X2200038D02*
D03*
X2218038D02*
D03*
X1956198D02*
D03*
X1974198D02*
D03*
X1711850Y970534D02*
D03*
X1729850D02*
D03*
D27*
X2169730Y567280D02*
D03*
D28*
Y611280D02*
D03*
X2145730D02*
D03*
Y567280D02*
D03*
D29*
X2109470Y628721D02*
D03*
Y623720D02*
D03*
Y618721D02*
D03*
Y613720D02*
D03*
Y608721D02*
D03*
Y603720D02*
D03*
Y598721D02*
D03*
Y593720D02*
D03*
Y588721D02*
D03*
Y583720D02*
D03*
Y578721D02*
D03*
Y573720D02*
D03*
Y568721D02*
D03*
Y563720D02*
D03*
Y558721D02*
D03*
Y553720D02*
D03*
X1995470D02*
D03*
Y558721D02*
D03*
Y563720D02*
D03*
Y568721D02*
D03*
Y573720D02*
D03*
Y578721D02*
D03*
Y583720D02*
D03*
Y588721D02*
D03*
Y593720D02*
D03*
Y598721D02*
D03*
Y603720D02*
D03*
Y608721D02*
D03*
Y613720D02*
D03*
Y618721D02*
D03*
Y623720D02*
D03*
Y628721D02*
D03*
D30*
X2014969Y648221D02*
D03*
X2019971D02*
D03*
X2024969D02*
D03*
X2029971D02*
D03*
X2034969D02*
D03*
X2039971D02*
D03*
X2044969D02*
D03*
X2049971D02*
D03*
X2054969D02*
D03*
X2059971D02*
D03*
X2064969D02*
D03*
X2069971D02*
D03*
X2074969D02*
D03*
X2079971D02*
D03*
X2084969D02*
D03*
X2089971D02*
D03*
Y534221D02*
D03*
X2084969D02*
D03*
X2079971D02*
D03*
X2074969D02*
D03*
X2069971D02*
D03*
X2064969D02*
D03*
X2059971D02*
D03*
X2054969D02*
D03*
X2049971D02*
D03*
X2044969D02*
D03*
X2039971D02*
D03*
X2034969D02*
D03*
X2029971D02*
D03*
X2024969D02*
D03*
X2019971D02*
D03*
X2014969D02*
D03*
D31*
X2236564Y281802D02*
D03*
X2280564D02*
D03*
Y301802D02*
D03*
Y296802D02*
D03*
Y291802D02*
D03*
Y286802D02*
D03*
X2236564Y301802D02*
D03*
Y296802D02*
D03*
Y291802D02*
D03*
Y286802D02*
D03*
D32*
X1826006Y798720D02*
D03*
Y778400D02*
D03*
X1806956Y798720D02*
D03*
D33*
X1808861Y778400D02*
D03*
D34*
X2317750Y602598D02*
D03*
X2330450D02*
D03*
X2343150D02*
D03*
X2355850D02*
D03*
X2317750Y657098D02*
D03*
X2330450D02*
D03*
X2343150D02*
D03*
X2355850D02*
D03*
D35*
X2310458Y395064D02*
D03*
X2292458D02*
D03*
X2310458Y433164D02*
D03*
X2292458D02*
D03*
D36*
X2137650Y290830D02*
D03*
X2167650D02*
D03*
X2167650Y232410D02*
D03*
X2137650D02*
D03*
D37*
X1973420Y537210D02*
D03*
X1953420D02*
D03*
X1807116Y730140D02*
D03*
X1827116D02*
D03*
Y755540D02*
D03*
X1807116D02*
D03*
X2344478Y395064D02*
D03*
X2324478D02*
D03*
X2344478Y433164D02*
D03*
X2324478D02*
D03*
X2279810Y566928D02*
D03*
X2299810D02*
D03*
D38*
X1652016Y755720D02*
D03*
D39*
X1773900Y781120D02*
D03*
Y730320D02*
D03*
D40*
X2249170Y813488D02*
D03*
Y772488D02*
D03*
X2379980Y588338D02*
D03*
Y629338D02*
D03*
D41*
X2165230Y627380D02*
D03*
X2150230D02*
D03*
Y551180D02*
D03*
X2165230D02*
D03*
X1968380Y523240D02*
D03*
X1953380D02*
D03*
X2350650Y563118D02*
D03*
X2335650D02*
D03*
X2350650Y583438D02*
D03*
X2335650D02*
D03*
X2367400Y658368D02*
D03*
X2382400D02*
D03*
D42*
X1666240Y245508D02*
D03*
Y263508D02*
D03*
X1797050Y560468D02*
D03*
Y578468D02*
D03*
X1822450Y245508D02*
D03*
Y263508D02*
D03*
X1640840Y402988D02*
D03*
Y420988D02*
D03*
X1797050Y402988D02*
D03*
Y420988D02*
D03*
X1640840Y560468D02*
D03*
Y578468D02*
D03*
X1789176Y817660D02*
D03*
Y835660D02*
D03*
D43*
X2373660Y560082D02*
D03*
Y530082D02*
D03*
D44*
X2375674Y716758D02*
D03*
X2345674D02*
D03*
X2375674Y683738D02*
D03*
X2345674D02*
D03*
D84*
X1680210Y420243D02*
Y420878D01*
X1672590Y428498D02*
X1680210Y420878D01*
X1852930Y245618D02*
X1861820D01*
X1827276Y560578D02*
X1836420D01*
X1828292Y403098D02*
X1836420D01*
X2192020Y586740D02*
X2200402D01*
X2094230Y878840D02*
Y893699D01*
X1773900Y781120D02*
X1776620Y778400D01*
X1808861D01*
X1672590Y983090D02*
X1675310Y985810D01*
X1672590Y950849D02*
Y983090D01*
X1916938Y983344D02*
X1919658Y986064D01*
X1916938Y951103D02*
Y983344D01*
X2160778D02*
X2163498Y986064D01*
X2160778Y951103D02*
Y983344D01*
X2402840D02*
X2405560Y986064D01*
X2402840Y951103D02*
Y983344D01*
X2310458Y395064D02*
X2324478D01*
X2310458Y433164D02*
X2324478D01*
X2021984Y876300D02*
Y886858D01*
X2045970Y910844D01*
X2073910D01*
X2227834Y1097026D02*
X2228342Y1097534D01*
X1735836Y839360D02*
Y850138D01*
X1992630Y834898D02*
Y868934D01*
Y834898D02*
X2009074Y818454D01*
X2014982D01*
X1992630Y868934D02*
X1999996Y876300D01*
X2021984D01*
X2109310Y910844D02*
X2109470Y910684D01*
X2094230Y910844D02*
X2109310D01*
X2109470Y890684D02*
X2129790D01*
X2129155Y890049D02*
X2129790Y890684D01*
X2129155Y858282D02*
Y890049D01*
X1733616Y839360D02*
X1735836D01*
Y850138D02*
X1744980Y859282D01*
X1781302D01*
X1789176Y851408D01*
Y835660D02*
Y851408D01*
X1826006Y798720D02*
Y807610D01*
X1797956Y835660D02*
X1826006Y807610D01*
X1789176Y835660D02*
X1797956D01*
X1827116Y755540D02*
Y777290D01*
X1826006Y778400D02*
X1827116Y777290D01*
X1773900Y730140D02*
X1807116D01*
Y755540D01*
X1662176Y839868D02*
X1662684Y839360D01*
X1733108Y839868D02*
X1733616Y839360D01*
X1736156Y836820D01*
X1745234Y1023620D02*
X1755140Y1013714D01*
X1739646Y1023620D02*
X1745234D01*
X1755140Y977646D02*
Y1013714D01*
X1748028Y970534D02*
X1755140Y977646D01*
X1729850Y970534D02*
X1748028D01*
X1739646Y1096772D02*
X1740154Y1097280D01*
X1624330Y952594D02*
X1649730D01*
X1624330D02*
Y985810D01*
X1671480Y932594D02*
X1672590Y933704D01*
X1649730Y932594D02*
X1671480D01*
X1729850Y961754D02*
Y970534D01*
X1692910Y933704D02*
X1701800D01*
X1729850Y961754D01*
X1989582Y1023874D02*
X1999488Y1013968D01*
Y977900D02*
Y1013968D01*
X1983994Y1023874D02*
X1989582D01*
X1992376Y970788D02*
X1999488Y977900D01*
X1974198Y970788D02*
X1992376D01*
X1983994Y1097026D02*
X1984502Y1097534D01*
X1868678Y952848D02*
X1894078D01*
X1868678D02*
Y986064D01*
X1915828Y932848D02*
X1916938Y933958D01*
X1894078Y932848D02*
X1915828D01*
X1974198Y962008D02*
Y970788D01*
X1946148Y933958D02*
X1974198Y962008D01*
X1937258Y933958D02*
X1946148D01*
X2233422Y1023874D02*
X2243328Y1013968D01*
X2227834Y1023874D02*
X2233422D01*
X2243328Y977900D02*
Y1013968D01*
X2236216Y970788D02*
X2243328Y977900D01*
X2218038Y970788D02*
X2236216D01*
X2112518Y952848D02*
X2137918D01*
X2112518D02*
Y986064D01*
X2159668Y932848D02*
X2160778Y933958D01*
X2137918Y932848D02*
X2159668D01*
X2218038Y962008D02*
Y970788D01*
X2189988Y933958D02*
X2218038Y962008D01*
X2181098Y933958D02*
X2189988D01*
X2485390Y977900D02*
Y1013968D01*
X2475484Y1023874D02*
X2485390Y1013968D01*
X2469896Y1023874D02*
X2475484D01*
X2478278Y970788D02*
X2485390Y977900D01*
X2460100Y970788D02*
X2478278D01*
X2249144Y294302D02*
Y345414D01*
X2274788Y395064D02*
X2292458D01*
X2278598Y433164D02*
X2292458D01*
X2344478Y412844D02*
Y433164D01*
Y395064D02*
Y412844D01*
X2269708Y420464D02*
X2277328Y412844D01*
X2344478D01*
X2400518Y378554D02*
Y395014D01*
X2389088Y367124D02*
X2400518Y378554D01*
X2363688Y367124D02*
X2389088D01*
X2344478Y386334D02*
X2363688Y367124D01*
X2344478Y386334D02*
Y395064D01*
X2222500Y542798D02*
X2227580Y537718D01*
X2222500Y542798D02*
Y561848D01*
X2227580Y566928D01*
X2279810D01*
X2351920Y583438D02*
Y584729D01*
X2350650Y563118D02*
Y583438D01*
X2343150Y602598D02*
Y617728D01*
X2322830Y563278D02*
X2336760D01*
X2322830Y583278D02*
X2330450Y590898D01*
X2322830Y583278D02*
X2336760D01*
X2299810Y580898D02*
X2299970Y581058D01*
X2299810Y566928D02*
Y580898D01*
X2299650Y601378D02*
X2299970Y601058D01*
X2284730Y601378D02*
X2299650D01*
X2336760Y583278D02*
X2336920Y583438D01*
X2336760Y563278D02*
X2336920Y563118D01*
X2330450Y590898D02*
Y602598D01*
X2299810Y565658D02*
X2299970Y565818D01*
X2283460Y601378D02*
X2283780Y601058D01*
X2301240Y656938D02*
X2301400Y657098D01*
X2317750D01*
X2289970Y676308D02*
X2324100D01*
X2283460Y669798D02*
X2289970Y676308D01*
X2283460Y656938D02*
Y669798D01*
X2324100Y676308D02*
X2330450Y669958D01*
Y657098D02*
Y669958D01*
X2356485Y657098D02*
X2357755Y658368D01*
X2367400D01*
X1828800Y585978D02*
X1836420Y578358D01*
Y577723D02*
Y578358D01*
X1672590Y585978D02*
X1680210Y578358D01*
Y577723D02*
Y578358D01*
X1828800Y428498D02*
X1836420Y420878D01*
Y420243D02*
Y420878D01*
X1854200Y271018D02*
X1861820Y263398D01*
X1705610Y262763D02*
Y263398D01*
X1697990Y271018D02*
X1705610Y263398D01*
X2469896Y1097026D02*
X2470404Y1097534D01*
X2354580Y952848D02*
X2379980D01*
X2401730Y932848D02*
X2402840Y933958D01*
X2379980Y932848D02*
X2401730D01*
X2460100Y962008D02*
Y970788D01*
X2432050Y933958D02*
X2460100Y962008D01*
X2423160Y933958D02*
X2432050D01*
X2354580Y952848D02*
Y986064D01*
X2221738Y1097280D02*
X2222246Y1097788D01*
D85*
X1811528Y333756D02*
D03*
X1655318Y333502D02*
D03*
X1786128Y491236D02*
D03*
X1629918Y490982D02*
D03*
X1786636Y648208D02*
D03*
X1629918Y648462D02*
D03*
D86*
X1811528Y308356D02*
D03*
X1655318Y308102D02*
D03*
X1786128Y465836D02*
D03*
X1629918Y465582D02*
D03*
X1786636Y622808D02*
D03*
X1629918Y623062D02*
D03*
D87*
X1662176Y895096D02*
D03*
Y844804D02*
D03*
X2440940Y742696D02*
D03*
Y792988D02*
D03*
D88*
X1740154Y1097280D02*
D03*
X1790446D02*
D03*
X2034794Y1097534D02*
D03*
X1984502D02*
D03*
X2278126Y1097788D02*
D03*
X2227834D02*
D03*
X2520696Y1097534D02*
D03*
X2470404D02*
D03*
X1964436Y746252D02*
D03*
X2014728D02*
D03*
D89*
X1909064Y689356D02*
D03*
Y663956D02*
D03*
Y714756D02*
D03*
X1909318Y473456D02*
D03*
Y448056D02*
D03*
Y498856D02*
D03*
X2000504Y420370D02*
D03*
Y394970D02*
D03*
Y445770D02*
D03*
X2016760Y248920D02*
D03*
X1965960D02*
D03*
X1991360D02*
D03*
D90*
X1909064Y638556D02*
D03*
X1909318Y422656D02*
D03*
X2000504Y369570D02*
D03*
D91*
X2014982Y818454D02*
D03*
X2469896Y1023874D02*
D03*
X2227834D02*
D03*
X1983994D02*
D03*
X1739646Y1023620D02*
D03*
D92*
X2014982Y838454D02*
D03*
X2367374Y234732D02*
D03*
X2342374D02*
D03*
X2392374D02*
D03*
X2417374D02*
D03*
X2286094Y236002D02*
D03*
X2261094D02*
D03*
X2236094D02*
D03*
X2375118Y382314D02*
D03*
X2400518Y395014D02*
D03*
X2375118Y407714D02*
D03*
X2400518Y420414D02*
D03*
X2375118Y433114D02*
D03*
X2400518Y445814D02*
D03*
X2469896Y1003874D02*
D03*
X2227834D02*
D03*
X1983994D02*
D03*
X1739646Y1003620D02*
D03*
X1756156Y843788D02*
D03*
D93*
X2336800Y629848D02*
D03*
D94*
X1976374Y303022D02*
D03*
X2077974D02*
D03*
X2052574D02*
D03*
X2027174D02*
D03*
X2001774D02*
D03*
D95*
X1940560Y248920D02*
D03*
D96*
X1736156Y843788D02*
D03*
D97*
X2529544Y1184424D02*
D03*
X1579880Y1183640D02*
D03*
X1579544Y234424D02*
D03*
X2529544D02*
D03*
D98*
X1953420Y547464D02*
D03*
X1933448Y532892D02*
D03*
X1947441Y618721D02*
D03*
X1939036Y632460D02*
D03*
X1974596Y605790D02*
D03*
X1953682Y604774D02*
D03*
X1942592Y527558D02*
D03*
X1651000Y620268D02*
D03*
Y613410D02*
D03*
X2039620Y845566D02*
D03*
X2046478D02*
D03*
X2053590D02*
D03*
X2060702D02*
D03*
Y838708D02*
D03*
X2053590D02*
D03*
X2046478D02*
D03*
X2039620D02*
D03*
X2060702Y831850D02*
D03*
X2053590D02*
D03*
X2046478D02*
D03*
X2039620D02*
D03*
X2060702Y824992D02*
D03*
X2053590D02*
D03*
X2046478D02*
D03*
X2039620D02*
D03*
X1669288Y312166D02*
D03*
X1676400D02*
D03*
Y305308D02*
D03*
X1669288D02*
D03*
X1676400Y298450D02*
D03*
X1669288D02*
D03*
X1676400Y291592D02*
D03*
X1669288D02*
D03*
X1644396Y469646D02*
D03*
X1651508D02*
D03*
Y462788D02*
D03*
X1644396D02*
D03*
X1651508Y455930D02*
D03*
X1644396D02*
D03*
X1651508Y449072D02*
D03*
X1644396D02*
D03*
X1643888Y627126D02*
D03*
X1651000D02*
D03*
X1643888Y620268D02*
D03*
Y613410D02*
D03*
X1651000Y606552D02*
D03*
X1643888D02*
D03*
X1701038Y679196D02*
D03*
X1708150D02*
D03*
X1715008D02*
D03*
X1722120D02*
D03*
X1729232D02*
D03*
Y672338D02*
D03*
X1722120D02*
D03*
X1715008D02*
D03*
X1708150D02*
D03*
X1701038D02*
D03*
X1729232Y665480D02*
D03*
X1722120D02*
D03*
X1715008D02*
D03*
X1708150D02*
D03*
X1701038D02*
D03*
X1729232Y658622D02*
D03*
X1722120D02*
D03*
X1715008D02*
D03*
X1708150D02*
D03*
X1701038D02*
D03*
X1729232Y651510D02*
D03*
X1722120D02*
D03*
X1715008D02*
D03*
X1708150D02*
D03*
X1701038D02*
D03*
X1726438Y363728D02*
D03*
X1733550D02*
D03*
X1740408D02*
D03*
X1747520D02*
D03*
X1754632D02*
D03*
Y356870D02*
D03*
X1747520D02*
D03*
X1740408D02*
D03*
X1733550D02*
D03*
X1726438D02*
D03*
X1754632Y350012D02*
D03*
X1747520D02*
D03*
X1740408D02*
D03*
X1733550D02*
D03*
X1726438D02*
D03*
X1754632Y343154D02*
D03*
X1747520D02*
D03*
X1740408D02*
D03*
X1733550D02*
D03*
X1726438D02*
D03*
X1754632Y336042D02*
D03*
X1747520D02*
D03*
X1740408D02*
D03*
X1733550D02*
D03*
X1726438D02*
D03*
X1694180Y520446D02*
D03*
X1701292D02*
D03*
X1708150D02*
D03*
X1715262D02*
D03*
X1722374D02*
D03*
Y513588D02*
D03*
X1715262D02*
D03*
X1708150D02*
D03*
X1701292D02*
D03*
X1694180D02*
D03*
X1722374Y506730D02*
D03*
X1715262D02*
D03*
X1708150D02*
D03*
X1701292D02*
D03*
X1694180D02*
D03*
X1722374Y499872D02*
D03*
X1715262D02*
D03*
X1708150D02*
D03*
X1701292D02*
D03*
X1694180D02*
D03*
X1722374Y492760D02*
D03*
X1715262D02*
D03*
X1708150D02*
D03*
X1701292D02*
D03*
X1694180D02*
D03*
X1822958Y713486D02*
D03*
X1830070D02*
D03*
X1836928D02*
D03*
X1908048Y735330D02*
D03*
X1915160D02*
D03*
X1836928Y706628D02*
D03*
X1830070D02*
D03*
X1822958D02*
D03*
X1836928Y699770D02*
D03*
X1830070D02*
D03*
X1822958D02*
D03*
X1836928Y692912D02*
D03*
X1830070D02*
D03*
X1822958D02*
D03*
X1836928Y685800D02*
D03*
X1830070D02*
D03*
X1822958D02*
D03*
X1808480Y854456D02*
D03*
X1815592D02*
D03*
X1822450D02*
D03*
X1829562D02*
D03*
X1836674D02*
D03*
Y847598D02*
D03*
X1829562D02*
D03*
X1822450D02*
D03*
X1815592D02*
D03*
X1808480D02*
D03*
X1836674Y840740D02*
D03*
X1829562D02*
D03*
X1822450D02*
D03*
X1815592D02*
D03*
X1836674Y833882D02*
D03*
X1829562D02*
D03*
X1822450D02*
D03*
X1836674Y826770D02*
D03*
X1829562D02*
D03*
X2299970Y961136D02*
D03*
X2307082D02*
D03*
X2313940D02*
D03*
X2321052D02*
D03*
X2328164D02*
D03*
Y954278D02*
D03*
X2321052D02*
D03*
X2313940D02*
D03*
X2307082D02*
D03*
X2299970D02*
D03*
X2328164Y947420D02*
D03*
X2321052D02*
D03*
X2313940D02*
D03*
X2307082D02*
D03*
X2299970D02*
D03*
X2328164Y940562D02*
D03*
X2321052D02*
D03*
X2313940D02*
D03*
X2307082D02*
D03*
X2299970D02*
D03*
X2328164Y933450D02*
D03*
X2321052D02*
D03*
X2313940D02*
D03*
X2307082D02*
D03*
X2299970D02*
D03*
X2147570Y846836D02*
D03*
X2154682D02*
D03*
X2161540D02*
D03*
X2168652D02*
D03*
Y839978D02*
D03*
X2161540D02*
D03*
X2154682D02*
D03*
X2147570D02*
D03*
X2168652Y833120D02*
D03*
X2161540D02*
D03*
X2154682D02*
D03*
X2147570D02*
D03*
X2168652Y826262D02*
D03*
X2161540D02*
D03*
X2154682D02*
D03*
X2147570D02*
D03*
X2168652Y819150D02*
D03*
X2161540D02*
D03*
X2154682D02*
D03*
X2147570D02*
D03*
X2059940Y962406D02*
D03*
X2067052D02*
D03*
X2073910D02*
D03*
X2081022D02*
D03*
X2088134D02*
D03*
Y955548D02*
D03*
X2081022D02*
D03*
X2073910D02*
D03*
X2067052D02*
D03*
X2059940D02*
D03*
X2088134Y948690D02*
D03*
X2081022D02*
D03*
X2073910D02*
D03*
X2067052D02*
D03*
X2059940D02*
D03*
X2088134Y941832D02*
D03*
X2081022D02*
D03*
X2073910D02*
D03*
X2067052D02*
D03*
X2059940D02*
D03*
X2088134Y934720D02*
D03*
X2081022D02*
D03*
X2073910D02*
D03*
X2067052D02*
D03*
X2059940D02*
D03*
X1954388Y494009D02*
D03*
X1961499D02*
D03*
X1968358D02*
D03*
X1954388Y500867D02*
D03*
X1961499D02*
D03*
X1968358D02*
D03*
Y507725D02*
D03*
X1961499D02*
D03*
X1954388D02*
D03*
X1852930Y245618D02*
D03*
X1827276Y560578D02*
D03*
X1828292Y403098D02*
D03*
X1952752Y797306D02*
D03*
X1947164Y792480D02*
D03*
X1717802Y930402D02*
D03*
X1725168Y938022D02*
D03*
X1746504Y958596D02*
D03*
X1753616D02*
D03*
X1760728D02*
D03*
Y951738D02*
D03*
X1753616D02*
D03*
X1746504D02*
D03*
X1739646D02*
D03*
X1725168Y930656D02*
D03*
X1760728Y944880D02*
D03*
X1753616D02*
D03*
X1746504D02*
D03*
X1739646D02*
D03*
X1732534D02*
D03*
X1760728Y938022D02*
D03*
X1753616D02*
D03*
X1746504D02*
D03*
X1739646D02*
D03*
X1732534D02*
D03*
X1760728Y930910D02*
D03*
X1753616D02*
D03*
X1746504D02*
D03*
X1739646D02*
D03*
X1732534D02*
D03*
X2489200Y963168D02*
D03*
Y956310D02*
D03*
X2482088D02*
D03*
X2474976D02*
D03*
X2489200Y949452D02*
D03*
X2482088D02*
D03*
X2474976D02*
D03*
X2468118D02*
D03*
X2489200Y942594D02*
D03*
X2482088D02*
D03*
X2474976D02*
D03*
X2468118D02*
D03*
X2461006D02*
D03*
X2489200Y935482D02*
D03*
X2482088D02*
D03*
X2474976D02*
D03*
X2468118D02*
D03*
X2461006D02*
D03*
X2453640D02*
D03*
X1910842Y853694D02*
D03*
X1917954D02*
D03*
Y846836D02*
D03*
X1910842D02*
D03*
X1917954Y839978D02*
D03*
X1910842D02*
D03*
X1917700Y818134D02*
D03*
X1910588D02*
D03*
X1917954Y833120D02*
D03*
X1910842D02*
D03*
X1917700Y811276D02*
D03*
X1910588D02*
D03*
X1917954Y826008D02*
D03*
X1910842D02*
D03*
X1917700Y804164D02*
D03*
X1910588D02*
D03*
X2011172Y351282D02*
D03*
X2018284D02*
D03*
X2025142D02*
D03*
X2032254D02*
D03*
X2039366D02*
D03*
Y344424D02*
D03*
X2032254D02*
D03*
X2025142D02*
D03*
X2018284D02*
D03*
X2011172D02*
D03*
X2039366Y337566D02*
D03*
X2032254D02*
D03*
X2025142D02*
D03*
X2018284D02*
D03*
X2011172D02*
D03*
X2039366Y330708D02*
D03*
X2032254D02*
D03*
X2025142D02*
D03*
X2018284D02*
D03*
X2011172D02*
D03*
X2039366Y323596D02*
D03*
X2032254D02*
D03*
X2025142D02*
D03*
X2018284D02*
D03*
X2011172D02*
D03*
X2104644Y336804D02*
D03*
X2111756D02*
D03*
X2118614D02*
D03*
X2125726D02*
D03*
X2132838D02*
D03*
Y329946D02*
D03*
X2125726D02*
D03*
X2118614D02*
D03*
X2111756D02*
D03*
X2104644D02*
D03*
X2132838Y323088D02*
D03*
X2125726D02*
D03*
X2118614D02*
D03*
X2111756D02*
D03*
X2104644D02*
D03*
X2132838Y316230D02*
D03*
X2125726D02*
D03*
X2118614D02*
D03*
X2111756D02*
D03*
X2104644D02*
D03*
X2132838Y309118D02*
D03*
X2125726D02*
D03*
X2118614D02*
D03*
X2111756D02*
D03*
X2104644D02*
D03*
X1573530Y331978D02*
D03*
X1580642D02*
D03*
X1587500D02*
D03*
X1594612D02*
D03*
X1601724D02*
D03*
Y325120D02*
D03*
X1594612D02*
D03*
X1587500D02*
D03*
X1580642D02*
D03*
X1573530D02*
D03*
X1601724Y318262D02*
D03*
X1594612D02*
D03*
X1587500D02*
D03*
X1580642D02*
D03*
X1573530D02*
D03*
X1601724Y311404D02*
D03*
X1594612D02*
D03*
X1587500D02*
D03*
X1580642D02*
D03*
X1573530D02*
D03*
X1601724Y304292D02*
D03*
X1594612D02*
D03*
X1587500D02*
D03*
X1580642D02*
D03*
X1573530D02*
D03*
X1569466Y884682D02*
D03*
X1576578D02*
D03*
X1583436D02*
D03*
X1590548D02*
D03*
X1597660D02*
D03*
Y877824D02*
D03*
X1590548D02*
D03*
X1583436D02*
D03*
X1576578D02*
D03*
X1569466D02*
D03*
X1597660Y870966D02*
D03*
X1590548D02*
D03*
X1583436D02*
D03*
X1576578D02*
D03*
X1569466D02*
D03*
X1597660Y864108D02*
D03*
X1590548D02*
D03*
X1583436D02*
D03*
X1576578D02*
D03*
X1569466D02*
D03*
X1597660Y856996D02*
D03*
X1590548D02*
D03*
X1583436D02*
D03*
X1576578D02*
D03*
X1569466D02*
D03*
X1569974Y1008380D02*
D03*
X1577086D02*
D03*
X1583944D02*
D03*
X1591056D02*
D03*
X1598168D02*
D03*
Y1001522D02*
D03*
X1591056D02*
D03*
X1583944D02*
D03*
X1577086D02*
D03*
X1569974D02*
D03*
X1598168Y994664D02*
D03*
X1591056D02*
D03*
X1583944D02*
D03*
X1577086D02*
D03*
X1569974D02*
D03*
X1598168Y987806D02*
D03*
X1591056D02*
D03*
X1583944D02*
D03*
X1577086D02*
D03*
X1569974D02*
D03*
X1598168Y980694D02*
D03*
X1591056D02*
D03*
X1583944D02*
D03*
X1577086D02*
D03*
X1569974D02*
D03*
X1718564Y1194054D02*
D03*
X1725676D02*
D03*
X1732534D02*
D03*
X1739646D02*
D03*
X1746758D02*
D03*
Y1187196D02*
D03*
X1739646D02*
D03*
X1732534D02*
D03*
X1725676D02*
D03*
X1718564D02*
D03*
X1746758Y1180338D02*
D03*
X1739646D02*
D03*
X1732534D02*
D03*
X1725676D02*
D03*
X1718564D02*
D03*
X1746758Y1173480D02*
D03*
X1739646D02*
D03*
X1732534D02*
D03*
X1725676D02*
D03*
X1718564D02*
D03*
X1746758Y1166368D02*
D03*
X1739646D02*
D03*
X1732534D02*
D03*
X1725676D02*
D03*
X1718564D02*
D03*
X1962912Y1194816D02*
D03*
X1970024D02*
D03*
X1976882D02*
D03*
X1983994D02*
D03*
X1991106D02*
D03*
Y1187958D02*
D03*
X1983994D02*
D03*
X1976882D02*
D03*
X1970024D02*
D03*
X1962912D02*
D03*
X1991106Y1181100D02*
D03*
X1983994D02*
D03*
X1976882D02*
D03*
X1970024D02*
D03*
X1962912D02*
D03*
X1991106Y1174242D02*
D03*
X1983994D02*
D03*
X1976882D02*
D03*
X1970024D02*
D03*
X1962912D02*
D03*
X1991106Y1167130D02*
D03*
X1983994D02*
D03*
X1976882D02*
D03*
X1970024D02*
D03*
X1962912D02*
D03*
X2214118Y1195070D02*
D03*
X2221230D02*
D03*
X2228088D02*
D03*
X2235200D02*
D03*
X2242312D02*
D03*
Y1188212D02*
D03*
X2235200D02*
D03*
X2228088D02*
D03*
X2221230D02*
D03*
X2214118D02*
D03*
X2242312Y1181354D02*
D03*
X2235200D02*
D03*
X2228088D02*
D03*
X2221230D02*
D03*
X2214118D02*
D03*
X2242312Y1174496D02*
D03*
X2235200D02*
D03*
X2228088D02*
D03*
X2221230D02*
D03*
X2214118D02*
D03*
X2242312Y1167384D02*
D03*
X2235200D02*
D03*
X2228088D02*
D03*
X2221230D02*
D03*
X2214118D02*
D03*
X2448814Y1194054D02*
D03*
X2455926D02*
D03*
X2462784D02*
D03*
X2469896D02*
D03*
X2477008D02*
D03*
Y1187196D02*
D03*
X2469896D02*
D03*
X2462784D02*
D03*
X2455926D02*
D03*
X2448814D02*
D03*
X2477008Y1180338D02*
D03*
X2469896D02*
D03*
X2462784D02*
D03*
X2455926D02*
D03*
X2448814D02*
D03*
X2477008Y1173480D02*
D03*
X2469896D02*
D03*
X2462784D02*
D03*
X2455926D02*
D03*
X2448814D02*
D03*
X2477008Y1166368D02*
D03*
X2469896D02*
D03*
X2462784D02*
D03*
X2455926D02*
D03*
X2448814D02*
D03*
X2132838Y641858D02*
D03*
X2185670Y541020D02*
D03*
X2177288Y531876D02*
D03*
X2185416Y532384D02*
D03*
X2150364Y530860D02*
D03*
X2131060Y549402D02*
D03*
X2131314Y573024D02*
D03*
X2142490Y641858D02*
D03*
X2185670Y630428D02*
D03*
X2175764Y639826D02*
D03*
X2185670Y640080D02*
D03*
X1719580Y243586D02*
D03*
X1726692D02*
D03*
X1733550D02*
D03*
X1740662D02*
D03*
X1747774D02*
D03*
X1719580Y250698D02*
D03*
X1726692D02*
D03*
X1733550D02*
D03*
X1740662D02*
D03*
X1747774D02*
D03*
X1719580Y257556D02*
D03*
X1726692D02*
D03*
X1733550D02*
D03*
X1740662D02*
D03*
X1747774D02*
D03*
X1719580Y264414D02*
D03*
X1726692D02*
D03*
X1733550D02*
D03*
X1740662D02*
D03*
X1747774D02*
D03*
Y271272D02*
D03*
X1740662D02*
D03*
X1733550D02*
D03*
X1726692D02*
D03*
X1719580D02*
D03*
X1694180Y400050D02*
D03*
X1701292D02*
D03*
X1708150D02*
D03*
X1715262D02*
D03*
X1722374D02*
D03*
X1694180Y407162D02*
D03*
X1701292D02*
D03*
X1708150D02*
D03*
X1715262D02*
D03*
X1722374D02*
D03*
X1694180Y414020D02*
D03*
X1701292D02*
D03*
X1708150D02*
D03*
X1715262D02*
D03*
X1722374D02*
D03*
X1694180Y420878D02*
D03*
X1701292D02*
D03*
X1708150D02*
D03*
X1715262D02*
D03*
X1722374D02*
D03*
Y427736D02*
D03*
X1715262D02*
D03*
X1708150D02*
D03*
X1701292D02*
D03*
X1694180D02*
D03*
X1694688Y585978D02*
D03*
X1701800D02*
D03*
X1708658D02*
D03*
X1715770D02*
D03*
X1722882D02*
D03*
Y579120D02*
D03*
X1715770D02*
D03*
X1708658D02*
D03*
X1701800D02*
D03*
X1694688D02*
D03*
X1722882Y572262D02*
D03*
X1715770D02*
D03*
X1708658D02*
D03*
X1701800D02*
D03*
X1694688D02*
D03*
X1722882Y565404D02*
D03*
X1715770D02*
D03*
X1708658D02*
D03*
X1701800D02*
D03*
X1694688D02*
D03*
X1722882Y558292D02*
D03*
X1715770D02*
D03*
X1708658D02*
D03*
X1701800D02*
D03*
X1694688D02*
D03*
X2025142Y797052D02*
D03*
X2018030D02*
D03*
X2011172D02*
D03*
X2004060D02*
D03*
X2004568Y764286D02*
D03*
X2011680D02*
D03*
X2018538D02*
D03*
X2025650D02*
D03*
X2004060Y804672D02*
D03*
X2011172D02*
D03*
X2018030D02*
D03*
X2025142D02*
D03*
X1715008Y834898D02*
D03*
Y842010D02*
D03*
Y848868D02*
D03*
Y855980D02*
D03*
X1682242Y855472D02*
D03*
Y848360D02*
D03*
Y841502D02*
D03*
Y834390D02*
D03*
X1722628Y855980D02*
D03*
Y848868D02*
D03*
Y842010D02*
D03*
Y834898D02*
D03*
X1730502Y1045220D02*
D03*
X1737614D02*
D03*
X1744472D02*
D03*
X1751584D02*
D03*
X1751076Y1077986D02*
D03*
X1743964D02*
D03*
X1737106D02*
D03*
X1729994D02*
D03*
X1751584Y1037600D02*
D03*
X1744472D02*
D03*
X1737614D02*
D03*
X1730502D02*
D03*
X1974596Y1045210D02*
D03*
X1981708D02*
D03*
X1988566D02*
D03*
X1995678D02*
D03*
X1995170Y1077976D02*
D03*
X1988058D02*
D03*
X1981200D02*
D03*
X1974088D02*
D03*
X1995678Y1037590D02*
D03*
X1988566D02*
D03*
X1981708D02*
D03*
X1974596D02*
D03*
X2218182Y1045972D02*
D03*
X2225294D02*
D03*
X2232152D02*
D03*
X2239264D02*
D03*
X2238756Y1078738D02*
D03*
X2231644D02*
D03*
X2224786D02*
D03*
X2217674D02*
D03*
X2239264Y1038352D02*
D03*
X2232152D02*
D03*
X2225294D02*
D03*
X2218182D02*
D03*
X2459990Y1046480D02*
D03*
X2467102D02*
D03*
X2473960D02*
D03*
X2481072D02*
D03*
X2480564Y1079246D02*
D03*
X2473452D02*
D03*
X2466594D02*
D03*
X2459482D02*
D03*
X2481072Y1038860D02*
D03*
X2473960D02*
D03*
X2467102D02*
D03*
X2459990D02*
D03*
X2030730Y596392D02*
D03*
X2037842D02*
D03*
X2044700D02*
D03*
X2051812D02*
D03*
Y589534D02*
D03*
X2044700D02*
D03*
X2037842D02*
D03*
X2030730D02*
D03*
X2051812Y582676D02*
D03*
X2044700D02*
D03*
X2037842D02*
D03*
X2030730D02*
D03*
X2051812Y575818D02*
D03*
X2044700D02*
D03*
X2037842D02*
D03*
X2030730D02*
D03*
X2051812Y568706D02*
D03*
X2044700D02*
D03*
X2037842D02*
D03*
X2030730D02*
D03*
X2063750Y624332D02*
D03*
X2070862D02*
D03*
X2077720D02*
D03*
X2084832D02*
D03*
X2091944D02*
D03*
Y617474D02*
D03*
X2084832D02*
D03*
X2077720D02*
D03*
X2070862D02*
D03*
X2063750D02*
D03*
X2091944Y610616D02*
D03*
X2084832D02*
D03*
X2077720D02*
D03*
X2070862D02*
D03*
X2063750D02*
D03*
X2091944Y603758D02*
D03*
X2084832D02*
D03*
X2077720D02*
D03*
X2070862D02*
D03*
X2063750D02*
D03*
X2091944Y596646D02*
D03*
X2084832D02*
D03*
X2077720D02*
D03*
X2070862D02*
D03*
X2063750D02*
D03*
X1854200Y271018D02*
D03*
X1963166Y426212D02*
D03*
X1812798Y448437D02*
D03*
X1819910D02*
D03*
X1826768D02*
D03*
X1833880D02*
D03*
X1840992D02*
D03*
X1812798Y455295D02*
D03*
X1819910D02*
D03*
X1826768D02*
D03*
X1833880D02*
D03*
X1840992D02*
D03*
X1812798Y462153D02*
D03*
X1819910D02*
D03*
X1826768D02*
D03*
X1833880D02*
D03*
X1840992D02*
D03*
Y469011D02*
D03*
X1833880D02*
D03*
X1826768D02*
D03*
X1819910D02*
D03*
X1812798D02*
D03*
X1838198Y290957D02*
D03*
X1845310D02*
D03*
X1852168D02*
D03*
X1859280D02*
D03*
X1866392D02*
D03*
X1838198Y297815D02*
D03*
X1845310D02*
D03*
X1852168D02*
D03*
X1859280D02*
D03*
X1866392D02*
D03*
X1838198Y304673D02*
D03*
X1845310D02*
D03*
X1852168D02*
D03*
X1859280D02*
D03*
X1866392D02*
D03*
Y311531D02*
D03*
X1859280D02*
D03*
X1852168D02*
D03*
X1845310D02*
D03*
X1838198D02*
D03*
X1812798Y626491D02*
D03*
X1819910D02*
D03*
X1826768D02*
D03*
X1833880D02*
D03*
X1840992D02*
D03*
Y619633D02*
D03*
X1833880D02*
D03*
X1826768D02*
D03*
X1819910D02*
D03*
X1812798D02*
D03*
X1840992Y612775D02*
D03*
X1833880D02*
D03*
X1826768D02*
D03*
X1819910D02*
D03*
X1812798D02*
D03*
X1840992Y605917D02*
D03*
X1833880D02*
D03*
X1826768D02*
D03*
X1819910D02*
D03*
X1812798D02*
D03*
X2247900Y439420D02*
D03*
X2239010Y449580D02*
D03*
X2225040D02*
D03*
Y393700D02*
D03*
X2239010D02*
D03*
X2278598Y433164D02*
D03*
X2274788Y395064D02*
D03*
X2249144Y294302D02*
D03*
X2024969Y546331D02*
D03*
X2059971Y546651D02*
D03*
X2008020Y583601D02*
D03*
X2049930Y635671D02*
D03*
X2096920Y563720D02*
D03*
Y578521D02*
D03*
X2249144Y345414D02*
D03*
X2459990Y265176D02*
D03*
X2467102D02*
D03*
X2473960D02*
D03*
X2481072D02*
D03*
X2488184D02*
D03*
Y258318D02*
D03*
X2481072D02*
D03*
X2473960D02*
D03*
X2467102D02*
D03*
X2459990D02*
D03*
X2488184Y251460D02*
D03*
X2481072D02*
D03*
X2473960D02*
D03*
X2467102D02*
D03*
X2459990D02*
D03*
X2488184Y244602D02*
D03*
X2481072D02*
D03*
X2473960D02*
D03*
X2467102D02*
D03*
X2459990D02*
D03*
X2488184Y237490D02*
D03*
X2481072D02*
D03*
X2473960D02*
D03*
X2467102D02*
D03*
X2459990D02*
D03*
X2506980Y308864D02*
D03*
X2514092D02*
D03*
X2520950D02*
D03*
X2528062D02*
D03*
X2535174D02*
D03*
Y302006D02*
D03*
X2528062D02*
D03*
X2520950D02*
D03*
X2514092D02*
D03*
X2506980D02*
D03*
X2535174Y295148D02*
D03*
X2528062D02*
D03*
X2520950D02*
D03*
X2514092D02*
D03*
X2506980D02*
D03*
X2535174Y288290D02*
D03*
X2528062D02*
D03*
X2520950D02*
D03*
X2514092D02*
D03*
X2506980D02*
D03*
X2535174Y281178D02*
D03*
X2528062D02*
D03*
X2520950D02*
D03*
X2514092D02*
D03*
X2506980D02*
D03*
X2336894Y335062D02*
D03*
X2266950Y327660D02*
D03*
X2293634Y291802D02*
D03*
X2367280Y303406D02*
D03*
X2329180D02*
D03*
X2503170Y395986D02*
D03*
X2510282D02*
D03*
X2517140D02*
D03*
X2524252D02*
D03*
X2531364D02*
D03*
Y389128D02*
D03*
X2524252D02*
D03*
X2517140D02*
D03*
X2510282D02*
D03*
X2503170D02*
D03*
X2531364Y382270D02*
D03*
X2524252D02*
D03*
X2517140D02*
D03*
X2510282D02*
D03*
X2503170D02*
D03*
X2531364Y375412D02*
D03*
X2524252D02*
D03*
X2517140D02*
D03*
X2510282D02*
D03*
X2503170D02*
D03*
X2531364Y368300D02*
D03*
X2524252D02*
D03*
X2517140D02*
D03*
X2510282D02*
D03*
X2503170D02*
D03*
Y457454D02*
D03*
X2510282D02*
D03*
X2517140D02*
D03*
X2524252D02*
D03*
X2531364D02*
D03*
Y450596D02*
D03*
X2524252D02*
D03*
X2517140D02*
D03*
X2510282D02*
D03*
X2503170D02*
D03*
X2531364Y443738D02*
D03*
X2524252D02*
D03*
X2517140D02*
D03*
X2510282D02*
D03*
X2503170D02*
D03*
X2531364Y436880D02*
D03*
X2524252D02*
D03*
X2517140D02*
D03*
X2510282D02*
D03*
X2503170D02*
D03*
X2531364Y429768D02*
D03*
X2524252D02*
D03*
X2517140D02*
D03*
X2510282D02*
D03*
X2503170D02*
D03*
X2269708Y420464D02*
D03*
X2358867Y622300D02*
D03*
X2365979D02*
D03*
X2358867Y629158D02*
D03*
X2365979D02*
D03*
Y636016D02*
D03*
X2358867D02*
D03*
X2300478Y622580D02*
D03*
X2307590D02*
D03*
X2314448D02*
D03*
X2300478Y629438D02*
D03*
X2307590D02*
D03*
X2314448D02*
D03*
Y636296D02*
D03*
X2307590D02*
D03*
X2300478D02*
D03*
X2469642Y620776D02*
D03*
X2476754D02*
D03*
X2469642Y627888D02*
D03*
X2476754D02*
D03*
X2469642Y634746D02*
D03*
X2476754D02*
D03*
X2469642Y641604D02*
D03*
X2476754D02*
D03*
Y648462D02*
D03*
X2469642D02*
D03*
X2469388Y716534D02*
D03*
X2476500D02*
D03*
X2483358D02*
D03*
X2490470D02*
D03*
X2497582D02*
D03*
X2469388Y723646D02*
D03*
X2476500D02*
D03*
X2483358D02*
D03*
X2490470D02*
D03*
X2497582D02*
D03*
X2469388Y730504D02*
D03*
X2476500D02*
D03*
X2483358D02*
D03*
X2490470D02*
D03*
X2497582D02*
D03*
X2469388Y737362D02*
D03*
X2476500D02*
D03*
X2483358D02*
D03*
X2490470D02*
D03*
X2497582D02*
D03*
Y744220D02*
D03*
X2490470D02*
D03*
X2483358D02*
D03*
X2476500D02*
D03*
X2469388D02*
D03*
Y753618D02*
D03*
X2476500D02*
D03*
X2483358D02*
D03*
X2490470D02*
D03*
X2497582D02*
D03*
X2469388Y760730D02*
D03*
X2476500D02*
D03*
X2483358D02*
D03*
X2490470D02*
D03*
X2497582D02*
D03*
X2469388Y767588D02*
D03*
X2476500D02*
D03*
X2483358D02*
D03*
X2490470D02*
D03*
X2497582D02*
D03*
X2469388Y774446D02*
D03*
X2476500D02*
D03*
X2483358D02*
D03*
X2490470D02*
D03*
X2497582D02*
D03*
Y781304D02*
D03*
X2490470D02*
D03*
X2483358D02*
D03*
X2476500D02*
D03*
X2469388D02*
D03*
Y790194D02*
D03*
X2476500D02*
D03*
X2483358D02*
D03*
X2490470D02*
D03*
X2497582D02*
D03*
X2469388Y797306D02*
D03*
X2476500D02*
D03*
X2483358D02*
D03*
X2490470D02*
D03*
X2497582D02*
D03*
X2469388Y804164D02*
D03*
X2476500D02*
D03*
X2483358D02*
D03*
X2490470D02*
D03*
X2497582D02*
D03*
X2469388Y811022D02*
D03*
X2476500D02*
D03*
X2483358D02*
D03*
X2490470D02*
D03*
X2497582D02*
D03*
Y817880D02*
D03*
X2490470D02*
D03*
X2483358D02*
D03*
X2476500D02*
D03*
X2469388D02*
D03*
X2507488Y753364D02*
D03*
X2514600D02*
D03*
X2521458D02*
D03*
X2528570D02*
D03*
X2535682D02*
D03*
X2507488Y760476D02*
D03*
X2514600D02*
D03*
X2521458D02*
D03*
X2528570D02*
D03*
X2535682D02*
D03*
X2507488Y767334D02*
D03*
X2514600D02*
D03*
X2521458D02*
D03*
X2528570D02*
D03*
X2535682D02*
D03*
X2507488Y774192D02*
D03*
X2514600D02*
D03*
X2521458D02*
D03*
X2528570D02*
D03*
X2535682D02*
D03*
Y781050D02*
D03*
X2528570D02*
D03*
X2521458D02*
D03*
X2514600D02*
D03*
X2507488D02*
D03*
Y716534D02*
D03*
X2514600D02*
D03*
X2521458D02*
D03*
X2528570D02*
D03*
X2535682D02*
D03*
X2507488Y723646D02*
D03*
X2514600D02*
D03*
X2521458D02*
D03*
X2528570D02*
D03*
X2535682D02*
D03*
X2507488Y730504D02*
D03*
X2514600D02*
D03*
X2521458D02*
D03*
X2528570D02*
D03*
X2535682D02*
D03*
X2507488Y737362D02*
D03*
X2514600D02*
D03*
X2521458D02*
D03*
X2528570D02*
D03*
X2535682D02*
D03*
Y744220D02*
D03*
X2528570D02*
D03*
X2521458D02*
D03*
X2514600D02*
D03*
X2507488D02*
D03*
Y790194D02*
D03*
X2514600D02*
D03*
X2521458D02*
D03*
X2528570D02*
D03*
X2535682D02*
D03*
X2507488Y797306D02*
D03*
X2514600D02*
D03*
X2521458D02*
D03*
X2528570D02*
D03*
X2535682D02*
D03*
X2507488Y804164D02*
D03*
X2514600D02*
D03*
X2521458D02*
D03*
X2528570D02*
D03*
X2535682D02*
D03*
X2507488Y811022D02*
D03*
X2514600D02*
D03*
X2521458D02*
D03*
X2528570D02*
D03*
X2535682D02*
D03*
Y817880D02*
D03*
X2528570D02*
D03*
X2521458D02*
D03*
X2514600D02*
D03*
X2507488D02*
D03*
X2229866Y836930D02*
D03*
X2236978D02*
D03*
X2243836D02*
D03*
X2250948D02*
D03*
X2258060D02*
D03*
Y843788D02*
D03*
X2250948D02*
D03*
X2243836D02*
D03*
X2236978D02*
D03*
X2229866D02*
D03*
X2225548Y752348D02*
D03*
X2232660D02*
D03*
X2262378D02*
D03*
X2269490D02*
D03*
X2225548Y759460D02*
D03*
X2269490D02*
D03*
X2225558Y777240D02*
D03*
X2269490D02*
D03*
Y784098D02*
D03*
X2232670D02*
D03*
X2225558D02*
D03*
X2273300Y813054D02*
D03*
X2280412D02*
D03*
X2287270D02*
D03*
X2294382D02*
D03*
X2301494D02*
D03*
X2273300Y820166D02*
D03*
X2280412D02*
D03*
X2287270D02*
D03*
X2294382D02*
D03*
X2301494D02*
D03*
X2273300Y827024D02*
D03*
X2280412D02*
D03*
X2287270D02*
D03*
X2294382D02*
D03*
X2301494D02*
D03*
X2273300Y833882D02*
D03*
X2280412D02*
D03*
X2287270D02*
D03*
X2294382D02*
D03*
X2301494D02*
D03*
Y840740D02*
D03*
X2294382D02*
D03*
X2287270D02*
D03*
X2280412D02*
D03*
X2273300D02*
D03*
X2376170Y747014D02*
D03*
X2383282D02*
D03*
X2390140D02*
D03*
X2397252D02*
D03*
X2404364D02*
D03*
X2376170Y754126D02*
D03*
X2383282D02*
D03*
X2390140D02*
D03*
X2397252D02*
D03*
X2404364D02*
D03*
X2376170Y760984D02*
D03*
X2383282D02*
D03*
X2390140D02*
D03*
X2397252D02*
D03*
X2404364D02*
D03*
X2376170Y767842D02*
D03*
X2383282D02*
D03*
X2390140D02*
D03*
X2397252D02*
D03*
X2404364D02*
D03*
Y774700D02*
D03*
X2397252D02*
D03*
X2390140D02*
D03*
X2383282D02*
D03*
X2376170D02*
D03*
Y813054D02*
D03*
X2383282D02*
D03*
X2390140D02*
D03*
X2397252D02*
D03*
X2404364D02*
D03*
X2376170Y820166D02*
D03*
X2383282D02*
D03*
X2390140D02*
D03*
X2397252D02*
D03*
X2404364D02*
D03*
X2376170Y827024D02*
D03*
X2383282D02*
D03*
X2390140D02*
D03*
X2397252D02*
D03*
X2404364D02*
D03*
X2376170Y833882D02*
D03*
X2383282D02*
D03*
X2390140D02*
D03*
X2397252D02*
D03*
X2404364D02*
D03*
Y840740D02*
D03*
X2397252D02*
D03*
X2390140D02*
D03*
X2383282D02*
D03*
X2376170D02*
D03*
X2504440Y529844D02*
D03*
X2511552D02*
D03*
X2518410D02*
D03*
X2525522D02*
D03*
X2532634D02*
D03*
X2504440Y536956D02*
D03*
X2511552D02*
D03*
X2518410D02*
D03*
X2525522D02*
D03*
X2532634D02*
D03*
X2504440Y543814D02*
D03*
X2511552D02*
D03*
X2518410D02*
D03*
X2525522D02*
D03*
X2532634D02*
D03*
X2504440Y550672D02*
D03*
X2511552D02*
D03*
X2518410D02*
D03*
X2525522D02*
D03*
X2532634D02*
D03*
Y557530D02*
D03*
X2525522D02*
D03*
X2518410D02*
D03*
X2511552D02*
D03*
X2504440D02*
D03*
X2313940Y501904D02*
D03*
X2321052D02*
D03*
X2327910D02*
D03*
X2335022D02*
D03*
X2342134D02*
D03*
X2313940Y509016D02*
D03*
X2321052D02*
D03*
X2327910D02*
D03*
X2335022D02*
D03*
X2342134D02*
D03*
X2313940Y515874D02*
D03*
X2321052D02*
D03*
X2327910D02*
D03*
X2335022D02*
D03*
X2342134D02*
D03*
X2313940Y522732D02*
D03*
X2321052D02*
D03*
X2327910D02*
D03*
X2335022D02*
D03*
X2342134D02*
D03*
Y529590D02*
D03*
X2335022D02*
D03*
X2327910D02*
D03*
X2321052D02*
D03*
X2313940D02*
D03*
X2231390Y501904D02*
D03*
X2238502D02*
D03*
X2245360D02*
D03*
X2252472D02*
D03*
X2259584D02*
D03*
X2231390Y509016D02*
D03*
X2238502D02*
D03*
X2245360D02*
D03*
X2252472D02*
D03*
X2259584D02*
D03*
X2231390Y515874D02*
D03*
X2238502D02*
D03*
X2245360D02*
D03*
X2252472D02*
D03*
X2259584D02*
D03*
X2231390Y522732D02*
D03*
X2238502D02*
D03*
X2245360D02*
D03*
X2252472D02*
D03*
X2259584D02*
D03*
Y529590D02*
D03*
X2252472D02*
D03*
X2245360D02*
D03*
X2238502D02*
D03*
X2231390D02*
D03*
X1907794Y742950D02*
D03*
X1914906D02*
D03*
X1907794Y750062D02*
D03*
X1914906D02*
D03*
X1907794Y756920D02*
D03*
X1914906D02*
D03*
X1907794Y763778D02*
D03*
X1914906D02*
D03*
Y770636D02*
D03*
X1907794D02*
D03*
X2223008Y614426D02*
D03*
X2230120D02*
D03*
X2236978D02*
D03*
X2244090D02*
D03*
X2251202D02*
D03*
X2223008Y621538D02*
D03*
X2230120D02*
D03*
X2236978D02*
D03*
X2244090D02*
D03*
X2251202D02*
D03*
X2223008Y628396D02*
D03*
X2230120D02*
D03*
X2236978D02*
D03*
X2244090D02*
D03*
X2251202D02*
D03*
X2223008Y635254D02*
D03*
X2230120D02*
D03*
X2236978D02*
D03*
X2244090D02*
D03*
X2251202D02*
D03*
Y642112D02*
D03*
X2244090D02*
D03*
X2236978D02*
D03*
X2230120D02*
D03*
X2223008D02*
D03*
X2143252Y377952D02*
D03*
X2150364D02*
D03*
X2157222D02*
D03*
X2164334D02*
D03*
X2171446D02*
D03*
X2143252Y385064D02*
D03*
X2150364D02*
D03*
X2157222D02*
D03*
X2164334D02*
D03*
X2171446D02*
D03*
X2143252Y391922D02*
D03*
X2150364D02*
D03*
X2157222D02*
D03*
X2164334D02*
D03*
X2171446D02*
D03*
X2143252Y398780D02*
D03*
X2150364D02*
D03*
X2157222D02*
D03*
X2164334D02*
D03*
X2171446D02*
D03*
Y405638D02*
D03*
X2164334D02*
D03*
X2157222D02*
D03*
X2150364D02*
D03*
X2143252D02*
D03*
X1672590Y428498D02*
D03*
X1828800Y585978D02*
D03*
X1672590D02*
D03*
X1828800Y428498D02*
D03*
X1697990Y271018D02*
D03*
D99*
X2343150Y629848D02*
D03*
X2330450D02*
D03*
D100*
X2067416Y761492D02*
D03*
X2092816D02*
D03*
X2067416D02*
D03*
Y741172D02*
D03*
X2092816Y761492D02*
D03*
Y741172D02*
D03*
X2118216Y761492D02*
D03*
X2142346D02*
D03*
X2118216D02*
D03*
X2142346D02*
D03*
X2118216Y741172D02*
D03*
X2142346D02*
D03*
X2118216D02*
D03*
X2142346D02*
D03*
Y722122D02*
D03*
X2067416D02*
D03*
X2092816D02*
D03*
X2067416D02*
D03*
Y701802D02*
D03*
X2092816Y722122D02*
D03*
X2067416Y701802D02*
D03*
X2092816D02*
D03*
D03*
X2142346Y722122D02*
D03*
X2118216D02*
D03*
Y701802D02*
D03*
D03*
X2142346D02*
D03*
D03*
X1622806Y718710D02*
D03*
D03*
Y742840D02*
D03*
D03*
X1643126D02*
D03*
Y718710D02*
D03*
X1622806Y768240D02*
D03*
D03*
Y793640D02*
D03*
X1643126Y768240D02*
D03*
X1622806Y793640D02*
D03*
X1643126D02*
D03*
Y768240D02*
D03*
Y793640D02*
D03*
Y718710D02*
D03*
X1662176D02*
D03*
Y742840D02*
D03*
Y718710D02*
D03*
Y742840D02*
D03*
X1682496Y718710D02*
D03*
Y742840D02*
D03*
Y718710D02*
D03*
Y742840D02*
D03*
X1662176Y768240D02*
D03*
X1682496D02*
D03*
X1662176Y793640D02*
D03*
X1682496D02*
D03*
Y768240D02*
D03*
Y793640D02*
D03*
X1687830Y1136904D02*
D03*
Y1116584D02*
D03*
Y1136904D02*
D03*
Y1097534D02*
D03*
Y1116584D02*
D03*
X1662430Y1136904D02*
D03*
D03*
X1637030D02*
D03*
X1662430Y1116584D02*
D03*
D03*
X1687830Y1077214D02*
D03*
X1662430Y1097534D02*
D03*
X1687830Y1077214D02*
D03*
X1637030Y1097534D02*
D03*
X1662430Y1077214D02*
D03*
D03*
X1637030Y1136904D02*
D03*
Y1116584D02*
D03*
X1612900Y1136904D02*
D03*
X1637030Y1077214D02*
D03*
Y1097534D02*
D03*
X1612900Y1116584D02*
D03*
D03*
Y1136904D02*
D03*
Y1097534D02*
D03*
D03*
X1637030Y1077214D02*
D03*
X1612900D02*
D03*
D03*
X1932178Y1137158D02*
D03*
D03*
X1906778D02*
D03*
X1932178Y1116838D02*
D03*
D03*
X1906778D02*
D03*
D03*
Y1137158D02*
D03*
Y1097788D02*
D03*
X1881378D02*
D03*
X1932178Y1077468D02*
D03*
D03*
Y1097788D02*
D03*
X1906778Y1077468D02*
D03*
D03*
X1881378Y1137158D02*
D03*
D03*
X1857248D02*
D03*
X1881378Y1097788D02*
D03*
Y1116838D02*
D03*
X1857248D02*
D03*
D03*
Y1137158D02*
D03*
Y1097788D02*
D03*
D03*
X1881378Y1077468D02*
D03*
D03*
X1857248D02*
D03*
D03*
X2176018Y1137158D02*
D03*
Y1116838D02*
D03*
Y1137158D02*
D03*
Y1116838D02*
D03*
X2150618Y1097788D02*
D03*
Y1137158D02*
D03*
D03*
Y1116838D02*
D03*
D03*
X2176018Y1077468D02*
D03*
D03*
Y1097788D02*
D03*
X2150618Y1077468D02*
D03*
D03*
X2125218Y1137158D02*
D03*
Y1116838D02*
D03*
Y1137158D02*
D03*
Y1097788D02*
D03*
D03*
X2101088Y1137158D02*
D03*
D03*
Y1116838D02*
D03*
D03*
X2125218Y1077468D02*
D03*
D03*
X2101088Y1097788D02*
D03*
D03*
Y1077468D02*
D03*
D03*
X2297430Y787908D02*
D03*
X2288540Y516128D02*
D03*
X2418080Y1137158D02*
D03*
D03*
Y1116838D02*
D03*
X2392680Y1137158D02*
D03*
X2418080Y1116838D02*
D03*
Y1097788D02*
D03*
X2392680D02*
D03*
X2418080Y1077468D02*
D03*
D03*
X2392680D02*
D03*
X2367280Y1137158D02*
D03*
X2392680D02*
D03*
X2367280D02*
D03*
X2392680Y1116838D02*
D03*
D03*
X2367280D02*
D03*
X2343150Y1137158D02*
D03*
Y1116838D02*
D03*
Y1137158D02*
D03*
X2367280Y1097788D02*
D03*
D03*
X2343150Y1116838D02*
D03*
X2367280Y1077468D02*
D03*
X2392680D02*
D03*
X2367280D02*
D03*
X2343150Y1097788D02*
D03*
Y1077468D02*
D03*
Y1097788D02*
D03*
Y1077468D02*
D03*
M02*
