G04*
G04 #@! TF.GenerationSoftware,Altium Limited,Altium Designer,20.1.7 (139)*
G04*
G04 Layer_Color=10526880*
%FSLAX44Y44*%
%MOMM*%
G71*
G04*
G04 #@! TF.SameCoordinates,741834D1-4314-455D-B734-137E6C24AB52*
G04*
G04*
G04 #@! TF.FilePolarity,Positive*
G04*
G01*
G75*
%ADD10C,0.2500*%
%ADD12C,0.2540*%
%ADD14C,0.2032*%
%ADD15C,0.1270*%
%ADD17C,0.2000*%
%ADD18C,0.0508*%
G36*
X2423778Y612319D02*
X2420605D01*
X2421199Y615219D01*
X2424373D01*
X2423778Y612319D01*
D02*
G37*
G36*
X2308899D02*
X2305726D01*
X2306321Y615219D01*
X2309494D01*
X2308899Y612319D01*
D02*
G37*
G36*
X2498645Y610980D02*
X2498942Y610931D01*
X2499314Y610831D01*
X2499661Y610707D01*
X2500008Y610509D01*
X2500331Y610261D01*
X2500355Y610236D01*
X2500454Y610112D01*
X2500578Y609964D01*
X2500727Y609716D01*
X2500876Y609418D01*
X2501000Y609071D01*
X2501099Y608675D01*
X2501124Y608228D01*
Y608204D01*
Y608104D01*
X2501099Y607956D01*
X2501074Y607733D01*
X2501049Y607435D01*
X2501000Y607088D01*
X2500901Y606642D01*
X2500802Y606121D01*
X2499265Y598932D01*
X2496116D01*
X2497628Y606121D01*
Y606146D01*
X2497653Y606171D01*
X2497678Y606344D01*
X2497728Y606567D01*
X2497777Y606815D01*
X2497827Y607088D01*
X2497876Y607336D01*
X2497901Y607534D01*
X2497926Y607609D01*
Y607658D01*
Y607683D01*
Y607733D01*
X2497901Y607832D01*
Y607956D01*
X2497802Y608204D01*
X2497728Y608328D01*
X2497628Y608451D01*
X2497603Y608476D01*
X2497579Y608501D01*
X2497504Y608551D01*
X2497405Y608600D01*
X2497281Y608650D01*
X2497133Y608699D01*
X2496934Y608749D01*
X2496686D01*
X2496538Y608724D01*
X2496314Y608675D01*
X2496017Y608600D01*
X2495670Y608451D01*
X2495323Y608228D01*
X2495125Y608080D01*
X2494951Y607906D01*
X2494753Y607708D01*
X2494579Y607485D01*
X2494554Y607435D01*
X2494480Y607311D01*
X2494406Y607212D01*
X2494331Y607063D01*
X2494257Y606914D01*
X2494182Y606741D01*
X2494083Y606543D01*
X2494009Y606295D01*
X2493910Y606022D01*
X2493811Y605749D01*
X2493711Y605427D01*
X2493612Y605055D01*
X2493513Y604683D01*
X2493414Y604262D01*
X2492298Y598932D01*
X2489150D01*
X2490613Y606072D01*
Y606096D01*
X2490637Y606121D01*
X2490662Y606270D01*
X2490712Y606493D01*
X2490761Y606741D01*
X2490811Y607014D01*
X2490836Y607262D01*
X2490885Y607485D01*
Y607658D01*
Y607683D01*
Y607733D01*
X2490861Y607832D01*
X2490836Y607931D01*
X2490761Y608179D01*
X2490662Y608303D01*
X2490563Y608427D01*
X2490538Y608451D01*
X2490513Y608476D01*
X2490439Y608526D01*
X2490340Y608600D01*
X2490216Y608650D01*
X2490067Y608699D01*
X2489894Y608724D01*
X2489695Y608749D01*
X2489596D01*
X2489497Y608724D01*
X2489348Y608699D01*
X2489175Y608675D01*
X2489001Y608625D01*
X2488803Y608526D01*
X2488580Y608427D01*
X2488555Y608402D01*
X2488481Y608377D01*
X2488382Y608303D01*
X2488258Y608204D01*
X2488109Y608080D01*
X2487935Y607931D01*
X2487613Y607559D01*
X2487588Y607534D01*
X2487539Y607460D01*
X2487464Y607336D01*
X2487365Y607187D01*
X2487266Y606964D01*
X2487142Y606741D01*
X2487018Y606468D01*
X2486894Y606146D01*
Y606121D01*
X2486869Y606072D01*
X2486844Y605948D01*
X2486795Y605774D01*
X2486721Y605526D01*
X2486646Y605204D01*
X2486572Y604832D01*
X2486448Y604336D01*
X2485332Y598932D01*
X2482184D01*
X2484638Y610732D01*
X2487613D01*
X2487340Y609294D01*
X2487365Y609319D01*
X2487415Y609369D01*
X2487514Y609443D01*
X2487638Y609567D01*
X2487811Y609691D01*
X2488010Y609840D01*
X2488208Y610013D01*
X2488456Y610162D01*
X2489026Y610484D01*
X2489646Y610757D01*
X2489968Y610881D01*
X2490315Y610955D01*
X2490687Y611005D01*
X2491034Y611030D01*
X2491257D01*
X2491505Y611005D01*
X2491803Y610955D01*
X2492125Y610881D01*
X2492472Y610782D01*
X2492794Y610658D01*
X2493092Y610460D01*
X2493116Y610435D01*
X2493216Y610360D01*
X2493340Y610236D01*
X2493488Y610063D01*
X2493637Y609840D01*
X2493786Y609592D01*
X2493910Y609270D01*
X2494009Y608923D01*
X2494034Y608972D01*
X2494133Y609071D01*
X2494257Y609245D01*
X2494455Y609443D01*
X2494703Y609691D01*
X2495025Y609939D01*
X2495372Y610187D01*
X2495769Y610410D01*
X2495794D01*
X2495819Y610435D01*
X2495967Y610509D01*
X2496190Y610608D01*
X2496488Y610732D01*
X2496860Y610831D01*
X2497256Y610931D01*
X2497703Y611005D01*
X2498149Y611030D01*
X2498372D01*
X2498645Y610980D01*
D02*
G37*
G36*
X2290257D02*
X2290554Y610931D01*
X2290926Y610831D01*
X2291273Y610707D01*
X2291620Y610509D01*
X2291942Y610261D01*
X2291967Y610236D01*
X2292066Y610112D01*
X2292190Y609964D01*
X2292339Y609716D01*
X2292488Y609418D01*
X2292612Y609071D01*
X2292711Y608675D01*
X2292736Y608228D01*
Y608204D01*
Y608104D01*
X2292711Y607956D01*
X2292686Y607733D01*
X2292661Y607435D01*
X2292612Y607088D01*
X2292513Y606642D01*
X2292413Y606121D01*
X2290876Y598932D01*
X2287728D01*
X2289240Y606121D01*
Y606146D01*
X2289265Y606171D01*
X2289290Y606344D01*
X2289339Y606567D01*
X2289389Y606815D01*
X2289439Y607088D01*
X2289488Y607336D01*
X2289513Y607534D01*
X2289538Y607609D01*
Y607658D01*
Y607683D01*
Y607733D01*
X2289513Y607832D01*
Y607956D01*
X2289414Y608204D01*
X2289339Y608328D01*
X2289240Y608451D01*
X2289215Y608476D01*
X2289191Y608501D01*
X2289116Y608551D01*
X2289017Y608600D01*
X2288893Y608650D01*
X2288744Y608699D01*
X2288546Y608749D01*
X2288298D01*
X2288149Y608724D01*
X2287926Y608675D01*
X2287629Y608600D01*
X2287282Y608451D01*
X2286935Y608228D01*
X2286736Y608080D01*
X2286563Y607906D01*
X2286364Y607708D01*
X2286191Y607485D01*
X2286166Y607435D01*
X2286092Y607311D01*
X2286017Y607212D01*
X2285943Y607063D01*
X2285869Y606914D01*
X2285794Y606741D01*
X2285695Y606543D01*
X2285621Y606295D01*
X2285522Y606022D01*
X2285423Y605749D01*
X2285323Y605427D01*
X2285224Y605055D01*
X2285125Y604683D01*
X2285026Y604262D01*
X2283910Y598932D01*
X2280762D01*
X2282224Y606072D01*
Y606096D01*
X2282249Y606121D01*
X2282274Y606270D01*
X2282324Y606493D01*
X2282373Y606741D01*
X2282423Y607014D01*
X2282448Y607262D01*
X2282497Y607485D01*
Y607658D01*
Y607683D01*
Y607733D01*
X2282472Y607832D01*
X2282448Y607931D01*
X2282373Y608179D01*
X2282274Y608303D01*
X2282175Y608427D01*
X2282150Y608451D01*
X2282125Y608476D01*
X2282051Y608526D01*
X2281952Y608600D01*
X2281828Y608650D01*
X2281679Y608699D01*
X2281506Y608724D01*
X2281307Y608749D01*
X2281208D01*
X2281109Y608724D01*
X2280960Y608699D01*
X2280787Y608675D01*
X2280613Y608625D01*
X2280415Y608526D01*
X2280192Y608427D01*
X2280167Y608402D01*
X2280093Y608377D01*
X2279993Y608303D01*
X2279870Y608204D01*
X2279721Y608080D01*
X2279547Y607931D01*
X2279225Y607559D01*
X2279200Y607534D01*
X2279151Y607460D01*
X2279076Y607336D01*
X2278977Y607187D01*
X2278878Y606964D01*
X2278754Y606741D01*
X2278630Y606468D01*
X2278506Y606146D01*
Y606121D01*
X2278481Y606072D01*
X2278456Y605948D01*
X2278407Y605774D01*
X2278333Y605526D01*
X2278258Y605204D01*
X2278184Y604832D01*
X2278060Y604336D01*
X2276944Y598932D01*
X2273796D01*
X2276250Y610732D01*
X2279225D01*
X2278952Y609294D01*
X2278977Y609319D01*
X2279027Y609369D01*
X2279126Y609443D01*
X2279250Y609567D01*
X2279423Y609691D01*
X2279622Y609840D01*
X2279820Y610013D01*
X2280068Y610162D01*
X2280638Y610484D01*
X2281258Y610757D01*
X2281580Y610881D01*
X2281927Y610955D01*
X2282299Y611005D01*
X2282646Y611030D01*
X2282869D01*
X2283117Y611005D01*
X2283414Y610955D01*
X2283737Y610881D01*
X2284084Y610782D01*
X2284406Y610658D01*
X2284704Y610460D01*
X2284728Y610435D01*
X2284828Y610360D01*
X2284951Y610236D01*
X2285100Y610063D01*
X2285249Y609840D01*
X2285398Y609592D01*
X2285522Y609270D01*
X2285621Y608923D01*
X2285646Y608972D01*
X2285745Y609071D01*
X2285869Y609245D01*
X2286067Y609443D01*
X2286315Y609691D01*
X2286637Y609939D01*
X2286984Y610187D01*
X2287381Y610410D01*
X2287406D01*
X2287431Y610435D01*
X2287579Y610509D01*
X2287802Y610608D01*
X2288100Y610732D01*
X2288472Y610831D01*
X2288868Y610931D01*
X2289315Y611005D01*
X2289761Y611030D01*
X2289984D01*
X2290257Y610980D01*
D02*
G37*
G36*
X2352009Y611005D02*
X2352183Y610980D01*
X2352406Y610955D01*
X2352654Y610881D01*
X2352927Y610807D01*
X2353224Y610683D01*
X2352009Y608055D01*
X2351985D01*
X2351935Y608080D01*
X2351836Y608104D01*
X2351737Y608154D01*
X2351415Y608204D01*
X2351068Y608228D01*
X2350919D01*
X2350770Y608204D01*
X2350547Y608154D01*
X2350299Y608080D01*
X2350002Y607956D01*
X2349704Y607807D01*
X2349382Y607584D01*
X2349357Y607559D01*
X2349233Y607460D01*
X2349084Y607336D01*
X2348911Y607138D01*
X2348688Y606914D01*
X2348465Y606617D01*
X2348241Y606295D01*
X2348043Y605923D01*
X2348018Y605873D01*
X2347993Y605824D01*
X2347969Y605725D01*
X2347919Y605625D01*
X2347870Y605477D01*
X2347820Y605303D01*
X2347746Y605130D01*
X2347671Y604907D01*
X2347597Y604659D01*
X2347522Y604386D01*
X2347448Y604088D01*
X2347374Y603766D01*
X2347275Y603419D01*
X2347200Y603047D01*
X2347101Y602626D01*
X2346333Y598932D01*
X2343184D01*
X2345638Y610732D01*
X2348588D01*
X2348142Y608501D01*
X2348167Y608526D01*
X2348217Y608600D01*
X2348316Y608724D01*
X2348440Y608898D01*
X2348588Y609096D01*
X2348762Y609294D01*
X2348985Y609542D01*
X2349208Y609765D01*
X2349754Y610236D01*
X2350051Y610435D01*
X2350349Y610633D01*
X2350696Y610807D01*
X2351018Y610931D01*
X2351390Y611005D01*
X2351737Y611030D01*
X2351861D01*
X2352009Y611005D01*
D02*
G37*
G36*
X2302751D02*
X2302924Y610980D01*
X2303148Y610955D01*
X2303396Y610881D01*
X2303668Y610807D01*
X2303966Y610683D01*
X2302751Y608055D01*
X2302726D01*
X2302677Y608080D01*
X2302578Y608104D01*
X2302478Y608154D01*
X2302156Y608204D01*
X2301809Y608228D01*
X2301660D01*
X2301512Y608204D01*
X2301288Y608154D01*
X2301040Y608080D01*
X2300743Y607956D01*
X2300446Y607807D01*
X2300123Y607584D01*
X2300098Y607559D01*
X2299975Y607460D01*
X2299826Y607336D01*
X2299652Y607138D01*
X2299429Y606914D01*
X2299206Y606617D01*
X2298983Y606295D01*
X2298784Y605923D01*
X2298760Y605873D01*
X2298735Y605824D01*
X2298710Y605725D01*
X2298661Y605625D01*
X2298611Y605477D01*
X2298561Y605303D01*
X2298487Y605130D01*
X2298413Y604907D01*
X2298338Y604659D01*
X2298264Y604386D01*
X2298190Y604088D01*
X2298115Y603766D01*
X2298016Y603419D01*
X2297942Y603047D01*
X2297843Y602626D01*
X2297074Y598932D01*
X2293926D01*
X2296380Y610732D01*
X2299330D01*
X2298884Y608501D01*
X2298909Y608526D01*
X2298958Y608600D01*
X2299057Y608724D01*
X2299181Y608898D01*
X2299330Y609096D01*
X2299503Y609294D01*
X2299727Y609542D01*
X2299950Y609765D01*
X2300495Y610236D01*
X2300793Y610435D01*
X2301090Y610633D01*
X2301437Y610807D01*
X2301759Y610931D01*
X2302131Y611005D01*
X2302478Y611030D01*
X2302602D01*
X2302751Y611005D01*
D02*
G37*
G36*
X2444056D02*
X2444279Y610980D01*
X2444775Y610931D01*
X2445321Y610831D01*
X2445891Y610683D01*
X2446461Y610460D01*
X2446709Y610336D01*
X2446932Y610187D01*
X2446957D01*
X2446982Y610137D01*
X2447130Y610038D01*
X2447329Y609840D01*
X2447552Y609592D01*
X2447800Y609270D01*
X2448047Y608873D01*
X2448271Y608427D01*
X2448419Y607931D01*
X2445469Y607435D01*
Y607460D01*
X2445420Y607534D01*
X2445370Y607658D01*
X2445271Y607782D01*
X2445172Y607931D01*
X2445048Y608104D01*
X2444874Y608253D01*
X2444701Y608377D01*
X2444676Y608402D01*
X2444577Y608451D01*
X2444428Y608526D01*
X2444230Y608600D01*
X2443957Y608675D01*
X2443684Y608749D01*
X2443337Y608799D01*
X2442990Y608823D01*
X2442841D01*
X2442643Y608799D01*
X2442445Y608774D01*
X2441974Y608675D01*
X2441751Y608600D01*
X2441552Y608476D01*
X2441528Y608451D01*
X2441478Y608427D01*
X2441429Y608352D01*
X2441354Y608253D01*
X2441205Y608005D01*
X2441156Y607881D01*
X2441131Y607708D01*
Y607683D01*
Y607633D01*
X2441156Y607559D01*
X2441181Y607460D01*
X2441230Y607336D01*
X2441304Y607212D01*
X2441404Y607088D01*
X2441552Y606964D01*
X2441577D01*
X2441627Y606939D01*
X2441726Y606890D01*
X2441900Y606815D01*
X2442123Y606741D01*
X2442445Y606642D01*
X2442643Y606567D01*
X2442841Y606493D01*
X2443089Y606419D01*
X2443362Y606344D01*
X2443387D01*
X2443461Y606320D01*
X2443585Y606270D01*
X2443734Y606220D01*
X2443932Y606171D01*
X2444131Y606096D01*
X2444626Y605923D01*
X2445147Y605725D01*
X2445668Y605502D01*
X2446114Y605254D01*
X2446312Y605130D01*
X2446486Y605006D01*
X2446510D01*
X2446535Y604956D01*
X2446659Y604832D01*
X2446833Y604659D01*
X2447056Y604386D01*
X2447254Y604064D01*
X2447428Y603667D01*
X2447552Y603246D01*
X2447601Y603022D01*
Y602775D01*
Y602750D01*
Y602700D01*
Y602601D01*
X2447576Y602502D01*
X2447552Y602353D01*
X2447527Y602179D01*
X2447428Y601783D01*
X2447254Y601312D01*
X2447155Y601089D01*
X2447006Y600841D01*
X2446833Y600568D01*
X2446659Y600320D01*
X2446436Y600097D01*
X2446188Y599849D01*
X2446163Y599824D01*
X2446114Y599800D01*
X2446039Y599750D01*
X2445940Y599651D01*
X2445792Y599577D01*
X2445618Y599477D01*
X2445395Y599353D01*
X2445172Y599254D01*
X2444899Y599130D01*
X2444602Y599031D01*
X2444255Y598907D01*
X2443907Y598833D01*
X2443536Y598759D01*
X2443114Y598684D01*
X2442668Y598659D01*
X2442197Y598634D01*
X2441949D01*
X2441776Y598659D01*
X2441552D01*
X2441304Y598684D01*
X2441032Y598709D01*
X2440759Y598759D01*
X2440115Y598858D01*
X2439470Y599031D01*
X2438826Y599254D01*
X2438528Y599403D01*
X2438255Y599552D01*
X2438230D01*
X2438206Y599601D01*
X2438131Y599651D01*
X2438032Y599725D01*
X2437784Y599948D01*
X2437512Y600246D01*
X2437189Y600618D01*
X2436867Y601064D01*
X2436594Y601609D01*
X2436371Y602204D01*
X2439445Y602700D01*
X2439470Y602651D01*
X2439520Y602551D01*
X2439594Y602378D01*
X2439718Y602155D01*
X2439867Y601932D01*
X2440040Y601708D01*
X2440239Y601485D01*
X2440462Y601312D01*
X2440486Y601287D01*
X2440586Y601262D01*
X2440710Y601188D01*
X2440908Y601114D01*
X2441131Y601039D01*
X2441429Y600990D01*
X2441751Y600940D01*
X2442123Y600915D01*
X2442296D01*
X2442519Y600940D01*
X2442767Y600965D01*
X2443040Y601039D01*
X2443337Y601114D01*
X2443635Y601237D01*
X2443883Y601386D01*
X2443907Y601411D01*
X2443957Y601461D01*
X2444032Y601510D01*
X2444131Y601609D01*
X2444279Y601882D01*
X2444329Y602031D01*
X2444354Y602204D01*
Y602229D01*
Y602254D01*
X2444329Y602403D01*
X2444255Y602601D01*
X2444106Y602799D01*
X2444056Y602849D01*
X2443982Y602898D01*
X2443858Y602973D01*
X2443684Y603047D01*
X2443436Y603146D01*
X2443164Y603270D01*
X2442792Y603394D01*
X2442767D01*
X2442668Y603444D01*
X2442519Y603493D01*
X2442321Y603543D01*
X2442098Y603642D01*
X2441850Y603741D01*
X2441255Y603940D01*
X2440635Y604188D01*
X2440065Y604436D01*
X2439792Y604559D01*
X2439544Y604683D01*
X2439346Y604807D01*
X2439197Y604907D01*
X2439148Y604956D01*
X2439024Y605055D01*
X2438850Y605254D01*
X2438677Y605526D01*
X2438478Y605849D01*
X2438305Y606245D01*
X2438181Y606691D01*
X2438156Y606939D01*
X2438131Y607187D01*
Y607212D01*
Y607262D01*
Y607311D01*
X2438156Y607410D01*
X2438181Y607683D01*
X2438255Y608005D01*
X2438379Y608377D01*
X2438578Y608799D01*
X2438826Y609195D01*
X2439173Y609592D01*
X2439197Y609617D01*
X2439247Y609666D01*
X2439321Y609716D01*
X2439445Y609815D01*
X2439594Y609914D01*
X2439792Y610038D01*
X2439991Y610187D01*
X2440263Y610311D01*
X2440536Y610435D01*
X2440858Y610583D01*
X2441205Y610707D01*
X2441602Y610807D01*
X2442023Y610906D01*
X2442470Y610980D01*
X2442966Y611005D01*
X2443486Y611030D01*
X2443858D01*
X2444056Y611005D01*
D02*
G37*
G36*
X2316534D02*
X2316758Y610980D01*
X2317253Y610931D01*
X2317799Y610831D01*
X2318369Y610683D01*
X2318939Y610460D01*
X2319187Y610336D01*
X2319410Y610187D01*
X2319435D01*
X2319460Y610137D01*
X2319608Y610038D01*
X2319807Y609840D01*
X2320030Y609592D01*
X2320278Y609270D01*
X2320526Y608873D01*
X2320749Y608427D01*
X2320898Y607931D01*
X2317948Y607435D01*
Y607460D01*
X2317898Y607534D01*
X2317848Y607658D01*
X2317749Y607782D01*
X2317650Y607931D01*
X2317526Y608104D01*
X2317352Y608253D01*
X2317179Y608377D01*
X2317154Y608402D01*
X2317055Y608451D01*
X2316906Y608526D01*
X2316708Y608600D01*
X2316435Y608675D01*
X2316163Y608749D01*
X2315815Y608799D01*
X2315468Y608823D01*
X2315320D01*
X2315121Y608799D01*
X2314923Y608774D01*
X2314452Y608675D01*
X2314229Y608600D01*
X2314031Y608476D01*
X2314006Y608451D01*
X2313956Y608427D01*
X2313907Y608352D01*
X2313832Y608253D01*
X2313684Y608005D01*
X2313634Y607881D01*
X2313609Y607708D01*
Y607683D01*
Y607633D01*
X2313634Y607559D01*
X2313659Y607460D01*
X2313708Y607336D01*
X2313783Y607212D01*
X2313882Y607088D01*
X2314031Y606964D01*
X2314055D01*
X2314105Y606939D01*
X2314204Y606890D01*
X2314378Y606815D01*
X2314601Y606741D01*
X2314923Y606642D01*
X2315121Y606567D01*
X2315320Y606493D01*
X2315568Y606419D01*
X2315840Y606344D01*
X2315865D01*
X2315939Y606320D01*
X2316063Y606270D01*
X2316212Y606220D01*
X2316411Y606171D01*
X2316609Y606096D01*
X2317105Y605923D01*
X2317625Y605725D01*
X2318146Y605502D01*
X2318592Y605254D01*
X2318790Y605130D01*
X2318964Y605006D01*
X2318989D01*
X2319014Y604956D01*
X2319137Y604832D01*
X2319311Y604659D01*
X2319534Y604386D01*
X2319732Y604064D01*
X2319906Y603667D01*
X2320030Y603246D01*
X2320079Y603022D01*
Y602775D01*
Y602750D01*
Y602700D01*
Y602601D01*
X2320055Y602502D01*
X2320030Y602353D01*
X2320005Y602179D01*
X2319906Y601783D01*
X2319732Y601312D01*
X2319633Y601089D01*
X2319485Y600841D01*
X2319311Y600568D01*
X2319137Y600320D01*
X2318914Y600097D01*
X2318666Y599849D01*
X2318642Y599824D01*
X2318592Y599800D01*
X2318518Y599750D01*
X2318418Y599651D01*
X2318270Y599577D01*
X2318096Y599477D01*
X2317873Y599353D01*
X2317650Y599254D01*
X2317377Y599130D01*
X2317080Y599031D01*
X2316733Y598907D01*
X2316386Y598833D01*
X2316014Y598759D01*
X2315592Y598684D01*
X2315146Y598659D01*
X2314675Y598634D01*
X2314427D01*
X2314254Y598659D01*
X2314031D01*
X2313783Y598684D01*
X2313510Y598709D01*
X2313237Y598759D01*
X2312593Y598858D01*
X2311948Y599031D01*
X2311304Y599254D01*
X2311006Y599403D01*
X2310733Y599552D01*
X2310709D01*
X2310684Y599601D01*
X2310610Y599651D01*
X2310510Y599725D01*
X2310262Y599948D01*
X2309990Y600246D01*
X2309668Y600618D01*
X2309345Y601064D01*
X2309073Y601609D01*
X2308849Y602204D01*
X2311923Y602700D01*
X2311948Y602651D01*
X2311998Y602551D01*
X2312072Y602378D01*
X2312196Y602155D01*
X2312345Y601932D01*
X2312518Y601708D01*
X2312717Y601485D01*
X2312940Y601312D01*
X2312965Y601287D01*
X2313064Y601262D01*
X2313188Y601188D01*
X2313386Y601114D01*
X2313609Y601039D01*
X2313907Y600990D01*
X2314229Y600940D01*
X2314601Y600915D01*
X2314774D01*
X2314998Y600940D01*
X2315245Y600965D01*
X2315518Y601039D01*
X2315815Y601114D01*
X2316113Y601237D01*
X2316361Y601386D01*
X2316386Y601411D01*
X2316435Y601461D01*
X2316510Y601510D01*
X2316609Y601609D01*
X2316758Y601882D01*
X2316807Y602031D01*
X2316832Y602204D01*
Y602229D01*
Y602254D01*
X2316807Y602403D01*
X2316733Y602601D01*
X2316584Y602799D01*
X2316534Y602849D01*
X2316460Y602898D01*
X2316336Y602973D01*
X2316163Y603047D01*
X2315915Y603146D01*
X2315642Y603270D01*
X2315270Y603394D01*
X2315245D01*
X2315146Y603444D01*
X2314998Y603493D01*
X2314799Y603543D01*
X2314576Y603642D01*
X2314328Y603741D01*
X2313733Y603940D01*
X2313113Y604188D01*
X2312543Y604436D01*
X2312271Y604559D01*
X2312023Y604683D01*
X2311824Y604807D01*
X2311676Y604907D01*
X2311626Y604956D01*
X2311502Y605055D01*
X2311328Y605254D01*
X2311155Y605526D01*
X2310957Y605849D01*
X2310783Y606245D01*
X2310659Y606691D01*
X2310634Y606939D01*
X2310610Y607187D01*
Y607212D01*
Y607262D01*
Y607311D01*
X2310634Y607410D01*
X2310659Y607683D01*
X2310733Y608005D01*
X2310858Y608377D01*
X2311056Y608799D01*
X2311304Y609195D01*
X2311651Y609592D01*
X2311676Y609617D01*
X2311725Y609666D01*
X2311799Y609716D01*
X2311923Y609815D01*
X2312072Y609914D01*
X2312271Y610038D01*
X2312469Y610187D01*
X2312742Y610311D01*
X2313014Y610435D01*
X2313336Y610583D01*
X2313684Y610707D01*
X2314080Y610807D01*
X2314502Y610906D01*
X2314948Y610980D01*
X2315444Y611005D01*
X2315964Y611030D01*
X2316336D01*
X2316534Y611005D01*
D02*
G37*
G36*
X2463294D02*
X2463467D01*
X2463665Y610980D01*
X2464137Y610881D01*
X2464682Y610757D01*
X2465227Y610559D01*
X2465773Y610286D01*
X2466021Y610112D01*
X2466268Y609914D01*
X2466293D01*
X2466318Y609865D01*
X2466467Y609716D01*
X2466665Y609468D01*
X2466913Y609146D01*
X2467161Y608749D01*
X2467384Y608253D01*
X2467582Y607683D01*
X2467632Y607385D01*
X2467681Y607063D01*
X2464657Y606741D01*
Y606791D01*
X2464632Y606914D01*
X2464583Y607088D01*
X2464533Y607286D01*
X2464459Y607534D01*
X2464335Y607782D01*
X2464211Y608005D01*
X2464037Y608204D01*
X2464012Y608228D01*
X2463938Y608278D01*
X2463839Y608352D01*
X2463690Y608451D01*
X2463517Y608526D01*
X2463294Y608600D01*
X2463021Y608650D01*
X2462748Y608675D01*
X2462599D01*
X2462426Y608650D01*
X2462178Y608600D01*
X2461930Y608501D01*
X2461633Y608377D01*
X2461335Y608204D01*
X2461013Y607980D01*
X2460988Y607956D01*
X2460889Y607856D01*
X2460740Y607683D01*
X2460567Y607460D01*
X2460368Y607162D01*
X2460170Y606815D01*
X2459972Y606394D01*
X2459798Y605898D01*
Y605873D01*
X2459773Y605849D01*
X2459749Y605774D01*
X2459724Y605675D01*
X2459674Y605402D01*
X2459600Y605055D01*
X2459501Y604659D01*
X2459451Y604237D01*
X2459402Y603766D01*
X2459377Y603320D01*
Y603270D01*
Y603146D01*
X2459402Y602948D01*
X2459451Y602725D01*
X2459501Y602452D01*
X2459575Y602179D01*
X2459699Y601907D01*
X2459873Y601684D01*
X2459897Y601659D01*
X2459972Y601609D01*
X2460071Y601510D01*
X2460220Y601411D01*
X2460418Y601312D01*
X2460616Y601213D01*
X2460864Y601163D01*
X2461137Y601138D01*
X2461261D01*
X2461410Y601163D01*
X2461608Y601213D01*
X2461831Y601262D01*
X2462079Y601362D01*
X2462327Y601510D01*
X2462599Y601684D01*
X2462624Y601708D01*
X2462723Y601783D01*
X2462847Y601932D01*
X2463021Y602105D01*
X2463194Y602353D01*
X2463393Y602626D01*
X2463566Y602973D01*
X2463740Y603369D01*
X2466839Y602849D01*
Y602824D01*
X2466814Y602750D01*
X2466764Y602651D01*
X2466690Y602502D01*
X2466615Y602328D01*
X2466516Y602130D01*
X2466268Y601684D01*
X2465946Y601188D01*
X2465550Y600643D01*
X2465078Y600147D01*
X2464558Y599701D01*
X2464533D01*
X2464484Y599651D01*
X2464409Y599601D01*
X2464285Y599527D01*
X2464161Y599453D01*
X2463988Y599353D01*
X2463789Y599279D01*
X2463566Y599180D01*
X2463046Y598982D01*
X2462475Y598808D01*
X2461806Y598684D01*
X2461459Y598659D01*
X2461087Y598634D01*
X2460864D01*
X2460715Y598659D01*
X2460517Y598684D01*
X2460294Y598709D01*
X2459798Y598808D01*
X2459228Y598957D01*
X2458633Y599205D01*
X2458336Y599353D01*
X2458038Y599527D01*
X2457765Y599750D01*
X2457518Y599973D01*
X2457493Y599998D01*
X2457468Y600048D01*
X2457393Y600122D01*
X2457319Y600221D01*
X2457220Y600345D01*
X2457096Y600519D01*
X2456972Y600717D01*
X2456873Y600940D01*
X2456749Y601188D01*
X2456625Y601461D01*
X2456501Y601783D01*
X2456402Y602105D01*
X2456328Y602477D01*
X2456253Y602849D01*
X2456228Y603270D01*
X2456204Y603692D01*
Y603717D01*
Y603766D01*
Y603890D01*
X2456228Y604014D01*
Y604188D01*
X2456253Y604386D01*
X2456278Y604609D01*
X2456303Y604857D01*
X2456402Y605427D01*
X2456551Y606022D01*
X2456724Y606667D01*
X2456997Y607311D01*
Y607336D01*
X2457046Y607385D01*
X2457071Y607485D01*
X2457146Y607609D01*
X2457220Y607733D01*
X2457344Y607906D01*
X2457592Y608303D01*
X2457939Y608749D01*
X2458336Y609195D01*
X2458831Y609641D01*
X2459402Y610038D01*
X2459426D01*
X2459476Y610088D01*
X2459575Y610137D01*
X2459674Y610187D01*
X2459823Y610261D01*
X2460021Y610360D01*
X2460220Y610435D01*
X2460443Y610534D01*
X2460988Y610707D01*
X2461583Y610881D01*
X2462228Y610980D01*
X2462947Y611030D01*
X2463145D01*
X2463294Y611005D01*
D02*
G37*
G36*
X2431686D02*
X2431859D01*
X2432058Y610980D01*
X2432529Y610881D01*
X2433074Y610757D01*
X2433620Y610559D01*
X2434165Y610286D01*
X2434413Y610112D01*
X2434661Y609914D01*
X2434686D01*
X2434710Y609865D01*
X2434859Y609716D01*
X2435057Y609468D01*
X2435305Y609146D01*
X2435553Y608749D01*
X2435776Y608253D01*
X2435975Y607683D01*
X2436024Y607385D01*
X2436074Y607063D01*
X2433049Y606741D01*
Y606791D01*
X2433024Y606914D01*
X2432975Y607088D01*
X2432925Y607286D01*
X2432851Y607534D01*
X2432727Y607782D01*
X2432603Y608005D01*
X2432430Y608204D01*
X2432405Y608228D01*
X2432330Y608278D01*
X2432231Y608352D01*
X2432083Y608451D01*
X2431909Y608526D01*
X2431686Y608600D01*
X2431413Y608650D01*
X2431140Y608675D01*
X2430992D01*
X2430818Y608650D01*
X2430570Y608600D01*
X2430322Y608501D01*
X2430025Y608377D01*
X2429727Y608204D01*
X2429405Y607980D01*
X2429380Y607956D01*
X2429281Y607856D01*
X2429133Y607683D01*
X2428959Y607460D01*
X2428761Y607162D01*
X2428562Y606815D01*
X2428364Y606394D01*
X2428190Y605898D01*
Y605873D01*
X2428166Y605849D01*
X2428141Y605774D01*
X2428116Y605675D01*
X2428067Y605402D01*
X2427992Y605055D01*
X2427893Y604659D01*
X2427843Y604237D01*
X2427794Y603766D01*
X2427769Y603320D01*
Y603270D01*
Y603146D01*
X2427794Y602948D01*
X2427843Y602725D01*
X2427893Y602452D01*
X2427967Y602179D01*
X2428091Y601907D01*
X2428265Y601684D01*
X2428290Y601659D01*
X2428364Y601609D01*
X2428463Y601510D01*
X2428612Y601411D01*
X2428810Y601312D01*
X2429008Y601213D01*
X2429256Y601163D01*
X2429529Y601138D01*
X2429653D01*
X2429802Y601163D01*
X2430000Y601213D01*
X2430223Y601262D01*
X2430471Y601362D01*
X2430719Y601510D01*
X2430992Y601684D01*
X2431017Y601708D01*
X2431116Y601783D01*
X2431240Y601932D01*
X2431413Y602105D01*
X2431587Y602353D01*
X2431785Y602626D01*
X2431959Y602973D01*
X2432132Y603369D01*
X2435231Y602849D01*
Y602824D01*
X2435206Y602750D01*
X2435157Y602651D01*
X2435082Y602502D01*
X2435008Y602328D01*
X2434909Y602130D01*
X2434661Y601684D01*
X2434338Y601188D01*
X2433942Y600643D01*
X2433471Y600147D01*
X2432950Y599701D01*
X2432925D01*
X2432876Y599651D01*
X2432801Y599601D01*
X2432677Y599527D01*
X2432554Y599453D01*
X2432380Y599353D01*
X2432182Y599279D01*
X2431959Y599180D01*
X2431438Y598982D01*
X2430868Y598808D01*
X2430198Y598684D01*
X2429851Y598659D01*
X2429480Y598634D01*
X2429256D01*
X2429108Y598659D01*
X2428909Y598684D01*
X2428686Y598709D01*
X2428190Y598808D01*
X2427620Y598957D01*
X2427025Y599205D01*
X2426728Y599353D01*
X2426430Y599527D01*
X2426158Y599750D01*
X2425910Y599973D01*
X2425885Y599998D01*
X2425860Y600048D01*
X2425786Y600122D01*
X2425711Y600221D01*
X2425612Y600345D01*
X2425488Y600519D01*
X2425364Y600717D01*
X2425265Y600940D01*
X2425141Y601188D01*
X2425017Y601461D01*
X2424893Y601783D01*
X2424794Y602105D01*
X2424720Y602477D01*
X2424645Y602849D01*
X2424621Y603270D01*
X2424596Y603692D01*
Y603717D01*
Y603766D01*
Y603890D01*
X2424621Y604014D01*
Y604188D01*
X2424645Y604386D01*
X2424670Y604609D01*
X2424695Y604857D01*
X2424794Y605427D01*
X2424943Y606022D01*
X2425116Y606667D01*
X2425389Y607311D01*
Y607336D01*
X2425439Y607385D01*
X2425464Y607485D01*
X2425538Y607609D01*
X2425612Y607733D01*
X2425736Y607906D01*
X2425984Y608303D01*
X2426331Y608749D01*
X2426728Y609195D01*
X2427224Y609641D01*
X2427794Y610038D01*
X2427819D01*
X2427868Y610088D01*
X2427967Y610137D01*
X2428067Y610187D01*
X2428215Y610261D01*
X2428414Y610360D01*
X2428612Y610435D01*
X2428835Y610534D01*
X2429380Y610707D01*
X2429975Y610881D01*
X2430620Y610980D01*
X2431339Y611030D01*
X2431537D01*
X2431686Y611005D01*
D02*
G37*
G36*
X2257930Y598932D02*
X2254906D01*
X2257707Y612418D01*
X2251683Y598932D01*
X2248510D01*
X2247915Y612517D01*
X2245336Y598932D01*
X2242312D01*
X2245708Y615219D01*
X2250468D01*
X2250989Y604039D01*
X2256071Y615219D01*
X2260880D01*
X2257930Y598932D01*
D02*
G37*
G36*
X2452683D02*
X2449535D01*
X2450155Y602006D01*
X2453303D01*
X2452683Y598932D01*
D02*
G37*
G36*
X2420976D02*
X2417828D01*
X2420282Y610732D01*
X2423431D01*
X2420976Y598932D01*
D02*
G37*
G36*
X2363537Y615195D02*
X2363958Y615170D01*
X2364429Y615120D01*
X2364901Y615046D01*
X2365372Y614947D01*
X2365793Y614823D01*
X2365843Y614798D01*
X2365966Y614748D01*
X2366165Y614649D01*
X2366388Y614500D01*
X2366661Y614327D01*
X2366933Y614079D01*
X2367231Y613781D01*
X2367479Y613410D01*
X2367504Y613360D01*
X2367578Y613236D01*
X2367677Y613013D01*
X2367801Y612715D01*
X2367925Y612368D01*
X2368024Y611947D01*
X2368098Y611451D01*
X2368123Y610931D01*
Y610906D01*
Y610831D01*
Y610732D01*
X2368098Y610583D01*
Y610410D01*
X2368049Y610212D01*
X2367975Y609741D01*
X2367826Y609195D01*
X2367603Y608625D01*
X2367454Y608328D01*
X2367305Y608055D01*
X2367107Y607782D01*
X2366884Y607509D01*
X2366859Y607485D01*
X2366834Y607460D01*
X2366760Y607385D01*
X2366661Y607286D01*
X2366512Y607187D01*
X2366363Y607063D01*
X2366165Y606939D01*
X2365942Y606791D01*
X2365694Y606667D01*
X2365421Y606518D01*
X2365099Y606369D01*
X2364777Y606245D01*
X2364405Y606121D01*
X2364008Y606022D01*
X2363587Y605923D01*
X2363116Y605849D01*
X2363140Y605824D01*
X2363215Y605749D01*
X2363339Y605601D01*
X2363512Y605427D01*
X2363686Y605204D01*
X2363909Y604956D01*
X2364107Y604659D01*
X2364330Y604311D01*
X2364355Y604287D01*
X2364380Y604212D01*
X2364454Y604113D01*
X2364529Y603965D01*
X2364628Y603766D01*
X2364752Y603518D01*
X2364901Y603246D01*
X2365074Y602923D01*
X2365248Y602551D01*
X2365421Y602155D01*
X2365644Y601708D01*
X2365867Y601237D01*
X2366091Y600717D01*
X2366338Y600172D01*
X2366586Y599577D01*
X2366834Y598932D01*
X2363240D01*
Y598957D01*
X2363215Y599006D01*
X2363190Y599081D01*
X2363140Y599180D01*
X2363091Y599329D01*
X2363041Y599527D01*
X2362942Y599725D01*
X2362868Y599973D01*
X2362744Y600271D01*
X2362620Y600568D01*
X2362496Y600940D01*
X2362322Y601312D01*
X2362149Y601733D01*
X2361975Y602204D01*
X2361752Y602700D01*
X2361529Y603221D01*
Y603246D01*
X2361504Y603295D01*
X2361455Y603369D01*
X2361405Y603469D01*
X2361281Y603741D01*
X2361083Y604088D01*
X2360860Y604436D01*
X2360612Y604782D01*
X2360339Y605105D01*
X2360066Y605353D01*
X2360042Y605378D01*
X2359967Y605402D01*
X2359843Y605452D01*
X2359670Y605526D01*
X2359447Y605576D01*
X2359149Y605625D01*
X2358802Y605650D01*
X2358381Y605675D01*
X2357017D01*
X2355604Y598932D01*
X2352282D01*
X2355654Y615219D01*
X2363363D01*
X2363537Y615195D01*
D02*
G37*
G36*
X2306098Y598932D02*
X2302949D01*
X2305404Y610732D01*
X2308552D01*
X2306098Y598932D01*
D02*
G37*
G36*
X2475986Y611005D02*
X2476185Y610980D01*
X2476457Y610955D01*
X2476730Y610906D01*
X2477027Y610856D01*
X2477697Y610683D01*
X2478044Y610559D01*
X2478366Y610410D01*
X2478713Y610236D01*
X2479035Y610063D01*
X2479333Y609815D01*
X2479630Y609567D01*
X2479655Y609542D01*
X2479705Y609493D01*
X2479754Y609418D01*
X2479854Y609294D01*
X2479978Y609170D01*
X2480101Y608997D01*
X2480226Y608774D01*
X2480374Y608551D01*
X2480498Y608278D01*
X2480622Y607980D01*
X2480746Y607683D01*
X2480870Y607336D01*
X2480969Y606964D01*
X2481019Y606567D01*
X2481068Y606146D01*
X2481093Y605700D01*
Y605675D01*
Y605576D01*
Y605427D01*
X2481068Y605229D01*
X2481044Y604981D01*
X2480994Y604683D01*
X2480944Y604361D01*
X2480870Y603989D01*
X2480771Y603617D01*
X2480647Y603221D01*
X2480498Y602799D01*
X2480325Y602378D01*
X2480101Y601956D01*
X2479854Y601535D01*
X2479581Y601114D01*
X2479259Y600717D01*
X2479234Y600692D01*
X2479184Y600618D01*
X2479060Y600519D01*
X2478936Y600395D01*
X2478738Y600246D01*
X2478515Y600048D01*
X2478267Y599874D01*
X2477970Y599676D01*
X2477623Y599477D01*
X2477251Y599304D01*
X2476854Y599130D01*
X2476408Y598957D01*
X2475937Y598833D01*
X2475441Y598734D01*
X2474920Y598659D01*
X2474350Y598634D01*
X2474077D01*
X2473929Y598659D01*
X2473755D01*
X2473358Y598709D01*
X2472912Y598783D01*
X2472417Y598907D01*
X2471896Y599056D01*
X2471400Y599279D01*
X2471375D01*
X2471351Y599304D01*
X2471202Y599403D01*
X2470954Y599552D01*
X2470681Y599775D01*
X2470359Y600023D01*
X2470061Y600345D01*
X2469764Y600742D01*
X2469491Y601163D01*
Y601188D01*
X2469466Y601213D01*
X2469442Y601287D01*
X2469392Y601386D01*
X2469293Y601634D01*
X2469194Y601956D01*
X2469070Y602353D01*
X2468971Y602799D01*
X2468896Y603295D01*
X2468871Y603816D01*
Y603865D01*
Y603965D01*
X2468896Y604138D01*
Y604361D01*
X2468921Y604634D01*
X2468971Y604956D01*
X2469020Y605328D01*
X2469095Y605700D01*
X2469194Y606121D01*
X2469318Y606543D01*
X2469466Y606989D01*
X2469640Y607435D01*
X2469863Y607856D01*
X2470111Y608278D01*
X2470384Y608699D01*
X2470706Y609071D01*
X2470731Y609096D01*
X2470780Y609146D01*
X2470904Y609245D01*
X2471028Y609369D01*
X2471227Y609518D01*
X2471450Y609691D01*
X2471698Y609865D01*
X2471995Y610063D01*
X2472317Y610236D01*
X2472689Y610410D01*
X2473086Y610583D01*
X2473532Y610732D01*
X2473978Y610856D01*
X2474474Y610955D01*
X2474995Y611005D01*
X2475540Y611030D01*
X2475788D01*
X2475986Y611005D01*
D02*
G37*
G36*
X2416266Y610732D02*
X2418225D01*
X2417729Y608377D01*
X2415795D01*
X2414754Y603394D01*
Y603369D01*
Y603345D01*
X2414704Y603171D01*
X2414655Y602948D01*
X2414605Y602700D01*
X2414556Y602427D01*
X2414506Y602179D01*
X2414481Y601981D01*
X2414456Y601907D01*
Y601857D01*
Y601833D01*
Y601808D01*
X2414481Y601634D01*
X2414556Y601461D01*
X2414680Y601262D01*
X2414704D01*
X2414729Y601237D01*
X2414804Y601213D01*
X2414878Y601163D01*
X2415002Y601138D01*
X2415151Y601089D01*
X2415324Y601064D01*
X2415647D01*
X2415746Y601089D01*
X2415894D01*
X2416093Y601114D01*
X2416316Y601138D01*
X2416613Y601163D01*
X2416118Y598808D01*
X2416093D01*
X2415969Y598783D01*
X2415795Y598759D01*
X2415597Y598734D01*
X2415324Y598684D01*
X2415052Y598659D01*
X2414407Y598634D01*
X2414134D01*
X2413837Y598659D01*
X2413465Y598709D01*
X2413068Y598783D01*
X2412672Y598907D01*
X2412275Y599056D01*
X2411953Y599279D01*
X2411928Y599304D01*
X2411829Y599403D01*
X2411730Y599552D01*
X2411581Y599750D01*
X2411457Y599998D01*
X2411333Y600320D01*
X2411234Y600667D01*
X2411209Y601089D01*
Y601114D01*
Y601213D01*
X2411234Y601362D01*
X2411259Y601609D01*
X2411283Y601758D01*
X2411308Y601932D01*
X2411358Y602155D01*
X2411382Y602378D01*
X2411432Y602626D01*
X2411482Y602923D01*
X2411556Y603246D01*
X2411630Y603593D01*
X2412647Y608377D01*
X2411060D01*
X2411556Y610732D01*
X2413118D01*
X2413490Y612592D01*
X2417109Y614798D01*
X2416266Y610732D01*
D02*
G37*
G36*
X2403970Y611005D02*
X2404169Y610980D01*
X2404441Y610955D01*
X2404714Y610906D01*
X2405011Y610856D01*
X2405681Y610683D01*
X2406028Y610559D01*
X2406350Y610410D01*
X2406697Y610236D01*
X2407019Y610063D01*
X2407317Y609815D01*
X2407614Y609567D01*
X2407639Y609542D01*
X2407689Y609493D01*
X2407738Y609418D01*
X2407838Y609294D01*
X2407961Y609170D01*
X2408085Y608997D01*
X2408209Y608774D01*
X2408358Y608551D01*
X2408482Y608278D01*
X2408606Y607980D01*
X2408730Y607683D01*
X2408854Y607336D01*
X2408953Y606964D01*
X2409003Y606567D01*
X2409052Y606146D01*
X2409077Y605700D01*
Y605675D01*
Y605576D01*
Y605427D01*
X2409052Y605229D01*
X2409027Y604981D01*
X2408978Y604683D01*
X2408928Y604361D01*
X2408854Y603989D01*
X2408755Y603617D01*
X2408631Y603221D01*
X2408482Y602799D01*
X2408309Y602378D01*
X2408085Y601956D01*
X2407838Y601535D01*
X2407565Y601114D01*
X2407242Y600717D01*
X2407218Y600692D01*
X2407168Y600618D01*
X2407044Y600519D01*
X2406920Y600395D01*
X2406722Y600246D01*
X2406499Y600048D01*
X2406251Y599874D01*
X2405953Y599676D01*
X2405606Y599477D01*
X2405235Y599304D01*
X2404838Y599130D01*
X2404392Y598957D01*
X2403921Y598833D01*
X2403425Y598734D01*
X2402904Y598659D01*
X2402334Y598634D01*
X2402061D01*
X2401913Y598659D01*
X2401739D01*
X2401342Y598709D01*
X2400896Y598783D01*
X2400400Y598907D01*
X2399880Y599056D01*
X2399384Y599279D01*
X2399359D01*
X2399334Y599304D01*
X2399186Y599403D01*
X2398938Y599552D01*
X2398665Y599775D01*
X2398343Y600023D01*
X2398045Y600345D01*
X2397748Y600742D01*
X2397475Y601163D01*
Y601188D01*
X2397450Y601213D01*
X2397426Y601287D01*
X2397376Y601386D01*
X2397277Y601634D01*
X2397178Y601956D01*
X2397054Y602353D01*
X2396954Y602799D01*
X2396880Y603295D01*
X2396855Y603816D01*
Y603865D01*
Y603965D01*
X2396880Y604138D01*
Y604361D01*
X2396905Y604634D01*
X2396954Y604956D01*
X2397004Y605328D01*
X2397079Y605700D01*
X2397178Y606121D01*
X2397302Y606543D01*
X2397450Y606989D01*
X2397624Y607435D01*
X2397847Y607856D01*
X2398095Y608278D01*
X2398368Y608699D01*
X2398690Y609071D01*
X2398715Y609096D01*
X2398764Y609146D01*
X2398888Y609245D01*
X2399012Y609369D01*
X2399210Y609518D01*
X2399434Y609691D01*
X2399682Y609865D01*
X2399979Y610063D01*
X2400301Y610236D01*
X2400673Y610410D01*
X2401070Y610583D01*
X2401516Y610732D01*
X2401962Y610856D01*
X2402458Y610955D01*
X2402979Y611005D01*
X2403524Y611030D01*
X2403772D01*
X2403970Y611005D01*
D02*
G37*
G36*
X2387782Y609790D02*
X2387832Y609815D01*
X2387931Y609889D01*
X2388104Y610013D01*
X2388327Y610162D01*
X2388575Y610311D01*
X2388848Y610460D01*
X2389146Y610608D01*
X2389443Y610732D01*
X2389468Y610757D01*
X2389567Y610782D01*
X2389740Y610831D01*
X2389939Y610881D01*
X2390187Y610931D01*
X2390459Y610980D01*
X2390782Y611030D01*
X2391277D01*
X2391426Y611005D01*
X2391575Y610980D01*
X2391749Y610955D01*
X2392195Y610881D01*
X2392666Y610732D01*
X2393162Y610509D01*
X2393409Y610360D01*
X2393657Y610187D01*
X2393880Y609989D01*
X2394104Y609765D01*
X2394128Y609741D01*
X2394153Y609716D01*
X2394203Y609641D01*
X2394277Y609542D01*
X2394376Y609394D01*
X2394476Y609245D01*
X2394575Y609047D01*
X2394674Y608848D01*
X2394773Y608600D01*
X2394872Y608328D01*
X2394971Y608030D01*
X2395070Y607708D01*
X2395145Y607336D01*
X2395194Y606964D01*
X2395244Y606567D01*
Y606121D01*
Y606096D01*
Y606047D01*
Y605973D01*
Y605849D01*
X2395219Y605700D01*
Y605526D01*
X2395170Y605105D01*
X2395120Y604634D01*
X2395021Y604113D01*
X2394872Y603543D01*
X2394699Y602973D01*
Y602948D01*
X2394674Y602898D01*
X2394649Y602824D01*
X2394599Y602725D01*
X2394476Y602452D01*
X2394327Y602105D01*
X2394128Y601708D01*
X2393880Y601287D01*
X2393608Y600890D01*
X2393286Y600494D01*
X2393236Y600444D01*
X2393137Y600345D01*
X2392963Y600172D01*
X2392715Y599973D01*
X2392443Y599725D01*
X2392120Y599502D01*
X2391773Y599279D01*
X2391426Y599081D01*
X2391377Y599056D01*
X2391253Y599006D01*
X2391054Y598932D01*
X2390806Y598858D01*
X2390509Y598783D01*
X2390162Y598709D01*
X2389790Y598659D01*
X2389393Y598634D01*
X2389294D01*
X2389146Y598659D01*
X2388972D01*
X2388774Y598709D01*
X2388526Y598759D01*
X2388253Y598808D01*
X2387980Y598907D01*
X2387683Y599031D01*
X2387361Y599180D01*
X2387063Y599353D01*
X2386741Y599577D01*
X2386443Y599824D01*
X2386171Y600122D01*
X2385898Y600444D01*
X2385650Y600841D01*
X2385253Y598932D01*
X2382403D01*
X2385774Y615219D01*
X2388947D01*
X2387782Y609790D01*
D02*
G37*
G36*
X2376205Y611005D02*
X2376403Y610980D01*
X2376676Y610955D01*
X2376949Y610906D01*
X2377246Y610856D01*
X2377915Y610683D01*
X2378263Y610559D01*
X2378585Y610410D01*
X2378932Y610236D01*
X2379254Y610063D01*
X2379552Y609815D01*
X2379849Y609567D01*
X2379874Y609542D01*
X2379924Y609493D01*
X2379973Y609418D01*
X2380072Y609294D01*
X2380196Y609170D01*
X2380320Y608997D01*
X2380444Y608774D01*
X2380593Y608551D01*
X2380717Y608278D01*
X2380841Y607980D01*
X2380965Y607683D01*
X2381089Y607336D01*
X2381188Y606964D01*
X2381237Y606567D01*
X2381287Y606146D01*
X2381312Y605700D01*
Y605675D01*
Y605576D01*
Y605427D01*
X2381287Y605229D01*
X2381262Y604981D01*
X2381213Y604683D01*
X2381163Y604361D01*
X2381089Y603989D01*
X2380990Y603617D01*
X2380865Y603221D01*
X2380717Y602799D01*
X2380543Y602378D01*
X2380320Y601956D01*
X2380072Y601535D01*
X2379800Y601114D01*
X2379477Y600717D01*
X2379453Y600692D01*
X2379403Y600618D01*
X2379279Y600519D01*
X2379155Y600395D01*
X2378957Y600246D01*
X2378734Y600048D01*
X2378486Y599874D01*
X2378188Y599676D01*
X2377841Y599477D01*
X2377469Y599304D01*
X2377073Y599130D01*
X2376626Y598957D01*
X2376155Y598833D01*
X2375660Y598734D01*
X2375139Y598659D01*
X2374569Y598634D01*
X2374296D01*
X2374147Y598659D01*
X2373974D01*
X2373577Y598709D01*
X2373131Y598783D01*
X2372635Y598907D01*
X2372115Y599056D01*
X2371619Y599279D01*
X2371594D01*
X2371569Y599304D01*
X2371420Y599403D01*
X2371172Y599552D01*
X2370900Y599775D01*
X2370578Y600023D01*
X2370280Y600345D01*
X2369983Y600742D01*
X2369710Y601163D01*
Y601188D01*
X2369685Y601213D01*
X2369660Y601287D01*
X2369611Y601386D01*
X2369512Y601634D01*
X2369412Y601956D01*
X2369288Y602353D01*
X2369189Y602799D01*
X2369115Y603295D01*
X2369090Y603816D01*
Y603865D01*
Y603965D01*
X2369115Y604138D01*
Y604361D01*
X2369140Y604634D01*
X2369189Y604956D01*
X2369239Y605328D01*
X2369313Y605700D01*
X2369412Y606121D01*
X2369536Y606543D01*
X2369685Y606989D01*
X2369859Y607435D01*
X2370082Y607856D01*
X2370330Y608278D01*
X2370602Y608699D01*
X2370925Y609071D01*
X2370949Y609096D01*
X2370999Y609146D01*
X2371123Y609245D01*
X2371247Y609369D01*
X2371445Y609518D01*
X2371668Y609691D01*
X2371916Y609865D01*
X2372214Y610063D01*
X2372536Y610236D01*
X2372908Y610410D01*
X2373304Y610583D01*
X2373751Y610732D01*
X2374197Y610856D01*
X2374693Y610955D01*
X2375213Y611005D01*
X2375759Y611030D01*
X2376007D01*
X2376205Y611005D01*
D02*
G37*
G36*
X2337061D02*
X2337259Y610980D01*
X2337532Y610955D01*
X2337805Y610906D01*
X2338102Y610856D01*
X2338771Y610683D01*
X2339118Y610559D01*
X2339441Y610410D01*
X2339788Y610236D01*
X2340110Y610063D01*
X2340408Y609815D01*
X2340705Y609567D01*
X2340730Y609542D01*
X2340780Y609493D01*
X2340829Y609418D01*
X2340928Y609294D01*
X2341052Y609170D01*
X2341176Y608997D01*
X2341300Y608774D01*
X2341449Y608551D01*
X2341573Y608278D01*
X2341697Y607980D01*
X2341821Y607683D01*
X2341945Y607336D01*
X2342044Y606964D01*
X2342093Y606567D01*
X2342143Y606146D01*
X2342168Y605700D01*
Y605675D01*
Y605576D01*
Y605427D01*
X2342143Y605229D01*
X2342118Y604981D01*
X2342069Y604683D01*
X2342019Y604361D01*
X2341945Y603989D01*
X2341846Y603617D01*
X2341721Y603221D01*
X2341573Y602799D01*
X2341399Y602378D01*
X2341176Y601956D01*
X2340928Y601535D01*
X2340656Y601114D01*
X2340333Y600717D01*
X2340309Y600692D01*
X2340259Y600618D01*
X2340135Y600519D01*
X2340011Y600395D01*
X2339813Y600246D01*
X2339590Y600048D01*
X2339342Y599874D01*
X2339044Y599676D01*
X2338697Y599477D01*
X2338325Y599304D01*
X2337929Y599130D01*
X2337482Y598957D01*
X2337011Y598833D01*
X2336516Y598734D01*
X2335995Y598659D01*
X2335425Y598634D01*
X2335152D01*
X2335003Y598659D01*
X2334830D01*
X2334433Y598709D01*
X2333987Y598783D01*
X2333491Y598907D01*
X2332970Y599056D01*
X2332475Y599279D01*
X2332450D01*
X2332425Y599304D01*
X2332276Y599403D01*
X2332029Y599552D01*
X2331756Y599775D01*
X2331434Y600023D01*
X2331136Y600345D01*
X2330838Y600742D01*
X2330566Y601163D01*
Y601188D01*
X2330541Y601213D01*
X2330516Y601287D01*
X2330467Y601386D01*
X2330367Y601634D01*
X2330268Y601956D01*
X2330144Y602353D01*
X2330045Y602799D01*
X2329971Y603295D01*
X2329946Y603816D01*
Y603865D01*
Y603965D01*
X2329971Y604138D01*
Y604361D01*
X2329996Y604634D01*
X2330045Y604956D01*
X2330095Y605328D01*
X2330169Y605700D01*
X2330268Y606121D01*
X2330392Y606543D01*
X2330541Y606989D01*
X2330715Y607435D01*
X2330938Y607856D01*
X2331186Y608278D01*
X2331458Y608699D01*
X2331781Y609071D01*
X2331805Y609096D01*
X2331855Y609146D01*
X2331979Y609245D01*
X2332103Y609369D01*
X2332301Y609518D01*
X2332524Y609691D01*
X2332772Y609865D01*
X2333070Y610063D01*
X2333392Y610236D01*
X2333764Y610410D01*
X2334160Y610583D01*
X2334607Y610732D01*
X2335053Y610856D01*
X2335549Y610955D01*
X2336069Y611005D01*
X2336615Y611030D01*
X2336863D01*
X2337061Y611005D01*
D02*
G37*
G36*
X2327913Y610732D02*
X2329872D01*
X2329376Y608377D01*
X2327442D01*
X2326401Y603394D01*
Y603369D01*
Y603345D01*
X2326351Y603171D01*
X2326302Y602948D01*
X2326252Y602700D01*
X2326203Y602427D01*
X2326153Y602179D01*
X2326128Y601981D01*
X2326104Y601907D01*
Y601857D01*
Y601833D01*
Y601808D01*
X2326128Y601634D01*
X2326203Y601461D01*
X2326327Y601262D01*
X2326351D01*
X2326376Y601237D01*
X2326451Y601213D01*
X2326525Y601163D01*
X2326649Y601138D01*
X2326798Y601089D01*
X2326971Y601064D01*
X2327294D01*
X2327393Y601089D01*
X2327541D01*
X2327740Y601114D01*
X2327963Y601138D01*
X2328260Y601163D01*
X2327764Y598808D01*
X2327740D01*
X2327616Y598783D01*
X2327442Y598759D01*
X2327244Y598734D01*
X2326971Y598684D01*
X2326698Y598659D01*
X2326054Y598634D01*
X2325781D01*
X2325484Y598659D01*
X2325112Y598709D01*
X2324715Y598783D01*
X2324319Y598907D01*
X2323922Y599056D01*
X2323600Y599279D01*
X2323575Y599304D01*
X2323476Y599403D01*
X2323377Y599552D01*
X2323228Y599750D01*
X2323104Y599998D01*
X2322980Y600320D01*
X2322881Y600667D01*
X2322856Y601089D01*
Y601114D01*
Y601213D01*
X2322881Y601362D01*
X2322906Y601609D01*
X2322930Y601758D01*
X2322955Y601932D01*
X2323005Y602155D01*
X2323029Y602378D01*
X2323079Y602626D01*
X2323129Y602923D01*
X2323203Y603246D01*
X2323277Y603593D01*
X2324294Y608377D01*
X2322707D01*
X2323203Y610732D01*
X2324765D01*
X2325137Y612592D01*
X2328756Y614798D01*
X2327913Y610732D01*
D02*
G37*
G36*
X2268565Y611005D02*
X2268763Y610980D01*
X2268962Y610955D01*
X2269458Y610856D01*
X2270003Y610707D01*
X2270573Y610460D01*
X2270871Y610311D01*
X2271143Y610112D01*
X2271416Y609914D01*
X2271664Y609666D01*
X2271689Y609641D01*
X2271713Y609617D01*
X2271788Y609518D01*
X2271862Y609418D01*
X2271961Y609294D01*
X2272061Y609121D01*
X2272184Y608923D01*
X2272308Y608699D01*
X2272432Y608451D01*
X2272556Y608154D01*
X2272655Y607856D01*
X2272755Y607534D01*
X2272829Y607162D01*
X2272903Y606766D01*
X2272928Y606369D01*
X2272953Y605923D01*
Y605898D01*
Y605873D01*
Y605725D01*
Y605502D01*
X2272928Y605229D01*
X2272903Y604907D01*
X2272854Y604559D01*
X2272730Y603840D01*
X2264722D01*
Y603816D01*
Y603741D01*
X2264698Y603642D01*
Y603543D01*
Y603518D01*
Y603493D01*
Y603345D01*
X2264722Y603122D01*
X2264772Y602849D01*
X2264871Y602551D01*
X2264970Y602229D01*
X2265144Y601932D01*
X2265367Y601634D01*
X2265392Y601609D01*
X2265491Y601535D01*
X2265640Y601411D01*
X2265838Y601287D01*
X2266086Y601138D01*
X2266359Y601039D01*
X2266681Y600940D01*
X2267028Y600915D01*
X2267177D01*
X2267301Y600940D01*
X2267573Y601014D01*
X2267945Y601114D01*
X2268342Y601312D01*
X2268540Y601436D01*
X2268763Y601609D01*
X2268962Y601783D01*
X2269160Y602006D01*
X2269358Y602254D01*
X2269532Y602551D01*
X2272383Y602080D01*
Y602056D01*
X2272333Y602006D01*
X2272308Y601907D01*
X2272234Y601808D01*
X2272135Y601659D01*
X2272036Y601485D01*
X2271788Y601114D01*
X2271465Y600692D01*
X2271069Y600246D01*
X2270623Y599849D01*
X2270127Y599477D01*
X2270102D01*
X2270052Y599453D01*
X2269978Y599403D01*
X2269879Y599353D01*
X2269755Y599279D01*
X2269606Y599205D01*
X2269210Y599056D01*
X2268763Y598907D01*
X2268218Y598759D01*
X2267648Y598659D01*
X2267003Y598634D01*
X2266780D01*
X2266607Y598659D01*
X2266408Y598684D01*
X2266160Y598709D01*
X2265912Y598759D01*
X2265640Y598833D01*
X2265020Y599006D01*
X2264698Y599130D01*
X2264375Y599254D01*
X2264053Y599428D01*
X2263731Y599626D01*
X2263433Y599849D01*
X2263136Y600122D01*
X2263111Y600147D01*
X2263062Y600196D01*
X2262987Y600271D01*
X2262913Y600395D01*
X2262789Y600543D01*
X2262665Y600742D01*
X2262541Y600940D01*
X2262392Y601188D01*
X2262243Y601461D01*
X2262119Y601758D01*
X2261996Y602105D01*
X2261872Y602452D01*
X2261797Y602849D01*
X2261723Y603246D01*
X2261673Y603692D01*
X2261649Y604138D01*
Y604163D01*
Y604237D01*
Y604386D01*
X2261673Y604559D01*
X2261698Y604758D01*
X2261723Y605006D01*
X2261772Y605278D01*
X2261822Y605601D01*
X2261971Y606270D01*
X2262219Y606989D01*
X2262367Y607361D01*
X2262541Y607733D01*
X2262764Y608104D01*
X2262987Y608451D01*
X2263012Y608476D01*
X2263062Y608576D01*
X2263185Y608699D01*
X2263334Y608848D01*
X2263508Y609047D01*
X2263756Y609270D01*
X2264028Y609493D01*
X2264326Y609741D01*
X2264673Y609989D01*
X2265070Y610212D01*
X2265491Y610435D01*
X2265962Y610633D01*
X2266483Y610782D01*
X2267028Y610931D01*
X2267598Y611005D01*
X2268218Y611030D01*
X2268416D01*
X2268565Y611005D01*
D02*
G37*
%LPC*%
G36*
X2362669Y612492D02*
X2358430D01*
X2357538Y608129D01*
X2359967D01*
X2360215Y608154D01*
X2360785Y608179D01*
X2361380Y608204D01*
X2361975Y608253D01*
X2362248Y608278D01*
X2362496Y608328D01*
X2362719Y608377D01*
X2362917Y608427D01*
X2362967Y608451D01*
X2363066Y608501D01*
X2363215Y608576D01*
X2363438Y608675D01*
X2363661Y608823D01*
X2363884Y608997D01*
X2364107Y609195D01*
X2364306Y609443D01*
X2364330Y609468D01*
X2364380Y609567D01*
X2364479Y609691D01*
X2364578Y609889D01*
X2364653Y610088D01*
X2364752Y610336D01*
X2364801Y610608D01*
X2364826Y610881D01*
Y610931D01*
Y611030D01*
X2364777Y611179D01*
X2364727Y611377D01*
X2364653Y611600D01*
X2364504Y611823D01*
X2364330Y612046D01*
X2364082Y612220D01*
X2364058Y612244D01*
X2363983Y612269D01*
X2363859Y612319D01*
X2363686Y612368D01*
X2363413Y612418D01*
X2363091Y612443D01*
X2362669Y612492D01*
D02*
G37*
G36*
X2475565Y608625D02*
X2475391D01*
X2475193Y608600D01*
X2474945Y608551D01*
X2474672Y608476D01*
X2474350Y608352D01*
X2474028Y608204D01*
X2473730Y607980D01*
X2473706Y607956D01*
X2473606Y607856D01*
X2473458Y607708D01*
X2473284Y607509D01*
X2473086Y607237D01*
X2472863Y606914D01*
X2472664Y606543D01*
X2472491Y606096D01*
Y606072D01*
X2472466Y606047D01*
X2472417Y605898D01*
X2472367Y605650D01*
X2472292Y605353D01*
X2472193Y605006D01*
X2472144Y604634D01*
X2472094Y604237D01*
X2472069Y603840D01*
Y603816D01*
Y603791D01*
Y603642D01*
X2472094Y603394D01*
X2472144Y603122D01*
X2472243Y602799D01*
X2472342Y602452D01*
X2472516Y602130D01*
X2472739Y601833D01*
X2472764Y601808D01*
X2472863Y601708D01*
X2473011Y601609D01*
X2473210Y601461D01*
X2473458Y601337D01*
X2473755Y601213D01*
X2474102Y601114D01*
X2474474Y601089D01*
X2474598D01*
X2474697Y601114D01*
X2474920Y601138D01*
X2475243Y601237D01*
X2475565Y601362D01*
X2475937Y601560D01*
X2476309Y601833D01*
X2476482Y602006D01*
X2476656Y602204D01*
X2476680Y602229D01*
X2476705Y602279D01*
X2476780Y602378D01*
X2476854Y602502D01*
X2476953Y602651D01*
X2477052Y602824D01*
X2477176Y603047D01*
X2477300Y603295D01*
X2477399Y603568D01*
X2477523Y603865D01*
X2477722Y604535D01*
X2477870Y605278D01*
X2477895Y605675D01*
X2477920Y606096D01*
Y606121D01*
Y606146D01*
Y606295D01*
X2477895Y606493D01*
X2477846Y606766D01*
X2477746Y607038D01*
X2477647Y607361D01*
X2477474Y607658D01*
X2477251Y607931D01*
X2477226Y607956D01*
X2477127Y608030D01*
X2477003Y608154D01*
X2476804Y608278D01*
X2476557Y608402D01*
X2476259Y608526D01*
X2475937Y608600D01*
X2475565Y608625D01*
D02*
G37*
G36*
X2403549D02*
X2403375D01*
X2403177Y608600D01*
X2402929Y608551D01*
X2402656Y608476D01*
X2402334Y608352D01*
X2402012Y608204D01*
X2401714Y607980D01*
X2401689Y607956D01*
X2401590Y607856D01*
X2401442Y607708D01*
X2401268Y607509D01*
X2401070Y607237D01*
X2400847Y606914D01*
X2400648Y606543D01*
X2400475Y606096D01*
Y606072D01*
X2400450Y606047D01*
X2400400Y605898D01*
X2400351Y605650D01*
X2400276Y605353D01*
X2400177Y605006D01*
X2400128Y604634D01*
X2400078Y604237D01*
X2400053Y603840D01*
Y603816D01*
Y603791D01*
Y603642D01*
X2400078Y603394D01*
X2400128Y603122D01*
X2400227Y602799D01*
X2400326Y602452D01*
X2400500Y602130D01*
X2400723Y601833D01*
X2400747Y601808D01*
X2400847Y601708D01*
X2400995Y601609D01*
X2401194Y601461D01*
X2401442Y601337D01*
X2401739Y601213D01*
X2402086Y601114D01*
X2402458Y601089D01*
X2402582D01*
X2402681Y601114D01*
X2402904Y601138D01*
X2403226Y601237D01*
X2403549Y601362D01*
X2403921Y601560D01*
X2404292Y601833D01*
X2404466Y602006D01*
X2404639Y602204D01*
X2404664Y602229D01*
X2404689Y602279D01*
X2404763Y602378D01*
X2404838Y602502D01*
X2404937Y602651D01*
X2405036Y602824D01*
X2405160Y603047D01*
X2405284Y603295D01*
X2405383Y603568D01*
X2405507Y603865D01*
X2405706Y604535D01*
X2405854Y605278D01*
X2405879Y605675D01*
X2405904Y606096D01*
Y606121D01*
Y606146D01*
Y606295D01*
X2405879Y606493D01*
X2405829Y606766D01*
X2405730Y607038D01*
X2405631Y607361D01*
X2405458Y607658D01*
X2405235Y607931D01*
X2405210Y607956D01*
X2405111Y608030D01*
X2404987Y608154D01*
X2404788Y608278D01*
X2404540Y608402D01*
X2404243Y608526D01*
X2403921Y608600D01*
X2403549Y608625D01*
D02*
G37*
G36*
X2389914Y608749D02*
X2389865D01*
X2389716Y608724D01*
X2389493Y608699D01*
X2389220Y608600D01*
X2388898Y608476D01*
X2388551Y608278D01*
X2388203Y607980D01*
X2388030Y607807D01*
X2387856Y607609D01*
X2387832Y607584D01*
X2387807Y607534D01*
X2387757Y607460D01*
X2387683Y607336D01*
X2387584Y607187D01*
X2387485Y607014D01*
X2387385Y606791D01*
X2387262Y606567D01*
X2387162Y606295D01*
X2387038Y605997D01*
X2386939Y605675D01*
X2386865Y605328D01*
X2386716Y604559D01*
X2386691Y604163D01*
X2386667Y603717D01*
Y603692D01*
Y603667D01*
Y603518D01*
X2386691Y603295D01*
X2386741Y603022D01*
X2386840Y602725D01*
X2386939Y602403D01*
X2387113Y602080D01*
X2387336Y601783D01*
X2387361Y601758D01*
X2387460Y601659D01*
X2387608Y601560D01*
X2387782Y601411D01*
X2388030Y601287D01*
X2388278Y601163D01*
X2388600Y601064D01*
X2388922Y601039D01*
X2389046D01*
X2389220Y601064D01*
X2389418Y601114D01*
X2389641Y601188D01*
X2389889Y601287D01*
X2390162Y601411D01*
X2390435Y601609D01*
X2390459Y601634D01*
X2390559Y601708D01*
X2390707Y601857D01*
X2390881Y602056D01*
X2391054Y602304D01*
X2391277Y602626D01*
X2391476Y602998D01*
X2391674Y603444D01*
Y603469D01*
X2391699Y603493D01*
X2391724Y603568D01*
X2391749Y603667D01*
X2391823Y603915D01*
X2391922Y604262D01*
X2392021Y604634D01*
X2392096Y605080D01*
X2392145Y605551D01*
X2392170Y606022D01*
Y606047D01*
Y606072D01*
Y606220D01*
X2392145Y606468D01*
X2392096Y606741D01*
X2391996Y607063D01*
X2391897Y607385D01*
X2391724Y607708D01*
X2391501Y608005D01*
X2391476Y608030D01*
X2391377Y608129D01*
X2391253Y608253D01*
X2391054Y608377D01*
X2390831Y608526D01*
X2390559Y608625D01*
X2390261Y608724D01*
X2389914Y608749D01*
D02*
G37*
G36*
X2375784Y608625D02*
X2375610D01*
X2375412Y608600D01*
X2375164Y608551D01*
X2374891Y608476D01*
X2374569Y608352D01*
X2374247Y608204D01*
X2373949Y607980D01*
X2373924Y607956D01*
X2373825Y607856D01*
X2373676Y607708D01*
X2373503Y607509D01*
X2373304Y607237D01*
X2373081Y606914D01*
X2372883Y606543D01*
X2372710Y606096D01*
Y606072D01*
X2372685Y606047D01*
X2372635Y605898D01*
X2372586Y605650D01*
X2372511Y605353D01*
X2372412Y605006D01*
X2372362Y604634D01*
X2372313Y604237D01*
X2372288Y603840D01*
Y603816D01*
Y603791D01*
Y603642D01*
X2372313Y603394D01*
X2372362Y603122D01*
X2372462Y602799D01*
X2372561Y602452D01*
X2372734Y602130D01*
X2372957Y601833D01*
X2372982Y601808D01*
X2373081Y601708D01*
X2373230Y601609D01*
X2373428Y601461D01*
X2373676Y601337D01*
X2373974Y601213D01*
X2374321Y601114D01*
X2374693Y601089D01*
X2374817D01*
X2374916Y601114D01*
X2375139Y601138D01*
X2375461Y601237D01*
X2375784Y601362D01*
X2376155Y601560D01*
X2376527Y601833D01*
X2376701Y602006D01*
X2376874Y602204D01*
X2376899Y602229D01*
X2376924Y602279D01*
X2376998Y602378D01*
X2377073Y602502D01*
X2377172Y602651D01*
X2377271Y602824D01*
X2377395Y603047D01*
X2377519Y603295D01*
X2377618Y603568D01*
X2377742Y603865D01*
X2377940Y604535D01*
X2378089Y605278D01*
X2378114Y605675D01*
X2378139Y606096D01*
Y606121D01*
Y606146D01*
Y606295D01*
X2378114Y606493D01*
X2378064Y606766D01*
X2377965Y607038D01*
X2377866Y607361D01*
X2377692Y607658D01*
X2377469Y607931D01*
X2377444Y607956D01*
X2377345Y608030D01*
X2377221Y608154D01*
X2377023Y608278D01*
X2376775Y608402D01*
X2376478Y608526D01*
X2376155Y608600D01*
X2375784Y608625D01*
D02*
G37*
G36*
X2336640D02*
X2336466D01*
X2336268Y608600D01*
X2336020Y608551D01*
X2335747Y608476D01*
X2335425Y608352D01*
X2335103Y608204D01*
X2334805Y607980D01*
X2334780Y607956D01*
X2334681Y607856D01*
X2334532Y607708D01*
X2334359Y607509D01*
X2334160Y607237D01*
X2333937Y606914D01*
X2333739Y606543D01*
X2333566Y606096D01*
Y606072D01*
X2333541Y606047D01*
X2333491Y605898D01*
X2333441Y605650D01*
X2333367Y605353D01*
X2333268Y605006D01*
X2333218Y604634D01*
X2333169Y604237D01*
X2333144Y603840D01*
Y603816D01*
Y603791D01*
Y603642D01*
X2333169Y603394D01*
X2333218Y603122D01*
X2333318Y602799D01*
X2333417Y602452D01*
X2333590Y602130D01*
X2333813Y601833D01*
X2333838Y601808D01*
X2333937Y601708D01*
X2334086Y601609D01*
X2334284Y601461D01*
X2334532Y601337D01*
X2334830Y601213D01*
X2335177Y601114D01*
X2335549Y601089D01*
X2335673D01*
X2335772Y601114D01*
X2335995Y601138D01*
X2336317Y601237D01*
X2336640Y601362D01*
X2337011Y601560D01*
X2337383Y601833D01*
X2337557Y602006D01*
X2337730Y602204D01*
X2337755Y602229D01*
X2337780Y602279D01*
X2337854Y602378D01*
X2337929Y602502D01*
X2338028Y602651D01*
X2338127Y602824D01*
X2338251Y603047D01*
X2338375Y603295D01*
X2338474Y603568D01*
X2338598Y603865D01*
X2338796Y604535D01*
X2338945Y605278D01*
X2338970Y605675D01*
X2338995Y606096D01*
Y606121D01*
Y606146D01*
Y606295D01*
X2338970Y606493D01*
X2338920Y606766D01*
X2338821Y607038D01*
X2338722Y607361D01*
X2338548Y607658D01*
X2338325Y607931D01*
X2338300Y607956D01*
X2338201Y608030D01*
X2338077Y608154D01*
X2337879Y608278D01*
X2337631Y608402D01*
X2337334Y608526D01*
X2337011Y608600D01*
X2336640Y608625D01*
D02*
G37*
G36*
X2267871Y608749D02*
X2267697D01*
X2267524Y608699D01*
X2267276Y608650D01*
X2267003Y608551D01*
X2266706Y608427D01*
X2266384Y608228D01*
X2266086Y607980D01*
X2266061Y607956D01*
X2265962Y607832D01*
X2265838Y607658D01*
X2265665Y607435D01*
X2265491Y607113D01*
X2265318Y606741D01*
X2265169Y606295D01*
X2265045Y605774D01*
X2270052D01*
Y605799D01*
Y605898D01*
Y605997D01*
Y606096D01*
Y606121D01*
Y606146D01*
Y606220D01*
Y606320D01*
X2270028Y606543D01*
X2269978Y606840D01*
X2269904Y607162D01*
X2269805Y607485D01*
X2269656Y607807D01*
X2269458Y608080D01*
X2269433Y608104D01*
X2269358Y608179D01*
X2269210Y608303D01*
X2269036Y608427D01*
X2268813Y608526D01*
X2268540Y608650D01*
X2268218Y608724D01*
X2267871Y608749D01*
D02*
G37*
%LPD*%
D10*
X2321930Y319780D02*
G03*
X2321930Y319780I-1250J0D01*
G01*
X2218670Y461264D02*
G03*
X2218670Y461264I-1250J0D01*
G01*
X2297670Y386470D02*
G03*
X2297670Y386470I-1250J0D01*
G01*
X2228367Y757072D02*
G03*
X2228367Y757072I-1250J0D01*
G01*
D12*
X1614174Y250338D02*
Y256138D01*
X1744984Y565298D02*
Y571098D01*
X1770384Y250338D02*
Y256138D01*
X1588774Y407818D02*
Y413618D01*
X1744984Y407818D02*
Y413618D01*
X1588774Y565298D02*
Y571098D01*
X1676244Y250338D02*
Y256138D01*
X1807054Y565298D02*
Y571098D01*
X1832454Y250338D02*
Y256138D01*
X1650844Y407818D02*
Y413618D01*
X1807054Y407818D02*
Y413618D01*
X1650844Y565298D02*
Y571098D01*
X2331578Y374748D02*
X2337378D01*
X2432264Y415024D02*
Y420824D01*
X2247896Y739288D02*
Y745088D01*
X1639490Y252578D02*
X1642030D01*
X1640760Y246228D02*
Y258928D01*
X1770300Y567538D02*
X1772840D01*
X1771570Y561188D02*
Y573888D01*
X1795700Y252578D02*
X1798240D01*
X1796970Y246228D02*
Y258928D01*
X1614090Y410058D02*
X1616630D01*
X1615360Y403708D02*
Y416408D01*
X1770300Y410058D02*
X1772840D01*
X1771570Y403708D02*
Y416408D01*
X1614090Y567538D02*
X1616630D01*
X1615360Y561188D02*
Y573888D01*
X2176016Y384840D02*
X2189732D01*
D14*
X1981454Y787908D02*
X1986534Y782828D01*
X1981454Y775208D02*
Y787908D01*
Y775208D02*
X1987804Y781558D01*
X1982724Y786638D02*
X1987804Y781558D01*
X1982724Y777748D02*
Y786638D01*
Y777748D02*
X1986534Y781558D01*
X1983994Y784098D02*
X1986534Y781558D01*
X1983994Y780288D02*
Y784098D01*
Y780288D02*
X1984934Y781228D01*
X1986204D01*
X1988820Y775208D02*
Y787908D01*
X2060089Y561249D02*
Y562773D01*
X2022498Y583601D02*
X2024022D01*
X1686560Y322072D02*
X1699260D01*
X1692580Y324688D02*
Y325958D01*
X1691640Y326898D02*
X1692580Y325958D01*
X1691640Y326898D02*
X1695450D01*
X1692910Y324358D02*
X1695450Y326898D01*
X1689100Y328168D02*
X1692910Y324358D01*
X1689100Y328168D02*
X1697990D01*
X1692910Y323088D02*
X1697990Y328168D01*
X1686560Y329438D02*
X1692910Y323088D01*
X1686560Y329438D02*
X1699260D01*
X1694180Y324358D02*
X1699260Y329438D01*
X1817370Y637032D02*
X1830070D01*
X1823390Y639648D02*
Y640918D01*
X1822450Y641858D02*
X1823390Y640918D01*
X1822450Y641858D02*
X1826260D01*
X1823720Y639318D02*
X1826260Y641858D01*
X1819910Y643128D02*
X1823720Y639318D01*
X1819910Y643128D02*
X1828800D01*
X1823720Y638048D02*
X1828800Y643128D01*
X1817370Y644398D02*
X1823720Y638048D01*
X1817370Y644398D02*
X1830070D01*
X1824990Y639318D02*
X1830070Y644398D01*
X1842770Y322072D02*
X1855470D01*
X1848790Y324688D02*
Y325958D01*
X1847850Y326898D02*
X1848790Y325958D01*
X1847850Y326898D02*
X1851660D01*
X1849120Y324358D02*
X1851660Y326898D01*
X1845310Y328168D02*
X1849120Y324358D01*
X1845310Y328168D02*
X1854200D01*
X1849120Y323088D02*
X1854200Y328168D01*
X1842770Y329438D02*
X1849120Y323088D01*
X1842770Y329438D02*
X1855470D01*
X1850390Y324358D02*
X1855470Y329438D01*
X1661160Y479552D02*
X1673860D01*
X1667180Y482168D02*
Y483438D01*
X1666240Y484378D02*
X1667180Y483438D01*
X1666240Y484378D02*
X1670050D01*
X1667510Y481838D02*
X1670050Y484378D01*
X1663700Y485648D02*
X1667510Y481838D01*
X1663700Y485648D02*
X1672590D01*
X1667510Y480568D02*
X1672590Y485648D01*
X1661160Y486918D02*
X1667510Y480568D01*
X1661160Y486918D02*
X1673860D01*
X1668780Y481838D02*
X1673860Y486918D01*
X1817370Y479552D02*
X1830070D01*
X1823390Y482168D02*
Y483438D01*
X1822450Y484378D02*
X1823390Y483438D01*
X1822450Y484378D02*
X1826260D01*
X1823720Y481838D02*
X1826260Y484378D01*
X1819910Y485648D02*
X1823720Y481838D01*
X1819910Y485648D02*
X1828800D01*
X1823720Y480568D02*
X1828800Y485648D01*
X1817370Y486918D02*
X1823720Y480568D01*
X1817370Y486918D02*
X1830070D01*
X1824990Y481838D02*
X1830070Y486918D01*
X1661160Y637032D02*
X1673860D01*
X1667180Y639648D02*
Y640918D01*
X1666240Y641858D02*
X1667180Y640918D01*
X1666240Y641858D02*
X1670050D01*
X1667510Y639318D02*
X1670050Y641858D01*
X1663700Y643128D02*
X1667510Y639318D01*
X1663700Y643128D02*
X1672590D01*
X1667510Y638048D02*
X1672590Y643128D01*
X1661160Y644398D02*
X1667510Y638048D01*
X1661160Y644398D02*
X1673860D01*
X1668780Y639318D02*
X1673860Y644398D01*
X2496820Y1055624D02*
Y1068324D01*
X2499436Y1062304D02*
X2500706D01*
X2501646Y1063244D01*
Y1059434D02*
Y1063244D01*
X2499106Y1061974D02*
X2501646Y1059434D01*
X2499106Y1061974D02*
X2502916Y1065784D01*
Y1056894D02*
Y1065784D01*
X2497836Y1061974D02*
X2502916Y1056894D01*
X2497836Y1061974D02*
X2504186Y1068324D01*
Y1055624D02*
Y1068324D01*
X2499106Y1060704D02*
X2504186Y1055624D01*
X2254758D02*
Y1068324D01*
X2257374Y1062304D02*
X2258644D01*
X2259584Y1063244D01*
Y1059434D02*
Y1063244D01*
X2257044Y1061974D02*
X2259584Y1059434D01*
X2257044Y1061974D02*
X2260854Y1065784D01*
Y1056894D02*
Y1065784D01*
X2255774Y1061974D02*
X2260854Y1056894D01*
X2255774Y1061974D02*
X2262124Y1068324D01*
Y1055624D02*
Y1068324D01*
X2257044Y1060704D02*
X2262124Y1055624D01*
X2010918D02*
Y1068324D01*
X2013534Y1062304D02*
X2014804D01*
X2015744Y1063244D01*
Y1059434D02*
Y1063244D01*
X2013204Y1061974D02*
X2015744Y1059434D01*
X2013204Y1061974D02*
X2017014Y1065784D01*
Y1056894D02*
Y1065784D01*
X2011934Y1061974D02*
X2017014Y1056894D01*
X2011934Y1061974D02*
X2018284Y1068324D01*
Y1055624D02*
Y1068324D01*
X2013204Y1060704D02*
X2018284Y1055624D01*
X1766570Y1055370D02*
Y1068070D01*
X1769186Y1062050D02*
X1770456D01*
X1771396Y1062990D01*
Y1059180D02*
Y1062990D01*
X1768856Y1061720D02*
X1771396Y1059180D01*
X1768856Y1061720D02*
X1772666Y1065530D01*
Y1056640D02*
Y1065530D01*
X1767586Y1061720D02*
X1772666Y1056640D01*
X1767586Y1061720D02*
X1773936Y1068070D01*
Y1055370D02*
Y1068070D01*
X1768856Y1060450D02*
X1773936Y1055370D01*
X1691640Y870966D02*
X1704340D01*
X1697660Y873582D02*
Y874852D01*
X1696720Y875792D02*
X1697660Y874852D01*
X1696720Y875792D02*
X1700530D01*
X1697990Y873252D02*
X1700530Y875792D01*
X1694180Y877062D02*
X1697990Y873252D01*
X1694180Y877062D02*
X1703070D01*
X1697990Y871982D02*
X1703070Y877062D01*
X1691640Y878332D02*
X1697990Y871982D01*
X1691640Y878332D02*
X1704340D01*
X1699260Y873252D02*
X1704340Y878332D01*
X2049931Y618399D02*
Y619923D01*
X2080918Y563280D02*
X2082442D01*
X2080918Y578520D02*
X2082442D01*
X2025037Y560995D02*
Y562519D01*
X2315303Y278420D02*
Y279944D01*
X2236563Y301040D02*
Y302564D01*
X2187448Y480059D02*
X2188972D01*
X2278599Y413352D02*
Y414876D01*
X2247900Y791972D02*
Y794004D01*
D15*
X1982216Y809495D02*
Y801878D01*
X1978407D01*
X1977138Y803148D01*
Y808226D01*
X1978407Y809495D01*
X1982216D01*
X1970790Y801878D02*
Y809495D01*
X1974599Y805687D01*
X1969520D01*
X2045972Y567692D02*
X2044702Y568961D01*
Y571500D01*
X2045972Y572770D01*
X2051050D01*
X2052320Y571500D01*
Y568961D01*
X2051050Y567692D01*
X2052320Y560074D02*
Y565153D01*
X2047242Y560074D01*
X2045972D01*
X2044702Y561344D01*
Y563883D01*
X2045972Y565153D01*
X2052320Y553726D02*
X2044702D01*
X2048511Y557535D01*
Y552457D01*
X2029462Y598168D02*
X2030731Y599437D01*
X2033270D01*
X2034540Y598168D01*
Y593090D01*
X2033270Y591820D01*
X2030731D01*
X2029462Y593090D01*
X2021844Y591820D02*
X2026922D01*
X2021844Y596898D01*
Y598168D01*
X2023114Y599437D01*
X2025653D01*
X2026922Y598168D01*
X2019305D02*
X2018035Y599437D01*
X2015496D01*
X2014227Y598168D01*
Y596898D01*
X2015496Y595629D01*
X2016766D01*
X2015496D01*
X2014227Y594359D01*
Y593090D01*
X2015496Y591820D01*
X2018035D01*
X2019305Y593090D01*
X2385058Y292100D02*
X2378710D01*
X2377440Y293370D01*
Y295909D01*
X2378710Y297178D01*
X2385058D01*
Y299718D02*
Y304796D01*
X2383788D01*
X2378710Y299718D01*
X2377440D01*
X2170430Y481328D02*
Y474980D01*
X2169160Y473710D01*
X2166621D01*
X2165352Y474980D01*
Y481328D01*
X2162812Y480058D02*
X2161543Y481328D01*
X2159004D01*
X2157734Y480058D01*
Y478788D01*
X2159004Y477519D01*
X2160273D01*
X2159004D01*
X2157734Y476249D01*
Y474980D01*
X2159004Y473710D01*
X2161543D01*
X2162812Y474980D01*
X2326640Y450848D02*
Y444500D01*
X2325370Y443230D01*
X2322831D01*
X2321562Y444500D01*
Y450848D01*
X2313944Y443230D02*
X2319023D01*
X2313944Y448308D01*
Y449578D01*
X2315214Y450848D01*
X2317753D01*
X2319023Y449578D01*
X1604010Y271780D02*
X1596393D01*
Y267971D01*
X1597662Y266702D01*
X1600201D01*
X1601471Y267971D01*
Y271780D01*
Y269241D02*
X1604010Y266702D01*
Y264163D02*
Y261623D01*
Y262893D01*
X1596393D01*
X1597662Y264163D01*
X1596393Y257815D02*
Y252736D01*
X1597662D01*
X1602740Y257815D01*
X1604010D01*
X1731010Y576580D02*
X1723392D01*
Y572771D01*
X1724662Y571502D01*
X1727201D01*
X1728471Y572771D01*
Y576580D01*
Y574041D02*
X1731010Y571502D01*
Y568963D02*
Y566423D01*
Y567693D01*
X1723392D01*
X1724662Y568963D01*
X1723392Y562615D02*
Y557536D01*
X1724662D01*
X1729740Y562615D01*
X1731010D01*
X1760220Y262890D02*
X1752603D01*
Y259081D01*
X1753872Y257812D01*
X1756411D01*
X1757681Y259081D01*
Y262890D01*
Y260351D02*
X1760220Y257812D01*
Y255273D02*
Y252733D01*
Y254003D01*
X1752603D01*
X1753872Y255273D01*
X1752603Y248925D02*
Y243846D01*
X1753872D01*
X1758950Y248925D01*
X1760220D01*
X1579880Y420370D02*
X1572263D01*
Y416561D01*
X1573532Y415292D01*
X1576071D01*
X1577341Y416561D01*
Y420370D01*
Y417831D02*
X1579880Y415292D01*
Y412752D02*
Y410213D01*
Y411483D01*
X1572263D01*
X1573532Y412752D01*
X1572263Y406404D02*
Y401326D01*
X1573532D01*
X1578610Y406404D01*
X1579880D01*
X1734820Y420370D02*
X1727202D01*
Y416561D01*
X1728472Y415292D01*
X1731011D01*
X1732281Y416561D01*
Y420370D01*
Y417831D02*
X1734820Y415292D01*
Y412752D02*
Y410213D01*
Y411483D01*
X1727202D01*
X1728472Y412752D01*
X1727202Y406404D02*
Y401326D01*
X1728472D01*
X1733550Y406404D01*
X1734820D01*
X1577340Y576580D02*
X1569722D01*
Y572771D01*
X1570992Y571502D01*
X1573531D01*
X1574801Y572771D01*
Y576580D01*
Y574041D02*
X1577340Y571502D01*
Y568963D02*
Y566423D01*
Y567693D01*
X1569722D01*
X1570992Y568963D01*
X1569722Y562615D02*
Y557536D01*
X1570992D01*
X1576070Y562615D01*
X1577340D01*
X1666240Y264160D02*
X1658622D01*
Y260351D01*
X1659892Y259082D01*
X1662431D01*
X1663701Y260351D01*
Y264160D01*
Y261621D02*
X1666240Y259082D01*
Y256542D02*
Y254003D01*
Y255273D01*
X1658622D01*
X1659892Y256542D01*
X1658622Y245116D02*
Y250194D01*
X1662431D01*
X1661162Y247655D01*
Y246386D01*
X1662431Y245116D01*
X1664970D01*
X1666240Y246386D01*
Y248925D01*
X1664970Y250194D01*
X1795780Y576580D02*
X1788163D01*
Y572771D01*
X1789432Y571502D01*
X1791971D01*
X1793241Y572771D01*
Y576580D01*
Y574041D02*
X1795780Y571502D01*
Y568963D02*
Y566423D01*
Y567693D01*
X1788163D01*
X1789432Y568963D01*
X1788163Y557536D02*
Y562615D01*
X1791971D01*
X1790702Y560075D01*
Y558806D01*
X1791971Y557536D01*
X1794510D01*
X1795780Y558806D01*
Y561345D01*
X1794510Y562615D01*
X1822450Y264160D02*
X1814832D01*
Y260351D01*
X1816102Y259082D01*
X1818641D01*
X1819911Y260351D01*
Y264160D01*
Y261621D02*
X1822450Y259082D01*
Y256542D02*
Y254003D01*
Y255273D01*
X1814832D01*
X1816102Y256542D01*
X1814832Y245116D02*
Y250194D01*
X1818641D01*
X1817372Y247655D01*
Y246386D01*
X1818641Y245116D01*
X1821180D01*
X1822450Y246386D01*
Y248925D01*
X1821180Y250194D01*
X1639570Y421640D02*
X1631953D01*
Y417831D01*
X1633222Y416562D01*
X1635761D01*
X1637031Y417831D01*
Y421640D01*
Y419101D02*
X1639570Y416562D01*
Y414022D02*
Y411483D01*
Y412753D01*
X1631953D01*
X1633222Y414022D01*
X1631953Y402596D02*
Y407674D01*
X1635761D01*
X1634492Y405135D01*
Y403866D01*
X1635761Y402596D01*
X1638300D01*
X1639570Y403866D01*
Y406405D01*
X1638300Y407674D01*
X1795780Y420370D02*
X1788163D01*
Y416561D01*
X1789432Y415292D01*
X1791971D01*
X1793241Y416561D01*
Y420370D01*
Y417831D02*
X1795780Y415292D01*
Y412752D02*
Y410213D01*
Y411483D01*
X1788163D01*
X1789432Y412752D01*
X1788163Y401326D02*
Y406404D01*
X1791971D01*
X1790702Y403865D01*
Y402596D01*
X1791971Y401326D01*
X1794510D01*
X1795780Y402596D01*
Y405135D01*
X1794510Y406404D01*
X1639570Y577850D02*
X1631953D01*
Y574041D01*
X1633222Y572772D01*
X1635761D01*
X1637031Y574041D01*
Y577850D01*
Y575311D02*
X1639570Y572772D01*
Y570233D02*
Y567693D01*
Y568963D01*
X1631953D01*
X1633222Y570233D01*
X1631953Y558806D02*
Y563885D01*
X1635761D01*
X1634492Y561345D01*
Y560076D01*
X1635761Y558806D01*
X1638300D01*
X1639570Y560076D01*
Y562615D01*
X1638300Y563885D01*
X2326640Y363220D02*
Y355602D01*
X2330449D01*
X2331718Y356872D01*
Y359411D01*
X2330449Y360681D01*
X2326640D01*
X2329179D02*
X2331718Y363220D01*
X2334258D02*
X2336797D01*
X2335527D01*
Y355602D01*
X2334258Y356872D01*
X2345684Y363220D02*
X2340605D01*
X2345684Y358142D01*
Y356872D01*
X2344414Y355602D01*
X2341875D01*
X2340605Y356872D01*
X2443480Y411480D02*
X2451098D01*
Y415289D01*
X2449828Y416558D01*
X2447289D01*
X2446019Y415289D01*
Y411480D01*
Y414019D02*
X2443480Y416558D01*
Y419098D02*
Y421637D01*
Y420367D01*
X2451098D01*
X2449828Y419098D01*
X2443480Y425446D02*
Y427985D01*
Y426715D01*
X2451098D01*
X2449828Y425446D01*
X2235200Y746760D02*
X2227583D01*
Y742951D01*
X2228852Y741682D01*
X2231391D01*
X2232661Y742951D01*
Y746760D01*
Y744221D02*
X2235200Y741682D01*
X2227583Y739143D02*
Y734064D01*
X2228852D01*
X2233930Y739143D01*
X2235200D01*
X1642112Y228600D02*
Y233678D01*
X1643381Y234947D01*
X1645920D01*
X1647190Y233678D01*
Y228600D01*
X1645920Y227330D01*
X1643381D01*
X1644651Y229869D02*
X1642112Y227330D01*
X1643381D02*
X1642112Y228600D01*
X1639572Y233678D02*
X1638303Y234947D01*
X1635764D01*
X1634494Y233678D01*
Y232408D01*
X1635764Y231139D01*
X1637033D01*
X1635764D01*
X1634494Y229869D01*
Y228600D01*
X1635764Y227330D01*
X1638303D01*
X1639572Y228600D01*
X1771652Y542290D02*
Y547368D01*
X1772921Y548638D01*
X1775460D01*
X1776730Y547368D01*
Y542290D01*
X1775460Y541020D01*
X1772921D01*
X1774191Y543559D02*
X1771652Y541020D01*
X1772921D02*
X1771652Y542290D01*
X1769113Y547368D02*
X1767843Y548638D01*
X1765304D01*
X1764034Y547368D01*
Y546098D01*
X1765304Y544829D01*
X1766573D01*
X1765304D01*
X1764034Y543559D01*
Y542290D01*
X1765304Y541020D01*
X1767843D01*
X1769113Y542290D01*
X1798322Y228600D02*
Y233678D01*
X1799591Y234947D01*
X1802130D01*
X1803400Y233678D01*
Y228600D01*
X1802130Y227330D01*
X1799591D01*
X1800861Y229869D02*
X1798322Y227330D01*
X1799591D02*
X1798322Y228600D01*
X1795782Y233678D02*
X1794513Y234947D01*
X1791974D01*
X1790704Y233678D01*
Y232408D01*
X1791974Y231139D01*
X1793243D01*
X1791974D01*
X1790704Y229869D01*
Y228600D01*
X1791974Y227330D01*
X1794513D01*
X1795782Y228600D01*
X1616712Y384810D02*
Y389888D01*
X1617981Y391157D01*
X1620520D01*
X1621790Y389888D01*
Y384810D01*
X1620520Y383540D01*
X1617981D01*
X1619251Y386079D02*
X1616712Y383540D01*
X1617981D02*
X1616712Y384810D01*
X1614173Y389888D02*
X1612903Y391157D01*
X1610364D01*
X1609094Y389888D01*
Y388618D01*
X1610364Y387349D01*
X1611633D01*
X1610364D01*
X1609094Y386079D01*
Y384810D01*
X1610364Y383540D01*
X1612903D01*
X1614173Y384810D01*
X1772922D02*
Y389888D01*
X1774191Y391157D01*
X1776730D01*
X1778000Y389888D01*
Y384810D01*
X1776730Y383540D01*
X1774191D01*
X1775461Y386079D02*
X1772922Y383540D01*
X1774191D02*
X1772922Y384810D01*
X1770383Y389888D02*
X1769113Y391157D01*
X1766574D01*
X1765304Y389888D01*
Y388618D01*
X1766574Y387349D01*
X1767843D01*
X1766574D01*
X1765304Y386079D01*
Y384810D01*
X1766574Y383540D01*
X1769113D01*
X1770383Y384810D01*
X1616712Y542290D02*
Y547368D01*
X1617981Y548638D01*
X1620520D01*
X1621790Y547368D01*
Y542290D01*
X1620520Y541020D01*
X1617981D01*
X1619251Y543559D02*
X1616712Y541020D01*
X1617981D02*
X1616712Y542290D01*
X1614173Y547368D02*
X1612903Y548638D01*
X1610364D01*
X1609094Y547368D01*
Y546098D01*
X1610364Y544829D01*
X1611633D01*
X1610364D01*
X1609094Y543559D01*
Y542290D01*
X1610364Y541020D01*
X1612903D01*
X1614173Y542290D01*
X2407414Y857758D02*
Y862836D01*
X2408683Y864106D01*
X2411222D01*
X2412492Y862836D01*
Y857758D01*
X2411222Y856488D01*
X2408683D01*
X2409953Y859027D02*
X2407414Y856488D01*
X2408683D02*
X2407414Y857758D01*
X2404875Y856488D02*
X2402335D01*
X2403605D01*
Y864106D01*
X2404875Y862836D01*
X1704848Y373632D02*
Y366014D01*
X1701039D01*
X1699770Y367284D01*
Y372362D01*
X1701039Y373632D01*
X1704848D01*
X1692152D02*
X1697231D01*
Y369823D01*
X1694691Y371092D01*
X1693422D01*
X1692152Y369823D01*
Y367284D01*
X1693422Y366014D01*
X1695961D01*
X1697231Y367284D01*
X1835658Y686305D02*
Y678688D01*
X1831849D01*
X1830580Y679958D01*
Y685036D01*
X1831849Y686305D01*
X1835658D01*
X1822962D02*
X1828040D01*
Y682497D01*
X1825501Y683766D01*
X1824232D01*
X1822962Y682497D01*
Y679958D01*
X1824232Y678688D01*
X1826771D01*
X1828040Y679958D01*
X1861312Y372616D02*
Y364998D01*
X1857503D01*
X1856234Y366268D01*
Y371346D01*
X1857503Y372616D01*
X1861312D01*
X1848616D02*
X1853694D01*
Y368807D01*
X1851155Y370076D01*
X1849886D01*
X1848616Y368807D01*
Y366268D01*
X1849886Y364998D01*
X1852425D01*
X1853694Y366268D01*
X1680464Y529588D02*
Y521970D01*
X1676655D01*
X1675386Y523240D01*
Y528318D01*
X1676655Y529588D01*
X1680464D01*
X1667768D02*
X1672847D01*
Y525779D01*
X1670307Y527048D01*
X1669038D01*
X1667768Y525779D01*
Y523240D01*
X1669038Y521970D01*
X1671577D01*
X1672847Y523240D01*
X1834642Y531111D02*
Y523494D01*
X1830833D01*
X1829564Y524764D01*
Y529842D01*
X1830833Y531111D01*
X1834642D01*
X1821946D02*
X1827025D01*
Y527303D01*
X1824485Y528572D01*
X1823216D01*
X1821946Y527303D01*
Y524764D01*
X1823216Y523494D01*
X1825755D01*
X1827025Y524764D01*
X1680464Y688083D02*
Y680466D01*
X1676655D01*
X1675386Y681736D01*
Y686814D01*
X1676655Y688083D01*
X1680464D01*
X1667768D02*
X1672847D01*
Y684275D01*
X1670307Y685544D01*
X1669038D01*
X1667768Y684275D01*
Y681736D01*
X1669038Y680466D01*
X1671577D01*
X1672847Y681736D01*
X2508250Y1042667D02*
Y1035050D01*
X2504441D01*
X2503172Y1036320D01*
Y1041398D01*
X2504441Y1042667D01*
X2508250D01*
X2496824Y1035050D02*
Y1042667D01*
X2500632Y1038859D01*
X2495554D01*
X2264410Y1041397D02*
Y1033780D01*
X2260601D01*
X2259332Y1035050D01*
Y1040128D01*
X2260601Y1041397D01*
X2264410D01*
X2252984Y1033780D02*
Y1041397D01*
X2256792Y1037589D01*
X2251714D01*
X2021840Y1043938D02*
Y1036320D01*
X2018031D01*
X2016762Y1037590D01*
Y1042668D01*
X2018031Y1043938D01*
X2021840D01*
X2010414Y1036320D02*
Y1043938D01*
X2014223Y1040129D01*
X2009144D01*
X1779270Y1043938D02*
Y1036320D01*
X1775461D01*
X1774192Y1037590D01*
Y1042668D01*
X1775461Y1043938D01*
X1779270D01*
X1767844Y1036320D02*
Y1043938D01*
X1771653Y1040129D01*
X1766574D01*
X1725927Y869950D02*
X1718310D01*
Y873759D01*
X1719580Y875028D01*
X1724658D01*
X1725927Y873759D01*
Y869950D01*
X1718310Y881376D02*
X1725927D01*
X1722119Y877568D01*
Y882646D01*
X2065018Y615948D02*
X2066288Y614679D01*
Y612140D01*
X2065018Y610870D01*
X2059940D01*
X2058670Y612140D01*
Y614679D01*
X2059940Y615948D01*
X2058670Y623566D02*
Y618488D01*
X2063748Y623566D01*
X2065018D01*
X2066288Y622296D01*
Y619757D01*
X2065018Y618488D01*
X2058670Y631183D02*
Y626105D01*
X2063748Y631183D01*
X2065018D01*
X2066288Y629914D01*
Y627375D01*
X2065018Y626105D01*
X2078988Y548642D02*
X2077719Y547373D01*
X2075180D01*
X2073910Y548642D01*
Y553720D01*
X2075180Y554990D01*
X2077719D01*
X2078988Y553720D01*
X2086606Y554990D02*
X2081528D01*
X2086606Y549912D01*
Y548642D01*
X2085336Y547373D01*
X2082797D01*
X2081528Y548642D01*
X2089145Y554990D02*
X2091684D01*
X2090415D01*
Y547373D01*
X2089145Y548642D01*
X2086612Y591818D02*
X2087881Y593088D01*
X2090420D01*
X2091690Y591818D01*
Y586740D01*
X2090420Y585470D01*
X2087881D01*
X2086612Y586740D01*
X2078994Y585470D02*
X2084073D01*
X2078994Y590548D01*
Y591818D01*
X2080264Y593088D01*
X2082803D01*
X2084073Y591818D01*
X2076455D02*
X2075185Y593088D01*
X2072646D01*
X2071377Y591818D01*
Y586740D01*
X2072646Y585470D01*
X2075185D01*
X2076455Y586740D01*
Y591818D01*
X2010412Y567692D02*
X2009142Y568961D01*
Y571500D01*
X2010412Y572770D01*
X2015490D01*
X2016760Y571500D01*
Y568961D01*
X2015490Y567692D01*
X2016760Y565153D02*
Y562613D01*
Y563883D01*
X2009142D01*
X2010412Y565153D01*
X2015490Y558805D02*
X2016760Y557535D01*
Y554996D01*
X2015490Y553726D01*
X2010412D01*
X2009142Y554996D01*
Y557535D01*
X2010412Y558805D01*
X2011682D01*
X2012951Y557535D01*
Y553726D01*
X2301242Y281942D02*
X2299973Y283211D01*
Y285750D01*
X2301242Y287020D01*
X2306320D01*
X2307590Y285750D01*
Y283211D01*
X2306320Y281942D01*
X2307590Y279403D02*
Y276863D01*
Y278133D01*
X2299973D01*
X2301242Y279403D01*
X2299973Y267976D02*
Y273055D01*
X2303781D01*
X2302512Y270515D01*
Y269246D01*
X2303781Y267976D01*
X2306320D01*
X2307590Y269246D01*
Y271785D01*
X2306320Y273055D01*
X2221232Y307342D02*
X2219962Y308611D01*
Y311150D01*
X2221232Y312420D01*
X2226310D01*
X2227580Y311150D01*
Y308611D01*
X2226310Y307342D01*
X2227580Y304802D02*
Y302263D01*
Y303533D01*
X2219962D01*
X2221232Y304802D01*
X2227580Y294646D02*
X2219962D01*
X2223771Y298454D01*
Y293376D01*
X2180588Y359412D02*
X2179319Y358143D01*
X2176780D01*
X2175510Y359412D01*
Y364490D01*
X2176780Y365760D01*
X2179319D01*
X2180588Y364490D01*
X2183127Y365760D02*
X2185667D01*
X2184397D01*
Y358143D01*
X2183127Y359412D01*
X2189476D02*
X2190745Y358143D01*
X2193284D01*
X2194554Y359412D01*
Y364490D01*
X2193284Y365760D01*
X2190745D01*
X2189476Y364490D01*
Y359412D01*
X2194562Y496568D02*
X2195831Y497837D01*
X2198370D01*
X2199640Y496568D01*
Y491490D01*
X2198370Y490220D01*
X2195831D01*
X2194562Y491490D01*
X2192023D02*
X2190753Y490220D01*
X2188214D01*
X2186944Y491490D01*
Y496568D01*
X2188214Y497837D01*
X2190753D01*
X2192023Y496568D01*
Y495298D01*
X2190753Y494029D01*
X2186944D01*
X2261872Y414022D02*
X2260603Y415291D01*
Y417830D01*
X2261872Y419100D01*
X2266950D01*
X2268220Y417830D01*
Y415291D01*
X2266950Y414022D01*
X2261872Y411483D02*
X2260603Y410213D01*
Y407674D01*
X2261872Y406404D01*
X2263142D01*
X2264411Y407674D01*
X2265681Y406404D01*
X2266950D01*
X2268220Y407674D01*
Y410213D01*
X2266950Y411483D01*
X2265681D01*
X2264411Y410213D01*
X2263142Y411483D01*
X2261872D01*
X2264411Y410213D02*
Y407674D01*
X2255776Y820418D02*
X2257045Y821687D01*
X2259584D01*
X2260854Y820418D01*
Y815340D01*
X2259584Y814070D01*
X2257045D01*
X2255776Y815340D01*
X2248158Y814070D02*
X2253237D01*
X2248158Y819148D01*
Y820418D01*
X2249428Y821687D01*
X2251967D01*
X2253237Y820418D01*
D17*
X1957762Y793559D02*
Y795559D01*
X2012763D01*
Y793559D02*
Y795559D01*
Y767557D02*
Y769557D01*
X1957762Y767557D02*
X2012763D01*
X1957762D02*
Y769557D01*
X2323230Y304780D02*
X2373230D01*
X2323230Y286780D02*
X2373230D01*
X2323230D02*
Y304780D01*
X2373230Y286780D02*
Y304780D01*
X2155450Y403634D02*
Y470634D01*
X2187950Y403634D02*
Y470634D01*
X2155450D02*
X2187950D01*
X2155450Y403634D02*
X2187950D01*
X2311420Y389020D02*
Y439020D01*
X2329420Y389020D02*
Y439020D01*
X2311420Y389020D02*
X2329420D01*
X2311420Y439020D02*
X2329420D01*
X2306276Y741623D02*
X2321276D01*
X2306276D02*
Y845623D01*
X2321276D01*
X1678909Y353130D02*
X1680909D01*
X1678909Y298129D02*
Y353130D01*
Y298129D02*
X1680909D01*
X1704911D02*
X1706911D01*
Y353130D01*
X1704911D02*
X1706911D01*
X1809719Y668090D02*
X1811719D01*
X1809719Y613089D02*
Y668090D01*
Y613089D02*
X1811719D01*
X1835721D02*
X1837721D01*
Y668090D01*
X1835721D02*
X1837721D01*
X1835119Y353130D02*
X1837119D01*
X1835119Y298129D02*
Y353130D01*
Y298129D02*
X1837119D01*
X1861121D02*
X1863121D01*
Y353130D01*
X1861121D02*
X1863121D01*
X1653509Y510610D02*
X1655509D01*
X1653509Y455609D02*
Y510610D01*
Y455609D02*
X1655509D01*
X1679511D02*
X1681511D01*
Y510610D01*
X1679511D02*
X1681511D01*
X1809719D02*
X1811719D01*
X1809719Y455609D02*
Y510610D01*
Y455609D02*
X1811719D01*
X1835721D02*
X1837721D01*
Y510610D01*
X1835721D02*
X1837721D01*
X1653509Y668090D02*
X1655509D01*
X1653509Y613089D02*
Y668090D01*
Y613089D02*
X1655509D01*
X1679511D02*
X1681511D01*
Y668090D01*
X1679511D02*
X1681511D01*
X2527878Y1073975D02*
Y1075975D01*
X2472877D02*
X2527878D01*
X2472877Y1073975D02*
Y1075975D01*
Y1047973D02*
Y1049973D01*
Y1047973D02*
X2527878D01*
Y1049973D01*
X2285816Y1073975D02*
Y1075975D01*
X2230815D02*
X2285816D01*
X2230815Y1073975D02*
Y1075975D01*
Y1047973D02*
Y1049973D01*
Y1047973D02*
X2285816D01*
Y1049973D01*
X2041976Y1073975D02*
Y1075975D01*
X1986975D02*
X2041976D01*
X1986975Y1073975D02*
Y1075975D01*
Y1047973D02*
Y1049973D01*
Y1047973D02*
X2041976D01*
Y1049973D01*
X1797628Y1073721D02*
Y1075721D01*
X1742627D02*
X1797628D01*
X1742627Y1073721D02*
Y1075721D01*
Y1047719D02*
Y1049719D01*
Y1047719D02*
X1797628D01*
Y1049719D01*
X1683989Y902024D02*
X1685989D01*
X1683989Y847023D02*
Y902024D01*
Y847023D02*
X1685989D01*
X1709991D02*
X1711991D01*
Y902024D01*
X1709991D02*
X1711991D01*
D18*
X1863090Y937006D02*
X1950720D01*
X1898396Y856234D02*
X2018284D01*
X1898396Y856742D02*
X2018284D01*
X1920748Y861314D02*
X1925320D01*
X1920748Y861822D02*
X1925320D01*
X1899412Y862330D02*
X1899920D01*
X1920748D02*
X1922272D01*
X1898396Y862838D02*
X1899920D01*
X1920748D02*
X1922272D01*
X1898396Y863346D02*
X1899920D01*
X1906524D02*
X1908048D01*
X1912620D02*
X1917192D01*
X1920748D02*
X1922272D01*
X1928876D02*
X1930908D01*
X1931924D02*
X1933448D01*
X1937004D02*
X1941576D01*
X1947672D02*
X1949196D01*
X1960372D02*
X1961896D01*
X1971548D02*
X1973072D01*
X1974596D02*
X1976120D01*
X1979676D02*
X1984248D01*
X1987804D02*
X1992376D01*
X2002028D02*
X2007108D01*
X2010156D02*
X2018284D01*
X1898396Y863854D02*
X1899920D01*
X1906524D02*
X1908048D01*
X1915668D02*
X1917192D01*
X1920748D02*
X1925320D01*
X1928876D02*
X1930908D01*
X1931924D02*
X1933448D01*
X1937004D02*
X1938528D01*
X1940052D02*
X1941576D01*
X1947672D02*
X1949196D01*
X1960372D02*
X1961896D01*
X1971548D02*
X1973072D01*
X1974596D02*
X1976120D01*
X1979676D02*
X1981200D01*
X1982724D02*
X1984248D01*
X1987804D02*
X1989328D01*
X1990852D02*
X1992376D01*
X2005584D02*
X2007108D01*
X2010156D02*
X2012188D01*
X2013712D02*
X2015236D01*
X2016760D02*
X2018284D01*
X1906524Y864362D02*
X1908048D01*
X1915668D02*
X1917192D01*
X1920748D02*
X1925320D01*
X1929384D02*
X1931416D01*
X1931924D02*
X1933448D01*
X1937004D02*
X1938528D01*
X1940052D02*
X1941576D01*
X1947672D02*
X1949196D01*
X1960372D02*
X1961896D01*
X1971548D02*
X1973072D01*
X1974596D02*
X1976120D01*
X1979676D02*
X1981200D01*
X1982724D02*
X1984248D01*
X1987804D02*
X1989328D01*
X1990852D02*
X1992376D01*
X2005584D02*
X2007108D01*
X2010156D02*
X2012188D01*
X2013712D02*
X2015236D01*
X2016760D02*
X2018284D01*
X1906524Y864870D02*
X1908048D01*
X1915668D02*
X1917192D01*
X1920748D02*
X1922272D01*
X1923796D02*
X1925320D01*
X1929892D02*
X1933448D01*
X1937004D02*
X1938528D01*
X1940052D02*
X1941576D01*
X1947672D02*
X1949196D01*
X1960372D02*
X1961896D01*
X1971548D02*
X1973072D01*
X1974596D02*
X1976120D01*
X1979676D02*
X1981200D01*
X1982724D02*
X1984248D01*
X1987804D02*
X1989328D01*
X1990852D02*
X1992376D01*
X2005584D02*
X2007108D01*
X2010156D02*
X2012188D01*
X2013712D02*
X2015236D01*
X2016760D02*
X2018284D01*
X1906524Y865378D02*
X1908048D01*
X1912620D02*
X1917192D01*
X1920748D02*
X1922272D01*
X1923796D02*
X1925320D01*
X1930908D02*
X1933448D01*
X1937004D02*
X1938528D01*
X1940052D02*
X1941576D01*
X1947672D02*
X1949196D01*
X1960372D02*
X1961896D01*
X1971548D02*
X1973072D01*
X1974596D02*
X1976120D01*
X1979676D02*
X1981200D01*
X1982724D02*
X1984248D01*
X1987804D02*
X1989328D01*
X1990852D02*
X1992376D01*
X2002028D02*
X2007108D01*
X2010156D02*
X2012188D01*
X2013712D02*
X2015236D01*
X2016760D02*
X2018284D01*
X1898396Y865886D02*
X1899920D01*
X1906524D02*
X1908048D01*
X1912620D02*
X1917192D01*
X1920748D02*
X1922272D01*
X1923796D02*
X1925320D01*
X1930908D02*
X1933448D01*
X1937004D02*
X1938528D01*
X1940052D02*
X1941576D01*
X1947672D02*
X1949196D01*
X1960372D02*
X1961896D01*
X1971548D02*
X1973072D01*
X1974596D02*
X1976120D01*
X1979676D02*
X1981200D01*
X1982724D02*
X1984248D01*
X1987804D02*
X1989328D01*
X1990852D02*
X1992376D01*
X2002028D02*
X2007108D01*
X2010156D02*
X2012188D01*
X2013712D02*
X2015236D01*
X2016760D02*
X2018284D01*
X1898396Y866394D02*
X1899920D01*
X1906524D02*
X1908048D01*
X1912620D02*
X1914144D01*
X1915668D02*
X1917192D01*
X1920748D02*
X1922272D01*
X1923796D02*
X1925320D01*
X1928876D02*
X1933448D01*
X1937004D02*
X1938528D01*
X1940052D02*
X1941576D01*
X1947672D02*
X1949196D01*
X1960372D02*
X1961896D01*
X1971548D02*
X1973072D01*
X1974596D02*
X1976120D01*
X1979676D02*
X1981200D01*
X1982724D02*
X1984248D01*
X1987804D02*
X1989328D01*
X1990852D02*
X1992376D01*
X2002028D02*
X2004060D01*
X2005584D02*
X2007108D01*
X2010156D02*
X2012188D01*
X2013712D02*
X2015236D01*
X2016760D02*
X2018284D01*
X1898396Y866902D02*
X1899920D01*
X1906524D02*
X1908048D01*
X1912620D02*
X1914144D01*
X1915668D02*
X1917192D01*
X1920748D02*
X1922272D01*
X1923796D02*
X1925320D01*
X1928876D02*
X1933448D01*
X1937004D02*
X1938528D01*
X1940052D02*
X1941576D01*
X1947672D02*
X1949196D01*
X1960372D02*
X1961896D01*
X1971548D02*
X1973072D01*
X1974596D02*
X1976120D01*
X1979676D02*
X1981200D01*
X1982724D02*
X1984248D01*
X1987804D02*
X1989328D01*
X1990852D02*
X1992376D01*
X2002028D02*
X2004060D01*
X2005584D02*
X2007108D01*
X2010156D02*
X2012188D01*
X2013712D02*
X2015236D01*
X2016760D02*
X2018284D01*
X1898396Y867410D02*
X1899920D01*
X1906524D02*
X1908048D01*
X1912620D02*
X1914144D01*
X1915668D02*
X1917192D01*
X1920748D02*
X1922272D01*
X1923796D02*
X1925320D01*
X1928876D02*
X1930400D01*
X1931924D02*
X1933448D01*
X1937004D02*
X1938528D01*
X1940052D02*
X1941576D01*
X1947672D02*
X1949196D01*
X1960372D02*
X1961896D01*
X1971548D02*
X1973072D01*
X1974596D02*
X1976120D01*
X1979676D02*
X1981200D01*
X1982724D02*
X1984248D01*
X1987804D02*
X1989328D01*
X1990852D02*
X1992376D01*
X2002028D02*
X2004060D01*
X2005584D02*
X2007108D01*
X2010156D02*
X2012188D01*
X2013712D02*
X2015236D01*
X2016760D02*
X2018284D01*
X1898396Y867918D02*
X1899920D01*
X1906524D02*
X1908048D01*
X1912620D02*
X1914144D01*
X1915668D02*
X1917192D01*
X1920748D02*
X1922272D01*
X1923796D02*
X1925320D01*
X1928876D02*
X1930400D01*
X1931924D02*
X1933448D01*
X1937004D02*
X1938528D01*
X1940052D02*
X1941576D01*
X1947672D02*
X1949196D01*
X1960372D02*
X1961896D01*
X1971548D02*
X1973072D01*
X1974596D02*
X1976120D01*
X1979676D02*
X1981200D01*
X1982724D02*
X1984248D01*
X1987804D02*
X1989328D01*
X1990852D02*
X1992376D01*
X2002028D02*
X2004060D01*
X2005584D02*
X2007108D01*
X2010156D02*
X2012188D01*
X2013712D02*
X2015236D01*
X2016760D02*
X2018284D01*
X1898396Y868426D02*
X1899920D01*
X1906524D02*
X1908048D01*
X1912620D02*
X1914144D01*
X1915668D02*
X1917192D01*
X1920748D02*
X1922272D01*
X1923796D02*
X1925320D01*
X1928876D02*
X1930400D01*
X1931924D02*
X1933448D01*
X1937004D02*
X1938528D01*
X1940052D02*
X1941576D01*
X1945132D02*
X1949196D01*
X1960372D02*
X1961896D01*
X1971548D02*
X1973072D01*
X1974596D02*
X1976120D01*
X1979676D02*
X1981200D01*
X1982724D02*
X1984248D01*
X1987804D02*
X1989328D01*
X1990852D02*
X1992376D01*
X2002028D02*
X2004060D01*
X2005584D02*
X2007108D01*
X2010156D02*
X2012188D01*
X2013712D02*
X2015236D01*
X2016760D02*
X2018284D01*
X1898396Y868934D02*
X1899920D01*
X1906524D02*
X1908048D01*
X1912620D02*
X1914144D01*
X1915668D02*
X1917192D01*
X1920748D02*
X1922272D01*
X1923796D02*
X1925320D01*
X1928876D02*
X1930400D01*
X1931924D02*
X1933448D01*
X1937004D02*
X1938528D01*
X1940052D02*
X1941576D01*
X1945132D02*
X1949196D01*
X1960372D02*
X1961896D01*
X1971548D02*
X1973072D01*
X1974596D02*
X1976120D01*
X1979676D02*
X1981200D01*
X1982724D02*
X1984248D01*
X1987804D02*
X1989328D01*
X1990852D02*
X1992376D01*
X2002028D02*
X2004060D01*
X2005584D02*
X2007108D01*
X2010156D02*
X2012188D01*
X2013712D02*
X2015236D01*
X2016760D02*
X2018284D01*
X1898396Y869442D02*
X1899920D01*
X1906524D02*
X1908048D01*
X1912620D02*
X1914144D01*
X1915668D02*
X1917192D01*
X1920748D02*
X1922272D01*
X1923796D02*
X1925320D01*
X1928876D02*
X1930400D01*
X1931924D02*
X1933448D01*
X1937004D02*
X1938528D01*
X1940052D02*
X1941576D01*
X1947672D02*
X1949196D01*
X1960372D02*
X1961896D01*
X1971548D02*
X1973072D01*
X1974596D02*
X1976120D01*
X1979676D02*
X1981200D01*
X1982724D02*
X1984248D01*
X1987804D02*
X1989328D01*
X1990852D02*
X1992376D01*
X2002028D02*
X2004060D01*
X2005584D02*
X2007108D01*
X2010156D02*
X2012188D01*
X2013712D02*
X2015236D01*
X2016760D02*
X2018284D01*
X1898396Y869950D02*
X1899920D01*
X1906524D02*
X1908048D01*
X1912620D02*
X1914144D01*
X1915668D02*
X1917192D01*
X1920748D02*
X1922272D01*
X1923796D02*
X1925320D01*
X1928876D02*
X1930400D01*
X1931924D02*
X1933448D01*
X1937004D02*
X1938528D01*
X1940052D02*
X1941576D01*
X1947672D02*
X1949196D01*
X1960372D02*
X1961896D01*
X1971548D02*
X1973072D01*
X1974596D02*
X1976120D01*
X1979676D02*
X1981200D01*
X1982724D02*
X1984248D01*
X1987804D02*
X1989328D01*
X1990852D02*
X1992376D01*
X2002028D02*
X2004060D01*
X2005584D02*
X2007108D01*
X2010156D02*
X2012188D01*
X2013712D02*
X2015236D01*
X2016760D02*
X2018284D01*
X1898396Y870458D02*
X1899920D01*
X1906524D02*
X1908048D01*
X1912620D02*
X1914144D01*
X1915668D02*
X1917192D01*
X1920748D02*
X1922272D01*
X1923796D02*
X1925320D01*
X1928876D02*
X1930400D01*
X1931924D02*
X1933448D01*
X1937004D02*
X1938528D01*
X1940052D02*
X1941576D01*
X1947672D02*
X1949196D01*
X1960372D02*
X1961896D01*
X1971548D02*
X1973072D01*
X1974596D02*
X1976120D01*
X1979676D02*
X1981200D01*
X1982724D02*
X1984248D01*
X1987804D02*
X1989328D01*
X1990852D02*
X1992376D01*
X2002028D02*
X2004060D01*
X2005584D02*
X2007108D01*
X2010156D02*
X2012188D01*
X2013712D02*
X2015236D01*
X2016760D02*
X2018284D01*
X1898396Y870966D02*
X1899920D01*
X1906524D02*
X1908048D01*
X1912620D02*
X1914144D01*
X1915668D02*
X1917192D01*
X1920748D02*
X1922272D01*
X1923796D02*
X1925320D01*
X1928876D02*
X1930400D01*
X1931924D02*
X1933448D01*
X1937004D02*
X1938528D01*
X1940052D02*
X1941576D01*
X1947672D02*
X1949196D01*
X1960372D02*
X1961896D01*
X1971548D02*
X1973072D01*
X1974596D02*
X1976120D01*
X1979676D02*
X1981200D01*
X1982724D02*
X1984248D01*
X1987804D02*
X1989328D01*
X1990852D02*
X1992376D01*
X2002028D02*
X2004060D01*
X2005584D02*
X2007108D01*
X2010156D02*
X2012188D01*
X2013712D02*
X2015236D01*
X2016760D02*
X2018284D01*
X1898396Y871474D02*
X1899920D01*
X1906524D02*
X1908048D01*
X1912620D02*
X1914144D01*
X1915668D02*
X1917192D01*
X1920748D02*
X1922272D01*
X1923796D02*
X1925320D01*
X1928876D02*
X1930400D01*
X1931924D02*
X1933448D01*
X1937004D02*
X1938528D01*
X1940052D02*
X1941576D01*
X1947672D02*
X1949196D01*
X1960372D02*
X1961896D01*
X1971548D02*
X1973072D01*
X1974596D02*
X1976120D01*
X1979676D02*
X1981200D01*
X1982724D02*
X1984248D01*
X1987804D02*
X1989328D01*
X1990852D02*
X1992376D01*
X2002028D02*
X2004060D01*
X2005584D02*
X2007108D01*
X2010156D02*
X2012188D01*
X2013712D02*
X2015236D01*
X2016760D02*
X2018284D01*
X1898396Y871982D02*
X1899920D01*
X1906524D02*
X1908048D01*
X1912620D02*
X1914144D01*
X1915668D02*
X1917192D01*
X1920748D02*
X1922272D01*
X1923796D02*
X1925320D01*
X1928876D02*
X1930400D01*
X1931924D02*
X1933448D01*
X1937004D02*
X1938528D01*
X1940052D02*
X1941576D01*
X1947672D02*
X1949196D01*
X1960372D02*
X1961896D01*
X1971548D02*
X1973072D01*
X1974596D02*
X1976120D01*
X1979676D02*
X1981200D01*
X1982724D02*
X1984248D01*
X1987804D02*
X1989328D01*
X1990852D02*
X1992376D01*
X2002028D02*
X2004060D01*
X2005584D02*
X2007108D01*
X2010156D02*
X2012188D01*
X2013712D02*
X2015236D01*
X2016760D02*
X2018284D01*
X1898396Y872490D02*
X1899920D01*
X1906524D02*
X1908048D01*
X1912620D02*
X1914144D01*
X1915668D02*
X1917192D01*
X1920748D02*
X1922272D01*
X1923796D02*
X1925320D01*
X1928876D02*
X1930400D01*
X1931924D02*
X1933448D01*
X1937004D02*
X1938528D01*
X1940052D02*
X1941576D01*
X1947672D02*
X1949196D01*
X1960372D02*
X1961896D01*
X1971548D02*
X1973072D01*
X1974596D02*
X1976120D01*
X1979676D02*
X1981200D01*
X1982724D02*
X1984248D01*
X1987804D02*
X1989328D01*
X1990852D02*
X1992376D01*
X2002028D02*
X2004060D01*
X2005584D02*
X2007108D01*
X2010156D02*
X2012188D01*
X2013712D02*
X2015236D01*
X2016760D02*
X2018284D01*
X1898396Y872998D02*
X1899920D01*
X1906524D02*
X1908048D01*
X1912620D02*
X1914144D01*
X1915668D02*
X1917192D01*
X1920748D02*
X1922272D01*
X1923796D02*
X1925320D01*
X1928876D02*
X1930400D01*
X1931924D02*
X1933448D01*
X1937004D02*
X1938528D01*
X1940052D02*
X1941576D01*
X1947672D02*
X1949196D01*
X1960372D02*
X1961896D01*
X1966468D02*
X1967992D01*
X1971548D02*
X1973072D01*
X1974596D02*
X1976120D01*
X1979676D02*
X1981200D01*
X1982724D02*
X1984248D01*
X1987804D02*
X1989328D01*
X1990852D02*
X1992376D01*
X2002028D02*
X2004060D01*
X2005584D02*
X2007108D01*
X2010156D02*
X2012188D01*
X2013712D02*
X2015236D01*
X2016760D02*
X2018284D01*
X1898396Y873506D02*
X1899920D01*
X1904492D02*
X1909572D01*
X1912620D02*
X1917192D01*
X1920748D02*
X1925320D01*
X1928876D02*
X1933448D01*
X1937004D02*
X1941576D01*
X1944624D02*
X1949196D01*
X1958848D02*
X1963420D01*
X1966468D02*
X1967992D01*
X1971548D02*
X1976120D01*
X1979676D02*
X1984248D01*
X1987804D02*
X1992376D01*
X2002028D02*
X2007108D01*
X2010156D02*
X2012188D01*
X2013712D02*
X2015236D01*
X2016760D02*
X2018284D01*
X1898396Y874014D02*
X1899920D01*
X1904492D02*
X1909572D01*
X1912620D02*
X1917192D01*
X1920748D02*
X1925828D01*
X1928876D02*
X1933448D01*
X1937004D02*
X1942084D01*
X1944624D02*
X1949196D01*
X1958848D02*
X1963420D01*
X1966468D02*
X1967992D01*
X1971548D02*
X1976120D01*
X1979676D02*
X1984248D01*
X1987804D02*
X1992376D01*
X2002028D02*
X2007108D01*
X2010156D02*
X2012188D01*
X2013712D02*
X2015236D01*
X2016760D02*
X2018284D01*
X1966468Y874522D02*
X1967992D01*
X1987804D02*
X1989328D01*
X1966468Y875030D02*
X1967992D01*
X1987804D02*
X1989328D01*
X1966468Y875538D02*
X1967992D01*
X1987804D02*
X1989328D01*
X1897888Y883158D02*
X2155444D01*
X1897888Y883666D02*
X2155444D01*
X1897888Y884174D02*
X2155444D01*
X1897888Y884682D02*
X2155444D01*
X1897888Y885190D02*
X2155444D01*
X1897888Y885698D02*
X2155444D01*
X1897888Y886206D02*
X2155444D01*
X1897888Y886714D02*
X1925828D01*
X2151888D02*
X2155444D01*
X1897888Y887222D02*
X1925828D01*
X2151888D02*
X2155444D01*
X1897888Y887730D02*
X1925828D01*
X2151888D02*
X2155444D01*
X1897888Y888238D02*
X1925828D01*
X2151888D02*
X2155444D01*
X1897888Y888746D02*
X1925828D01*
X2151888D02*
X2155444D01*
X1897888Y889254D02*
X1925828D01*
X2151888D02*
X2155444D01*
X1897888Y889762D02*
X1925828D01*
X2151888D02*
X2155444D01*
X1897888Y890270D02*
X1925828D01*
X2151888D02*
X2155444D01*
X1897888Y890778D02*
X1925828D01*
X2151888D02*
X2155444D01*
X1897888Y891286D02*
X1925828D01*
X2151888D02*
X2155444D01*
X1897888Y891794D02*
X1925828D01*
X2151888D02*
X2155444D01*
X1897888Y892302D02*
X1925828D01*
X2151888D02*
X2155444D01*
X1897888Y892810D02*
X1925828D01*
X2151888D02*
X2155444D01*
X1897888Y893318D02*
X1925828D01*
X2151888D02*
X2155444D01*
X1897888Y893826D02*
X1925828D01*
X2151888D02*
X2155444D01*
X1897888Y894334D02*
X1925828D01*
X2151888D02*
X2155444D01*
X1897888Y894842D02*
X1925828D01*
X2151888D02*
X2155444D01*
X1897888Y895350D02*
X1925828D01*
X2151888D02*
X2155444D01*
X1897888Y895858D02*
X1925828D01*
X2151888D02*
X2155444D01*
X1897888Y896366D02*
X1925828D01*
X2151888D02*
X2155444D01*
X1897888Y896874D02*
X1925828D01*
X2151888D02*
X2155444D01*
X1897888Y897382D02*
X1925828D01*
X2151888D02*
X2155444D01*
X1897888Y897890D02*
X1925828D01*
X2151888D02*
X2155444D01*
X1897888Y898398D02*
X1925828D01*
X2151888D02*
X2155444D01*
X1897888Y898906D02*
X1925828D01*
X2151888D02*
X2155444D01*
X1897888Y899414D02*
X1925828D01*
X2151888D02*
X2155444D01*
X1897888Y899922D02*
X1925828D01*
X2151888D02*
X2155444D01*
X1897888Y900430D02*
X1925828D01*
X2151888D02*
X2155444D01*
X1897888Y900938D02*
X1925828D01*
X2151888D02*
X2155444D01*
X1897888Y901446D02*
X1925828D01*
X2151888D02*
X2155444D01*
X1897888Y901954D02*
X1925828D01*
X2151888D02*
X2155444D01*
X1897888Y902462D02*
X1925828D01*
X2151888D02*
X2155444D01*
X1897888Y902970D02*
X1925828D01*
X2151888D02*
X2155444D01*
X1897888Y903478D02*
X1925828D01*
X2151888D02*
X2155444D01*
X1897888Y903986D02*
X1925828D01*
X2151888D02*
X2155444D01*
X1897888Y904494D02*
X1925828D01*
X2151888D02*
X2155444D01*
X1897888Y905002D02*
X1925828D01*
X2151888D02*
X2155444D01*
X1897888Y905510D02*
X1925828D01*
X2151888D02*
X2155444D01*
X1897888Y906018D02*
X1925828D01*
X2151888D02*
X2155444D01*
X1897888Y906526D02*
X1925828D01*
X2151888D02*
X2155444D01*
X1897888Y907034D02*
X1925828D01*
X2151888D02*
X2155444D01*
X1897888Y907542D02*
X1925828D01*
X1977136D02*
X1987296D01*
X2015744D02*
X2025904D01*
X2046732D02*
X2050288D01*
X2053336D02*
X2056892D01*
X2085848D02*
X2096008D01*
X2151888D02*
X2155444D01*
X1897888Y908050D02*
X1925828D01*
X1977136D02*
X1987296D01*
X2015744D02*
X2025904D01*
X2047240D02*
X2050796D01*
X2053336D02*
X2056892D01*
X2085848D02*
X2096008D01*
X2151888D02*
X2155444D01*
X1897888Y908558D02*
X1925828D01*
X1977136D02*
X1987296D01*
X2015744D02*
X2025904D01*
X2047240D02*
X2051304D01*
X2053336D02*
X2056892D01*
X2085848D02*
X2096008D01*
X2151888D02*
X2155444D01*
X1897888Y909066D02*
X1925828D01*
X1977136D02*
X1987296D01*
X2015744D02*
X2025904D01*
X2047240D02*
X2051304D01*
X2053336D02*
X2056892D01*
X2085848D02*
X2096008D01*
X2151888D02*
X2155444D01*
X1897888Y909574D02*
X1925828D01*
X1977136D02*
X1987296D01*
X2015744D02*
X2025904D01*
X2047748D02*
X2051304D01*
X2053336D02*
X2056892D01*
X2085848D02*
X2096008D01*
X2151888D02*
X2155444D01*
X1897888Y910082D02*
X1925828D01*
X1977136D02*
X1987296D01*
X2015744D02*
X2025904D01*
X2047748D02*
X2051304D01*
X2053336D02*
X2056892D01*
X2085848D02*
X2096008D01*
X2151888D02*
X2155444D01*
X1897888Y910590D02*
X1925828D01*
X1977136D02*
X1980692D01*
X1983740D02*
X1987296D01*
X2015744D02*
X2019300D01*
X2048256D02*
X2051812D01*
X2053336D02*
X2056892D01*
X2092452D02*
X2096008D01*
X2151888D02*
X2155444D01*
X1897888Y911098D02*
X1925828D01*
X1977136D02*
X1980692D01*
X1983740D02*
X1987296D01*
X2015744D02*
X2019300D01*
X2048764D02*
X2052320D01*
X2053336D02*
X2056892D01*
X2092452D02*
X2096008D01*
X2151888D02*
X2155444D01*
X1897888Y911606D02*
X1925828D01*
X1977136D02*
X1980692D01*
X1983740D02*
X1987296D01*
X2015744D02*
X2019300D01*
X2048764D02*
X2052320D01*
X2053336D02*
X2056892D01*
X2092452D02*
X2096008D01*
X2151888D02*
X2155444D01*
X1897888Y912114D02*
X1925828D01*
X1977136D02*
X1980692D01*
X1983740D02*
X1987296D01*
X2015744D02*
X2019300D01*
X2049272D02*
X2052828D01*
X2053336D02*
X2056892D01*
X2092452D02*
X2096008D01*
X2151888D02*
X2155444D01*
X1897888Y912622D02*
X1925828D01*
X1977136D02*
X1980692D01*
X1983740D02*
X1987296D01*
X2015744D02*
X2019300D01*
X2049272D02*
X2056892D01*
X2092452D02*
X2096008D01*
X2151888D02*
X2155444D01*
X1897888Y913130D02*
X1925828D01*
X1977136D02*
X1980692D01*
X1983740D02*
X1987296D01*
X2015744D02*
X2019300D01*
X2049272D02*
X2056892D01*
X2092452D02*
X2096008D01*
X2151888D02*
X2155444D01*
X1897888Y913638D02*
X1925828D01*
X1977136D02*
X1980692D01*
X1983740D02*
X1987296D01*
X2015744D02*
X2019300D01*
X2049780D02*
X2056892D01*
X2092452D02*
X2096008D01*
X2151888D02*
X2155444D01*
X1897888Y914146D02*
X1925828D01*
X1977136D02*
X1980692D01*
X1983740D02*
X1987296D01*
X2015744D02*
X2019300D01*
X2049780D02*
X2056892D01*
X2092452D02*
X2096008D01*
X2151888D02*
X2155444D01*
X1897888Y914654D02*
X1925828D01*
X1977136D02*
X1980692D01*
X1983740D02*
X1987296D01*
X2015744D02*
X2019300D01*
X2050288D02*
X2056892D01*
X2092452D02*
X2096008D01*
X2151888D02*
X2155444D01*
X1897888Y915162D02*
X1925828D01*
X1977136D02*
X1980692D01*
X1983740D02*
X1987296D01*
X2015744D02*
X2019300D01*
X2050288D02*
X2056892D01*
X2092452D02*
X2096008D01*
X2151888D02*
X2155444D01*
X1897888Y915670D02*
X1925828D01*
X1977136D02*
X1980692D01*
X1983740D02*
X1987296D01*
X2015744D02*
X2019300D01*
X2050796D02*
X2056892D01*
X2092452D02*
X2096008D01*
X2151888D02*
X2155444D01*
X1897888Y916178D02*
X1925828D01*
X1977136D02*
X1980692D01*
X1983740D02*
X1987296D01*
X2015744D02*
X2019300D01*
X2050796D02*
X2056892D01*
X2092452D02*
X2096008D01*
X2151888D02*
X2155444D01*
X1897888Y916686D02*
X1925828D01*
X1977136D02*
X1980692D01*
X1983740D02*
X1987296D01*
X2015744D02*
X2019300D01*
X2051304D02*
X2056892D01*
X2092452D02*
X2096008D01*
X2151888D02*
X2155444D01*
X1897888Y917194D02*
X1925828D01*
X1977136D02*
X1980692D01*
X1983740D02*
X1987296D01*
X2015744D02*
X2019300D01*
X2051304D02*
X2056892D01*
X2092452D02*
X2096008D01*
X2151888D02*
X2155444D01*
X1897888Y917702D02*
X1925828D01*
X1977136D02*
X1980692D01*
X1983740D02*
X1987296D01*
X2015744D02*
X2019300D01*
X2051304D02*
X2056892D01*
X2092452D02*
X2096008D01*
X2151888D02*
X2155444D01*
X1897888Y918210D02*
X1925828D01*
X1977136D02*
X1980692D01*
X1983740D02*
X1987296D01*
X2015744D02*
X2019300D01*
X2046732D02*
X2056892D01*
X2092452D02*
X2096008D01*
X2151888D02*
X2155444D01*
X1897888Y918718D02*
X1925828D01*
X1977136D02*
X1980692D01*
X1983740D02*
X1987296D01*
X2015744D02*
X2019300D01*
X2046732D02*
X2056892D01*
X2092452D02*
X2096008D01*
X2151888D02*
X2155444D01*
X1897888Y919226D02*
X1925828D01*
X1977136D02*
X1980692D01*
X1983740D02*
X1987296D01*
X2015744D02*
X2019300D01*
X2046732D02*
X2056892D01*
X2092452D02*
X2096008D01*
X2151888D02*
X2155444D01*
X1897888Y919734D02*
X1925828D01*
X1977136D02*
X1980692D01*
X1983740D02*
X1987296D01*
X2015744D02*
X2019300D01*
X2046732D02*
X2056892D01*
X2092452D02*
X2096008D01*
X2151888D02*
X2155444D01*
X1897888Y920242D02*
X1925828D01*
X1977136D02*
X1980692D01*
X1983740D02*
X1987296D01*
X2015744D02*
X2019300D01*
X2046732D02*
X2056892D01*
X2092452D02*
X2096008D01*
X2151888D02*
X2155444D01*
X1897888Y920750D02*
X1925828D01*
X1977136D02*
X1980692D01*
X1983740D02*
X1987296D01*
X2015744D02*
X2019300D01*
X2046732D02*
X2050796D01*
X2053336D02*
X2056892D01*
X2092452D02*
X2096008D01*
X2151888D02*
X2155444D01*
X1897888Y921258D02*
X1925828D01*
X1977136D02*
X1980692D01*
X1983740D02*
X1987296D01*
X2015744D02*
X2019300D01*
X2046732D02*
X2050288D01*
X2053336D02*
X2056892D01*
X2092452D02*
X2096008D01*
X2151888D02*
X2155444D01*
X1897888Y921766D02*
X1925828D01*
X1977136D02*
X1980692D01*
X1983740D02*
X1987296D01*
X2015744D02*
X2019300D01*
X2046732D02*
X2050288D01*
X2053336D02*
X2056892D01*
X2092452D02*
X2096008D01*
X2151888D02*
X2155444D01*
X1897888Y922274D02*
X1925828D01*
X1977136D02*
X1980692D01*
X1983740D02*
X1987296D01*
X2015744D02*
X2019300D01*
X2046732D02*
X2050288D01*
X2053336D02*
X2056892D01*
X2092452D02*
X2096008D01*
X2151888D02*
X2155444D01*
X1897888Y922782D02*
X1925828D01*
X1977136D02*
X1980692D01*
X1983740D02*
X1987296D01*
X2015744D02*
X2019300D01*
X2046732D02*
X2050288D01*
X2053336D02*
X2056892D01*
X2092452D02*
X2096008D01*
X2151888D02*
X2155444D01*
X1897888Y923290D02*
X1925828D01*
X1977136D02*
X1980692D01*
X1983740D02*
X1987296D01*
X2015744D02*
X2019300D01*
X2046732D02*
X2050288D01*
X2053336D02*
X2056892D01*
X2092452D02*
X2096008D01*
X2151888D02*
X2155444D01*
X1897888Y923798D02*
X1925828D01*
X1977136D02*
X1980692D01*
X1983740D02*
X1987296D01*
X2015744D02*
X2019300D01*
X2046732D02*
X2050288D01*
X2053336D02*
X2056892D01*
X2092452D02*
X2096008D01*
X2151888D02*
X2155444D01*
X1897888Y924306D02*
X1925828D01*
X1977136D02*
X1980692D01*
X1983740D02*
X1987296D01*
X2015744D02*
X2019300D01*
X2046732D02*
X2050288D01*
X2053336D02*
X2056892D01*
X2092452D02*
X2096008D01*
X2151888D02*
X2155444D01*
X1897888Y924814D02*
X1925828D01*
X1977136D02*
X1980692D01*
X1983740D02*
X1987296D01*
X2015744D02*
X2025904D01*
X2046732D02*
X2050288D01*
X2053336D02*
X2056892D01*
X2087880D02*
X2096008D01*
X2151888D02*
X2155444D01*
X1897888Y925322D02*
X1925828D01*
X1977136D02*
X1980692D01*
X1983740D02*
X1987296D01*
X2015744D02*
X2025904D01*
X2046732D02*
X2050288D01*
X2053336D02*
X2056892D01*
X2087880D02*
X2096008D01*
X2151888D02*
X2155444D01*
X1897888Y925830D02*
X1925828D01*
X1977136D02*
X1980692D01*
X1983740D02*
X1987296D01*
X2015744D02*
X2025904D01*
X2046732D02*
X2050288D01*
X2053336D02*
X2056892D01*
X2087880D02*
X2096008D01*
X2151888D02*
X2155444D01*
X1897888Y926338D02*
X1925828D01*
X1955292D02*
X1958848D01*
X1961388D02*
X1965452D01*
X1977136D02*
X1980692D01*
X1983740D02*
X1987296D01*
X2000504D02*
X2004060D01*
X2015744D02*
X2025904D01*
X2034032D02*
X2037588D01*
X2046732D02*
X2050288D01*
X2053336D02*
X2056892D01*
X2062988D02*
X2066544D01*
X2069592D02*
X2073148D01*
X2076196D02*
X2079752D01*
X2087880D02*
X2096008D01*
X2102612D02*
X2106168D01*
X2109216D02*
X2112772D01*
X2115820D02*
X2119376D01*
X2151888D02*
X2155444D01*
X1897888Y926846D02*
X1925828D01*
X1955292D02*
X1959356D01*
X1961388D02*
X1965452D01*
X1977136D02*
X1980692D01*
X1983740D02*
X1987296D01*
X2000504D02*
X2004060D01*
X2015744D02*
X2025904D01*
X2034540D02*
X2037588D01*
X2046732D02*
X2050288D01*
X2053336D02*
X2056892D01*
X2062988D02*
X2066544D01*
X2069592D02*
X2073148D01*
X2076196D02*
X2079752D01*
X2087880D02*
X2096008D01*
X2102612D02*
X2106168D01*
X2109216D02*
X2112772D01*
X2116328D02*
X2119376D01*
X2151888D02*
X2155444D01*
X1897888Y927354D02*
X1925828D01*
X1955800D02*
X1959356D01*
X1961388D02*
X1965452D01*
X1977136D02*
X1980692D01*
X1983740D02*
X1987296D01*
X2000504D02*
X2004060D01*
X2022348D02*
X2025904D01*
X2034032D02*
X2037588D01*
X2046732D02*
X2050288D01*
X2053336D02*
X2056892D01*
X2062988D02*
X2066544D01*
X2069592D02*
X2073148D01*
X2076196D02*
X2079752D01*
X2092452D02*
X2096008D01*
X2102612D02*
X2106168D01*
X2109216D02*
X2112772D01*
X2115820D02*
X2119376D01*
X2151888D02*
X2155444D01*
X1897888Y927862D02*
X1925828D01*
X1955800D02*
X1959356D01*
X1961896D02*
X1965452D01*
X1977136D02*
X1980692D01*
X1983740D02*
X1987296D01*
X2000504D02*
X2004060D01*
X2022348D02*
X2025904D01*
X2034540D02*
X2037588D01*
X2046732D02*
X2050288D01*
X2053336D02*
X2056892D01*
X2062988D02*
X2066544D01*
X2069592D02*
X2073148D01*
X2076196D02*
X2079752D01*
X2092960D02*
X2096008D01*
X2102612D02*
X2106168D01*
X2109216D02*
X2112772D01*
X2116328D02*
X2119376D01*
X2151888D02*
X2155444D01*
X1897888Y928370D02*
X1925828D01*
X1956308D02*
X1959864D01*
X1961896D02*
X1965452D01*
X1977136D02*
X1980692D01*
X1983740D02*
X1987296D01*
X2000504D02*
X2004060D01*
X2022348D02*
X2025904D01*
X2034032D02*
X2037588D01*
X2046732D02*
X2050288D01*
X2053336D02*
X2056892D01*
X2062988D02*
X2066544D01*
X2069592D02*
X2073148D01*
X2076196D02*
X2079752D01*
X2092452D02*
X2096008D01*
X2102612D02*
X2106168D01*
X2109216D02*
X2112772D01*
X2116328D02*
X2119376D01*
X2151888D02*
X2155444D01*
X1897888Y928878D02*
X1925828D01*
X1956308D02*
X1959864D01*
X1961896D02*
X1965452D01*
X1977136D02*
X1980692D01*
X1983740D02*
X1987296D01*
X2000504D02*
X2004060D01*
X2022348D02*
X2025904D01*
X2034032D02*
X2037588D01*
X2046732D02*
X2050288D01*
X2053336D02*
X2056892D01*
X2062988D02*
X2066544D01*
X2069592D02*
X2073148D01*
X2076196D02*
X2079752D01*
X2092452D02*
X2096008D01*
X2102612D02*
X2106168D01*
X2109216D02*
X2112772D01*
X2116328D02*
X2119376D01*
X2151888D02*
X2155444D01*
X1897888Y929386D02*
X1925828D01*
X1956816D02*
X1960372D01*
X1961388D02*
X1965452D01*
X1977136D02*
X1980692D01*
X1983740D02*
X1987296D01*
X2000504D02*
X2004060D01*
X2022348D02*
X2025904D01*
X2034032D02*
X2037588D01*
X2046732D02*
X2050288D01*
X2053336D02*
X2056892D01*
X2062988D02*
X2066544D01*
X2069592D02*
X2073148D01*
X2076196D02*
X2079752D01*
X2092452D02*
X2096008D01*
X2102612D02*
X2106168D01*
X2109216D02*
X2112772D01*
X2116328D02*
X2119376D01*
X2151888D02*
X2155444D01*
X1897888Y929894D02*
X1925828D01*
X1957324D02*
X1960880D01*
X1961388D02*
X1965452D01*
X1977136D02*
X1980692D01*
X1983740D02*
X1987296D01*
X2000504D02*
X2004060D01*
X2022348D02*
X2025904D01*
X2034032D02*
X2037588D01*
X2046732D02*
X2050288D01*
X2053336D02*
X2056892D01*
X2062988D02*
X2066544D01*
X2069592D02*
X2073148D01*
X2076196D02*
X2079752D01*
X2092452D02*
X2096008D01*
X2102612D02*
X2106168D01*
X2109216D02*
X2112772D01*
X2116328D02*
X2119376D01*
X2151888D02*
X2155444D01*
X1897888Y930402D02*
X1925828D01*
X1957324D02*
X1960880D01*
X1961896D02*
X1965452D01*
X1977136D02*
X1980692D01*
X1983740D02*
X1987296D01*
X2000504D02*
X2004060D01*
X2022348D02*
X2025904D01*
X2034032D02*
X2037588D01*
X2046732D02*
X2050288D01*
X2053336D02*
X2056892D01*
X2062988D02*
X2066544D01*
X2069592D02*
X2073148D01*
X2076196D02*
X2079752D01*
X2092452D02*
X2096008D01*
X2102612D02*
X2106168D01*
X2109216D02*
X2112772D01*
X2116328D02*
X2119376D01*
X2151888D02*
X2155444D01*
X1897888Y930910D02*
X1925828D01*
X1957324D02*
X1961388D01*
X1961896D02*
X1965452D01*
X1977136D02*
X1980692D01*
X1983740D02*
X1987296D01*
X2000504D02*
X2004060D01*
X2022348D02*
X2025904D01*
X2034032D02*
X2037588D01*
X2046732D02*
X2050288D01*
X2053336D02*
X2056892D01*
X2062988D02*
X2066544D01*
X2069592D02*
X2073148D01*
X2076196D02*
X2079752D01*
X2092452D02*
X2096008D01*
X2102612D02*
X2106168D01*
X2109216D02*
X2112772D01*
X2116328D02*
X2119376D01*
X2151888D02*
X2155444D01*
X1897888Y931418D02*
X1925828D01*
X1957832D02*
X1961388D01*
X1961896D02*
X1965452D01*
X1977136D02*
X1980692D01*
X1983740D02*
X1987296D01*
X2000504D02*
X2004060D01*
X2022348D02*
X2025904D01*
X2034032D02*
X2037588D01*
X2046732D02*
X2050288D01*
X2053336D02*
X2056892D01*
X2062988D02*
X2066544D01*
X2069592D02*
X2073148D01*
X2076196D02*
X2079752D01*
X2092452D02*
X2096008D01*
X2102612D02*
X2106168D01*
X2109216D02*
X2112772D01*
X2116328D02*
X2119376D01*
X2151888D02*
X2155444D01*
X1897888Y931926D02*
X1925828D01*
X1957832D02*
X1965452D01*
X1977136D02*
X1980692D01*
X1983740D02*
X1987296D01*
X2000504D02*
X2004060D01*
X2022348D02*
X2025904D01*
X2034032D02*
X2037588D01*
X2046732D02*
X2050288D01*
X2053336D02*
X2056892D01*
X2062988D02*
X2066544D01*
X2069592D02*
X2073148D01*
X2076196D02*
X2079752D01*
X2092452D02*
X2096008D01*
X2102612D02*
X2106168D01*
X2109216D02*
X2112772D01*
X2116328D02*
X2119376D01*
X2151888D02*
X2155444D01*
X1897888Y932434D02*
X1925828D01*
X1957832D02*
X1965452D01*
X1977136D02*
X1980692D01*
X1983740D02*
X1987296D01*
X2000504D02*
X2004060D01*
X2022348D02*
X2025904D01*
X2034032D02*
X2037588D01*
X2046732D02*
X2050288D01*
X2053336D02*
X2056892D01*
X2062988D02*
X2066544D01*
X2069592D02*
X2073148D01*
X2076196D02*
X2079752D01*
X2092452D02*
X2096008D01*
X2102612D02*
X2106168D01*
X2109216D02*
X2112772D01*
X2116328D02*
X2119376D01*
X2151888D02*
X2155444D01*
X1897888Y932942D02*
X1925828D01*
X1958340D02*
X1965452D01*
X1977136D02*
X1980692D01*
X1983740D02*
X1987296D01*
X2000504D02*
X2004060D01*
X2022348D02*
X2025904D01*
X2034032D02*
X2037588D01*
X2046732D02*
X2050288D01*
X2053336D02*
X2056892D01*
X2062988D02*
X2066544D01*
X2069592D02*
X2073148D01*
X2076196D02*
X2079752D01*
X2092452D02*
X2096008D01*
X2102612D02*
X2106168D01*
X2109216D02*
X2112772D01*
X2116328D02*
X2119376D01*
X2151888D02*
X2155444D01*
X1897888Y933450D02*
X1925828D01*
X1958848D02*
X1965452D01*
X1977136D02*
X1980692D01*
X1983740D02*
X1987296D01*
X2000504D02*
X2004060D01*
X2022348D02*
X2025904D01*
X2034032D02*
X2037588D01*
X2046732D02*
X2050288D01*
X2053336D02*
X2056892D01*
X2062988D02*
X2066544D01*
X2069592D02*
X2073148D01*
X2076196D02*
X2079752D01*
X2092452D02*
X2096008D01*
X2102612D02*
X2106168D01*
X2109216D02*
X2112772D01*
X2116328D02*
X2119376D01*
X2151888D02*
X2155444D01*
X1897888Y933958D02*
X1925828D01*
X1958848D02*
X1965452D01*
X1977136D02*
X1980692D01*
X1983740D02*
X1987296D01*
X2000504D02*
X2004060D01*
X2022348D02*
X2025904D01*
X2034032D02*
X2037588D01*
X2046732D02*
X2050288D01*
X2053336D02*
X2056892D01*
X2062988D02*
X2066544D01*
X2069592D02*
X2073148D01*
X2076196D02*
X2079752D01*
X2092452D02*
X2096008D01*
X2102612D02*
X2106168D01*
X2109216D02*
X2112772D01*
X2116328D02*
X2119376D01*
X2151888D02*
X2155444D01*
X1897888Y934466D02*
X1925828D01*
X1959356D02*
X1965452D01*
X1977136D02*
X1980692D01*
X1983740D02*
X1987296D01*
X2000504D02*
X2004060D01*
X2022348D02*
X2025904D01*
X2034032D02*
X2037588D01*
X2046732D02*
X2050288D01*
X2053336D02*
X2056892D01*
X2062988D02*
X2066544D01*
X2069592D02*
X2073148D01*
X2076196D02*
X2079752D01*
X2092452D02*
X2096008D01*
X2102612D02*
X2106168D01*
X2109216D02*
X2112772D01*
X2116328D02*
X2119376D01*
X2151888D02*
X2155444D01*
X1897888Y934974D02*
X1925828D01*
X1959356D02*
X1965452D01*
X1977136D02*
X1980692D01*
X1983740D02*
X1987296D01*
X2000504D02*
X2004060D01*
X2022348D02*
X2025904D01*
X2034032D02*
X2037588D01*
X2046732D02*
X2050288D01*
X2053336D02*
X2056892D01*
X2062988D02*
X2066544D01*
X2069592D02*
X2073148D01*
X2076196D02*
X2079752D01*
X2092452D02*
X2096008D01*
X2102612D02*
X2106168D01*
X2109216D02*
X2112772D01*
X2116328D02*
X2119376D01*
X2151888D02*
X2155444D01*
X2186940D02*
X2189480D01*
X1864106Y935482D02*
X1867662D01*
X1897888D02*
X1925828D01*
X1959356D02*
X1965452D01*
X1977136D02*
X1980692D01*
X1983740D02*
X1987296D01*
X2000504D02*
X2004060D01*
X2022348D02*
X2025904D01*
X2034032D02*
X2037588D01*
X2046732D02*
X2050288D01*
X2053336D02*
X2056892D01*
X2062988D02*
X2066544D01*
X2069592D02*
X2073148D01*
X2076196D02*
X2079752D01*
X2092452D02*
X2096008D01*
X2102612D02*
X2106168D01*
X2109216D02*
X2112772D01*
X2116328D02*
X2119376D01*
X2151888D02*
X2155444D01*
X2185924D02*
X2190496D01*
X1863852Y935990D02*
X1867916D01*
X1868170D01*
X1897888D02*
X1925828D01*
X1959864D02*
X1965452D01*
X1977136D02*
X1980692D01*
X1983740D02*
X1987296D01*
X2000504D02*
X2004060D01*
X2022348D02*
X2025904D01*
X2034032D02*
X2037588D01*
X2046732D02*
X2050288D01*
X2053336D02*
X2056892D01*
X2062988D02*
X2066544D01*
X2069592D02*
X2073148D01*
X2076196D02*
X2079752D01*
X2092452D02*
X2096008D01*
X2102612D02*
X2106168D01*
X2109216D02*
X2112772D01*
X2116328D02*
X2119376D01*
X2151888D02*
X2155444D01*
X2185416D02*
X2191004D01*
X1863344Y936498D02*
X1868424D01*
X1897888D02*
X1925828D01*
X1959864D02*
X1965452D01*
X1977136D02*
X1980692D01*
X1983740D02*
X1987296D01*
X2000504D02*
X2004060D01*
X2022348D02*
X2025904D01*
X2034032D02*
X2037588D01*
X2046732D02*
X2050288D01*
X2053336D02*
X2056892D01*
X2062988D02*
X2066544D01*
X2069592D02*
X2073148D01*
X2076196D02*
X2079752D01*
X2092452D02*
X2096008D01*
X2102612D02*
X2106168D01*
X2109216D02*
X2112772D01*
X2116328D02*
X2119376D01*
X2151888D02*
X2155444D01*
X2185162D02*
X2191512D01*
X1862836Y937006D02*
X1868932D01*
X1897888D02*
X1925828D01*
X1955292D02*
X1965452D01*
X1977136D02*
X1980692D01*
X1983740D02*
X1987296D01*
X2000504D02*
X2004060D01*
X2022348D02*
X2025904D01*
X2034032D02*
X2037588D01*
X2046732D02*
X2050288D01*
X2053336D02*
X2056892D01*
X2062988D02*
X2066544D01*
X2069592D02*
X2073148D01*
X2076196D02*
X2079752D01*
X2092452D02*
X2096008D01*
X2102612D02*
X2106168D01*
X2109216D02*
X2112772D01*
X2116328D02*
X2119376D01*
X2124456D02*
X2191512D01*
X1862836Y937514D02*
X1950720D01*
X1955292D02*
X1965452D01*
X1977136D02*
X1980692D01*
X1983740D02*
X1987296D01*
X2000504D02*
X2004060D01*
X2022348D02*
X2025904D01*
X2034032D02*
X2037588D01*
X2046732D02*
X2050288D01*
X2053336D02*
X2056892D01*
X2062988D02*
X2066544D01*
X2069592D02*
X2073148D01*
X2076196D02*
X2079752D01*
X2092452D02*
X2096008D01*
X2102612D02*
X2106168D01*
X2109216D02*
X2112772D01*
X2116328D02*
X2119376D01*
X2124456D02*
X2191512D01*
X1862836Y938022D02*
X1950720D01*
X1955292D02*
X1965452D01*
X1977136D02*
X1980692D01*
X1983740D02*
X1987296D01*
X2000504D02*
X2004060D01*
X2022348D02*
X2025904D01*
X2034032D02*
X2037588D01*
X2046732D02*
X2050288D01*
X2053336D02*
X2056892D01*
X2062988D02*
X2066544D01*
X2069592D02*
X2073148D01*
X2076196D02*
X2079752D01*
X2092452D02*
X2096008D01*
X2102612D02*
X2106168D01*
X2109216D02*
X2112772D01*
X2116328D02*
X2119376D01*
X2124456D02*
X2191512D01*
X1862836Y938530D02*
X1950720D01*
X1955292D02*
X1965452D01*
X1977136D02*
X1980692D01*
X1983740D02*
X1987296D01*
X2000504D02*
X2004060D01*
X2022348D02*
X2025904D01*
X2034032D02*
X2037588D01*
X2046732D02*
X2050288D01*
X2053336D02*
X2056892D01*
X2062988D02*
X2066544D01*
X2069592D02*
X2073148D01*
X2076196D02*
X2079752D01*
X2092452D02*
X2096008D01*
X2102612D02*
X2106168D01*
X2109216D02*
X2112772D01*
X2116328D02*
X2119376D01*
X2124456D02*
X2191512D01*
X1862836Y939038D02*
X1950720D01*
X1955292D02*
X1965452D01*
X1977136D02*
X1980692D01*
X1983740D02*
X1987296D01*
X2000504D02*
X2004060D01*
X2022348D02*
X2025904D01*
X2034032D02*
X2037588D01*
X2046732D02*
X2050288D01*
X2053336D02*
X2056892D01*
X2062988D02*
X2066544D01*
X2069592D02*
X2073148D01*
X2076196D02*
X2079752D01*
X2092452D02*
X2096008D01*
X2102612D02*
X2106168D01*
X2109216D02*
X2112772D01*
X2116328D02*
X2119376D01*
X2124456D02*
X2185162D01*
X2151888D02*
X2155444D01*
X2185416D02*
X2191512D01*
X1863344Y939546D02*
X1868424D01*
X1897888D02*
X1925828D01*
X1955292D02*
X1959356D01*
X1961388D02*
X1965452D01*
X1977136D02*
X1980692D01*
X1983740D02*
X1987296D01*
X2000504D02*
X2004060D01*
X2022348D02*
X2025904D01*
X2034032D02*
X2037588D01*
X2046732D02*
X2050288D01*
X2053336D02*
X2056892D01*
X2062988D02*
X2066544D01*
X2069592D02*
X2073148D01*
X2076196D02*
X2079752D01*
X2092452D02*
X2096008D01*
X2102612D02*
X2106168D01*
X2109216D02*
X2112772D01*
X2116328D02*
X2119376D01*
X2151888D02*
X2155444D01*
X2185416D02*
X2191004D01*
X1863344Y940054D02*
X1867916D01*
X1897888D02*
X1925828D01*
X1955292D02*
X1958848D01*
X1961388D02*
X1965452D01*
X1977136D02*
X1980692D01*
X1983740D02*
X1987296D01*
X2000504D02*
X2004060D01*
X2022348D02*
X2025904D01*
X2034032D02*
X2037588D01*
X2046732D02*
X2050288D01*
X2053336D02*
X2056892D01*
X2062988D02*
X2066544D01*
X2069592D02*
X2073148D01*
X2076196D02*
X2079752D01*
X2092452D02*
X2096008D01*
X2102612D02*
X2106168D01*
X2109216D02*
X2112772D01*
X2116328D02*
X2119376D01*
X2151888D02*
X2155444D01*
X2185924D02*
X2190496D01*
X1863852Y940562D02*
X1867916D01*
X1897888D02*
X1925828D01*
X1955292D02*
X1958848D01*
X1961896D02*
X1965452D01*
X1977136D02*
X1980692D01*
X1983740D02*
X1987296D01*
X2000504D02*
X2004060D01*
X2022348D02*
X2025904D01*
X2034032D02*
X2037588D01*
X2046732D02*
X2050288D01*
X2053336D02*
X2056892D01*
X2062988D02*
X2066544D01*
X2069592D02*
X2073148D01*
X2076196D02*
X2079752D01*
X2092452D02*
X2096008D01*
X2102612D02*
X2106168D01*
X2109216D02*
X2112772D01*
X2116328D02*
X2119376D01*
X2151888D02*
X2155444D01*
X2186940D02*
X2189480D01*
X1864360Y941070D02*
X1867408D01*
X1897888D02*
X1925828D01*
X1955292D02*
X1958848D01*
X1961388D02*
X1965452D01*
X1977136D02*
X1980692D01*
X1983740D02*
X1987296D01*
X2000504D02*
X2004060D01*
X2022348D02*
X2025904D01*
X2034032D02*
X2037588D01*
X2046732D02*
X2050288D01*
X2053336D02*
X2056892D01*
X2062988D02*
X2066544D01*
X2069592D02*
X2073148D01*
X2076196D02*
X2079752D01*
X2092452D02*
X2096008D01*
X2102612D02*
X2106168D01*
X2109216D02*
X2112772D01*
X2116328D02*
X2119376D01*
X2151888D02*
X2155444D01*
X1897888Y941578D02*
X1925828D01*
X1955292D02*
X1958848D01*
X1961388D02*
X1965452D01*
X1977136D02*
X1981200D01*
X1983740D02*
X1987296D01*
X2000504D02*
X2004060D01*
X2022348D02*
X2025904D01*
X2034032D02*
X2037588D01*
X2046732D02*
X2050796D01*
X2053336D02*
X2056892D01*
X2062988D02*
X2066544D01*
X2069592D02*
X2073148D01*
X2076196D02*
X2079752D01*
X2092452D02*
X2096008D01*
X2102612D02*
X2106168D01*
X2109216D02*
X2112772D01*
X2116328D02*
X2119376D01*
X2151888D02*
X2155444D01*
X1897888Y942086D02*
X1925828D01*
X1955292D02*
X1958848D01*
X1961388D02*
X1965452D01*
X1977136D02*
X1987296D01*
X2000504D02*
X2004060D01*
X2015744D02*
X2025904D01*
X2034032D02*
X2037588D01*
X2046732D02*
X2056892D01*
X2062988D02*
X2066544D01*
X2069592D02*
X2073148D01*
X2076196D02*
X2079752D01*
X2085848D02*
X2096008D01*
X2102612D02*
X2106168D01*
X2109216D02*
X2112772D01*
X2116328D02*
X2119376D01*
X2151888D02*
X2155444D01*
X1897888Y942594D02*
X1925828D01*
X1955292D02*
X1958848D01*
X1961388D02*
X1965452D01*
X1977136D02*
X1987296D01*
X2000504D02*
X2004060D01*
X2015744D02*
X2025904D01*
X2034032D02*
X2037588D01*
X2046732D02*
X2056892D01*
X2062988D02*
X2066544D01*
X2069592D02*
X2073148D01*
X2076196D02*
X2079752D01*
X2085848D02*
X2096008D01*
X2102612D02*
X2106168D01*
X2109216D02*
X2112772D01*
X2116328D02*
X2119376D01*
X2151888D02*
X2155444D01*
X1897888Y943102D02*
X1925828D01*
X1955292D02*
X1958848D01*
X1961388D02*
X1965452D01*
X1977136D02*
X1987296D01*
X2000504D02*
X2004060D01*
X2015744D02*
X2025904D01*
X2034032D02*
X2037588D01*
X2046732D02*
X2056892D01*
X2062988D02*
X2066544D01*
X2069592D02*
X2073148D01*
X2076196D02*
X2079752D01*
X2085848D02*
X2096008D01*
X2102612D02*
X2106168D01*
X2109216D02*
X2112772D01*
X2116328D02*
X2119376D01*
X2151888D02*
X2155444D01*
X1897888Y943610D02*
X1925828D01*
X1955292D02*
X1958848D01*
X1961388D02*
X1965452D01*
X1977136D02*
X1987296D01*
X2000504D02*
X2004060D01*
X2015744D02*
X2025904D01*
X2034032D02*
X2037588D01*
X2046732D02*
X2056892D01*
X2062988D02*
X2066544D01*
X2069592D02*
X2073148D01*
X2076196D02*
X2079752D01*
X2085848D02*
X2096008D01*
X2102612D02*
X2106168D01*
X2109216D02*
X2112772D01*
X2116328D02*
X2119376D01*
X2151888D02*
X2155444D01*
X1897888Y944118D02*
X1925828D01*
X1955292D02*
X1958848D01*
X1961388D02*
X1965452D01*
X1977136D02*
X1987296D01*
X2000504D02*
X2004060D01*
X2015744D02*
X2025904D01*
X2034032D02*
X2037588D01*
X2046732D02*
X2056892D01*
X2062988D02*
X2066544D01*
X2069592D02*
X2073148D01*
X2076196D02*
X2079752D01*
X2085848D02*
X2096008D01*
X2102612D02*
X2106168D01*
X2109216D02*
X2112772D01*
X2116328D02*
X2119376D01*
X2151888D02*
X2155444D01*
X1897888Y944626D02*
X1925828D01*
X1955292D02*
X1958848D01*
X1961388D02*
X1965452D01*
X1977136D02*
X1987296D01*
X2000504D02*
X2004060D01*
X2015744D02*
X2025904D01*
X2034032D02*
X2037588D01*
X2046732D02*
X2056892D01*
X2062988D02*
X2066544D01*
X2069592D02*
X2073148D01*
X2076196D02*
X2079752D01*
X2085848D02*
X2096516D01*
X2102612D02*
X2106168D01*
X2109216D02*
X2112772D01*
X2116328D02*
X2119376D01*
X2151888D02*
X2155444D01*
X1897888Y945134D02*
X1925828D01*
X1955292D02*
X1958848D01*
X1961388D02*
X1965452D01*
X2000504D02*
X2004060D01*
X2034032D02*
X2037588D01*
X2062988D02*
X2066544D01*
X2069592D02*
X2073148D01*
X2076196D02*
X2079752D01*
X2102612D02*
X2106168D01*
X2109216D02*
X2112772D01*
X2116328D02*
X2119376D01*
X2151888D02*
X2155444D01*
X1897888Y945642D02*
X1925828D01*
X1955292D02*
X1958848D01*
X1961388D02*
X1965452D01*
X2000504D02*
X2004060D01*
X2034032D02*
X2037588D01*
X2062988D02*
X2066544D01*
X2069592D02*
X2073148D01*
X2076196D02*
X2079752D01*
X2102612D02*
X2106168D01*
X2109216D02*
X2112772D01*
X2116328D02*
X2119376D01*
X2151888D02*
X2155444D01*
X1897888Y946150D02*
X1925828D01*
X1955292D02*
X1958848D01*
X1961388D02*
X1965452D01*
X2000504D02*
X2004060D01*
X2034032D02*
X2037588D01*
X2062988D02*
X2066544D01*
X2069592D02*
X2073148D01*
X2076196D02*
X2079752D01*
X2102612D02*
X2106168D01*
X2109216D02*
X2112772D01*
X2116328D02*
X2119376D01*
X2151888D02*
X2155444D01*
X1897888Y946658D02*
X1925828D01*
X1955292D02*
X1958848D01*
X1961388D02*
X1965452D01*
X2000504D02*
X2004060D01*
X2034032D02*
X2037588D01*
X2062988D02*
X2066544D01*
X2069592D02*
X2073148D01*
X2076196D02*
X2079752D01*
X2102612D02*
X2106168D01*
X2109216D02*
X2112772D01*
X2116328D02*
X2119376D01*
X2151888D02*
X2155444D01*
X1897888Y947166D02*
X1925828D01*
X1955292D02*
X1958848D01*
X1961388D02*
X1965452D01*
X2000504D02*
X2004060D01*
X2034032D02*
X2037588D01*
X2062988D02*
X2066544D01*
X2069592D02*
X2073148D01*
X2076196D02*
X2079752D01*
X2102612D02*
X2106168D01*
X2109216D02*
X2112772D01*
X2116328D02*
X2119376D01*
X2151888D02*
X2155444D01*
X1897888Y947674D02*
X1925828D01*
X1955292D02*
X1958848D01*
X1961388D02*
X1965452D01*
X2000504D02*
X2004060D01*
X2034032D02*
X2037588D01*
X2062988D02*
X2066544D01*
X2069592D02*
X2073148D01*
X2076196D02*
X2079752D01*
X2102612D02*
X2106168D01*
X2109216D02*
X2112772D01*
X2116328D02*
X2119376D01*
X2151888D02*
X2155444D01*
X1897888Y948182D02*
X1925828D01*
X1955292D02*
X1958848D01*
X1961388D02*
X1965452D01*
X2000504D02*
X2004060D01*
X2034032D02*
X2037588D01*
X2062988D02*
X2066544D01*
X2069592D02*
X2073148D01*
X2076196D02*
X2079752D01*
X2102612D02*
X2106168D01*
X2109216D02*
X2112772D01*
X2116328D02*
X2119376D01*
X2151888D02*
X2155444D01*
X1897888Y948690D02*
X1925828D01*
X1955292D02*
X1958848D01*
X1961388D02*
X1965452D01*
X2000504D02*
X2004060D01*
X2034032D02*
X2037588D01*
X2062988D02*
X2066544D01*
X2069592D02*
X2073148D01*
X2076196D02*
X2079752D01*
X2102612D02*
X2106168D01*
X2109216D02*
X2112772D01*
X2116328D02*
X2119376D01*
X2151888D02*
X2155444D01*
X1897888Y949198D02*
X1925828D01*
X1955292D02*
X1958848D01*
X1961388D02*
X1965452D01*
X2000504D02*
X2004060D01*
X2034032D02*
X2037588D01*
X2062988D02*
X2066544D01*
X2069592D02*
X2073148D01*
X2076196D02*
X2079752D01*
X2102612D02*
X2106168D01*
X2109216D02*
X2112772D01*
X2116328D02*
X2119376D01*
X2151888D02*
X2155444D01*
X1897888Y949706D02*
X1925828D01*
X1955292D02*
X1958848D01*
X1961388D02*
X1965452D01*
X2000504D02*
X2004060D01*
X2034032D02*
X2037588D01*
X2062988D02*
X2066544D01*
X2069592D02*
X2073148D01*
X2076196D02*
X2079752D01*
X2102612D02*
X2106168D01*
X2109216D02*
X2112772D01*
X2116328D02*
X2119376D01*
X2151888D02*
X2155444D01*
X1897888Y950214D02*
X1925828D01*
X1955292D02*
X1958848D01*
X1961388D02*
X1965452D01*
X2000504D02*
X2004060D01*
X2034032D02*
X2037588D01*
X2062988D02*
X2066544D01*
X2069592D02*
X2073148D01*
X2076196D02*
X2079752D01*
X2102612D02*
X2106168D01*
X2109216D02*
X2112772D01*
X2116328D02*
X2119376D01*
X2151888D02*
X2155444D01*
X1897888Y950722D02*
X1925828D01*
X1955292D02*
X1958848D01*
X1961388D02*
X1965452D01*
X2000504D02*
X2004060D01*
X2034032D02*
X2037588D01*
X2062988D02*
X2066544D01*
X2069592D02*
X2073148D01*
X2076196D02*
X2079752D01*
X2102612D02*
X2106168D01*
X2109216D02*
X2112772D01*
X2116328D02*
X2119376D01*
X2151888D02*
X2155444D01*
X1897888Y951230D02*
X1925828D01*
X1955292D02*
X1958848D01*
X1961388D02*
X1965452D01*
X2000504D02*
X2004060D01*
X2034032D02*
X2037588D01*
X2062988D02*
X2066544D01*
X2069592D02*
X2073148D01*
X2076196D02*
X2079752D01*
X2102612D02*
X2106168D01*
X2109216D02*
X2112772D01*
X2116328D02*
X2119376D01*
X2151888D02*
X2155444D01*
X1897888Y951738D02*
X1925828D01*
X1955292D02*
X1958848D01*
X1961388D02*
X1965452D01*
X2000504D02*
X2004060D01*
X2034032D02*
X2037588D01*
X2062988D02*
X2066544D01*
X2069592D02*
X2073148D01*
X2076196D02*
X2079752D01*
X2102612D02*
X2106168D01*
X2109216D02*
X2112772D01*
X2116328D02*
X2119376D01*
X2151888D02*
X2155444D01*
X1897888Y952246D02*
X1925828D01*
X1955292D02*
X1958848D01*
X1961388D02*
X1965452D01*
X2000504D02*
X2004060D01*
X2034032D02*
X2037588D01*
X2062988D02*
X2066544D01*
X2069592D02*
X2073148D01*
X2076196D02*
X2079752D01*
X2102612D02*
X2106168D01*
X2109216D02*
X2112772D01*
X2116328D02*
X2119376D01*
X2151888D02*
X2155444D01*
X1897888Y952754D02*
X1925828D01*
X1955292D02*
X1958848D01*
X1961388D02*
X1965452D01*
X2000504D02*
X2004060D01*
X2034032D02*
X2037588D01*
X2062988D02*
X2066544D01*
X2069592D02*
X2073148D01*
X2076196D02*
X2079752D01*
X2102612D02*
X2106168D01*
X2109216D02*
X2112772D01*
X2116328D02*
X2119376D01*
X2151888D02*
X2155444D01*
X1897888Y953262D02*
X1925828D01*
X1955292D02*
X1958848D01*
X1961388D02*
X1965452D01*
X2000504D02*
X2004060D01*
X2034032D02*
X2037588D01*
X2062988D02*
X2066544D01*
X2069592D02*
X2073148D01*
X2076196D02*
X2079752D01*
X2102612D02*
X2106168D01*
X2109216D02*
X2112772D01*
X2116328D02*
X2119376D01*
X2151888D02*
X2155444D01*
X1897888Y953770D02*
X1925828D01*
X1955292D02*
X1958848D01*
X1961388D02*
X1965452D01*
X2000504D02*
X2004060D01*
X2034032D02*
X2037588D01*
X2062988D02*
X2066544D01*
X2069592D02*
X2073148D01*
X2076196D02*
X2079752D01*
X2102612D02*
X2106168D01*
X2109216D02*
X2112772D01*
X2116328D02*
X2119376D01*
X2151888D02*
X2155444D01*
X1897888Y954278D02*
X1925828D01*
X1955292D02*
X1958848D01*
X1961388D02*
X1965452D01*
X2000504D02*
X2004060D01*
X2034032D02*
X2037588D01*
X2062988D02*
X2066544D01*
X2069592D02*
X2073148D01*
X2076196D02*
X2079752D01*
X2102612D02*
X2106168D01*
X2109216D02*
X2112772D01*
X2116328D02*
X2119376D01*
X2151888D02*
X2155444D01*
X1897888Y954786D02*
X1925828D01*
X1955292D02*
X1958848D01*
X1961388D02*
X1965452D01*
X2000504D02*
X2004060D01*
X2034032D02*
X2037588D01*
X2062988D02*
X2066544D01*
X2069592D02*
X2073148D01*
X2076196D02*
X2079752D01*
X2102612D02*
X2106168D01*
X2109216D02*
X2112772D01*
X2116328D02*
X2119376D01*
X2151888D02*
X2155444D01*
X1897888Y955294D02*
X1925828D01*
X1955292D02*
X1958848D01*
X1961388D02*
X1965452D01*
X2000504D02*
X2004060D01*
X2034032D02*
X2037588D01*
X2062988D02*
X2066544D01*
X2069592D02*
X2073148D01*
X2076196D02*
X2079752D01*
X2102612D02*
X2106168D01*
X2109216D02*
X2112772D01*
X2116328D02*
X2119376D01*
X2151888D02*
X2155444D01*
X1897888Y955802D02*
X1925828D01*
X1955292D02*
X1958848D01*
X1961388D02*
X1965452D01*
X2000504D02*
X2004060D01*
X2034032D02*
X2037588D01*
X2062988D02*
X2066544D01*
X2069592D02*
X2073148D01*
X2076196D02*
X2079752D01*
X2102612D02*
X2106168D01*
X2109216D02*
X2112772D01*
X2116328D02*
X2119376D01*
X2151888D02*
X2155444D01*
X1897888Y956310D02*
X1925828D01*
X1955292D02*
X1958848D01*
X1961388D02*
X1965452D01*
X2000504D02*
X2004060D01*
X2034032D02*
X2037588D01*
X2062988D02*
X2066544D01*
X2069592D02*
X2073148D01*
X2076196D02*
X2079752D01*
X2102612D02*
X2106168D01*
X2109216D02*
X2112772D01*
X2116328D02*
X2119376D01*
X2151888D02*
X2155444D01*
X1897888Y956818D02*
X1925828D01*
X1955292D02*
X1958848D01*
X1961388D02*
X1965452D01*
X2000504D02*
X2004060D01*
X2034032D02*
X2037588D01*
X2062988D02*
X2066544D01*
X2069592D02*
X2073148D01*
X2076196D02*
X2079752D01*
X2102612D02*
X2106168D01*
X2109216D02*
X2112772D01*
X2116328D02*
X2119376D01*
X2151888D02*
X2155444D01*
X1897888Y957326D02*
X1925828D01*
X1955292D02*
X1958848D01*
X1961388D02*
X1965452D01*
X2000504D02*
X2004060D01*
X2034032D02*
X2037588D01*
X2062988D02*
X2066544D01*
X2069592D02*
X2073148D01*
X2076196D02*
X2079752D01*
X2102612D02*
X2106168D01*
X2109216D02*
X2112772D01*
X2116328D02*
X2119376D01*
X2151888D02*
X2155444D01*
X1897888Y957834D02*
X1925828D01*
X1955292D02*
X1958848D01*
X1961388D02*
X1965452D01*
X2000504D02*
X2004060D01*
X2034032D02*
X2037588D01*
X2062988D02*
X2066544D01*
X2069592D02*
X2073148D01*
X2076196D02*
X2079752D01*
X2102612D02*
X2106168D01*
X2109216D02*
X2112772D01*
X2116328D02*
X2119376D01*
X2151888D02*
X2155444D01*
X1897888Y958342D02*
X1925828D01*
X1955292D02*
X1958848D01*
X1961388D02*
X1965452D01*
X2000504D02*
X2004060D01*
X2034032D02*
X2037588D01*
X2062988D02*
X2066544D01*
X2069592D02*
X2073148D01*
X2076196D02*
X2079752D01*
X2102612D02*
X2106168D01*
X2109216D02*
X2112772D01*
X2116328D02*
X2119376D01*
X2151888D02*
X2155444D01*
X1897888Y958850D02*
X1925828D01*
X1955292D02*
X1958848D01*
X1961388D02*
X1965452D01*
X2000504D02*
X2004060D01*
X2034032D02*
X2037588D01*
X2062988D02*
X2066544D01*
X2069592D02*
X2073148D01*
X2076196D02*
X2079752D01*
X2102612D02*
X2106168D01*
X2109216D02*
X2112772D01*
X2116328D02*
X2119376D01*
X2151888D02*
X2155444D01*
X1897888Y959358D02*
X1925828D01*
X1955292D02*
X1958848D01*
X1961388D02*
X1965452D01*
X2000504D02*
X2004060D01*
X2034032D02*
X2037588D01*
X2062988D02*
X2066544D01*
X2069592D02*
X2073148D01*
X2076196D02*
X2079752D01*
X2102612D02*
X2106168D01*
X2109216D02*
X2112772D01*
X2116328D02*
X2119376D01*
X2151888D02*
X2155444D01*
X1897888Y959866D02*
X1925828D01*
X1955292D02*
X1958848D01*
X1961388D02*
X1965452D01*
X2000504D02*
X2004060D01*
X2034032D02*
X2037588D01*
X2062988D02*
X2066544D01*
X2069592D02*
X2073148D01*
X2076196D02*
X2079752D01*
X2102612D02*
X2106168D01*
X2109216D02*
X2112772D01*
X2116328D02*
X2119376D01*
X2151888D02*
X2155444D01*
X1897888Y960374D02*
X1925828D01*
X1955292D02*
X1958848D01*
X1961388D02*
X1965452D01*
X2000504D02*
X2004060D01*
X2034032D02*
X2037588D01*
X2062988D02*
X2066544D01*
X2069592D02*
X2073148D01*
X2075688D02*
X2079752D01*
X2102612D02*
X2106168D01*
X2109216D02*
X2112772D01*
X2115820D02*
X2119376D01*
X2151888D02*
X2155444D01*
X1897888Y960882D02*
X1925828D01*
X1955292D02*
X1965452D01*
X1997456D02*
X2007616D01*
X2034032D02*
X2037588D01*
X2062988D02*
X2079752D01*
X2102612D02*
X2119376D01*
X2151888D02*
X2155444D01*
X1897888Y961390D02*
X1925828D01*
X1955292D02*
X1965452D01*
X1997456D02*
X2007616D01*
X2034032D02*
X2037588D01*
X2062988D02*
X2079752D01*
X2102612D02*
X2119376D01*
X2151888D02*
X2155444D01*
X1897888Y961898D02*
X1925828D01*
X1955292D02*
X1965452D01*
X1997456D02*
X2007616D01*
X2034032D02*
X2037588D01*
X2062988D02*
X2079752D01*
X2102612D02*
X2119376D01*
X2151888D02*
X2155444D01*
X1897888Y962406D02*
X1925828D01*
X1955292D02*
X1965452D01*
X1997456D02*
X2007616D01*
X2034032D02*
X2037588D01*
X2062988D02*
X2079752D01*
X2102612D02*
X2119376D01*
X2151888D02*
X2155444D01*
X1897888Y962914D02*
X1925828D01*
X1955292D02*
X1965452D01*
X1997456D02*
X2007616D01*
X2034032D02*
X2037588D01*
X2062988D02*
X2079752D01*
X2102612D02*
X2119376D01*
X2151888D02*
X2155444D01*
X1897888Y963422D02*
X1925828D01*
X1955292D02*
X1965452D01*
X1997456D02*
X2007616D01*
X2034540D02*
X2037588D01*
X2062988D02*
X2079752D01*
X2102612D02*
X2119376D01*
X2151888D02*
X2155444D01*
X1897888Y963930D02*
X1925828D01*
X2151888D02*
X2155444D01*
X1897888Y964438D02*
X1925828D01*
X2151888D02*
X2155444D01*
X1897888Y964946D02*
X1925828D01*
X2151888D02*
X2155444D01*
X1897888Y965454D02*
X1925828D01*
X2151888D02*
X2155444D01*
X1897888Y965962D02*
X1925828D01*
X2151888D02*
X2155444D01*
X1897888Y966470D02*
X1925828D01*
X2151888D02*
X2155444D01*
X1897888Y966978D02*
X1925828D01*
X2151888D02*
X2155444D01*
X1897888Y967486D02*
X1925828D01*
X2151888D02*
X2155444D01*
X1897888Y967994D02*
X1925828D01*
X2151888D02*
X2155444D01*
X1897888Y968502D02*
X1925828D01*
X2151888D02*
X2155444D01*
X1897888Y969010D02*
X1925828D01*
X2151888D02*
X2155444D01*
X1897888Y969518D02*
X1925828D01*
X2151888D02*
X2155444D01*
X1897888Y970026D02*
X1925828D01*
X2151888D02*
X2155444D01*
X1897888Y970534D02*
X1925828D01*
X2151888D02*
X2155444D01*
X1897888Y971042D02*
X1925828D01*
X2151888D02*
X2155444D01*
X1897888Y971550D02*
X1925828D01*
X2151888D02*
X2155444D01*
X1897888Y972058D02*
X1925828D01*
X2151888D02*
X2155444D01*
X1897888Y972566D02*
X1925828D01*
X2151888D02*
X2155444D01*
X1897888Y973074D02*
X1925828D01*
X2151888D02*
X2155444D01*
X1897888Y973582D02*
X1925828D01*
X2151888D02*
X2155444D01*
X1897888Y974090D02*
X1925828D01*
X2151888D02*
X2155444D01*
X1897888Y974598D02*
X1925828D01*
X2151888D02*
X2155444D01*
X1897888Y975106D02*
X1925828D01*
X2151888D02*
X2155444D01*
X1897888Y975614D02*
X1925828D01*
X2151888D02*
X2155444D01*
X1897888Y976122D02*
X1925828D01*
X2151888D02*
X2155444D01*
X1897888Y976630D02*
X1925828D01*
X2151888D02*
X2155444D01*
X1897888Y977138D02*
X1925828D01*
X2151888D02*
X2155444D01*
X1897888Y977646D02*
X1925828D01*
X2151888D02*
X2155444D01*
X1897888Y978154D02*
X1925828D01*
X2151888D02*
X2155444D01*
X1897888Y978662D02*
X1925828D01*
X2151888D02*
X2155444D01*
X1897888Y979170D02*
X1925828D01*
X2151888D02*
X2155444D01*
X1897888Y979678D02*
X1925828D01*
X2151888D02*
X2155444D01*
X1897888Y980186D02*
X1925828D01*
X2151888D02*
X2155444D01*
X1897888Y980694D02*
X1925828D01*
X2151888D02*
X2155444D01*
X1897888Y981202D02*
X1925828D01*
X2151888D02*
X2155444D01*
X1897888Y981710D02*
X1925828D01*
X2151888D02*
X2155444D01*
X1897888Y982218D02*
X1925828D01*
X2151888D02*
X2155444D01*
X1897888Y982726D02*
X1925828D01*
X2151888D02*
X2155444D01*
X1897888Y983234D02*
X1925828D01*
X2151888D02*
X2155444D01*
X1897888Y983742D02*
X1925828D01*
X2151888D02*
X2155444D01*
X1897888Y984250D02*
X1925828D01*
X2151888D02*
X2155444D01*
X1897888Y984758D02*
X1925828D01*
X2151888D02*
X2155444D01*
X1897888Y985266D02*
X1925828D01*
X2151888D02*
X2155444D01*
X1897888Y985774D02*
X1925828D01*
X2151888D02*
X2155444D01*
X1897888Y986282D02*
X1925828D01*
X2151888D02*
X2155444D01*
X1897888Y986790D02*
X1925828D01*
X2151888D02*
X2155444D01*
X1897888Y987298D02*
X1925828D01*
X2151888D02*
X2155444D01*
X1897888Y987806D02*
X1925828D01*
X2151888D02*
X2155444D01*
X1897888Y988314D02*
X1925828D01*
X2151888D02*
X2155444D01*
X1897888Y988822D02*
X1925828D01*
X2151888D02*
X2155444D01*
X1897888Y989330D02*
X2155444D01*
X1897888Y989838D02*
X2155444D01*
X1897888Y990346D02*
X2155444D01*
X1897888Y990854D02*
X2155444D01*
X1897888Y991362D02*
X2155444D01*
X1897888Y991870D02*
X2155444D01*
X1897888Y992378D02*
X2155444D01*
M02*
