G04*
G04 #@! TF.GenerationSoftware,Altium Limited,Altium Designer,20.1.7 (139)*
G04*
G04 Layer_Color=13158*
%FSLAX44Y44*%
%MOMM*%
G71*
G04*
G04 #@! TF.SameCoordinates,741834D1-4314-455D-B734-137E6C24AB52*
G04*
G04*
G04 #@! TF.FilePolarity,Negative*
G04*
G01*
G75*
%ADD29R,1.5000X0.3000*%
%ADD30R,0.3000X1.5000*%
%ADD45R,2.1082X12.2032*%
G04:AMPARAMS|DCode=46|XSize=12.2032mm|YSize=4.2032mm|CornerRadius=1.1016mm|HoleSize=0mm|Usage=FLASHONLY|Rotation=90.000|XOffset=0mm|YOffset=0mm|HoleType=Round|Shape=RoundedRectangle|*
%AMROUNDEDRECTD46*
21,1,12.2032,2.0000,0,0,90.0*
21,1,10.0000,4.2032,0,0,90.0*
1,1,2.2032,1.0000,5.0000*
1,1,2.2032,1.0000,-5.0000*
1,1,2.2032,-1.0000,-5.0000*
1,1,2.2032,-1.0000,5.0000*
%
%ADD46ROUNDEDRECTD46*%
%ADD47R,0.8382X0.8382*%
%ADD48R,0.8382X1.2192*%
G04:AMPARAMS|DCode=49|XSize=1.4732mm|YSize=1.1532mm|CornerRadius=0.2441mm|HoleSize=0mm|Usage=FLASHONLY|Rotation=0.000|XOffset=0mm|YOffset=0mm|HoleType=Round|Shape=RoundedRectangle|*
%AMROUNDEDRECTD49*
21,1,1.4732,0.6650,0,0,0.0*
21,1,0.9850,1.1532,0,0,0.0*
1,1,0.4882,0.4925,-0.3325*
1,1,0.4882,-0.4925,-0.3325*
1,1,0.4882,-0.4925,0.3325*
1,1,0.4882,0.4925,0.3325*
%
%ADD49ROUNDEDRECTD49*%
%ADD50R,11.0236X9.6012*%
%ADD51R,1.5748X4.8514*%
G04:AMPARAMS|DCode=52|XSize=1.4732mm|YSize=1.3532mm|CornerRadius=0.2741mm|HoleSize=0mm|Usage=FLASHONLY|Rotation=270.000|XOffset=0mm|YOffset=0mm|HoleType=Round|Shape=RoundedRectangle|*
%AMROUNDEDRECTD52*
21,1,1.4732,0.8050,0,0,270.0*
21,1,0.9250,1.3532,0,0,270.0*
1,1,0.5482,-0.4025,-0.4625*
1,1,0.5482,-0.4025,0.4625*
1,1,0.5482,0.4025,0.4625*
1,1,0.5482,0.4025,-0.4625*
%
%ADD52ROUNDEDRECTD52*%
G04:AMPARAMS|DCode=53|XSize=2.0032mm|YSize=1.6032mm|CornerRadius=0.4516mm|HoleSize=0mm|Usage=FLASHONLY|Rotation=90.000|XOffset=0mm|YOffset=0mm|HoleType=Round|Shape=RoundedRectangle|*
%AMROUNDEDRECTD53*
21,1,2.0032,0.7000,0,0,90.0*
21,1,1.1000,1.6032,0,0,90.0*
1,1,0.9032,0.3500,0.5500*
1,1,0.9032,0.3500,-0.5500*
1,1,0.9032,-0.3500,-0.5500*
1,1,0.9032,-0.3500,0.5500*
%
%ADD53ROUNDEDRECTD53*%
%ADD54R,1.6032X2.0032*%
%ADD55R,1.6032X0.5032*%
%ADD56R,0.8382X0.8382*%
%ADD57R,1.2192X0.8382*%
%ADD58O,0.8032X1.6532*%
G04:AMPARAMS|DCode=59|XSize=1.6032mm|YSize=1.2032mm|CornerRadius=0.3516mm|HoleSize=0mm|Usage=FLASHONLY|Rotation=90.000|XOffset=0mm|YOffset=0mm|HoleType=Round|Shape=RoundedRectangle|*
%AMROUNDEDRECTD59*
21,1,1.6032,0.5000,0,0,90.0*
21,1,0.9000,1.2032,0,0,90.0*
1,1,0.7032,0.2500,0.4500*
1,1,0.7032,0.2500,-0.4500*
1,1,0.7032,-0.2500,-0.4500*
1,1,0.7032,-0.2500,0.4500*
%
%ADD59ROUNDEDRECTD59*%
%ADD60R,1.4732X1.4732*%
G04:AMPARAMS|DCode=61|XSize=1.4732mm|YSize=1.1532mm|CornerRadius=0.2441mm|HoleSize=0mm|Usage=FLASHONLY|Rotation=90.000|XOffset=0mm|YOffset=0mm|HoleType=Round|Shape=RoundedRectangle|*
%AMROUNDEDRECTD61*
21,1,1.4732,0.6650,0,0,90.0*
21,1,0.9850,1.1532,0,0,90.0*
1,1,0.4882,0.3325,0.4925*
1,1,0.4882,0.3325,-0.4925*
1,1,0.4882,-0.3325,-0.4925*
1,1,0.4882,-0.3325,0.4925*
%
%ADD61ROUNDEDRECTD61*%
%ADD62R,9.6012X11.0236*%
%ADD63R,4.8514X1.5748*%
G04:AMPARAMS|DCode=64|XSize=2.4032mm|YSize=1.7532mm|CornerRadius=0.4891mm|HoleSize=0mm|Usage=FLASHONLY|Rotation=270.000|XOffset=0mm|YOffset=0mm|HoleType=Round|Shape=RoundedRectangle|*
%AMROUNDEDRECTD64*
21,1,2.4032,0.7750,0,0,270.0*
21,1,1.4250,1.7532,0,0,270.0*
1,1,0.9782,-0.3875,-0.7125*
1,1,0.9782,-0.3875,0.7125*
1,1,0.9782,0.3875,0.7125*
1,1,0.9782,0.3875,-0.7125*
%
%ADD64ROUNDEDRECTD64*%
G04:AMPARAMS|DCode=65|XSize=1.1032mm|YSize=1.1032mm|CornerRadius=0.2366mm|HoleSize=0mm|Usage=FLASHONLY|Rotation=270.000|XOffset=0mm|YOffset=0mm|HoleType=Round|Shape=RoundedRectangle|*
%AMROUNDEDRECTD65*
21,1,1.1032,0.6300,0,0,270.0*
21,1,0.6300,1.1032,0,0,270.0*
1,1,0.4732,-0.3150,-0.3150*
1,1,0.4732,-0.3150,0.3150*
1,1,0.4732,0.3150,0.3150*
1,1,0.4732,0.3150,-0.3150*
%
%ADD65ROUNDEDRECTD65*%
G04:AMPARAMS|DCode=66|XSize=1.4732mm|YSize=1.3532mm|CornerRadius=0.2741mm|HoleSize=0mm|Usage=FLASHONLY|Rotation=180.000|XOffset=0mm|YOffset=0mm|HoleType=Round|Shape=RoundedRectangle|*
%AMROUNDEDRECTD66*
21,1,1.4732,0.8050,0,0,180.0*
21,1,0.9250,1.3532,0,0,180.0*
1,1,0.5482,-0.4625,0.4025*
1,1,0.5482,0.4625,0.4025*
1,1,0.5482,0.4625,-0.4025*
1,1,0.5482,-0.4625,-0.4025*
%
%ADD66ROUNDEDRECTD66*%
G04:AMPARAMS|DCode=67|XSize=2.9032mm|YSize=1.3532mm|CornerRadius=0.3891mm|HoleSize=0mm|Usage=FLASHONLY|Rotation=0.000|XOffset=0mm|YOffset=0mm|HoleType=Round|Shape=RoundedRectangle|*
%AMROUNDEDRECTD67*
21,1,2.9032,0.5750,0,0,0.0*
21,1,2.1250,1.3532,0,0,0.0*
1,1,0.7782,1.0625,-0.2875*
1,1,0.7782,-1.0625,-0.2875*
1,1,0.7782,-1.0625,0.2875*
1,1,0.7782,1.0625,0.2875*
%
%ADD67ROUNDEDRECTD67*%
G04:AMPARAMS|DCode=68|XSize=2.9032mm|YSize=1.3532mm|CornerRadius=0.3891mm|HoleSize=0mm|Usage=FLASHONLY|Rotation=270.000|XOffset=0mm|YOffset=0mm|HoleType=Round|Shape=RoundedRectangle|*
%AMROUNDEDRECTD68*
21,1,2.9032,0.5750,0,0,270.0*
21,1,2.1250,1.3532,0,0,270.0*
1,1,0.7782,-0.2875,-1.0625*
1,1,0.7782,-0.2875,1.0625*
1,1,0.7782,0.2875,1.0625*
1,1,0.7782,0.2875,-1.0625*
%
%ADD68ROUNDEDRECTD68*%
%ADD69R,1.8532X1.8532*%
%ADD70C,1.8532*%
%ADD71R,2.7432X2.7432*%
%ADD72R,2.7432X2.7432*%
%ADD73C,1.8542*%
%ADD74R,1.8542X1.8542*%
%ADD75R,1.7272X1.7272*%
%ADD76C,1.7272*%
%ADD77R,3.3032X2.6032*%
%ADD78R,1.7032X2.0032*%
%ADD79C,0.2032*%
%ADD80R,1.8542X1.8542*%
%ADD81R,1.7272X1.7272*%
%ADD82C,4.2032*%
%ADD83C,1.4732*%
D29*
X2109470Y628721D02*
D03*
Y623720D02*
D03*
Y618721D02*
D03*
Y613720D02*
D03*
Y608721D02*
D03*
Y603720D02*
D03*
Y598721D02*
D03*
Y593720D02*
D03*
Y588721D02*
D03*
Y583720D02*
D03*
Y578721D02*
D03*
Y573720D02*
D03*
Y568721D02*
D03*
Y563720D02*
D03*
Y558721D02*
D03*
Y553720D02*
D03*
X1995470D02*
D03*
Y558721D02*
D03*
Y563720D02*
D03*
Y568721D02*
D03*
Y573720D02*
D03*
Y578721D02*
D03*
Y583720D02*
D03*
Y588721D02*
D03*
Y593720D02*
D03*
Y598721D02*
D03*
Y603720D02*
D03*
Y608721D02*
D03*
Y613720D02*
D03*
Y618721D02*
D03*
Y623720D02*
D03*
Y628721D02*
D03*
D30*
X2014969Y648221D02*
D03*
X2019971D02*
D03*
X2024969D02*
D03*
X2029971D02*
D03*
X2034969D02*
D03*
X2039971D02*
D03*
X2044969D02*
D03*
X2049971D02*
D03*
X2054969D02*
D03*
X2059971D02*
D03*
X2064969D02*
D03*
X2069971D02*
D03*
X2074969D02*
D03*
X2079971D02*
D03*
X2084969D02*
D03*
X2089971D02*
D03*
Y534221D02*
D03*
X2084969D02*
D03*
X2079971D02*
D03*
X2074969D02*
D03*
X2069971D02*
D03*
X2064969D02*
D03*
X2059971D02*
D03*
X2054969D02*
D03*
X2049971D02*
D03*
X2044969D02*
D03*
X2039971D02*
D03*
X2034969D02*
D03*
X2029971D02*
D03*
X2024969D02*
D03*
X2019971D02*
D03*
X2014969D02*
D03*
D45*
X2433574Y636778D02*
D03*
X2506726D02*
D03*
D46*
X2522220D02*
D03*
X2418842D02*
D03*
D47*
X1937258Y953008D02*
D03*
X1916938Y933958D02*
D03*
X1937258D02*
D03*
X2423160Y953008D02*
D03*
X2402840Y933958D02*
D03*
X2423160D02*
D03*
X2181098Y953008D02*
D03*
X2160778Y933958D02*
D03*
X2181098D02*
D03*
X2073910Y910844D02*
D03*
X2094230D02*
D03*
X2073910Y891794D02*
D03*
X1685290Y262763D02*
D03*
X1705610D02*
D03*
X1685290Y243713D02*
D03*
X1816100Y577723D02*
D03*
X1836420D02*
D03*
X1816100Y558673D02*
D03*
X1841500Y262763D02*
D03*
X1861820D02*
D03*
X1841500Y243713D02*
D03*
X1659890Y420243D02*
D03*
X1680210D02*
D03*
X1659890Y401193D02*
D03*
X1816100Y420243D02*
D03*
X1836420D02*
D03*
X1816100Y401193D02*
D03*
X1659890Y577723D02*
D03*
X1680210D02*
D03*
X1659890Y558673D02*
D03*
X1692910Y933704D02*
D03*
X1672590D02*
D03*
X1692910Y952754D02*
D03*
D48*
X1916938Y951103D02*
D03*
X2402840D02*
D03*
X2160778D02*
D03*
X2094230Y893699D02*
D03*
X1705610Y245618D02*
D03*
X1836420Y560578D02*
D03*
X1861820Y245618D02*
D03*
X1680210Y403098D02*
D03*
X1836420D02*
D03*
X1680210Y560578D02*
D03*
X1672590Y950849D02*
D03*
D49*
X2129790Y890684D02*
D03*
Y910684D02*
D03*
X2109470Y890684D02*
D03*
Y910684D02*
D03*
X2354580Y952848D02*
D03*
Y932848D02*
D03*
X2112518Y952848D02*
D03*
Y932848D02*
D03*
X1868678Y952848D02*
D03*
Y932848D02*
D03*
X1624330Y952594D02*
D03*
Y932594D02*
D03*
X2379980Y932848D02*
D03*
Y952848D02*
D03*
X2137918Y932848D02*
D03*
Y952848D02*
D03*
X1894078Y932848D02*
D03*
Y952848D02*
D03*
X1649730Y932594D02*
D03*
Y952594D02*
D03*
X2284730Y601378D02*
D03*
Y621378D02*
D03*
X2299970Y581058D02*
D03*
Y601058D02*
D03*
X2322830Y583278D02*
D03*
Y563278D02*
D03*
X2301240Y656938D02*
D03*
Y636938D02*
D03*
X2283460Y656938D02*
D03*
Y636938D02*
D03*
X2324100Y696308D02*
D03*
Y676308D02*
D03*
D50*
X2103755Y736398D02*
D03*
X1649910Y1107694D02*
D03*
X2380160Y1107948D02*
D03*
X2138098D02*
D03*
X1894258D02*
D03*
D51*
X2078355Y858282D02*
D03*
X2129155D02*
D03*
X1675310Y985810D02*
D03*
X1624510D02*
D03*
X2354760Y986064D02*
D03*
X2405560D02*
D03*
X2112698D02*
D03*
X2163498D02*
D03*
X1868858D02*
D03*
X1919658D02*
D03*
D52*
X2039984Y876300D02*
D03*
X2021984D02*
D03*
X2442100Y970788D02*
D03*
X2460100D02*
D03*
X2200038D02*
D03*
X2218038D02*
D03*
X1956198D02*
D03*
X1974198D02*
D03*
X1711850Y970534D02*
D03*
X1729850D02*
D03*
D53*
X2169730Y567280D02*
D03*
D54*
Y611280D02*
D03*
X2145730D02*
D03*
Y567280D02*
D03*
D55*
X2236564Y281802D02*
D03*
X2280564D02*
D03*
Y301802D02*
D03*
Y296802D02*
D03*
Y291802D02*
D03*
Y286802D02*
D03*
X2236564Y301802D02*
D03*
Y296802D02*
D03*
Y291802D02*
D03*
Y286802D02*
D03*
D56*
X1826006Y798720D02*
D03*
Y778400D02*
D03*
X1806956Y798720D02*
D03*
D57*
X1808861Y778400D02*
D03*
D58*
X2317750Y602598D02*
D03*
X2330450D02*
D03*
X2343150D02*
D03*
X2355850D02*
D03*
X2317750Y657098D02*
D03*
X2330450D02*
D03*
X2343150D02*
D03*
X2355850D02*
D03*
D59*
X2310458Y395064D02*
D03*
X2292458D02*
D03*
X2310458Y433164D02*
D03*
X2292458D02*
D03*
D60*
X2137650Y290830D02*
D03*
X2167650D02*
D03*
X2167650Y232410D02*
D03*
X2137650D02*
D03*
D61*
X1973420Y537210D02*
D03*
X1953420D02*
D03*
X1807116Y730140D02*
D03*
X1827116D02*
D03*
Y755540D02*
D03*
X1807116D02*
D03*
X2344478Y395064D02*
D03*
X2324478D02*
D03*
X2344478Y433164D02*
D03*
X2324478D02*
D03*
X2279810Y566928D02*
D03*
X2299810D02*
D03*
D62*
X1652016Y755720D02*
D03*
D63*
X1773900Y781120D02*
D03*
Y730320D02*
D03*
D64*
X2249170Y813488D02*
D03*
Y772488D02*
D03*
X2379980Y588338D02*
D03*
Y629338D02*
D03*
D65*
X2165230Y627380D02*
D03*
X2150230D02*
D03*
Y551180D02*
D03*
X2165230D02*
D03*
X1968380Y523240D02*
D03*
X1953380D02*
D03*
X2350650Y563118D02*
D03*
X2335650D02*
D03*
X2350650Y583438D02*
D03*
X2335650D02*
D03*
X2367400Y658368D02*
D03*
X2382400D02*
D03*
D66*
X1666240Y245508D02*
D03*
Y263508D02*
D03*
X1797050Y560468D02*
D03*
Y578468D02*
D03*
X1822450Y245508D02*
D03*
Y263508D02*
D03*
X1640840Y402988D02*
D03*
Y420988D02*
D03*
X1797050Y402988D02*
D03*
Y420988D02*
D03*
X1640840Y560468D02*
D03*
Y578468D02*
D03*
X1789176Y817660D02*
D03*
Y835660D02*
D03*
D67*
X2373660Y560082D02*
D03*
Y530082D02*
D03*
D68*
X2375674Y716758D02*
D03*
X2345674D02*
D03*
X2375674Y683738D02*
D03*
X2345674D02*
D03*
D69*
X1811528Y333756D02*
D03*
X1655318Y333502D02*
D03*
X1786128Y491236D02*
D03*
X1629918Y490982D02*
D03*
X1786636Y648208D02*
D03*
X1629918Y648462D02*
D03*
D70*
X1811528Y308356D02*
D03*
X1655318Y308102D02*
D03*
X1786128Y465836D02*
D03*
X1629918Y465582D02*
D03*
X1786636Y622808D02*
D03*
X1629918Y623062D02*
D03*
D71*
X1662176Y895096D02*
D03*
Y844804D02*
D03*
X2440940Y742696D02*
D03*
Y792988D02*
D03*
D72*
X1740154Y1097280D02*
D03*
X1790446D02*
D03*
X2034794Y1097534D02*
D03*
X1984502D02*
D03*
X2278126Y1097788D02*
D03*
X2227834D02*
D03*
X2520696Y1097534D02*
D03*
X2470404D02*
D03*
X1964436Y746252D02*
D03*
X2014728D02*
D03*
D73*
X1909064Y689356D02*
D03*
Y663956D02*
D03*
Y714756D02*
D03*
X1909318Y473456D02*
D03*
Y448056D02*
D03*
Y498856D02*
D03*
X2000504Y420370D02*
D03*
Y394970D02*
D03*
Y445770D02*
D03*
X2016760Y248920D02*
D03*
X1965960D02*
D03*
X1991360D02*
D03*
D74*
X1909064Y638556D02*
D03*
X1909318Y422656D02*
D03*
X2000504Y369570D02*
D03*
D75*
X2014982Y818454D02*
D03*
X2469896Y1023874D02*
D03*
X2227834D02*
D03*
X1983994D02*
D03*
X1739646Y1023620D02*
D03*
D76*
X2014982Y838454D02*
D03*
X2367374Y234732D02*
D03*
X2342374D02*
D03*
X2392374D02*
D03*
X2417374D02*
D03*
X2286094Y236002D02*
D03*
X2261094D02*
D03*
X2236094D02*
D03*
X2375118Y382314D02*
D03*
X2400518Y395014D02*
D03*
X2375118Y407714D02*
D03*
X2400518Y420414D02*
D03*
X2375118Y433114D02*
D03*
X2400518Y445814D02*
D03*
X2469896Y1003874D02*
D03*
X2227834D02*
D03*
X1983994D02*
D03*
X1739646Y1003620D02*
D03*
X1756156Y843788D02*
D03*
D77*
X2336800Y629848D02*
D03*
D78*
X1976374Y303022D02*
D03*
X2077974D02*
D03*
X2052574D02*
D03*
X2027174D02*
D03*
X2001774D02*
D03*
D79*
X2464018Y363314D02*
D03*
Y464914D02*
D03*
D80*
X1940560Y248920D02*
D03*
D81*
X1736156Y843788D02*
D03*
D82*
X2529544Y1184424D02*
D03*
X1579880Y1183640D02*
D03*
X1579544Y234424D02*
D03*
X2529544D02*
D03*
D83*
X2343150Y629848D02*
D03*
X2330450D02*
D03*
M02*
